<svg width="40" height="40" viewBox="0 0 40 40" fill="none" xmlns="http://www.w3.org/2000/svg">
<circle cx="20" cy="20" r="20" fill="#DC1818"/>
<path d="M20 10.375C18.0964 10.375 16.2355 10.9395 14.6526 11.9971C13.0698 13.0547 11.8362 14.5579 11.1077 16.3167C10.3792 18.0754 10.1886 20.0107 10.5599 21.8777C10.9313 23.7448 11.848 25.4598 13.1941 26.8059C14.5402 28.152 16.2552 29.0687 18.1223 29.4401C19.9893 29.8114 21.9246 29.6208 23.6833 28.8923C25.4421 28.1638 26.9453 26.9302 28.0029 25.3474C29.0605 23.7645 29.625 21.9036 29.625 20C29.625 17.4473 28.6109 14.9991 26.8059 13.1941C25.0009 11.3891 22.5527 10.375 20 10.375ZM15.1875 20.2819L14.2181 19.3125L15.5931 17.9375L14.2181 16.5625L15.1875 15.5931L16.5625 16.9681L17.9375 15.5931L18.9069 16.5625L17.5319 17.9375L18.9069 19.3125L17.9375 20.2819L16.5625 18.9069L15.1875 20.2819ZM20 26.1875C19.5921 26.1875 19.1933 26.0665 18.8541 25.8399C18.515 25.6133 18.2506 25.2912 18.0945 24.9143C17.9384 24.5374 17.8976 24.1227 17.9771 23.7226C18.0567 23.3225 18.2532 22.955 18.5416 22.6666C18.83 22.3781 19.1975 22.1817 19.5976 22.1021C19.9977 22.0225 20.4124 22.0634 20.7893 22.2195C21.1662 22.3756 21.4883 22.64 21.7149 22.9791C21.9415 23.3183 22.0625 23.7171 22.0625 24.125C22.0625 24.672 21.8452 25.1966 21.4584 25.5834C21.0716 25.9702 20.547 26.1875 20 26.1875ZM25.7819 19.3125L24.8125 20.2819L23.4375 18.9069L22.0625 20.2819L21.0931 19.3125L22.4681 17.9375L21.0931 16.5625L22.0625 15.5931L23.4375 16.9681L24.8125 15.5931L25.7819 16.5625L24.4069 17.9375L25.7819 19.3125Z" fill="#FDFEFF"/>
</svg>
