<svg width="40" height="40" viewBox="0 0 40 40" fill="none" xmlns="http://www.w3.org/2000/svg">
<circle cx="20" cy="20" r="20" fill="#249FEB"/>
<path fill-rule="evenodd" clip-rule="evenodd" d="M14.0409 12.2931C14.3105 12.4116 14.5222 12.6323 14.6293 12.9067C14.7365 13.181 14.7304 13.4867 14.6125 13.7566C13.7559 15.7209 13.3155 17.8413 13.3191 19.9842C13.3191 22.2006 13.7817 24.3057 14.6136 26.2118C14.721 26.4801 14.7198 26.7797 14.6102 27.0471C14.5006 27.3146 14.2911 27.5288 14.0263 27.6445C13.7614 27.7601 13.4619 27.7681 13.1912 27.6668C12.9206 27.5654 12.7 27.3626 12.5763 27.1015C11.5964 24.8568 11.0921 22.4335 11.095 19.9842C11.095 17.4554 11.6232 15.0466 12.5763 12.867C12.6347 12.7331 12.719 12.6121 12.8242 12.5108C12.9295 12.4095 13.0537 12.3299 13.1897 12.2766C13.3257 12.2234 13.4709 12.1974 13.6169 12.2002C13.763 12.2031 13.907 12.2346 14.0409 12.2931ZM23.2833 16.648C22.783 16.6481 22.2892 16.7607 21.8384 16.9775C21.3876 17.1942 20.9913 17.5096 20.6788 17.9002L20.314 18.3561L20.1906 18.0459C20.0255 17.6334 19.7407 17.2798 19.3728 17.0306C19.005 16.7815 18.5709 16.6482 18.1266 16.648H17.7674C17.4725 16.648 17.1896 16.7652 16.981 16.9737C16.7725 17.1823 16.6553 17.4651 16.6553 17.7601C16.6553 18.055 16.7725 18.3379 16.981 18.5464C17.1896 18.755 17.4725 18.8721 17.7674 18.8721H18.1266L18.7182 20.3512L17.5672 21.7913C17.463 21.9215 17.3308 22.0266 17.1805 22.0988C17.0301 22.171 16.8655 22.2084 16.6987 22.2084H16.6553C16.3604 22.2084 16.0775 22.3255 15.869 22.5341C15.6604 22.7426 15.5433 23.0255 15.5433 23.3204C15.5433 23.6154 15.6604 23.8982 15.869 24.1068C16.0775 24.3153 16.3604 24.4325 16.6553 24.4325H16.6987C17.1989 24.4324 17.6927 24.3198 18.1436 24.103C18.5944 23.8863 18.9907 23.5709 19.3032 23.1803L19.6679 22.7244L19.7914 23.0346C19.9565 23.4473 20.2415 23.801 20.6096 24.0502C20.9777 24.2994 21.412 24.4325 21.8565 24.4325H22.2157C22.5106 24.4325 22.7935 24.3153 23.002 24.1068C23.2106 23.8982 23.3277 23.6154 23.3277 23.3204C23.3277 23.0255 23.2106 22.7426 23.002 22.5341C22.7935 22.3255 22.5106 22.2084 22.2157 22.2084H21.8565L21.2649 20.7293L22.4158 19.2892C22.5201 19.159 22.6523 19.0539 22.8026 18.9817C22.9529 18.9095 23.1176 18.8721 23.2844 18.8721H23.3277C23.6227 18.8721 23.9055 18.755 24.1141 18.5464C24.3227 18.3379 24.4398 18.055 24.4398 17.7601C24.4398 17.4651 24.3227 17.1823 24.1141 16.9737C23.9055 16.7652 23.6227 16.648 23.3277 16.648H23.2844H23.2833ZM25.3673 13.7566C25.2511 13.4866 25.2466 13.1816 25.3547 12.9083C25.4627 12.6349 25.6746 12.4155 25.944 12.2979C26.2134 12.1804 26.5184 12.1742 26.7923 12.2809C27.0662 12.3875 27.2867 12.5982 27.4057 12.867C28.3859 15.1116 28.8907 17.5349 28.8881 19.9842C28.8881 22.5131 28.3599 24.9218 27.4068 27.1015C27.3514 27.2397 27.2689 27.3654 27.164 27.4711C27.0591 27.5768 26.9341 27.6604 26.7963 27.7169C26.6585 27.7734 26.5108 27.8016 26.3619 27.7999C26.213 27.7983 26.0659 27.7667 25.9295 27.7071C25.793 27.6475 25.6699 27.5611 25.5674 27.453C25.465 27.3449 25.3853 27.2174 25.333 27.0779C25.2808 26.9385 25.2571 26.79 25.2634 26.6412C25.2697 26.4924 25.3057 26.3464 25.3695 26.2118C26.2265 24.2476 26.6673 22.1272 26.664 19.9842C26.664 17.7679 26.2013 15.6627 25.3684 13.7566H25.3673Z" fill="#FDFEFF"/>
</svg>
