<svg width="14" height="12" viewBox="0 0 14 12" fill="none" xmlns="http://www.w3.org/2000/svg">
<path fill-rule="evenodd" clip-rule="evenodd" d="M2.41606 0.0716389C2.6235 0.162794 2.7863 0.332524 2.86873 0.54358C2.95117 0.754637 2.9465 0.989777 2.85575 1.1974C2.19683 2.70836 1.85808 4.33946 1.86088 5.98785C1.86088 7.69274 2.21674 9.31208 2.85661 10.7783C2.93928 10.9847 2.93835 11.2151 2.85402 11.4209C2.7697 11.6266 2.60859 11.7914 2.40485 11.8803C2.2011 11.9693 1.97072 11.9755 1.76251 11.8975C1.55431 11.8195 1.38464 11.6636 1.28945 11.4627C0.535718 9.73596 0.147757 7.87188 0.150004 5.98785C0.150004 4.04258 0.556337 2.1897 1.28945 0.513045C1.33442 0.410073 1.39924 0.316971 1.48021 0.239057C1.56117 0.161142 1.65669 0.0999419 1.76131 0.0589514C1.86593 0.017961 1.9776 -0.00201637 2.08995 0.00016057C2.20229 0.00233751 2.3131 0.0266261 2.41606 0.0716389ZM9.5256 3.42153C9.14081 3.42162 8.76097 3.50823 8.41418 3.67497C8.06739 3.8417 7.76253 4.08428 7.52217 4.38476L7.24158 4.73549L7.14663 4.49682C7.01966 4.17951 6.80057 3.90749 6.51759 3.71584C6.23461 3.52419 5.90071 3.42168 5.55894 3.42153H5.28263C5.05576 3.42153 4.83817 3.51166 4.67775 3.67209C4.51732 3.83251 4.42719 4.0501 4.42719 4.27697C4.42719 4.50385 4.51732 4.72143 4.67775 4.88186C4.83817 5.04228 5.05576 5.13241 5.28263 5.13241H5.55894L6.01403 6.27014L5.12865 7.37793C5.04847 7.47808 4.94679 7.55891 4.83115 7.61444C4.7155 7.66997 4.58884 7.69877 4.46056 7.69872H4.42719C4.20032 7.69872 3.98273 7.78885 3.82231 7.94928C3.66188 8.1097 3.57176 8.32728 3.57176 8.55416C3.57176 8.78104 3.66188 8.99862 3.82231 9.15905C3.98273 9.31947 4.20032 9.4096 4.42719 9.4096H4.46056C4.84534 9.40951 5.22519 9.3229 5.57198 9.15617C5.91877 8.98944 6.22363 8.74685 6.46399 8.44638L6.74457 8.09565L6.83953 8.33431C6.96655 8.65176 7.18578 8.92387 7.46893 9.11553C7.75208 9.3072 8.08616 9.40962 8.42808 9.4096H8.70438C8.93126 9.4096 9.14884 9.31947 9.30927 9.15905C9.46969 8.99862 9.55982 8.78104 9.55982 8.55416C9.55982 8.32728 9.46969 8.1097 9.30927 7.94928C9.14884 7.78885 8.93126 7.69872 8.70438 7.69872H8.42808L7.97298 6.56099L8.85836 5.4532C8.93854 5.35305 9.04022 5.27223 9.15587 5.2167C9.27151 5.16117 9.39817 5.13236 9.52646 5.13241H9.55982C9.7867 5.13241 10.0043 5.04228 10.1647 4.88186C10.3251 4.72143 10.4153 4.50385 10.4153 4.27697C10.4153 4.0501 10.3251 3.83251 10.1647 3.67209C10.0043 3.51166 9.7867 3.42153 9.55982 3.42153H9.52646H9.5256ZM11.1287 1.1974C11.0393 0.989702 11.0359 0.755084 11.119 0.544826C11.2021 0.334567 11.3651 0.16577 11.5723 0.0753302C11.7795 -0.0151092 12.0141 -0.0198347 12.2248 0.0621865C12.4355 0.144208 12.6052 0.306305 12.6967 0.513045C13.4507 2.23967 13.839 4.10376 13.837 5.98785C13.837 7.93311 13.4307 9.78599 12.6976 11.4627C12.655 11.569 12.5915 11.6657 12.5108 11.747C12.4301 11.8283 12.3339 11.8926 12.2279 11.9361C12.1219 11.9795 12.0083 12.0012 11.8938 11.9999C11.7792 11.9986 11.6661 11.9744 11.5611 11.9285C11.4562 11.8827 11.3615 11.8162 11.2826 11.7331C11.2038 11.6499 11.1425 11.5518 11.1024 11.4446C11.0622 11.3373 11.044 11.223 11.0488 11.1086C11.0536 10.9941 11.0814 10.8818 11.1304 10.7783C11.7896 9.2674 12.1287 7.6363 12.1261 5.98785C12.1261 4.28296 11.7703 2.66362 11.1295 1.1974H11.1287Z" fill="#419958"/>
</svg>
