<svg width="8" height="8" viewBox="0 0 8 8" fill="none" xmlns="http://www.w3.org/2000/svg">
<circle cx="4" cy="4" r="4" fill="#D4D4D4"/>
<path d="M4.29347 3.99964L5.18843 3.10676C5.22763 3.06757 5.24964 3.01441 5.24964 2.95898C5.24964 2.90356 5.22763 2.8504 5.18843 2.81121C5.14924 2.77202 5.09609 2.75 5.04066 2.75C4.98523 2.75 4.93208 2.77202 4.89289 2.81121L4 3.70618L3.10711 2.81121C3.06792 2.77202 3.01476 2.75 2.95934 2.75C2.90391 2.75 2.85076 2.77202 2.81157 2.81121C2.77237 2.8504 2.75036 2.90356 2.75036 2.95898C2.75036 3.01441 2.77237 3.06757 2.81157 3.10676L3.70653 3.99964L2.81157 4.89253C2.79206 4.91188 2.77657 4.9349 2.76601 4.96026C2.75544 4.98563 2.75 5.01283 2.75 5.04031C2.75 5.06778 2.75544 5.09499 2.76601 5.12035C2.77657 5.14571 2.79206 5.16873 2.81157 5.18808C2.83091 5.20759 2.85393 5.22307 2.8793 5.23364C2.90466 5.2442 2.93186 5.24964 2.95934 5.24964C2.98681 5.24964 3.01402 5.2442 3.03938 5.23364C3.06474 5.22307 3.08776 5.20759 3.10711 5.18808L4 4.29311L4.89289 5.18808C4.91224 5.20759 4.93526 5.22307 4.96062 5.23364C4.98598 5.2442 5.01319 5.24964 5.04066 5.24964C5.06814 5.24964 5.09534 5.2442 5.1207 5.23364C5.14607 5.22307 5.16909 5.20759 5.18843 5.18808C5.20794 5.16873 5.22343 5.14571 5.23399 5.12035C5.24456 5.09499 5.25 5.06778 5.25 5.04031C5.25 5.01283 5.24456 4.98563 5.23399 4.96026C5.22343 4.9349 5.20794 4.91188 5.18843 4.89253L4.29347 3.99964Z" fill="#419958"/>
</svg>
