<svg width="20" height="20" viewBox="0 0 20 20" fill="none" xmlns="http://www.w3.org/2000/svg">
<path d="M10 2C8.94943 2 7.90914 2.20693 6.93853 2.60896C5.96793 3.011 5.08601 3.60028 4.34315 4.34315C2.84285 5.84344 2 7.87827 2 10C2 12.1217 2.84285 14.1566 4.34315 15.6569C5.08601 16.3997 5.96793 16.989 6.93853 17.391C7.90914 17.7931 8.94943 18 10 18C12.1217 18 14.1566 17.1571 15.6569 15.6569C17.1571 14.1566 18 12.1217 18 10C18 8.94943 17.7931 7.90914 17.391 6.93853C16.989 5.96793 16.3997 5.08601 15.6569 4.34315C14.914 3.60028 14.0321 3.011 13.0615 2.60896C12.0909 2.20693 11.0506 2 10 2ZM10 3.6C11.6974 3.6 13.3253 4.27428 14.5255 5.47452C15.7257 6.67475 16.4 8.30261 16.4 10C16.4 11.92 15.6 13.6 14.24 14.8C13.12 13.76 11.6 13.2 10 13.2C8.4 13.2 6.96 13.76 5.76 14.8C4.4 13.6 3.6 11.92 3.6 10C3.6 8.30261 4.27428 6.67475 5.47452 5.47452C6.67475 4.27428 8.30261 3.6 10 3.6ZM8.4 5.2C8.18783 5.2 7.98434 5.28429 7.83431 5.43431C7.68429 5.58434 7.6 5.78783 7.6 6C7.6 6.21217 7.68429 6.41566 7.83431 6.56569C7.98434 6.71571 8.18783 6.8 8.4 6.8C8.61217 6.8 8.81566 6.71571 8.96569 6.56569C9.11571 6.41566 9.2 6.21217 9.2 6C9.2 5.78783 9.11571 5.58434 8.96569 5.43431C8.81566 5.28429 8.61217 5.2 8.4 5.2ZM11.6 5.2C11.3878 5.2 11.1843 5.28429 11.0343 5.43431C10.8843 5.58434 10.8 5.78783 10.8 6C10.8 6.21217 10.8843 6.41566 11.0343 6.56569C11.1843 6.71571 11.3878 6.8 11.6 6.8C11.8122 6.8 12.0157 6.71571 12.1657 6.56569C12.3157 6.41566 12.4 6.21217 12.4 6C12.4 5.78783 12.3157 5.58434 12.1657 5.43431C12.0157 5.28429 11.8122 5.2 11.6 5.2ZM14.072 7.552C13.968 7.552 13.872 7.576 13.76 7.6L11.2 8.656L10.984 8.744C10.536 8.4 9.928 8.304 9.4 8.52C9.20536 8.59842 9.02812 8.71452 8.87847 8.86162C8.72881 9.00872 8.60968 9.18393 8.52792 9.3772C8.44615 9.57046 8.40336 9.77797 8.402 9.98781C8.40065 10.1977 8.44074 10.4057 8.52 10.6C8.59842 10.7946 8.71452 10.9719 8.86162 11.1215C9.00872 11.2712 9.18393 11.3903 9.3772 11.4721C9.57046 11.5538 9.77797 11.5966 9.98781 11.598C10.1977 11.5994 10.4057 11.5593 10.6 11.48C11.128 11.272 11.504 10.8 11.6 10.224L11.784 10.144L14.36 9.104L14.376 9.096C14.8 8.928 14.984 8.464 14.824 8.048C14.763 7.89937 14.6586 7.77256 14.5244 7.68409C14.3903 7.59562 14.2327 7.54959 14.072 7.552ZM6 7.6C5.78783 7.6 5.58434 7.68429 5.43431 7.83431C5.28429 7.98434 5.2 8.18783 5.2 8.4C5.2 8.61217 5.28429 8.81566 5.43431 8.96569C5.58434 9.11571 5.78783 9.2 6 9.2C6.21217 9.2 6.41566 9.11571 6.56569 8.96569C6.71571 8.81566 6.8 8.61217 6.8 8.4C6.8 8.18783 6.71571 7.98434 6.56569 7.83431C6.41566 7.68429 6.21217 7.6 6 7.6Z" fill="#419958"/>
</svg>
