<svg width="20" height="20" viewBox="0 0 20 20" fill="none" xmlns="http://www.w3.org/2000/svg">
<path d="M10 2C11.0506 2 12.0909 2.20693 13.0615 2.60896C14.0321 3.011 14.914 3.60028 15.6569 4.34315C16.3997 5.08601 16.989 5.96793 17.391 6.93853C17.7931 7.90914 18 8.94943 18 10C18 12.1217 17.1571 14.1566 15.6569 15.6569C14.1566 17.1571 12.1217 18 10 18C8.94943 18 7.90914 17.7931 6.93853 17.391C5.96793 16.989 5.08601 16.3997 4.34315 15.6569C2.84285 14.1566 2 12.1217 2 10C2 7.87827 2.84285 5.84344 4.34315 4.34315C5.84344 2.84285 7.87827 2 10 2ZM10 3.6C8.30261 3.6 6.67475 4.27428 5.47452 5.47452C4.27428 6.67475 3.6 8.30261 3.6 10C3.6 11.92 4.4 13.6 5.76 14.8C6.88 13.76 8.4 13.2 10 13.2C11.6 13.2 13.04 13.76 14.24 14.8C15.6 13.6 16.4 11.92 16.4 10C16.4 8.30261 15.7257 6.67475 14.5255 5.47452C13.3253 4.27428 11.6974 3.6 10 3.6ZM11.6 5.2C11.8122 5.2 12.0157 5.28429 12.1657 5.43431C12.3157 5.58434 12.4 5.78783 12.4 6C12.4 6.21217 12.3157 6.41566 12.1657 6.56569C12.0157 6.71571 11.8122 6.8 11.6 6.8C11.3878 6.8 11.1843 6.71571 11.0343 6.56569C10.8843 6.41566 10.8 6.21217 10.8 6C10.8 5.78783 10.8843 5.58434 11.0343 5.43431C11.1843 5.28429 11.3878 5.2 11.6 5.2ZM8.4 5.2C8.61217 5.2 8.81566 5.28429 8.96569 5.43431C9.11571 5.58434 9.2 5.78783 9.2 6C9.2 6.21217 9.11571 6.41566 8.96569 6.56569C8.81566 6.71571 8.61217 6.8 8.4 6.8C8.18783 6.8 7.98434 6.71571 7.83431 6.56569C7.68429 6.41566 7.6 6.21217 7.6 6C7.6 5.78783 7.68429 5.58434 7.83431 5.43431C7.98434 5.28429 8.18783 5.2 8.4 5.2ZM5.928 7.552C6.032 7.552 6.128 7.576 6.24 7.6L8.8 8.656L9.016 8.744C9.464 8.4 10.072 8.304 10.6 8.52C11.416 8.848 11.816 9.784 11.48 10.6C11.4016 10.7946 11.2855 10.9719 11.1384 11.1215C10.9913 11.2712 10.8161 11.3903 10.6228 11.4721C10.4295 11.5538 10.222 11.5966 10.0122 11.598C9.80235 11.5994 9.5943 11.5593 9.4 11.48C8.872 11.272 8.496 10.8 8.4 10.224L8.216 10.144L5.64 9.104L5.624 9.096C5.2 8.928 5.016 8.464 5.176 8.048C5.23704 7.89937 5.34142 7.77256 5.47555 7.68409C5.60968 7.59562 5.76734 7.54959 5.928 7.552ZM14 7.6C14.2122 7.6 14.4157 7.68429 14.5657 7.83431C14.7157 7.98434 14.8 8.18783 14.8 8.4C14.8 8.61217 14.7157 8.81566 14.5657 8.96569C14.4157 9.11571 14.2122 9.2 14 9.2C13.7878 9.2 13.5843 9.11571 13.4343 8.96569C13.2843 8.81566 13.2 8.61217 13.2 8.4C13.2 8.18783 13.2843 7.98434 13.4343 7.83431C13.5843 7.68429 13.7878 7.6 14 7.6Z" fill="#419958"/>
</svg>
