<svg width="20" height="20" viewBox="0 0 20 20" fill="none" xmlns="http://www.w3.org/2000/svg">
<path d="M10 2C8.94943 2 7.90914 2.20693 6.93853 2.60896C5.96793 3.011 5.08601 3.60028 4.34315 4.34315C2.84285 5.84344 2 7.87827 2 10C2 12.1217 2.84285 14.1566 4.34315 15.6569C5.08601 16.3997 5.96793 16.989 6.93853 17.391C7.90914 17.7931 8.94943 18 10 18C12.1217 18 14.1566 17.1571 15.6569 15.6569C17.1571 14.1566 18 12.1217 18 10C18 8.94943 17.7931 7.90914 17.391 6.93853C16.989 5.96793 16.3997 5.08601 15.6569 4.34315C14.914 3.60028 14.0321 3.011 13.0615 2.60896C12.0909 2.20693 11.0506 2 10 2ZM10 3.6C11.6974 3.6 13.3253 4.27428 14.5255 5.47452C15.7257 6.67475 16.4 8.30261 16.4 10C16.4 11.92 15.6 13.6 14.24 14.8C13.12 13.76 11.6 13.2 10 13.2C8.4 13.2 6.96 13.76 5.76 14.8C4.4 13.6 3.6 11.92 3.6 10C3.6 8.30261 4.27428 6.67475 5.47452 5.47452C6.67475 4.27428 8.30261 3.6 10 3.6ZM11.6 5.112C11.296 5.12 11.008 5.32 10.88 5.632L9.848 8.216L9.768 8.4C9.2 8.504 8.728 8.88 8.512 9.408C8.184 10.232 8.584 11.16 9.408 11.488C10.232 11.816 11.16 11.416 11.488 10.592C11.696 10.064 11.6 9.456 11.256 9.008L11.336 8.8L12.368 6.232L12.376 6.208C12.536 5.8 12.336 5.336 11.928 5.168C11.824 5.128 11.72 5.112 11.6 5.112ZM8.4 5.2C8.18783 5.2 7.98434 5.28429 7.83431 5.43431C7.68429 5.58434 7.6 5.78783 7.6 6C7.6 6.21217 7.68429 6.41566 7.83431 6.56569C7.98434 6.71571 8.18783 6.8 8.4 6.8C8.61217 6.8 8.81566 6.71571 8.96569 6.56569C9.11571 6.41566 9.2 6.21217 9.2 6C9.2 5.78783 9.11571 5.58434 8.96569 5.43431C8.81566 5.28429 8.61217 5.2 8.4 5.2ZM6 7.6C5.78783 7.6 5.58434 7.68429 5.43431 7.83431C5.28429 7.98434 5.2 8.18783 5.2 8.4C5.2 8.61217 5.28429 8.81566 5.43431 8.96569C5.58434 9.11571 5.78783 9.2 6 9.2C6.21217 9.2 6.41566 9.11571 6.56569 8.96569C6.71571 8.81566 6.8 8.61217 6.8 8.4C6.8 8.18783 6.71571 7.98434 6.56569 7.83431C6.41566 7.68429 6.21217 7.6 6 7.6ZM14 7.6C13.7878 7.6 13.5843 7.68429 13.4343 7.83431C13.2843 7.98434 13.2 8.18783 13.2 8.4C13.2 8.61217 13.2843 8.81566 13.4343 8.96569C13.5843 9.11571 13.7878 9.2 14 9.2C14.2122 9.2 14.4157 9.11571 14.5657 8.96569C14.7157 8.81566 14.8 8.61217 14.8 8.4C14.8 8.18783 14.7157 7.98434 14.5657 7.83431C14.4157 7.68429 14.2122 7.6 14 7.6Z" fill="#419958"/>
</svg>
