<svg width="40" height="40" viewBox="0 0 40 40" fill="none" xmlns="http://www.w3.org/2000/svg">
<circle cx="20" cy="20" r="20" fill="#419958"/>
<path d="M20 10.6C21.2783 10.6 22.1241 11.3107 22.4599 12.0444C22.7141 12.6006 22.6831 12.9869 22.6859 13.3083C23.2424 13.6896 23.7636 14.1201 24.2431 14.5946C25.2527 15.605 25.8059 17.0429 25.7778 18.5668C25.7633 19.2696 25.6196 19.9752 25.3488 20.6887C25.2137 21.0469 24.9653 21.6673 24.7392 22.3585C24.5139 23.0497 24.3333 23.8116 24.3333 24.3222H25.1234C25.315 24.3283 25.4963 24.4101 25.6275 24.5498C25.7586 24.6896 25.829 24.8756 25.8229 25.0672C25.8169 25.2587 25.735 25.44 25.5953 25.5712C25.4556 25.7024 25.2695 25.7727 25.0779 25.7667L26.3642 27.5043L26.5 27.6849V29.3778H13.5V27.6849L13.6358 27.5043L14.9444 25.7667C14.6844 25.7696 14.4425 25.6338 14.3096 25.4084C14.2459 25.2977 14.2123 25.1722 14.2123 25.0444C14.2123 24.9167 14.2459 24.7912 14.3096 24.6804C14.4425 24.4551 14.6852 24.3193 14.9444 24.3222H15.6667C15.6667 22.6886 16.6821 21.1907 17.6304 20.0337C18.1721 19.3714 18.3497 19.2551 18.7137 18.9056C18.5837 18.8297 18.4227 18.7394 18.3295 18.6795C18.2139 18.6066 18.1518 18.5611 18.1273 18.5444C17.9236 18.5444 17.9092 18.5784 17.6976 18.7474C17.4867 18.9171 17.0548 19.2667 16.4568 19.2667C15.9317 19.2667 15.5482 18.9279 15.3503 18.6795C15.1698 18.4513 15.0716 18.2794 15.0571 18.2512C14.9921 18.2202 14.8513 18.1747 14.6736 18.0483C14.4959 17.9212 14.2648 17.6388 14.2222 17.3261C14.1796 17.0126 14.2786 16.7389 14.4028 16.4681C14.5862 16.0672 14.9278 15.6079 15.4637 15.046C15.9996 14.4848 16.7023 13.8897 17.5625 13.5337C17.6275 13.5055 17.5741 13.5481 17.608 13.512C17.6412 13.4744 17.7431 13.3228 17.946 13.1726C18.2111 12.9783 18.7867 12.9559 19.2778 12.9017V10.6H20ZM20.7222 12.2026V14.2111H20C19.0156 14.2111 18.7982 14.3296 18.804 14.3238C18.8069 14.3209 18.8011 14.3353 18.6906 14.4596C18.5276 14.6424 18.3278 14.7886 18.1042 14.8886C17.5264 15.1283 16.9472 15.5963 16.5016 16.0614C16.0841 16.4962 15.8046 16.9281 15.7569 17.0097C15.8725 17.0661 15.9938 17.1058 16.1404 17.2806C16.3383 17.5203 16.4084 17.6872 16.4792 17.7774C16.5016 17.8056 16.4987 17.8136 16.5016 17.8222C16.5637 17.8136 16.6063 17.7746 16.7955 17.6193C17.0324 17.4272 17.5033 17.1 18.1266 17.1C18.6011 17.1 18.869 17.3167 19.0972 17.4611C19.3254 17.6056 19.5089 17.7096 19.571 17.7319L19.5941 17.7543H19.6158C19.7487 17.8107 19.9769 17.8222 19.9769 17.8222L20.7222 17.7998V18.9511L20.4738 19.1533C20.4738 19.1533 19.6165 19.9102 18.7585 20.9588C17.9012 22.0097 17.1111 23.3609 17.1111 24.3222H22.8889C22.8889 23.5126 23.1149 22.6633 23.3627 21.9071C23.6111 21.1509 23.9043 20.4916 24.017 20.1918C24.216 19.6574 24.323 19.093 24.3333 18.5228C24.3557 17.3629 23.9412 16.3251 23.2276 15.6115C22.756 15.1399 22.054 14.5498 21.6705 14.3245L21.3094 14.1216V13.7149C21.3094 13.4477 21.3094 12.9985 21.1505 12.6547C21.067 12.4573 20.9149 12.2967 20.7222 12.2026ZM23.25 25.7667H16.75L15.125 27.9333H24.875L23.25 25.7667Z" fill="#FDFEFF"/>
</svg>
