<svg width="40" height="40" viewBox="0 0 40 40" fill="none" xmlns="http://www.w3.org/2000/svg">
<circle cx="20" cy="20" r="20" fill="#419958"/>
<path d="M24.1594 22.7912H15.9094C15.727 22.7912 15.5522 22.8637 15.4232 22.9926C15.2943 23.1215 15.2219 23.2964 15.2219 23.4787C15.2219 23.6611 15.2943 23.8359 15.4232 23.9649C15.5522 24.0938 15.727 24.1662 15.9094 24.1662H24.1594C24.3417 24.1662 24.5166 24.0938 24.6455 23.9649C24.7744 23.8359 24.8469 23.6611 24.8469 23.4787C24.8469 23.2964 24.7744 23.1215 24.6455 22.9926C24.5166 22.8637 24.3417 22.7912 24.1594 22.7912Z" fill="#FDFEFF"/>
<path d="M20 9C17.8244 9 15.6977 9.64514 13.8887 10.8538C12.0798 12.0625 10.6699 13.7805 9.83733 15.7905C9.00477 17.8005 8.78693 20.0122 9.21137 22.146C9.6358 24.2798 10.6835 26.2398 12.2218 27.7782C13.7602 29.3165 15.7202 30.3642 17.854 30.7886C19.9878 31.2131 22.1995 30.9952 24.2095 30.1627C26.2195 29.3301 27.9375 27.9202 29.1462 26.1113C30.3549 24.3023 31 22.1756 31 20C31 17.0826 29.8411 14.2847 27.7782 12.2218C25.7153 10.1589 22.9174 9 20 9ZM20 29.625C18.0964 29.625 16.2355 29.0605 14.6526 28.0029C13.0698 26.9453 11.8362 25.4421 11.1077 23.6833C10.3792 21.9246 10.1886 19.9893 10.5599 18.1223C10.9313 16.2552 11.848 14.5402 13.1941 13.1941C14.5402 11.848 16.2552 10.9313 18.1223 10.5599C19.9893 10.1886 21.9246 10.3792 23.6833 11.1077C25.4421 11.8362 26.9453 13.0698 28.0029 14.6526C29.0605 16.2355 29.625 18.0964 29.625 20C29.625 22.5527 28.6109 25.0009 26.8059 26.8059C25.0009 28.6109 22.5527 29.625 20 29.625Z" fill="#FDFEFF"/>
<path d="M24.9225 18.68C25.6059 18.68 26.16 18.1259 26.16 17.4425C26.16 16.759 25.6059 16.205 24.9225 16.205C24.239 16.205 23.685 16.759 23.685 17.4425C23.685 18.1259 24.239 18.68 24.9225 18.68Z" fill="#FDFEFF"/>
<path d="M15.2975 18.68C15.9809 18.68 16.535 18.1259 16.535 17.4425C16.535 16.759 15.9809 16.205 15.2975 16.205C14.614 16.205 14.06 16.759 14.06 17.4425C14.06 18.1259 14.614 18.68 15.2975 18.68Z" fill="#FDFEFF"/>
</svg>
