<svg width="20" height="20" viewBox="0 0 20 20" fill="none" xmlns="http://www.w3.org/2000/svg">
<path d="M13.72 16.6694C13.5332 16.6693 13.3508 16.6134 13.1961 16.5089L10.0444 14.3965C10.0288 14.3858 10.0104 14.38 9.99155 14.38C9.97268 14.38 9.95427 14.3858 9.93874 14.3965L6.78702 16.5089C6.62876 16.6146 6.44209 16.6696 6.25181 16.6667C6.06153 16.6638 5.87664 16.603 5.72169 16.4926C5.56674 16.3821 5.44907 16.2271 5.38429 16.0481C5.31952 15.8692 5.31071 15.6748 5.35903 15.4907L6.39411 11.8405C6.39901 11.8221 6.39842 11.8027 6.39241 11.7847C6.3864 11.7667 6.37524 11.7508 6.36032 11.7391L3.37759 9.3943C3.22057 9.27733 3.1041 9.11414 3.0445 8.92763C2.9849 8.74112 2.98517 8.54063 3.04527 8.35428C3.10537 8.16793 3.22228 8.00506 3.37962 7.88851C3.53695 7.77196 3.72682 7.70757 3.92259 7.70437L7.72493 7.56073C7.74363 7.55944 7.76155 7.55277 7.77654 7.54152C7.79154 7.53028 7.80296 7.51494 7.80943 7.49736L9.11912 3.93583C9.18514 3.75528 9.30504 3.59937 9.4626 3.48922C9.62016 3.37907 9.80776 3.32 10 3.32C10.1922 3.32 10.3798 3.37907 10.5374 3.48922C10.695 3.59937 10.8149 3.75528 10.8809 3.93583L12.1906 7.49736C12.197 7.51494 12.2085 7.53028 12.2235 7.54152C12.2384 7.55277 12.2564 7.55944 12.2751 7.56073L16.0774 7.70437C16.2732 7.70757 16.463 7.77196 16.6204 7.88851C16.7777 8.00506 16.8946 8.16793 16.9547 8.35428C17.0148 8.54063 17.0151 8.74112 16.9555 8.92763C16.8959 9.11414 16.7794 9.27733 16.6224 9.3943L13.6397 11.7391C13.6243 11.7504 13.6128 11.7663 13.6068 11.7844C13.6007 11.8026 13.6004 11.8221 13.6059 11.8405L14.641 15.4907C14.6773 15.6307 14.6809 15.7772 14.6515 15.9189C14.6221 16.0605 14.5605 16.1934 14.4714 16.3074C14.3824 16.4214 14.2682 16.5133 14.1379 16.5761C14.0076 16.6389 13.8646 16.6708 13.72 16.6694ZM9.99366 13.5346C10.1808 13.5403 10.3618 13.6022 10.5133 13.7121L13.665 15.8245C13.681 15.8366 13.7005 15.8433 13.7205 15.8434C13.7406 15.8436 13.7602 15.8372 13.7763 15.8254C13.7925 15.8135 13.8044 15.7967 13.8102 15.7775C13.816 15.7583 13.8155 15.7377 13.8087 15.7189L12.7736 12.0686C12.7227 11.8895 12.7264 11.6993 12.7844 11.5224C12.8424 11.3455 12.9519 11.19 13.0989 11.0758L16.0816 8.731C16.0979 8.71957 16.1101 8.70323 16.1164 8.68437C16.1227 8.66551 16.1227 8.64513 16.1166 8.62622C16.1105 8.60731 16.0984 8.59087 16.0822 8.57931C16.066 8.56775 16.0466 8.56169 16.0267 8.56201L12.2244 8.41837C12.0382 8.41111 11.8584 8.34856 11.7079 8.23871C11.5574 8.12885 11.443 7.97666 11.3794 7.80154L10.0697 4.24002C10.0638 4.22111 10.052 4.20458 10.0361 4.19284C10.0201 4.18111 10.0008 4.17478 9.98099 4.17478C9.96118 4.17478 9.94189 4.18111 9.92593 4.19284C9.90997 4.20458 9.89817 4.22111 9.89227 4.24002L8.59525 7.79732C8.5316 7.97243 8.41724 8.12462 8.26675 8.23448C8.11626 8.34434 7.93646 8.40688 7.75028 8.41414L3.94794 8.55779C3.92806 8.55746 3.9086 8.56353 3.89242 8.57508C3.87624 8.58664 3.86419 8.60308 3.85805 8.62199C3.8519 8.6409 3.85198 8.66128 3.85828 8.68014C3.86457 8.699 3.87675 8.71535 3.89302 8.72678L6.87997 11.0758C7.02655 11.1903 7.13574 11.3459 7.19367 11.5227C7.25159 11.6995 7.25564 11.8895 7.20528 12.0686L6.17442 15.7189C6.16827 15.7371 6.16824 15.7569 6.17434 15.7752C6.18044 15.7935 6.19233 15.8093 6.20822 15.8203C6.22353 15.8333 6.24301 15.8405 6.26315 15.8405C6.28329 15.8405 6.30276 15.8333 6.31807 15.8203L9.46978 13.7078C9.62381 13.6057 9.8046 13.5513 9.98944 13.5515L9.99366 13.5346Z" fill="#419958"/>
</svg>
