<svg width="20" height="20" viewBox="0 0 20 20" fill="none" xmlns="http://www.w3.org/2000/svg">
<path d="M16.6225 9.3798C16.7795 9.26286 16.8959 9.09972 16.9555 8.91327C17.0151 8.72681 17.0148 8.52639 16.9547 8.34009C16.8947 8.1538 16.7778 7.99098 16.6205 7.87446C16.4632 7.75794 16.2734 7.69358 16.0777 7.69038L12.2765 7.54678C12.2578 7.54549 12.2399 7.53882 12.2249 7.52758C12.2099 7.51634 12.1985 7.50101 12.192 7.48343L10.8785 3.93565C10.8125 3.75515 10.6926 3.59929 10.5351 3.48917C10.3776 3.37906 10.1901 3.32 9.99789 3.32C9.8057 3.32 9.61816 3.37906 9.46065 3.48917C9.30314 3.59929 9.18327 3.75515 9.11728 3.93565L7.80798 7.4961C7.80151 7.51368 7.79009 7.52901 7.7751 7.54025C7.76012 7.55149 7.7422 7.55816 7.72351 7.55945L3.92232 7.70305C3.7266 7.70625 3.53679 7.77062 3.3795 7.88713C3.22222 8.00365 3.10534 8.16647 3.04526 8.35276C2.98518 8.53906 2.98491 8.73948 3.04449 8.92594C3.10407 9.1124 3.22051 9.27553 3.37748 9.39247L6.3593 11.7365C6.37423 11.7483 6.38538 11.7641 6.39138 11.7822C6.39739 11.8002 6.39798 11.8196 6.39309 11.8379L5.36677 15.4744C5.31359 15.6596 5.31874 15.8566 5.38153 16.0388C5.44431 16.2209 5.56169 16.3793 5.71768 16.4924C5.87368 16.6054 6.06072 16.6677 6.25336 16.6707C6.446 16.6737 6.63489 16.6173 6.79433 16.5091L9.94509 14.3974C9.96061 14.3867 9.97903 14.3809 9.99789 14.3809C10.0167 14.3809 10.0352 14.3867 10.0507 14.3974L13.2014 16.5091C13.3587 16.621 13.5469 16.6811 13.74 16.6811C13.933 16.6811 14.1212 16.621 14.2785 16.5091C14.4345 16.3971 14.552 16.2395 14.6148 16.058C14.6775 15.8765 14.6825 15.68 14.629 15.4955L13.5942 11.8463C13.5888 11.828 13.5891 11.8085 13.5951 11.7903C13.6012 11.7722 13.6126 11.7563 13.628 11.745L16.6225 9.3798Z" fill="#419958"/>
</svg>
