<svg width="20" height="20" viewBox="0 0 20 20" fill="none" xmlns="http://www.w3.org/2000/svg">
<path d="M4.55417 10.0137L5.73921 10.5405C5.85312 10.5911 5.97602 10.6184 6.10066 10.6207C6.22529 10.6231 6.34913 10.6005 6.46488 10.5542L6.83763 10.4048C6.96791 10.3527 7.08477 10.2719 7.1795 10.1684C7.27423 10.0648 7.3444 9.9413 7.38479 9.80692L7.65371 8.91296C7.67818 8.81497 7.72357 8.72344 7.78675 8.64465C7.84994 8.56586 7.92942 8.50167 8.01975 8.4565L8.66492 8.13333V9.60129C8.66497 9.86131 8.5926 10.1162 8.45593 10.3374C8.31926 10.5586 8.12369 10.7374 7.89113 10.8537L6.22221 11.6893C5.83478 11.8833 5.509 12.1812 5.28136 12.5499C5.05372 12.9185 4.93321 13.3432 4.93334 13.7765V14.2H14.2626V8.6C14.2626 5.50833 11.7566 3 8.66492 3H4.35C4.25718 3 4.16815 3.03687 4.10251 3.10251C4.03688 3.16815 4 3.25717 4 3.35C3.99995 3.42675 4.01783 3.50246 4.05221 3.57108L4.46667 4.4L4.20417 4.6625C4.13922 4.72767 4.08776 4.80501 4.05273 4.89009C4.01769 4.97517 3.99978 5.06632 4 5.15833V9.16029C3.99989 9.34091 4.05219 9.51768 4.15056 9.66916C4.24892 9.82064 4.38913 9.94033 4.55417 10.0137ZM5.51667 5.8C5.63204 5.8 5.74482 5.83421 5.84075 5.89831C5.93668 5.96241 6.01145 6.05351 6.0556 6.1601C6.09975 6.26669 6.1113 6.38398 6.08879 6.49714C6.06629 6.61029 6.01073 6.71423 5.92915 6.79581C5.84757 6.87739 5.74363 6.93295 5.63047 6.95546C5.51732 6.97797 5.40003 6.96641 5.29344 6.92226C5.18685 6.87811 5.09574 6.80334 5.03164 6.70742C4.96755 6.61149 4.93334 6.49871 4.93334 6.38333C4.93334 6.22862 4.99479 6.08025 5.10419 5.97085C5.21359 5.86146 5.36196 5.8 5.51667 5.8ZM14.7333 15.1333H4.46667C4.3429 15.1333 4.2242 15.1825 4.13669 15.27C4.04917 15.3575 4 15.4762 4 15.6V16.5333C4 16.6571 4.04917 16.7758 4.13669 16.8633C4.2242 16.9508 4.3429 17 4.46667 17H14.7333C14.8571 17 14.9758 16.9508 15.0633 16.8633C15.1508 16.7758 15.2 16.6571 15.2 16.5333V15.6C15.2 15.4762 15.1508 15.3575 15.0633 15.27C14.9758 15.1825 14.8571 15.1333 14.7333 15.1333Z" fill="#419958"/>
</svg>
