<svg width="20" height="20" viewBox="0 0 20 20" fill="none" xmlns="http://www.w3.org/2000/svg">
<path d="M15.52 4H4.48C4.2145 4 4 4.2145 4 4.48V15.52C4 15.7855 4.2145 16 4.48 16H15.52C15.7855 16 16 15.7855 16 15.52V4.48C16 4.2145 15.7855 4 15.52 4ZM8.38 12.565V13.72C8.38 13.786 8.326 13.84 8.26 13.84H7.54C7.474 13.84 7.42 13.786 7.42 13.72V12.565C6.7945 12.361 6.34 11.773 6.34 11.08C6.34 10.387 6.7945 9.7975 7.42 9.595V6.28C7.42 6.214 7.474 6.16 7.54 6.16H8.26C8.326 6.16 8.38 6.214 8.38 6.28V9.595C9.0055 9.799 9.46 10.387 9.46 11.08C9.46 11.773 9.0055 12.3625 8.38 12.565ZM12.574 10.4065C12.577 10.4065 12.5785 10.405 12.58 10.405V13.72C12.58 13.786 12.526 13.84 12.46 13.84H11.74C11.674 13.84 11.62 13.786 11.62 13.72V10.405C11.623 10.405 11.6245 10.4065 11.626 10.4065C10.996 10.2055 10.54 9.616 10.54 8.92C10.54 8.224 10.996 7.6345 11.626 7.4335C11.623 7.4335 11.6215 7.435 11.62 7.435V6.28C11.62 6.214 11.674 6.16 11.74 6.16H12.46C12.526 6.16 12.58 6.214 12.58 6.28V7.435C12.577 7.435 12.5755 7.4335 12.574 7.4335C13.204 7.6345 13.66 8.224 13.66 8.92C13.66 9.616 13.204 10.2055 12.574 10.4065ZM11.56 8.92C11.56 9.06322 11.6169 9.20057 11.7182 9.30184C11.8194 9.40311 11.9568 9.46 12.1 9.46C12.2432 9.46 12.3806 9.40311 12.4818 9.30184C12.5831 9.20057 12.64 9.06322 12.64 8.92C12.64 8.77678 12.5831 8.63943 12.4818 8.53816C12.3806 8.43689 12.2432 8.38 12.1 8.38C11.9568 8.38 11.8194 8.43689 11.7182 8.53816C11.6169 8.63943 11.56 8.77678 11.56 8.92ZM8.371 10.8175L8.3485 10.7815C8.3485 10.78 8.347 10.78 8.347 10.7785L8.3335 10.7605C8.332 10.759 8.3305 10.7575 8.3305 10.756C8.3155 10.7365 8.3005 10.7185 8.2825 10.702L8.2795 10.699C8.2735 10.693 8.2675 10.687 8.2615 10.6825C8.2495 10.6705 8.236 10.66 8.2225 10.651H8.221L8.203 10.6375C8.2015 10.636 8.1985 10.6345 8.197 10.633C8.179 10.621 8.1595 10.609 8.1385 10.6C8.1355 10.5985 8.131 10.597 8.128 10.594C8.122 10.591 8.1175 10.5895 8.1115 10.5865C8.107 10.585 8.101 10.582 8.0965 10.5805C8.089 10.5775 8.0815 10.5745 8.074 10.573C8.068 10.5715 8.0605 10.5685 8.0545 10.567L8.041 10.5625L8.02 10.558C8.017 10.5565 8.0125 10.5565 8.0095 10.555C7.999 10.5535 7.9885 10.5505 7.978 10.549C7.975 10.549 7.972 10.549 7.969 10.5475C7.96 10.546 7.9525 10.546 7.9435 10.5445C7.9405 10.5445 7.9375 10.5445 7.933 10.543C7.921 10.543 7.9105 10.5415 7.8985 10.5415C7.8865 10.5415 7.876 10.5415 7.864 10.543C7.861 10.543 7.858 10.543 7.8535 10.5445C7.8445 10.5445 7.8355 10.546 7.828 10.5475C7.825 10.5475 7.822 10.5475 7.819 10.549C7.8085 10.5505 7.798 10.552 7.7875 10.555C7.7845 10.5565 7.78 10.5565 7.777 10.558L7.756 10.5625L7.7425 10.567C7.7365 10.5685 7.729 10.5715 7.723 10.573C7.7155 10.576 7.708 10.579 7.7005 10.5805C7.696 10.582 7.69 10.585 7.6855 10.5865C7.6795 10.5895 7.675 10.591 7.669 10.594C7.666 10.5955 7.6615 10.597 7.6585 10.6C7.639 10.6105 7.6195 10.621 7.6 10.633C7.5985 10.6345 7.5955 10.636 7.594 10.6375L7.576 10.651H7.5745C7.561 10.6615 7.5475 10.672 7.5355 10.6825C7.5295 10.6885 7.5235 10.693 7.5175 10.699L7.5145 10.702C7.49772 10.7193 7.4817 10.7373 7.4665 10.756C7.465 10.7575 7.4635 10.759 7.4635 10.7605L7.45 10.7785C7.45 10.78 7.4485 10.78 7.4485 10.7815L7.426 10.8175C7.4245 10.8205 7.423 10.822 7.4215 10.825C7.381 10.9015 7.357 10.9885 7.357 11.08C7.357 11.1715 7.381 11.26 7.4215 11.335C7.423 11.338 7.4245 11.3395 7.426 11.3425L7.4485 11.3785C7.4485 11.38 7.45 11.38 7.45 11.3815L7.4635 11.3995C7.465 11.401 7.4665 11.4025 7.4665 11.404C7.4815 11.4235 7.4965 11.4415 7.5145 11.458L7.5175 11.461C7.5235 11.467 7.5295 11.473 7.5355 11.4775C7.5475 11.4895 7.561 11.5 7.5745 11.509H7.576L7.594 11.5225C7.5955 11.524 7.5985 11.5255 7.6 11.527C7.618 11.539 7.6375 11.551 7.6585 11.56C7.6615 11.5615 7.666 11.563 7.669 11.566C7.675 11.569 7.6795 11.5705 7.6855 11.5735C7.69 11.575 7.696 11.578 7.7005 11.5795C7.708 11.5825 7.7155 11.5855 7.723 11.587C7.729 11.5885 7.7365 11.5915 7.7425 11.593L7.756 11.5975L7.777 11.602C7.78 11.6035 7.7845 11.6035 7.7875 11.605C7.798 11.6065 7.8085 11.6095 7.819 11.611C7.822 11.611 7.825 11.611 7.828 11.6125C7.837 11.614 7.8445 11.614 7.8535 11.6155C7.8565 11.6155 7.8595 11.6155 7.864 11.617C7.876 11.617 7.8865 11.6185 7.8985 11.6185C7.9105 11.6185 7.921 11.6185 7.933 11.617C7.936 11.617 7.939 11.617 7.9435 11.6155C7.9525 11.6155 7.9615 11.614 7.969 11.6125C7.972 11.6125 7.975 11.6125 7.978 11.611C7.9885 11.6095 7.999 11.608 8.0095 11.605C8.0125 11.6035 8.017 11.6035 8.02 11.602L8.041 11.5975L8.0545 11.593C8.0605 11.5915 8.068 11.5885 8.074 11.587C8.0815 11.584 8.089 11.581 8.0965 11.5795C8.101 11.578 8.107 11.575 8.1115 11.5735C8.1175 11.5705 8.122 11.569 8.128 11.566C8.131 11.5645 8.1355 11.563 8.1385 11.56C8.158 11.5495 8.1775 11.539 8.197 11.527C8.1985 11.5255 8.2015 11.524 8.203 11.5225L8.221 11.509H8.2225C8.236 11.4985 8.2495 11.488 8.2615 11.4775C8.2675 11.4715 8.2735 11.467 8.2795 11.461L8.2825 11.458C8.299 11.4415 8.3155 11.422 8.3305 11.404C8.332 11.4025 8.3335 11.401 8.3335 11.3995L8.347 11.3815C8.347 11.38 8.3485 11.38 8.3485 11.3785L8.371 11.3425C8.3725 11.3395 8.374 11.338 8.3755 11.335C8.416 11.2585 8.44 11.1715 8.44 11.08C8.44 10.9885 8.416 10.9 8.3755 10.825C8.374 10.822 8.3725 10.819 8.371 10.8175Z" fill="#419958"/>
</svg>
