<svg width="20" height="20" viewBox="0 0 20 20" fill="none" xmlns="http://www.w3.org/2000/svg">
<path fill-rule="evenodd" clip-rule="evenodd" d="M11.2294 3.91875C10.868 2.69375 9.132 2.69375 8.77062 3.91875L8.68313 4.21625C8.62913 4.39965 8.53477 4.56863 8.40697 4.71081C8.27916 4.85299 8.12116 4.96476 7.94453 5.03793C7.76791 5.1111 7.57715 5.1438 7.38624 5.13365C7.19533 5.1235 7.00912 5.07074 6.84125 4.97925L6.57 4.8305C5.44737 4.21975 4.21975 5.44738 4.83137 6.56912L4.97925 6.84125C5.3695 7.55875 4.99937 8.45213 4.21625 8.68313L3.91875 8.77062C2.69375 9.132 2.69375 10.868 3.91875 11.2294L4.21625 11.3169C4.39965 11.3709 4.56863 11.4652 4.71081 11.593C4.85299 11.7208 4.96476 11.8788 5.03793 12.0555C5.1111 12.2321 5.1438 12.4229 5.13365 12.6138C5.1235 12.8047 5.07074 12.9909 4.97925 13.1587L4.8305 13.43C4.21975 14.5526 5.44738 15.7802 6.56912 15.1686L6.84125 15.0208C7.00912 14.9293 7.19533 14.8765 7.38624 14.8664C7.57715 14.8562 7.76791 14.8889 7.94453 14.9621C8.12116 15.0352 8.27916 15.147 8.40697 15.2892C8.53477 15.4314 8.62913 15.6004 8.68313 15.7837L8.77062 16.0813C9.132 17.3062 10.868 17.3062 11.2294 16.0813L11.3169 15.7837C11.3709 15.6004 11.4652 15.4314 11.593 15.2892C11.7208 15.147 11.8788 15.0352 12.0555 14.9621C12.2321 14.8889 12.4229 14.8562 12.6138 14.8664C12.8047 14.8765 12.9909 14.9293 13.1587 15.0208L13.43 15.1695C14.5526 15.7802 15.7802 14.5526 15.1686 13.4309L15.0208 13.1587C14.9293 12.9909 14.8765 12.8047 14.8664 12.6138C14.8562 12.4229 14.8889 12.2321 14.9621 12.0555C15.0352 11.8788 15.147 11.7208 15.2892 11.593C15.4314 11.4652 15.6004 11.3709 15.7837 11.3169L16.0813 11.2294C17.3062 10.868 17.3062 9.132 16.0813 8.77062L15.7837 8.68313C15.6004 8.62913 15.4314 8.53477 15.2892 8.40697C15.147 8.27916 15.0352 8.12116 14.9621 7.94453C14.8889 7.76791 14.8562 7.57715 14.8664 7.38624C14.8765 7.19533 14.9293 7.00912 15.0208 6.84125L15.1695 6.57C15.7802 5.44737 14.5526 4.21975 13.4309 4.83137L13.1587 4.97925C12.9909 5.07074 12.8047 5.1235 12.6138 5.13365C12.4229 5.1438 12.2321 5.1111 12.0555 5.03793C11.8788 4.96476 11.7208 4.85299 11.593 4.71081C11.4652 4.56863 11.3709 4.39965 11.3169 4.21625L11.2294 3.91875ZM10 12.5638C10.6799 12.5638 11.332 12.2936 11.8128 11.8128C12.2936 11.332 12.5638 10.6799 12.5638 10C12.5638 9.32005 12.2936 8.66795 11.8128 8.18716C11.332 7.70636 10.6799 7.43625 10 7.43625C9.32028 7.43625 8.66841 7.70627 8.18777 8.1869C7.70714 8.66753 7.43713 9.31941 7.43713 9.99913C7.43713 10.6788 7.70714 11.3307 8.18777 11.8114C8.66841 12.292 9.32028 12.562 10 12.562V12.5638Z" fill="#419958"/>
</svg>
