<svg width="20" height="20" viewBox="0 0 20 20" fill="none" xmlns="http://www.w3.org/2000/svg">
<path fill-rule="evenodd" clip-rule="evenodd" d="M16.125 5.65H3.875C3.64294 5.65 3.42038 5.55781 3.25628 5.39372C3.09219 5.22963 3 5.00707 3 4.775C3 4.54294 3.09219 4.32038 3.25628 4.15628C3.42038 3.99219 3.64294 3.9 3.875 3.9H16.125C16.3571 3.9 16.5796 3.99219 16.7437 4.15628C16.9078 4.32038 17 4.54294 17 4.775C17 5.00707 16.9078 5.22963 16.7437 5.39372C16.5796 5.55781 16.3571 5.65 16.125 5.65ZM12.625 9.15H3.875C3.64294 9.15 3.42038 9.05781 3.25628 8.89372C3.09219 8.72963 3 8.50707 3 8.275C3 8.04294 3.09219 7.82038 3.25628 7.65628C3.42038 7.49219 3.64294 7.4 3.875 7.4H12.625C12.8571 7.4 13.0796 7.49219 13.2437 7.65628C13.4078 7.82038 13.5 8.04294 13.5 8.275C13.5 8.50707 13.4078 8.72963 13.2437 8.89372C13.0796 9.05781 12.8571 9.15 12.625 9.15ZM16.125 12.65H3.875C3.64294 12.65 3.42038 12.5578 3.25628 12.3937C3.09219 12.2296 3 12.0071 3 11.775C3 11.5429 3.09219 11.3204 3.25628 11.1563C3.42038 10.9922 3.64294 10.9 3.875 10.9H16.125C16.3571 10.9 16.5796 10.9922 16.7437 11.1563C16.9078 11.3204 17 11.5429 17 11.775C17 12.0071 16.9078 12.2296 16.7437 12.3937C16.5796 12.5578 16.3571 12.65 16.125 12.65ZM12.625 16.15H3.875C3.64294 16.15 3.42038 16.0578 3.25628 15.8937C3.09219 15.7296 3 15.5071 3 15.275C3 15.0429 3.09219 14.8204 3.25628 14.6563C3.42038 14.4922 3.64294 14.4 3.875 14.4H12.625C12.8571 14.4 13.0796 14.4922 13.2437 14.6563C13.4078 14.8204 13.5 15.0429 13.5 15.275C13.5 15.5071 13.4078 15.7296 13.2437 15.8937C13.0796 16.0578 12.8571 16.15 12.625 16.15Z" fill="#419958"/>
</svg>
