<svg width="20" height="20" viewBox="0 0 20 20" fill="none" xmlns="http://www.w3.org/2000/svg">
<mask id="mask0" mask-type="alpha" maskUnits="userSpaceOnUse" x="3" y="3" width="14" height="14">
<path d="M3 3H16.9286V11.7688C16.9632 11.8156 16.987 11.868 17 11.9357V12.2074C16.987 12.2754 16.9632 12.3347 16.9286 12.3846V17H3V3Z" fill="white"/>
</mask>
<g mask="url(#mask0)">
<path fill-rule="evenodd" clip-rule="evenodd" d="M3 17H17V3H3V17Z" fill="url(#paint0_radial)"/>
<path fill-rule="evenodd" clip-rule="evenodd" d="M4.25437 9.06802L3.98645 8.41751L3.72018 9.06802H4.25437ZM10.1494 8.8099C10.0964 8.83997 10.0328 8.84326 9.95609 8.84326H9.48085V8.47997H9.96237C10.0311 8.47997 10.1025 8.48254 10.1489 8.50775C10.1988 8.53269 10.2305 8.58327 10.2305 8.65278C10.2305 8.7248 10.1997 8.78097 10.1494 8.8099ZM13.537 9.06802L13.2675 8.41751L12.9996 9.06802H13.537ZM7.22215 9.77349H6.82134L6.81899 8.49424L6.2527 9.77349H5.90948L5.34019 8.4914V9.77349H4.54481L4.39513 9.40889H3.58078L3.42968 9.77349H3.00465L3.70388 8.13795H4.28559L4.95032 9.68747V8.13795H5.5894L6.10045 9.24844L6.57093 8.13795H7.22215V9.77349ZM8.81902 9.77349H7.51281V8.13795H8.81891V8.47997H7.90481V8.77353H8.7966V9.10975L7.90481 9.10833V9.43497H8.81897V9.77349H8.81902ZM10.6611 8.57977C10.6611 8.83833 10.4872 8.975 10.3865 9.0153C10.4718 9.04817 10.5443 9.10461 10.5783 9.15355C10.6336 9.23329 10.6445 9.30794 10.6445 9.45176V9.77349H10.2501L10.2489 9.56787C10.2489 9.47063 10.2582 9.32888 10.1854 9.25057C10.1284 9.19205 10.0423 9.17991 9.90107 9.17991H9.48091V9.77349H9.09016V8.13795H9.99032C10.189 8.13795 10.3368 8.14451 10.4636 8.21725C10.5875 8.28949 10.6611 8.39651 10.6611 8.57983V8.57977ZM10.8885 9.77349H11.2873V8.13773H10.8885V9.77349ZM15.9154 9.77349H15.3607L14.6193 8.54712L14.6207 9.77349H13.8243L13.6718 9.40889H12.8586L12.7124 9.77349H12.2547C12.064 9.77349 11.8229 9.73111 11.6879 9.5933C11.549 9.45362 11.4787 9.26643 11.4787 8.96822C11.4787 8.72573 11.5214 8.50425 11.6893 8.32914C11.8159 8.1986 12.0134 8.13795 12.2831 8.13795H12.661V8.48817H12.2915C12.1486 8.48817 12.0673 8.51004 11.9894 8.58584C11.9236 8.65486 11.877 8.7849 11.877 8.95679C11.877 9.13233 11.912 9.25729 11.9856 9.34102C12.0444 9.40512 12.1542 9.42447 12.2575 9.42447H12.4333L12.9842 8.13795H13.5699L14.2323 9.68517V8.1379H14.8285L15.5156 9.27687V8.1379H15.9154V9.77344V9.77349ZM3 10.0957H3.66823L3.81884 9.73111H4.15598L4.3061 10.0957H5.62106V9.81735L5.73864 10.0966H6.42005L6.53713 9.81385V10.0957H9.80449L9.80285 9.49907H9.86607C9.91059 9.50005 9.92387 9.50514 9.92387 9.57858V10.0957H11.6126V9.95702C11.749 10.0302 11.9614 10.0957 12.2393 10.0957H12.9507L13.1024 9.73111H13.4401L13.5905 10.0957H14.959V9.74997L15.1668 10.0957H16.2628V7.81387H15.1777V8.08408L15.0262 7.81393H13.9107V8.08408L13.7713 7.81393H12.2657C12.0134 7.81393 11.7912 7.8486 11.6127 7.94698V7.81387H10.5749V7.94698C10.4595 7.84581 10.3044 7.81387 10.1326 7.81387H6.33665L6.08087 8.40395L5.82067 7.81387H4.62531V8.08408L4.49264 7.81393H3.47327L3 8.89778V10.0957V10.0957Z" fill="white"/>
<path fill-rule="evenodd" clip-rule="evenodd" d="M16.9292 11.3027H16.2153C16.1442 11.3027 16.0968 11.3054 16.0586 11.3318C16.0176 11.3579 16.0003 11.3987 16.0003 11.4507C16.0003 11.5113 16.0353 11.5533 16.0873 11.5715C16.1265 11.5859 16.1719 11.5897 16.2386 11.5906L16.448 11.5959C16.6615 11.602 16.8054 11.6384 16.8928 11.7272C16.9075 11.7403 16.918 11.7559 16.9292 11.7685V11.3027ZM16.9292 12.3814C16.8331 12.5209 16.6483 12.591 16.3974 12.591H15.6419V12.2394H16.395C16.4685 12.2394 16.5212 12.2294 16.5536 12.1989C16.5799 12.1749 16.6 12.1378 16.6 12.0928C16.6 12.0445 16.5799 12.0063 16.5527 11.9844C16.5221 11.9585 16.4818 11.948 16.4142 11.9471C16.0472 11.9357 15.5891 11.9585 15.5891 11.4411C15.5891 11.204 15.7404 10.9543 16.1493 10.9543H16.9292V10.6288H16.2048C15.9861 10.6288 15.8278 10.6806 15.7148 10.7632V10.6288H14.6439C14.4744 10.6288 14.2737 10.6715 14.1771 10.7632L14.1786 10.6288H12.2665V10.7632C12.1142 10.6533 11.8582 10.6288 11.7382 10.6288H10.4789V10.7632C10.3579 10.6461 10.0917 10.6288 9.9277 10.6288H8.51622L8.19378 10.9795L7.89136 10.6288H5.78294V12.912H7.85193L8.18487 12.5572L8.49845 12.9121L9.7719 12.913V12.3761H9.89806C10.0662 12.3784 10.2671 12.3723 10.4429 12.2963V12.9121H11.4942V12.3169H11.5448C11.6096 12.3169 11.6161 12.3206 11.6161 12.3847V12.9121H14.8108C15.0122 12.9121 15.2239 12.8601 15.3424 12.7669V12.9121H16.3559C16.5669 12.9121 16.7718 12.883 16.9292 12.8077V12.3814ZM15.3687 11.7272C15.4452 11.8065 15.4858 11.9065 15.4858 12.0741C15.4858 12.4271 15.2654 12.591 14.8719 12.591H14.1092V12.2394H14.8684C14.9435 12.2394 14.9954 12.2294 15.0295 12.1989C15.0439 12.1852 15.0553 12.1688 15.0631 12.1505C15.0708 12.1323 15.0747 12.1126 15.0745 12.0928C15.0745 12.0445 15.0535 12.0063 15.0267 11.9844C14.9966 11.9585 14.9558 11.948 14.888 11.9471C14.5212 11.9357 14.0645 11.9585 14.0645 11.4411C14.0645 11.204 14.2135 10.9543 14.6219 10.9543H15.407V11.3027H14.6907C14.6187 11.3027 14.5718 11.3054 14.5327 11.3318C14.4902 11.3579 14.4744 11.3987 14.4744 11.4507C14.4744 11.5113 14.5107 11.5533 14.5604 11.5715C14.6005 11.5859 14.6438 11.5897 14.7112 11.5906L14.922 11.5959C15.1356 11.602 15.2799 11.6384 15.3687 11.7272V11.7272ZM11.84 11.6269C11.7887 11.657 11.7231 11.6601 11.6478 11.6601H11.1724V11.2936H11.6541C11.7231 11.2936 11.794 11.2949 11.84 11.3218C11.8908 11.3493 11.9211 11.3997 11.9211 11.4703C11.9211 11.5396 11.8908 11.5959 11.84 11.6269ZM12.0764 11.8305C12.1633 11.862 12.2344 11.9198 12.2678 11.9676C12.3229 12.0478 12.3319 12.1224 12.3324 12.2662V12.5911H11.9407V12.3866C11.9407 12.2872 11.9503 12.142 11.877 12.0665C11.8206 12.0063 11.7332 11.993 11.591 11.993H11.1724V12.591H10.7801V10.9543H11.6821C11.8808 10.9543 12.0251 10.9625 12.1531 11.0317C12.2764 11.1057 12.3529 11.2094 12.3529 11.3957C12.3529 11.6557 12.1795 11.789 12.0764 11.8305ZM12.5704 10.9543H13.8761V11.2936H12.9601V11.5896H13.8532V11.9238H12.96V12.249L13.8761 12.2509V12.591H12.5704V10.9543ZM9.93301 11.709H9.4266V11.2936H9.93722C10.0783 11.2936 10.176 11.3497 10.176 11.4941C10.176 11.6352 10.083 11.709 9.93301 11.709ZM9.03723 12.4425L8.43813 11.776L9.03734 11.1301V12.4425H9.03723ZM7.48727 12.249H6.52598V11.9238H7.3843V11.5896H6.52598V11.2936H7.50614L7.93309 11.7694L7.48727 12.249ZM10.5954 11.4941C10.5954 11.9471 10.2574 12.0418 9.91458 12.0418H9.4266V12.591H8.6677L8.18602 12.0496L7.68568 12.591H6.13731V10.9543H7.70969L8.19072 11.4903L8.68777 10.9543H9.93722C10.2478 10.9543 10.5954 11.0399 10.5954 11.4941V11.4941Z" fill="white"/>
<path fill-rule="evenodd" clip-rule="evenodd" d="M10.6611 8.57998C10.6611 8.83881 10.4874 8.97499 10.3869 9.01529C10.4722 9.04816 10.5448 9.10503 10.5788 9.15354C10.634 9.23377 10.6448 9.30792 10.6448 9.45224V9.77348H10.2505L10.2489 9.56807C10.2489 9.47062 10.2587 9.32887 10.1857 9.25056C10.1284 9.19204 10.0428 9.1799 9.90102 9.1799H9.48134V9.77348H9.09016V8.13794H9.99081C10.189 8.13794 10.337 8.1445 10.4636 8.21724C10.5879 8.28948 10.6611 8.3965 10.6611 8.57998Z" fill="#2F9BCA"/>
<path fill-rule="evenodd" clip-rule="evenodd" d="M8.81946 9.77348H7.51281V8.13773H8.81941V8.47996H7.90481V8.77352H8.7966V9.10974L7.90481 9.10881V9.43546H8.81946" fill="#2EA3D0"/>
<path fill-rule="evenodd" clip-rule="evenodd" d="M7.22215 9.77348H6.82134L6.81899 8.49423L6.25314 9.77348H5.90998L5.34013 8.49188V9.77348H4.54509L4.39519 9.40909H3.58078L3.43017 9.77348H3.00492L3.7041 8.13772H4.28559L4.95032 9.68773V8.13772H5.58962L6.10095 9.24891L6.57093 8.13766H7.22215" fill="#55B2D8"/>
<path fill-rule="evenodd" clip-rule="evenodd" d="M10.1498 8.80991C10.0966 8.84048 10.033 8.84327 9.9568 8.84327H9.48134V8.47998H9.96281C10.0316 8.47998 10.1027 8.48255 10.1489 8.5082C10.1992 8.5327 10.2307 8.58329 10.2307 8.65301C10.2307 8.72482 10.2002 8.78147 10.1498 8.80996" fill="white"/>
<path fill-rule="evenodd" clip-rule="evenodd" d="M4.25459 9.06802L3.98645 8.41751L3.72018 9.06802" fill="white"/>
</g>
<defs>
<radialGradient id="paint0_radial" cx="0" cy="0" r="1" gradientUnits="userSpaceOnUse" gradientTransform="translate(5.32526 5.43208) scale(16.5928)">
<stop stop-color="#88CDE7"/>
<stop offset="1" stop-color="#2274AD"/>
</radialGradient>
</defs>
</svg>
