<svg width="20" height="20" viewBox="0 0 20 20" fill="none" xmlns="http://www.w3.org/2000/svg">
<path d="M14.9933 7.449C14.4368 7.449 13.9866 7.89457 13.9866 8.44453V11.9733C13.9866 12.2375 14.0927 12.4909 14.2815 12.6778C14.4703 12.8646 14.7263 12.9696 14.9933 12.9696C15.2603 12.9696 15.5164 12.8646 15.7051 12.6778C15.8939 12.4909 16 12.2375 16 11.9733V8.44453C16 7.89457 15.5498 7.449 14.9933 7.449ZM5.00669 7.449C4.45022 7.449 4 7.89457 4 8.44453V11.9733C4 12.2375 4.10606 12.4909 4.29485 12.6778C4.48364 12.8646 4.7397 12.9696 5.00669 12.9696C5.27368 12.9696 5.52974 12.8646 5.71853 12.6778C5.90732 12.4909 6.01338 12.2375 6.01338 11.9733V8.44453C6.01348 8.3137 5.98751 8.18413 5.93695 8.06325C5.88638 7.94237 5.81222 7.83255 5.71871 7.74008C5.6252 7.6476 5.51418 7.57429 5.392 7.52434C5.26982 7.4744 5.13888 7.44879 5.00669 7.449ZM12.0031 4.48188L12.6076 3.40067C12.6253 3.36989 12.6366 3.33594 12.6409 3.30079C12.6452 3.26564 12.6424 3.23 12.6327 3.19594C12.6229 3.16188 12.6064 3.13007 12.5842 3.10236C12.5619 3.07465 12.5343 3.0516 12.503 3.03455C12.4717 3.01711 12.4372 3.00599 12.4016 3.00184C12.366 2.99769 12.3299 3.00059 12.2954 3.01037C12.2609 3.02016 12.2287 3.03663 12.2007 3.05883C12.1727 3.08104 12.1494 3.10853 12.1322 3.13971L11.5112 4.24585C11.0484 4.0628 10.5384 3.95919 10 3.95919C9.46163 3.95919 8.95159 4.06202 8.48878 4.24508L7.86777 3.14049C7.85059 3.10931 7.82733 3.08182 7.79932 3.05961C7.77132 3.03741 7.73913 3.02094 7.70464 3.01115C7.67014 3.00137 7.63403 2.99846 7.59839 3.00262C7.56275 3.00677 7.52831 3.01789 7.49705 3.03533C7.46586 3.05254 7.4384 3.07566 7.41625 3.10339C7.3941 3.13111 7.37769 3.16289 7.36797 3.1969C7.35824 3.2309 7.35539 3.26648 7.35958 3.30158C7.36377 3.33668 7.37491 3.37061 7.39237 3.40145L7.99685 4.48266C6.9083 5.09649 6.18103 6.19407 6.18103 7.449C6.18103 7.45757 6.18103 7.46536 6.18261 7.47548C6.18103 7.48016 6.18103 7.48561 6.18103 7.49028V7.49106H13.8182V7.49028V7.47548V7.449C13.819 6.19407 13.0917 5.09727 12.0031 4.48188ZM8.23692 6.01491C8.2011 6.01465 8.16569 6.00742 8.1327 5.99361C8.09971 5.97981 8.06979 5.95972 8.04464 5.93447C7.99387 5.88349 7.96563 5.81463 7.96616 5.74304C7.96668 5.67146 7.99591 5.60301 8.04743 5.55276C8.09894 5.5025 8.16852 5.47456 8.24085 5.47508C8.31318 5.47559 8.38234 5.50453 8.43312 5.55551C8.4839 5.60649 8.51213 5.67535 8.51161 5.74694C8.51109 5.81852 8.48185 5.88697 8.43034 5.93723C8.37882 5.98748 8.30925 6.01542 8.23692 6.01491ZM11.7631 6.01491C11.6944 6.00974 11.6303 5.9791 11.5835 5.92912C11.5367 5.87915 11.5107 5.81352 11.5107 5.74538C11.5107 5.67724 11.5367 5.61162 11.5835 5.56164C11.6303 5.51166 11.6944 5.48102 11.7631 5.47586C11.8353 5.47586 11.9046 5.50425 11.9557 5.5548C12.0067 5.60534 12.0354 5.6739 12.0354 5.74538C12.0354 5.81686 12.0067 5.88542 11.9557 5.93596C11.9046 5.98651 11.8353 6.01491 11.7631 6.01491ZM6.18103 13.2212C6.18103 13.7244 6.59425 14.1334 7.10508 14.1334H7.56631V16.0037C7.56631 16.2679 7.67237 16.5213 7.86117 16.7082C8.04996 16.895 8.30601 17 8.573 17C8.83999 17 9.09605 16.895 9.28484 16.7082C9.47363 16.5213 9.57969 16.2679 9.57969 16.0037V14.1334H10.4187V16.0037C10.4187 16.5544 10.8689 16.9992 11.4238 16.9992C11.9819 16.9992 12.4321 16.5544 12.4321 16.0037V14.1334H12.8933C13.4034 14.1334 13.8174 13.7252 13.8174 13.2212V7.69671H6.18103V13.2212Z" fill="#419958"/>
</svg>
