<svg width="20" height="20" viewBox="0 0 20 20" fill="none" xmlns="http://www.w3.org/2000/svg">
<path d="M13.6713 10.3703C13.665 9.30469 14.1478 8.50156 15.1228 7.90938C14.5775 7.12813 13.7525 6.69844 12.665 6.61562C11.6353 6.53437 10.5088 7.21562 10.0963 7.21562C9.66031 7.21562 8.66344 6.64375 7.87906 6.64375C6.26031 6.66875 4.54 7.93437 4.54 10.5094C4.54 11.2703 4.67906 12.0563 4.95719 12.8656C5.32906 13.9313 6.66969 16.5422 8.06813 16.5C8.79938 16.4828 9.31656 15.9812 10.2681 15.9812C11.1916 15.9812 11.6697 16.5 12.4853 16.5C13.8963 16.4797 15.1088 14.1063 15.4619 13.0375C13.5697 12.1453 13.6713 10.425 13.6713 10.3703ZM12.0291 5.60469C12.8213 4.66406 12.7494 3.80781 12.7259 3.5C12.0259 3.54062 11.2166 3.97656 10.7556 4.5125C10.2478 5.0875 9.94938 5.79844 10.0134 6.6C10.7697 6.65781 11.4603 6.26875 12.0291 5.60469Z" fill="#419958"/>
</svg>
