<svg width="20" height="20" viewBox="0 0 20 20" fill="none" xmlns="http://www.w3.org/2000/svg">
<path fill-rule="evenodd" clip-rule="evenodd" d="M7.85489 12.8546C7.80845 12.9012 7.75327 12.9381 7.69252 12.9633C7.63178 12.9886 7.56666 13.0015 7.50089 13.0015C7.43512 13.0015 7.37 12.9886 7.30926 12.9633C7.24851 12.9381 7.19334 12.9012 7.14689 12.8546L4.14689 9.85463C4.10033 9.80819 4.06339 9.75301 4.03818 9.69227C4.01297 9.63152 4 9.5664 4 9.50063C4 9.43486 4.01297 9.36974 4.03818 9.309C4.06339 9.24825 4.10033 9.19308 4.14689 9.14663L7.14689 6.14663C7.24078 6.05275 7.36812 6 7.50089 6C7.63367 6 7.76101 6.05275 7.85489 6.14663C7.94878 6.24052 8.00152 6.36786 8.00152 6.50063C8.00152 6.63341 7.94878 6.76075 7.85489 6.85463L5.20789 9.50063L7.85489 12.1466C7.90146 12.1931 7.9384 12.2483 7.9636 12.309C7.98881 12.3697 8.00179 12.4349 8.00179 12.5006C8.00179 12.5664 7.98881 12.6315 7.9636 12.6923C7.9384 12.753 7.90146 12.8082 7.85489 12.8546Z" fill="#419958"/>
<path fill-rule="evenodd" clip-rule="evenodd" d="M16.0009 9.50063C16.0009 9.63324 15.9482 9.76042 15.8544 9.85419C15.7607 9.94795 15.6335 10.0006 15.5009 10.0006L5.00089 10.0006C4.86828 10.0006 4.7411 9.94795 4.64733 9.85419C4.55356 9.76042 4.50089 9.63324 4.50089 9.50063C4.50089 9.36803 4.55356 9.24085 4.64733 9.14708C4.7411 9.05331 4.86828 9.00063 5.00089 9.00063L15.5009 9.00063C15.6335 9.00063 15.7607 9.05331 15.8544 9.14708C15.9482 9.24085 16.0009 9.36803 16.0009 9.50063Z" fill="#419958"/>
</svg>
