<svg width="20" height="20" viewBox="0 0 20 20" fill="none" xmlns="http://www.w3.org/2000/svg">
<path fill-rule="evenodd" clip-rule="evenodd" d="M12.146 6.14689C12.1924 6.10033 12.2476 6.06339 12.3084 6.03818C12.3691 6.01297 12.4342 6 12.5 6C12.5658 6 12.6309 6.01297 12.6916 6.03818C12.7524 6.06339 12.8075 6.10033 12.854 6.14689L15.854 9.14689C15.9006 9.19334 15.9375 9.24851 15.9627 9.30926C15.9879 9.37001 16.0009 9.43513 16.0009 9.50089C16.0009 9.56666 15.9879 9.63178 15.9627 9.69253C15.9375 9.75327 15.9006 9.80845 15.854 9.85489L12.854 12.8549C12.7601 12.9488 12.6328 13.0015 12.5 13.0015C12.3672 13.0015 12.2399 12.9488 12.146 12.8549C12.0521 12.761 11.9994 12.6337 11.9994 12.5009C11.9994 12.3681 12.0521 12.2408 12.146 12.1469L14.793 9.50089L12.146 6.85489C12.0994 6.80845 12.0625 6.75327 12.0373 6.69253C12.0121 6.63178 11.9991 6.56666 11.9991 6.50089C11.9991 6.43513 12.0121 6.37001 12.0373 6.30926C12.0625 6.24851 12.0994 6.19334 12.146 6.14689Z" fill="#419958"/>
<path fill-rule="evenodd" clip-rule="evenodd" d="M4 9.50089C4 9.36829 4.05268 9.24111 4.14645 9.14734C4.24021 9.05357 4.36739 9.00089 4.5 9.00089H15C15.1326 9.00089 15.2598 9.05357 15.3536 9.14734C15.4473 9.24111 15.5 9.36829 15.5 9.50089C15.5 9.6335 15.4473 9.76068 15.3536 9.85445C15.2598 9.94822 15.1326 10.0009 15 10.0009H4.5C4.36739 10.0009 4.24021 9.94822 4.14645 9.85445C4.05268 9.76068 4 9.6335 4 9.50089Z" fill="#419958"/>
</svg>
