<svg width="20" height="20" viewBox="0 0 20 20" fill="none" xmlns="http://www.w3.org/2000/svg">
<path d="M9.99938 16.9988C8.9139 17.0251 7.86227 16.62 7.07507 15.8721C6.28786 15.1243 5.82933 14.0948 5.8 13.0094V5.89143C5.82018 5.10677 6.1504 4.36208 6.71838 3.82033C7.28636 3.27859 8.04583 2.98393 8.83055 3.00085C9.61648 2.98205 10.3778 3.27587 10.9473 3.81781C11.5168 4.35976 11.8479 5.10553 11.8681 5.89143V13.0164C11.839 13.4913 11.6298 13.9373 11.2832 14.2633C10.9366 14.5893 10.4787 14.7708 10.0029 14.7708C9.52705 14.7708 9.06915 14.5893 8.72255 14.2633C8.37595 13.9373 8.16676 13.4913 8.13766 13.0164V6.44434C8.13766 6.25872 8.2114 6.0807 8.34265 5.94944C8.47391 5.81819 8.65193 5.74445 8.83755 5.74445C9.02318 5.74445 9.2012 5.81819 9.33246 5.94944C9.46371 6.0807 9.53745 6.25872 9.53745 6.44434V13.0164C9.55141 13.13 9.60644 13.2346 9.69217 13.3104C9.7779 13.3863 9.88842 13.4281 10.0029 13.4281C10.1173 13.4281 10.2279 13.3863 10.3136 13.3104C10.3993 13.2346 10.4544 13.13 10.4683 13.0164V5.89143C10.4466 5.47737 10.2624 5.08861 9.95576 4.80951C9.64914 4.5304 9.24482 4.38349 8.83055 4.40064C8.41747 4.38537 8.01495 4.53314 7.70985 4.81204C7.40476 5.09095 7.22156 5.47863 7.19979 5.89143V13.0094C7.22893 13.7236 7.53992 14.3971 8.06465 14.8825C8.58938 15.3679 9.28508 15.6255 9.99938 15.599C10.7137 15.6255 11.4094 15.3679 11.9341 14.8825C12.4588 14.3971 12.7698 13.7236 12.799 13.0094V5.89143C12.799 5.7058 12.8727 5.52778 13.004 5.39652C13.1352 5.26527 13.3132 5.19153 13.4989 5.19153C13.6845 5.19153 13.8625 5.26527 13.9938 5.39652C14.125 5.52778 14.1988 5.7058 14.1988 5.89143V13.0094C14.1694 14.0948 13.7109 15.1243 12.9237 15.8721C12.1365 16.62 11.0849 17.0251 9.99938 16.9988Z" fill="#419958"/>
</svg>
