<svg id="Layer_1" data-name="Layer 1" xmlns="http://www.w3.org/2000/svg" viewBox="0 0 405.06 140.95"><defs><style>.cls-1{fill:#fff;}</style></defs><path class="cls-1" d="M56.79.64a54.9,54.9,0,1,0,54.84,55A54.89,54.89,0,0,0,56.79.64Zm-.1,93a38.07,38.07,0,1,1,38.11-38A38.07,38.07,0,0,1,56.69,93.6Z"/><path class="cls-1" d="M133.69,99.4l-14.63-8.34A71.91,71.91,0,0,1,77.54,124.2l4.89,16.11A88.81,88.81,0,0,0,133.69,99.4Z"/><path class="cls-1" d="M122.34,53.31V24.71h13.23v28.6c0,10.45,5.56,15.45,13.91,15.45s13.9-5,13.9-15.45V24.71h13.25v28.6c0,18.35-10.91,27.81-27.15,27.81S122.34,71.77,122.34,53.31Z"/><path class="cls-1" d="M185.73,52.76c0-17.46,12.24-29.48,29.71-29.48,17.25,0,29.26,11.69,29.26,29.38v27H232.58V68.91c-3.35,8.12-10.79,12.23-19.47,12.23C199.75,81.14,185.73,71.57,185.73,52.76Zm45.73-.54c0-9.69-6.45-16.58-16.13-16.58s-16.25,6.89-16.25,16.58,6.57,16.56,16.25,16.56S231.46,61.9,231.46,52.22Z"/><path class="cls-1" d="M255.61.67h13.23v79H255.61Z"/><path class="cls-1" d="M278.75,52.2c0-16.71,12.24-28.94,29.6-28.94s29.37,12.23,29.37,28.94v4.66H292.66c1.78,8,7.9,12.25,15.69,12.25,5.9,0,10.24-1.67,13-5.24h14.12c-4.11,10.47-14.12,17.25-27.14,17.25C291,81.12,278.75,68.89,278.75,52.2Zm45-5.91c-2.12-7.33-8.13-11-15.36-11-7.46,0-13.25,3.78-15.36,11Z"/><path class="cls-1" d="M344.26,52.2c0-16.71,12.24-28.94,29.6-28.94s29.37,12.23,29.37,28.94v4.66H358.17c1.78,8,7.9,12.25,15.69,12.25,5.9,0,10.24-1.67,13-5.24H401c-4.11,10.47-14.12,17.25-27.14,17.25C356.5,81.12,344.26,68.89,344.26,52.2Zm44.95-5.91c-2.12-7.33-8.12-11-15.35-11-7.46,0-13.25,3.78-15.36,11Z"/></svg>