<svg width="20" height="20" viewBox="0 0 20 20" fill="none" xmlns="http://www.w3.org/2000/svg">
<path d="M2.53 6.26667C2.53 5.7716 2.72666 5.2968 3.07673 4.94674C3.4268 4.59667 3.90159 4.4 4.39667 4.4H15.5967C16.0917 4.4 16.5665 4.59667 16.9166 4.94674C17.2667 5.2968 17.4633 5.7716 17.4633 6.26667V7.2H2.53V6.26667Z" fill="#419958"/>
<path fill-rule="evenodd" clip-rule="evenodd" d="M2.53 9.06667V13.7333C2.53 14.2284 2.72666 14.7032 3.07673 15.0533C3.4268 15.4033 3.90159 15.6 4.39667 15.6H15.5967C16.0917 15.6 16.5665 15.4033 16.9166 15.0533C17.2667 14.7032 17.4633 14.2284 17.4633 13.7333V9.06667H2.53ZM5.33 10.9333C5.08246 10.9333 4.84507 11.0317 4.67003 11.2067C4.495 11.3817 4.39667 11.6191 4.39667 11.8667V12.8C4.39667 13.0475 4.495 13.2849 4.67003 13.46C4.84507 13.635 5.08246 13.7333 5.33 13.7333H6.26333C6.51087 13.7333 6.74826 13.635 6.9233 13.46C7.09833 13.2849 7.19667 13.0475 7.19667 12.8V11.8667C7.19667 11.6191 7.09833 11.3817 6.9233 11.2067C6.74826 11.0317 6.51087 10.9333 6.26333 10.9333H5.33Z" fill="#419958"/>
</svg>
