<svg width="20" height="20" viewBox="0 0 20 20" fill="none" xmlns="http://www.w3.org/2000/svg">
<path d="M15.2129 5.69155C15.0724 5.21526 14.7809 4.79756 14.3823 4.50147C13.9837 4.20537 13.4996 4.04693 13.003 4.05005C12.4275 4.05056 11.873 4.26632 11.4485 4.65492C11.0241 5.04352 10.7603 5.57684 10.7091 6.15005H9.2916C9.2397 5.57624 8.97505 5.04259 8.54967 4.654C8.12429 4.26541 7.56895 4.04998 6.9928 4.05005C6.4969 4.04761 6.01365 4.20639 5.61582 4.50245C5.218 4.79852 4.92715 5.21584 4.7871 5.69155L3.0294 11.5491C3.01015 11.6144 3.00025 11.682 3 11.75V12.45C3.00111 13.3781 3.37031 14.2678 4.0266 14.9239C4.68289 15.5801 5.57266 15.9491 6.5007 15.95C7.18088 15.9489 7.846 15.7497 8.41483 15.3768C8.98366 15.0038 9.43158 14.4733 9.7039 13.85H10.2961C10.5684 14.4733 11.0163 15.0038 11.5852 15.3768C12.154 15.7497 12.8191 15.9489 13.4993 15.95C14.4275 15.9491 15.3173 15.58 15.9736 14.9237C16.63 14.2674 16.9991 13.3775 17 12.4493V11.75C17 11.6814 16.9895 11.6142 16.9706 11.5491L15.2129 5.69155ZM6.5007 14.55C5.94391 14.5493 5.41012 14.3278 5.01635 13.9342C4.62257 13.5406 4.40093 13.0068 4.4 12.45C4.4 12.3968 4.4119 12.3471 4.4154 12.2946C4.4537 11.7674 4.68976 11.2741 5.07631 10.9135C5.46287 10.5529 5.97137 10.3517 6.5 10.35C7.05695 10.35 7.5911 10.5713 7.98492 10.9651C8.37875 11.359 8.6 11.8931 8.6 12.45V12.4563C8.5976 13.0119 8.37547 13.5439 7.98214 13.9361C7.5888 14.3284 7.05622 14.5491 6.5007 14.55ZM13.4993 14.55C12.9438 14.5491 12.4112 14.3284 12.0179 13.9361C11.6245 13.5439 11.4024 13.0119 11.4 12.4563V12.45C11.4 12.1743 11.4542 11.9012 11.5597 11.6464C11.6652 11.3916 11.8199 11.1601 12.0148 10.965C12.4086 10.5711 12.9427 10.3498 13.4997 10.3497C14.0566 10.3496 14.5908 10.5708 14.9847 10.9645C15.3786 11.3583 15.5999 11.8924 15.6 12.4493C15.5993 13.0063 15.3777 13.5402 14.9839 13.9339C14.5901 14.3277 14.0562 14.5493 13.4993 14.55Z" fill="#419958"/>
</svg>
