<svg width="20" height="20" viewBox="0 0 20 20" fill="none" xmlns="http://www.w3.org/2000/svg">
<path d="M4 5.5C4 5.30109 4.07902 5.11032 4.21967 4.96967C4.36032 4.82902 4.55109 4.75 4.75 4.75H6.25C6.44891 4.75 6.63968 4.82902 6.78033 4.96967C6.92098 5.11032 7 5.30109 7 5.5V14.5C7 14.6989 6.92098 14.8897 6.78033 15.0303C6.63968 15.171 6.44891 15.25 6.25 15.25H4.75C4.55109 15.25 4.36032 15.171 4.21967 15.0303C4.07902 14.8897 4 14.6989 4 14.5V5.5Z" fill="#419958"/>
<path d="M8.5 5.5C8.5 5.30109 8.57902 5.11032 8.71967 4.96967C8.86032 4.82902 9.05109 4.75 9.25 4.75H10.75C10.9489 4.75 11.1397 4.82902 11.2803 4.96967C11.421 5.11032 11.5 5.30109 11.5 5.5V14.5C11.5 14.6989 11.421 14.8897 11.2803 15.0303C11.1397 15.171 10.9489 15.25 10.75 15.25H9.25C9.05109 15.25 8.86032 15.171 8.71967 15.0303C8.57902 14.8897 8.5 14.6989 8.5 14.5V5.5Z" fill="#419958"/>
<path d="M13.75 4.75C13.5511 4.75 13.3603 4.82902 13.2197 4.96967C13.079 5.11032 13 5.30109 13 5.5V14.5C13 14.6989 13.079 14.8897 13.2197 15.0303C13.3603 15.171 13.5511 15.25 13.75 15.25H15.25C15.4489 15.25 15.6397 15.171 15.7803 15.0303C15.921 14.8897 16 14.6989 16 14.5V5.5C16 5.30109 15.921 5.11032 15.7803 4.96967C15.6397 4.82902 15.4489 4.75 15.25 4.75H13.75Z" fill="#419958"/>
</svg>
