<svg width="20" height="20" viewBox="0 0 20 20" fill="none" xmlns="http://www.w3.org/2000/svg">
<path fill-rule="evenodd" clip-rule="evenodd" d="M6.5 3.4375C6.5 3.32147 6.45391 3.21019 6.37186 3.12814C6.28981 3.04609 6.17853 3 6.0625 3C5.94647 3 5.83519 3.04609 5.75314 3.12814C5.67109 3.21019 5.625 3.32147 5.625 3.4375V3.875H4.75C4.28587 3.875 3.84075 4.05937 3.51256 4.38756C3.18437 4.71575 3 5.16087 3 5.625L3 6.5H17V5.625C17 5.16087 16.8156 4.71575 16.4874 4.38756C16.1592 4.05937 15.7141 3.875 15.25 3.875H14.375V3.4375C14.375 3.32147 14.3289 3.21019 14.2469 3.12814C14.1648 3.04609 14.0535 3 13.9375 3C13.8215 3 13.7102 3.04609 13.6281 3.12814C13.5461 3.21019 13.5 3.32147 13.5 3.4375V3.875H6.5V3.4375ZM3 7.375H17V15.25C17 15.7141 16.8156 16.1592 16.4874 16.4874C16.1592 16.8156 15.7141 17 15.25 17H4.75C4.28587 17 3.84075 16.8156 3.51256 16.4874C3.18437 16.1592 3 15.7141 3 15.25V7.375ZM11.3125 9.125C11.1965 9.125 11.0852 9.17109 11.0031 9.25314C10.9211 9.33519 10.875 9.44647 10.875 9.5625V10.4375C10.875 10.5535 10.9211 10.6648 11.0031 10.7469C11.0852 10.8289 11.1965 10.875 11.3125 10.875H12.1875C12.3035 10.875 12.4148 10.8289 12.4969 10.7469C12.5789 10.6648 12.625 10.5535 12.625 10.4375V9.5625C12.625 9.44647 12.5789 9.33519 12.4969 9.25314C12.4148 9.17109 12.3035 9.125 12.1875 9.125H11.3125ZM13.9375 9.125C13.8215 9.125 13.7102 9.17109 13.6281 9.25314C13.5461 9.33519 13.5 9.44647 13.5 9.5625V10.4375C13.5 10.5535 13.5461 10.6648 13.6281 10.7469C13.7102 10.8289 13.8215 10.875 13.9375 10.875H14.8125C14.9285 10.875 15.0398 10.8289 15.1219 10.7469C15.2039 10.6648 15.25 10.5535 15.25 10.4375V9.5625C15.25 9.44647 15.2039 9.33519 15.1219 9.25314C15.0398 9.17109 14.9285 9.125 14.8125 9.125H13.9375ZM4.75 12.1875C4.75 12.0715 4.79609 11.9602 4.87814 11.8781C4.96019 11.7961 5.07147 11.75 5.1875 11.75H6.0625C6.17853 11.75 6.28981 11.7961 6.37186 11.8781C6.45391 11.9602 6.5 12.0715 6.5 12.1875V13.0625C6.5 13.1785 6.45391 13.2898 6.37186 13.3719C6.28981 13.4539 6.17853 13.5 6.0625 13.5H5.1875C5.07147 13.5 4.96019 13.4539 4.87814 13.3719C4.79609 13.2898 4.75 13.1785 4.75 13.0625V12.1875ZM7.8125 11.75C7.69647 11.75 7.58519 11.7961 7.50314 11.8781C7.42109 11.9602 7.375 12.0715 7.375 12.1875V13.0625C7.375 13.1785 7.42109 13.2898 7.50314 13.3719C7.58519 13.4539 7.69647 13.5 7.8125 13.5H8.6875C8.80353 13.5 8.91481 13.4539 8.99686 13.3719C9.07891 13.2898 9.125 13.1785 9.125 13.0625V12.1875C9.125 12.0715 9.07891 11.9602 8.99686 11.8781C8.91481 11.7961 8.80353 11.75 8.6875 11.75H7.8125Z" fill="#419958"/>
</svg>
