<svg width="20" height="20" viewBox="0 0 20 20" fill="none" xmlns="http://www.w3.org/2000/svg">
<path d="M13.1614 9.71429V10.5714C14.9843 10.5714 16.07 12.6 15.0643 14.12L14.4414 13.4971C14.91 12.5486 14.2186 11.4286 13.1614 11.4286V12.2857L11.8757 11L13.1614 9.71429ZM13.1614 16V15.1429C11.3386 15.1429 10.2529 13.1143 11.2586 11.5943L11.8814 12.2171C11.4129 13.1657 12.1043 14.2857 13.1614 14.2857V13.4286L14.4471 14.7143L13.1614 16ZM13.7329 5.14286H13.1614V4H12.0186V5.14286H7.44714V4H6.30428V5.14286H5.73285C5.42975 5.14286 5.13906 5.26327 4.92473 5.47759C4.7104 5.69192 4.59 5.98261 4.59 6.28571V14.2857C4.59 14.5888 4.7104 14.8795 4.92473 15.0938C5.13906 15.3082 5.42975 15.4286 5.73285 15.4286H10.8757C10.5119 15.113 10.2197 14.7233 10.0186 14.2857H5.73285V8H13.7329V9.48C14.1386 9.54286 14.5271 9.68 14.8757 9.89143V6.28571C14.8757 5.98261 14.7553 5.69192 14.541 5.47759C14.3266 5.26327 14.036 5.14286 13.7329 5.14286Z" fill="#419958"/>
</svg>
