<svg width="20" height="20" viewBox="0 0 20 20" fill="none" xmlns="http://www.w3.org/2000/svg">
<path fill-rule="evenodd" clip-rule="evenodd" d="M13.4343 6.28627C13.6058 6.11632 13.8372 6.02067 14.0787 6.02C14.3201 6.01934 14.552 6.11371 14.7244 6.28271C14.8968 6.45172 14.9958 6.68178 14.9999 6.92316C15.004 7.16453 14.9129 7.39783 14.7464 7.57261L9.85587 13.6858C9.77182 13.7763 9.67038 13.849 9.55761 13.8994C9.44483 13.9498 9.32305 13.977 9.19954 13.9793C9.07602 13.9816 8.95332 13.9589 8.83876 13.9127C8.72419 13.8665 8.62013 13.7976 8.53278 13.7103L5.29244 10.4687C5.20217 10.3846 5.12976 10.2832 5.07954 10.1704C5.02932 10.0577 5.00232 9.93607 5.00014 9.8127C4.99797 9.68933 5.02066 9.56679 5.06687 9.45238C5.11308 9.33797 5.18187 9.23405 5.26911 9.1468C5.35636 9.05955 5.46029 8.99077 5.5747 8.94455C5.68911 8.89834 5.81165 8.87565 5.93502 8.87782C6.05839 8.88 6.18006 8.907 6.29277 8.95722C6.40547 9.00744 6.50691 9.07985 6.59103 9.17012L9.15635 11.7342L13.4111 6.31323C13.4187 6.30374 13.4268 6.29473 13.4356 6.28627H13.4343Z" fill="#419958"/>
</svg>
