<svg width="20" height="20" viewBox="0 0 20 20" fill="none" xmlns="http://www.w3.org/2000/svg">
<path d="M13 10.0196C13.0007 10.1506 12.9755 10.2805 12.9258 10.4017C12.8761 10.523 12.8028 10.6333 12.7102 10.7263L8.71292 14.7073C8.61974 14.8001 8.50913 14.8737 8.38739 14.9239C8.26565 14.9741 8.13517 15 8.0034 15C7.87164 15 7.74116 14.9741 7.61942 14.9239C7.49768 14.8737 7.38706 14.8001 7.29389 14.7073C7.20072 14.6145 7.1268 14.5043 7.07638 14.3831C7.02595 14.2618 7 14.1319 7 14.0007C7 13.8694 7.02595 13.7395 7.07638 13.6182C7.1268 13.497 7.20072 13.3868 7.29389 13.294L10.6016 10.0196L7.4238 6.73527C7.32158 6.64372 7.23943 6.53214 7.18248 6.40752C7.12553 6.2829 7.09502 6.14792 7.09284 6.01102C7.09066 5.87412 7.11687 5.73824 7.16982 5.61189C7.22278 5.48554 7.30134 5.37143 7.4006 5.27669C7.49986 5.18196 7.61767 5.10864 7.74668 5.06132C7.87568 5.014 8.0131 4.9937 8.15035 5.00169C8.28759 5.00968 8.4217 5.04579 8.54429 5.10776C8.66688 5.16972 8.77532 5.25621 8.86282 5.36182L12.7202 9.34285C12.8964 9.52486 12.9964 9.76683 13 10.0196Z" fill="#419958"/>
</svg>
