<svg width="20" height="20" viewBox="0 0 20 20" fill="none" xmlns="http://www.w3.org/2000/svg">
<path d="M9.98037 13C9.84938 13.0007 9.71954 12.9755 9.59828 12.9258C9.47702 12.8761 9.36673 12.8028 9.27373 12.7102L5.2927 8.71292C5.1999 8.61974 5.12629 8.50913 5.07607 8.38739C5.02585 8.26565 5 8.13517 5 8.0034C5 7.87164 5.02585 7.74116 5.07607 7.61942C5.12629 7.49768 5.1999 7.38706 5.2927 7.29389C5.38549 7.20072 5.49566 7.1268 5.6169 7.07638C5.73815 7.02595 5.8681 7 5.99933 7C6.13057 7 6.26051 7.02595 6.38176 7.07638C6.503 7.1268 6.61317 7.20072 6.70597 7.29389L9.98037 10.6016L13.2647 7.4238C13.3563 7.32158 13.4679 7.23943 13.5925 7.18248C13.7171 7.12553 13.8521 7.09502 13.989 7.09284C14.1259 7.09066 14.2618 7.11687 14.3881 7.16982C14.5145 7.22278 14.6286 7.30134 14.7233 7.4006C14.818 7.49986 14.8914 7.61767 14.9387 7.74668C14.986 7.87568 15.0063 8.0131 14.9983 8.15035C14.9903 8.28759 14.9542 8.4217 14.8922 8.54429C14.8303 8.66688 14.7438 8.77532 14.6382 8.86282L10.6571 12.7202C10.4751 12.8964 10.2332 12.9964 9.98037 13Z" fill="#419958"/>
</svg>
