<svg width="20" height="20" viewBox="0 0 20 20" fill="none" xmlns="http://www.w3.org/2000/svg">
<path d="M7.00002 9.98036C6.99926 9.84938 7.02446 9.71954 7.0742 9.59828C7.12393 9.47702 7.1972 9.36673 7.28982 9.27373L11.2871 5.29269C11.3803 5.1999 11.4909 5.12629 11.6126 5.07607C11.7343 5.02584 11.8648 5 11.9966 5C12.1284 5 12.2588 5.02584 12.3806 5.07607C12.5023 5.12629 12.6129 5.1999 12.7061 5.29269C12.7993 5.38549 12.8732 5.49566 12.9236 5.6169C12.974 5.73814 13 5.86809 13 5.99933C13 6.13056 12.974 6.26051 12.9236 6.38176C12.8732 6.503 12.7993 6.61316 12.7061 6.70596L9.39837 9.98036L12.5762 13.2647C12.6784 13.3563 12.7606 13.4678 12.8175 13.5925C12.8745 13.7171 12.905 13.8521 12.9072 13.989C12.9093 14.1259 12.8831 14.2617 12.8302 14.3881C12.7772 14.5145 12.6987 14.6286 12.5994 14.7233C12.5001 14.818 12.3823 14.8914 12.2533 14.9387C12.1243 14.986 11.9869 15.0063 11.8497 14.9983C11.7124 14.9903 11.5783 14.9542 11.4557 14.8922C11.3331 14.8303 11.2247 14.7438 11.1372 14.6382L7.27982 10.6571C7.10363 10.4751 7.00359 10.2332 7.00002 9.98036Z" fill="#419958"/>
</svg>
