<svg width="20" height="20" viewBox="0 0 20 20" fill="none" xmlns="http://www.w3.org/2000/svg">
<path d="M10.0196 7.00002C10.1506 6.99926 10.2805 7.02446 10.4017 7.0742C10.523 7.12393 10.6333 7.1972 10.7263 7.28982L14.7073 11.2871C14.8001 11.3803 14.8737 11.4909 14.9239 11.6126C14.9742 11.7343 15 11.8648 15 11.9966C15 12.1284 14.9742 12.2588 14.9239 12.3806C14.8737 12.5023 14.8001 12.6129 14.7073 12.7061C14.6145 12.7993 14.5043 12.8732 14.3831 12.9236C14.2619 12.974 14.1319 13 14.0007 13C13.8694 13 13.7395 12.974 13.6182 12.9236C13.497 12.8732 13.3868 12.7993 13.294 12.7061L10.0196 9.39837L6.73528 12.5762C6.64372 12.6784 6.53215 12.7606 6.40753 12.8175C6.28291 12.8745 6.14793 12.905 6.01103 12.9072C5.87413 12.9093 5.73825 12.8831 5.61189 12.8302C5.48554 12.7772 5.37143 12.6987 5.2767 12.5994C5.18196 12.5001 5.10864 12.3823 5.06132 12.2533C5.014 12.1243 4.99371 11.9869 5.0017 11.8497C5.00969 11.7124 5.04579 11.5783 5.10776 11.4557C5.16972 11.3331 5.25621 11.2247 5.36182 11.1372L9.34286 7.27982C9.52486 7.10363 9.76683 7.00359 10.0196 7.00002Z" fill="#419958"/>
</svg>
