<svg width="20" height="20" viewBox="0 0 20 20" fill="none" xmlns="http://www.w3.org/2000/svg">
<path d="M15.4721 4.52786C14.7683 3.82405 13.6422 3.82405 12.9384 4.52786L11.6716 5.79472L11.1789 5.30205C10.8974 5.02053 10.4751 5.02053 10.1935 5.30205L9.6305 5.79472C9.34897 6.07625 9.34897 6.49853 9.6305 6.78006L13.1496 10.2991C13.4311 10.5806 13.8534 10.5806 14.1349 10.2991L14.6276 9.80645C14.9091 9.52493 14.9091 9.10264 14.6276 8.82112L14.2053 8.32845L15.4721 7.06158C16.176 6.35777 16.176 5.23167 15.4721 4.52786ZM6.04106 11.4252C4.49267 12.9736 5.40762 13.6774 4 15.5073L4.49267 16C6.32258 14.5924 7.02639 15.5073 8.57478 13.9589L12.1642 10.3695L9.6305 7.83578L6.04106 11.4252Z" fill="#419958"/>
</svg>
