<svg width="20" height="20" viewBox="0 0 20 20" fill="none" xmlns="http://www.w3.org/2000/svg">
<path d="M14.7311 3.67999H8.42689C7.72517 3.67999 7.15734 4.24782 7.15734 4.94955V8.50998L4.18747 11.442C4.09848 11.53 4.03765 11.6424 4.01269 11.7651C3.98773 11.8877 3.99976 12.015 4.04727 12.1308C4.09478 12.2466 4.17561 12.3456 4.27952 12.4154C4.38342 12.4852 4.50571 12.5225 4.63087 12.5227V15.6807C4.63087 15.8483 4.69741 16.0089 4.81586 16.1274C4.93431 16.2458 5.09497 16.3124 5.26248 16.3124H15.3684C15.5359 16.3124 15.6966 16.2458 15.815 16.1274C15.9335 16.0089 16 15.8483 16 15.6807V4.94891C16 4.24782 15.4328 3.67999 14.7311 3.67999ZM9.63455 11.9611V15.0491H5.8941V11.5323L7.78075 9.66963L9.63455 11.5664V11.9611ZM10.9471 8.10132H9.68381V6.83809H10.9471V8.10132ZM13.4735 13.1543H12.2103V11.891H13.4735V13.1543ZM13.4735 10.6278H12.2103V9.36456H13.4735V10.6278ZM13.4735 8.10132H12.2103V6.83809H13.4735V8.10132Z" fill="#419958"/>
</svg>
