<svg width="20" height="20" viewBox="0 0 20 20" fill="none" xmlns="http://www.w3.org/2000/svg">
<path d="M6 6.085V12.5C5.9999 13.1347 6.24123 13.7457 6.67504 14.209C7.10885 14.6724 7.70265 14.9534 8.336 14.995L8.5 15H12.914C12.8106 15.2924 12.6191 15.5456 12.3659 15.7247C12.1127 15.9038 11.8102 16 11.5 16H8C7.20435 16 6.44129 15.6839 5.87868 15.1213C5.31607 14.5587 5 13.7956 5 13V7.5C4.99984 7.18967 5.09593 6.88694 5.27503 6.63351C5.45413 6.38008 5.70742 6.18844 6 6.085ZM13.5 4C13.8978 4 14.2794 4.15804 14.5607 4.43934C14.842 4.72064 15 5.10218 15 5.5V12.5C15 12.8978 14.842 13.2794 14.5607 13.5607C14.2794 13.842 13.8978 14 13.5 14H8.5C8.10218 14 7.72064 13.842 7.43934 13.5607C7.15804 13.2794 7 12.8978 7 12.5V5.5C7 5.10218 7.15804 4.72064 7.43934 4.43934C7.72064 4.15804 8.10218 4 8.5 4H13.5Z" fill="#419958"/>
</svg>
