<svg width="20" height="20" viewBox="0 0 20 20" fill="none" xmlns="http://www.w3.org/2000/svg">
<path d="M3.77778 10.7778H8.44444C8.65072 10.7778 8.84855 10.6958 8.99442 10.55C9.14028 10.4041 9.22222 10.2063 9.22222 10V3.77778C9.22222 3.5715 9.14028 3.37367 8.99442 3.22781C8.84855 3.08194 8.65072 3 8.44444 3H3.77778C3.5715 3 3.37367 3.08194 3.22781 3.22781C3.08194 3.37367 3 3.5715 3 3.77778V10C3 10.2063 3.08194 10.4041 3.22781 10.55C3.37367 10.6958 3.5715 10.7778 3.77778 10.7778ZM3 16.2222C3 16.4285 3.08194 16.6263 3.22781 16.7722C3.37367 16.9181 3.5715 17 3.77778 17H8.44444C8.65072 17 8.84855 16.9181 8.99442 16.7722C9.14028 16.6263 9.22222 16.4285 9.22222 16.2222V13.1111C9.22222 12.9048 9.14028 12.707 8.99442 12.5611C8.84855 12.4153 8.65072 12.3333 8.44444 12.3333H3.77778C3.5715 12.3333 3.37367 12.4153 3.22781 12.5611C3.08194 12.707 3 12.9048 3 13.1111V16.2222ZM10.7778 16.2222C10.7778 16.4285 10.8597 16.6263 11.0056 16.7722C11.1514 16.9181 11.3493 17 11.5556 17H16.2222C16.4285 17 16.6263 16.9181 16.7722 16.7722C16.9181 16.6263 17 16.4285 17 16.2222V10.7778C17 10.5715 16.9181 10.3737 16.7722 10.2278C16.6263 10.0819 16.4285 10 16.2222 10H11.5556C11.3493 10 11.1514 10.0819 11.0056 10.2278C10.8597 10.3737 10.7778 10.5715 10.7778 10.7778V16.2222ZM11.5556 8.44444H16.2222C16.4285 8.44444 16.6263 8.3625 16.7722 8.21664C16.9181 8.07078 17 7.87295 17 7.66667V3.77778C17 3.5715 16.9181 3.37367 16.7722 3.22781C16.6263 3.08194 16.4285 3 16.2222 3H11.5556C11.3493 3 11.1514 3.08194 11.0056 3.22781C10.8597 3.37367 10.7778 3.5715 10.7778 3.77778V7.66667C10.7778 7.87295 10.8597 8.07078 11.0056 8.21664C11.1514 8.3625 11.3493 8.44444 11.5556 8.44444Z" fill="#419958"/>
</svg>
