<svg width="20" height="20" viewBox="0 0 20 20" fill="none" xmlns="http://www.w3.org/2000/svg">
<path d="M11.571 3.7826H8.43576C8.22789 3.7826 8.02852 3.86518 7.88153 4.01217C7.73454 4.15917 7.65196 4.35853 7.65196 4.56641L7.65196 8.48542H6.40885C6.25385 8.48546 6.10234 8.53145 5.97348 8.61757C5.84461 8.7037 5.74418 8.8261 5.68487 8.9693C5.62556 9.1125 5.61003 9.27007 5.64026 9.42209C5.67049 9.57412 5.74512 9.71376 5.8547 9.82338L9.44922 13.4179C9.59621 13.5648 9.79554 13.6474 10.0034 13.6474C10.2112 13.6474 10.4105 13.5648 10.5575 13.4179L14.152 9.82338C14.2616 9.71376 14.3363 9.57412 14.3665 9.42209C14.3967 9.27007 14.3812 9.1125 14.3219 8.9693C14.2626 8.8261 14.1621 8.7037 14.0333 8.61757C13.9044 8.53145 13.7529 8.48546 13.5979 8.48542H12.3548L12.3548 4.56641C12.3548 4.35853 12.2722 4.15917 12.1252 4.01217C11.9782 3.86518 11.7789 3.7826 11.571 3.7826ZM14.7062 16.215H5.30055C5.09267 16.215 4.89331 16.1324 4.74632 15.9854C4.59933 15.8384 4.51675 15.6391 4.51675 15.4312C4.51675 15.2233 4.59933 15.024 4.74632 14.877C4.89331 14.73 5.09267 14.6474 5.30055 14.6474L14.7062 14.6474C14.9141 14.6474 15.1134 14.73 15.2604 14.877C15.4074 15.024 15.49 15.2233 15.49 15.4312C15.49 15.6391 15.4074 15.8384 15.2604 15.9854C15.1134 16.1324 14.9141 16.215 14.7062 16.215Z" fill="#419958"/>
</svg>
