<svg width="20" height="20" viewBox="0 0 20 20" fill="none" xmlns="http://www.w3.org/2000/svg">
<path d="M10 8.25C9.0375 8.25 8.25 9.0375 8.25 10C8.25 10.9625 9.0375 11.75 10 11.75C10.9625 11.75 11.75 10.9625 11.75 10C11.75 9.0375 10.9625 8.25 10 8.25ZM15.25 8.25C14.2875 8.25 13.5 9.0375 13.5 10C13.5 10.9625 14.2875 11.75 15.25 11.75C16.2125 11.75 17 10.9625 17 10C17 9.0375 16.2125 8.25 15.25 8.25ZM4.75 8.25C3.7875 8.25 3 9.0375 3 10C3 10.9625 3.7875 11.75 4.75 11.75C5.7125 11.75 6.5 10.9625 6.5 10C6.5 9.0375 5.7125 8.25 4.75 8.25Z" fill="#419958"/>
</svg>
