<svg width="20" height="20" viewBox="0 0 20 20" fill="none" xmlns="http://www.w3.org/2000/svg">
<path d="M15.6 4.4H4.4C3.63 4.4 3.007 5.03 3.007 5.8L3 14.2C3 14.97 3.63 15.6 4.4 15.6H15.6C16.37 15.6 17 14.97 17 14.2V5.8C17 5.03 16.37 4.4 15.6 4.4ZM15.32 7.375L10.371 10.469C10.147 10.609 9.853 10.609 9.629 10.469L4.68 7.375C4.60981 7.3356 4.54834 7.28236 4.49932 7.21852C4.4503 7.15467 4.41474 7.08155 4.3948 7.00356C4.37486 6.92558 4.37095 6.84436 4.38331 6.76482C4.39567 6.68528 4.42404 6.60907 4.4667 6.54081C4.50936 6.47255 4.56543 6.41366 4.63151 6.3677C4.69759 6.32174 4.77231 6.28966 4.85115 6.27341C4.92998 6.25716 5.0113 6.25708 5.09017 6.27317C5.16904 6.28925 5.24382 6.32117 5.31 6.367L10 9.3L14.69 6.367C14.7562 6.32117 14.831 6.28925 14.9098 6.27317C14.9887 6.25708 15.07 6.25716 15.1489 6.27341C15.2277 6.28966 15.3024 6.32174 15.3685 6.3677C15.4346 6.41366 15.4906 6.47255 15.5333 6.54081C15.576 6.60907 15.6043 6.68528 15.6167 6.76482C15.629 6.84436 15.6251 6.92558 15.6052 7.00356C15.5853 7.08155 15.5497 7.15467 15.5007 7.21852C15.4517 7.28236 15.3902 7.3356 15.32 7.375Z" fill="#419958"/>
</svg>
