<svg width="20" height="20" viewBox="0 0 20 20" fill="none" xmlns="http://www.w3.org/2000/svg">
<path d="M5.1 9.09999C5.87219 9.09999 6.5 8.47218 6.5 7.69999C6.5 6.92781 5.87219 6.29999 5.1 6.29999C4.32781 6.29999 3.7 6.92781 3.7 7.69999C3.7 8.47218 4.32781 9.09999 5.1 9.09999ZM14.9 9.09999C15.6722 9.09999 16.3 8.47218 16.3 7.69999C16.3 6.92781 15.6722 6.29999 14.9 6.29999C14.1278 6.29999 13.5 6.92781 13.5 7.69999C13.5 8.47218 14.1278 9.09999 14.9 9.09999ZM15.6 9.79999H14.2C13.815 9.79999 13.4672 9.95531 13.2134 10.2069C14.095 10.6903 14.7206 11.5631 14.8562 12.6H16.3C16.6872 12.6 17 12.2872 17 11.9V11.2C17 10.4278 16.3722 9.79999 15.6 9.79999ZM10 9.79999C11.3541 9.79999 12.45 8.70406 12.45 7.34999C12.45 5.99593 11.3541 4.89999 10 4.89999C8.64594 4.89999 7.55 5.99593 7.55 7.34999C7.55 8.70406 8.64594 9.79999 10 9.79999ZM11.68 10.5H11.4984C11.0434 10.7187 10.5381 10.85 10 10.85C9.46187 10.85 8.95875 10.7187 8.50156 10.5H8.32C6.92875 10.5 5.8 11.6287 5.8 13.02V13.65C5.8 14.2297 6.27031 14.7 6.85 14.7H13.15C13.7297 14.7 14.2 14.2297 14.2 13.65V13.02C14.2 11.6287 13.0712 10.5 11.68 10.5ZM6.78656 10.2069C6.53281 9.95531 6.185 9.79999 5.8 9.79999H4.4C3.62781 9.79999 3 10.4278 3 11.2V11.9C3 12.2872 3.31281 12.6 3.7 12.6H5.14156C5.27938 11.5631 5.905 10.6903 6.78656 10.2069Z" fill="#419958"/>
</svg>
