<svg width="20" height="20" viewBox="0 0 20 20" fill="none" xmlns="http://www.w3.org/2000/svg">
<path d="M4.15959 5.17423C5.68304 7.12756 8.49613 10.7476 8.49613 10.7476V15.2727C8.49613 15.6875 8.83552 16.0269 9.25032 16.0269H10.7587C11.1735 16.0269 11.5129 15.6875 11.5129 15.2727V10.7476C11.5129 10.7476 14.3184 7.12756 15.8419 5.17423C15.9283 5.06289 15.9817 4.92952 15.9961 4.7893C16.0104 4.64908 15.9851 4.50765 15.923 4.38111C15.8609 4.25457 15.7646 4.14801 15.6449 4.07356C15.5252 3.99911 15.387 3.95976 15.2461 3.96H4.75539C4.12942 3.96 3.77496 4.67647 4.15959 5.17423Z" fill="#419958"/>
</svg>
