<svg width="20" height="20" viewBox="0 0 20 20" fill="none" xmlns="http://www.w3.org/2000/svg">
<path d="M14.0784 5.52C13.6351 5.9442 13.1079 6.27074 12.5307 6.47857C11.922 6.58598 10.2376 5.80481 9.40761 6.60225C9.26928 6.74059 9.0984 6.87892 8.91938 7.01725C8.52879 6.84637 7.92664 6.58598 7.48723 6.33372C7.04782 6.08147 5.94116 5.52 5.94116 5.52L3.5 8.36803C3.5 8.36803 4.10215 9.18175 4.47646 9.7188C4.72058 10.0768 5.02166 10.622 5.21695 10.9882L4.94029 11.3137C4.87403 11.4453 4.85019 11.5942 4.87205 11.7399C4.89391 11.8857 4.96039 12.021 5.06234 12.1274C5.18002 12.2156 5.32321 12.2632 5.47029 12.2629C5.61737 12.2626 5.76036 12.2145 5.87769 12.1258C5.83419 12.1767 5.80126 12.2358 5.78084 12.2996C5.76041 12.3634 5.7529 12.4306 5.75873 12.4974C5.76456 12.5641 5.78363 12.629 5.81481 12.6883C5.84599 12.7476 5.88867 12.8001 5.94035 12.8427C6.06461 12.9152 6.20597 12.9534 6.34987 12.9531C6.49377 12.9528 6.63498 12.9141 6.75895 12.841C6.66598 12.9569 6.61511 13.1009 6.61466 13.2495C6.61422 13.3981 6.66423 13.5424 6.75651 13.6588C6.87646 13.7004 7.00439 13.7136 7.1303 13.6975C7.25621 13.6814 7.3767 13.6364 7.48235 13.5661C7.42971 13.6907 7.41608 13.8283 7.44325 13.9607C7.47041 14.0932 7.5371 14.2144 7.63451 14.3082C7.77212 14.3693 7.923 14.3945 8.07301 14.3814C8.22302 14.3684 8.36724 14.3174 8.49218 14.2333L8.91206 13.8533C9.29613 14.2358 9.82586 14.4726 10.4109 14.4726L10.4606 14.4717C10.6534 14.4553 10.8381 14.3867 10.9949 14.2733C11.1517 14.1599 11.2747 14.006 11.3508 13.8281C11.4696 13.8737 11.6047 13.9046 11.7479 13.9046C11.9399 13.9046 12.1181 13.8492 12.2687 13.754C12.7447 13.4391 12.6308 13.195 12.6308 13.195C12.8 13.2679 12.988 13.2852 13.1678 13.2444C13.3475 13.2036 13.5096 13.1068 13.6308 12.968C13.7568 12.8391 13.8362 12.672 13.8566 12.4929C13.8769 12.3139 13.837 12.1331 13.7431 11.9793C13.7483 11.9824 13.7542 11.9838 13.7602 11.9834C14.1028 11.9834 14.4006 11.7946 14.556 11.5163C14.6325 11.3185 14.6583 11.1047 14.6312 10.8944C14.6041 10.6841 14.5248 10.4839 14.4006 10.312L14.403 10.3161C15.0703 10.1859 15.0459 9.85225 15.3714 9.36402C15.6796 8.96559 16.063 8.63161 16.5 8.38105L14.0784 5.52ZM14.0377 11.2649C13.6796 11.6229 13.403 11.4683 12.7927 11.0045C12.1824 10.5407 10.97 9.66998 10.97 9.66998C11.0196 9.91816 11.1343 10.1338 11.2963 10.3055C11.5558 10.5976 12.3289 11.2649 12.695 11.6066C12.9229 11.8182 13.5088 12.2413 13.167 12.5668C12.8252 12.8923 12.5567 12.5668 11.9952 12.1111C11.4338 11.6555 10.1806 10.5325 10.1806 10.5325C10.1737 10.6402 10.1898 10.748 10.2276 10.849C10.2655 10.95 10.3244 11.0418 10.4004 11.1184C10.5387 11.2811 11.3117 12.0298 11.6372 12.3715C11.9627 12.7133 12.2475 12.9167 11.9708 13.1853C11.6942 13.4538 11.1327 13.0306 10.8235 12.7133C10.3434 12.2495 9.39134 11.3869 9.39134 11.3869L9.39052 11.4301C9.39052 11.6612 9.47027 11.8727 9.60453 12.0403C9.83888 12.3479 10.2946 12.7467 10.5712 13.0559C10.8479 13.3651 11.0106 13.6255 10.5712 13.8696C10.1318 14.1137 9.48085 13.5116 9.19604 13.2186V13.217C9.1961 13.1366 9.16722 13.0589 9.11467 12.9981C9.01734 12.9079 8.89724 12.846 8.76733 12.8191C8.63742 12.7921 8.50261 12.8011 8.37744 12.8451C8.42894 12.799 8.47023 12.7426 8.49864 12.6796C8.52706 12.6166 8.54197 12.5483 8.54243 12.4792C8.54289 12.4101 8.52889 12.3416 8.50131 12.2782C8.47374 12.2149 8.43321 12.1579 8.38232 12.1111C8.27551 12.0302 8.14514 11.9865 8.01113 11.9866C7.87712 11.9868 7.74685 12.0308 7.64021 12.112C7.69413 12.0605 7.73575 11.9975 7.76199 11.9277C7.78822 11.8579 7.7984 11.7831 7.79175 11.7088C7.78511 11.6345 7.76181 11.5627 7.7236 11.4987C7.6854 11.4346 7.63325 11.38 7.57104 11.3389C7.42537 11.2474 7.25444 11.2044 7.0828 11.2161C6.91116 11.2278 6.74764 11.2936 6.61574 11.404C6.7039 11.2972 6.74736 11.1604 6.73705 11.0222C6.72674 10.8841 6.66345 10.7553 6.5604 10.6627C6.43234 10.5435 6.26913 10.469 6.09518 10.4502C5.92124 10.4314 5.74588 10.4694 5.59533 10.5586L5.05421 9.64475C4.67989 9.05074 4.24049 8.43231 4.24049 8.43231L6.09577 6.1783C6.09577 6.1783 6.75488 6.58516 7.30008 6.89438C7.5686 7.04899 8.03242 7.25242 8.38232 7.41516C7.82899 7.83016 7.36517 8.22888 7.50351 8.50555C7.75002 8.68251 8.04463 8.78012 8.34805 8.78535C8.65146 8.79059 8.94926 8.7032 9.20174 8.53484C9.52546 8.31963 9.90584 8.20549 10.2946 8.20691C10.5769 8.20691 10.8455 8.2655 11.0888 8.3721C11.5396 8.67643 12.3696 9.42505 13.1263 9.89701C14.0784 10.5887 14.2655 11.0362 14.0377 11.2641V11.2649Z" fill="#419958"/>
</svg>
