<svg width="20" height="20" viewBox="0 0 20 20" fill="none" xmlns="http://www.w3.org/2000/svg">
<path d="M14.8456 8.59575L10.2194 5.07518C10.1557 5.02633 10.0787 5 9.99976 5C9.92078 5 9.84385 5.02633 9.78013 5.07518L5.15396 8.59575C5.09007 8.64435 5.04254 8.71288 5.0182 8.7915C4.99385 8.87013 4.99394 8.9548 5.01844 9.03337L6.78597 14.7298C6.81037 14.8083 6.85786 14.8767 6.92164 14.9252C6.98543 14.9738 7.06225 14.9999 7.14111 15H12.8596C13.022 15 13.1645 14.8912 13.2147 14.7298L14.9822 9.03337C15.0313 8.87201 14.9764 8.69598 14.8456 8.59575ZM13.8152 8.83901L12.6645 9.23018L10.328 7.46134V6.18514L13.8152 8.83901ZM9.46238 10.6751L8.42149 12.1701L7.77663 10.1018L9.46238 10.6751ZM8.10373 9.49178L9.67266 8.30481V10.026L8.10373 9.49178ZM9.99976 11.0663L11.0967 12.642H8.9028L9.99976 11.0663ZM10.328 8.30481L11.8958 9.49178L10.328 10.0248V8.30481ZM10.5371 10.6751L12.2229 10.1018L11.578 12.1701L10.5371 10.6751ZM9.67266 6.18514V7.46134L7.33504 9.23018L6.18433 8.83901L9.67266 6.18514ZM5.99625 9.49667L7.00676 9.84017L7.94602 12.8522L7.31751 13.7556L5.99625 9.49667ZM7.83971 14.1688L8.42733 13.3253H11.5734L12.161 14.1688H7.83971ZM12.682 13.7556L12.0535 12.8522L12.9928 9.84017L14.0033 9.49667L12.682 13.7556Z" fill="#419958"/>
</svg>
