<svg width="20" height="20" viewBox="0 0 20 20" fill="none" xmlns="http://www.w3.org/2000/svg">
<path d="M10 3C6.13396 3 3 6.13396 3 10C3.00005 10.9193 3.18116 11.8295 3.53298 12.6788C3.88481 13.528 4.40047 14.2997 5.05051 14.9496C5.70055 15.5996 6.47226 16.1152 7.32155 16.4669C8.17085 16.8187 9.08111 16.9997 10.0004 16.9996C10.9196 16.9996 11.8299 16.8185 12.6791 16.4667C13.5284 16.1148 14.3 15.5992 14.95 14.9491C15.6 14.2991 16.1156 13.5274 16.4673 12.6781C16.819 11.8288 17 10.9185 17 9.99927C17 6.13396 13.8653 3 10 3ZM9.8899 14.0826H9.85271C9.2825 14.0658 8.88 13.6451 8.89677 13.0829C8.91281 12.5302 9.32479 12.1284 9.87604 12.1284L9.90958 12.1299C10.4958 12.1467 10.894 12.563 10.8772 13.1412C10.8604 13.6954 10.4557 14.0826 9.8899 14.0826ZM12.2896 9.32042C12.1554 9.51 11.8608 9.74771 11.489 10.0372L11.0792 10.3194C10.8546 10.4944 10.719 10.6599 10.6686 10.821C10.6278 10.9479 10.6089 10.9822 10.6052 11.241V11.3067H9.04115L9.04552 11.174C9.06521 10.6315 9.07833 10.3106 9.30365 10.0459C9.65729 9.63177 10.4375 9.12865 10.4703 9.1075C10.5773 9.0293 10.6707 8.93396 10.7467 8.82531C10.9107 8.59854 10.9829 8.42062 10.9829 8.24708C10.9829 8.00354 10.9115 7.77823 10.7693 7.57917C10.6322 7.38521 10.3719 7.28896 9.99563 7.28896C9.62229 7.28896 9.36635 7.40708 9.21396 7.65062C9.05646 7.89927 8.97698 8.16104 8.97698 8.42865V8.49573H7.36479L7.36771 8.42573C7.40927 7.43917 7.76219 6.72823 8.41406 6.31333C8.82458 6.0501 9.33573 5.91667 9.93146 5.91667C10.7102 5.91667 11.3694 6.10625 11.8871 6.47958C12.4128 6.85802 12.679 7.42531 12.679 8.16469C12.6782 8.57812 12.5477 8.96677 12.2896 9.32042Z" fill="#419958"/>
</svg>
