<svg width="20" height="20" viewBox="0 0 20 20" fill="none" xmlns="http://www.w3.org/2000/svg">
<path d="M15.3333 4.66666H4.66667C3.93133 4.66666 3.33333 5.26466 3.33333 5.99999V14C3.33333 14.7353 3.93133 15.3333 4.66667 15.3333H15.3333C16.0687 15.3333 16.6667 14.7353 16.6667 14V5.99999C16.6667 5.26466 16.0687 4.66666 15.3333 4.66666ZM7.81 7.33332C8.57733 7.33332 9.14333 7.89932 9.14333 8.66666C9.14333 9.43399 8.57733 9.99999 7.81 9.99999C7.04267 9.99999 6.47667 9.43399 6.47667 8.66666C6.47667 7.89932 7.042 7.33332 7.81 7.33332ZM10.2867 12.6667H5.33333V12.3567C5.33333 11.4413 6.45067 10.5 7.81 10.5C9.16933 10.5 10.2867 11.4413 10.2867 12.3567V12.6667ZM14.6667 12H12V10.6667H14.6667V12ZM14.6667 9.33332H11.3333V7.99999H14.6667V9.33332Z" fill="#419958"/>
</svg>
