<svg width="200" height="168" viewBox="0 0 200 168" fill="none" xmlns="http://www.w3.org/2000/svg">
<g clip-path="url(#clip0)">
<path fill-rule="evenodd" clip-rule="evenodd" d="M67.1913 57.229L57.7151 47.1338L63.3965 41.8008L72.8729 51.896L67.1913 57.229Z" fill="#F8CEC1"/>
<path fill-rule="evenodd" clip-rule="evenodd" d="M57.7152 47.1339L54.5752 43.7889L60.2568 38.4557L63.3967 41.8006L57.7152 47.1339Z" fill="#60D394"/>
<path fill-rule="evenodd" clip-rule="evenodd" d="M57.4166 45.0185C56.3779 45.0185 55.3421 44.606 54.5751 43.789L52.1651 41.2215C50.6924 39.6526 50.7704 37.1869 52.3393 35.7141C53.9083 34.2414 56.3741 34.3195 57.8466 35.8882L60.2567 38.4557C61.7295 40.0246 61.6515 42.4903 60.0824 43.9631C59.3306 44.6688 58.3726 45.0185 57.4166 45.0185Z" fill="#60D394"/>
<path fill-rule="evenodd" clip-rule="evenodd" d="M57.7367 48.4022C57.406 48.4022 57.0759 48.2715 56.8308 48.0123C56.3574 47.5121 56.3792 46.7228 56.8794 46.2494L62.5184 40.9136C63.0185 40.4404 63.8077 40.4619 64.2813 40.9623C64.7547 41.4625 64.7328 42.2518 64.2325 42.7252L58.5937 48.0609C58.3525 48.289 58.0444 48.4022 57.7367 48.4022Z" fill="#60D394"/>
<path fill-rule="evenodd" clip-rule="evenodd" d="M35.0224 66.4832C34.2765 66.4832 33.5348 66.269 32.8914 65.8489L13.4017 53.1178C11.6001 51.941 11.0936 49.5266 12.2705 47.725C13.4473 45.9234 15.8615 45.417 17.6633 46.5938L32.2185 56.1016L32.6136 53.8802C32.9904 51.7618 35.014 50.3496 37.1318 50.7266C39.2503 51.1034 40.6623 53.1263 40.2855 55.2448L38.8582 63.2693C38.6292 64.5572 37.769 65.644 36.5684 66.1632C36.0729 66.3774 35.5466 66.4832 35.0224 66.4832Z" fill="#F8CEC1"/>
<path fill-rule="evenodd" clip-rule="evenodd" d="M40.2855 55.245L32.6135 53.8802L33.4086 49.4096L41.0808 50.7742L40.2855 55.245Z" fill="#60D394"/>
<path fill-rule="evenodd" clip-rule="evenodd" d="M40.9218 56.5659C40.853 56.5659 40.7832 56.5602 40.7131 56.5484L32.7553 55.2076C32.0762 55.0933 31.6184 54.4499 31.7329 53.7708C31.8473 53.0916 32.4901 52.6335 33.1696 52.7482L41.1275 54.089C41.8066 54.2033 42.2645 54.8467 42.1501 55.5258C42.0475 56.1348 41.5194 56.5659 40.9218 56.5659Z" fill="#60D394"/>
<path fill-rule="evenodd" clip-rule="evenodd" d="M37.2493 53.989C37.0228 53.989 36.7933 53.9691 36.5625 53.928C34.444 53.5512 33.032 51.5282 33.4088 49.4096L34.0255 45.9427C34.4023 43.824 36.4249 42.4125 38.5439 42.789C40.6624 43.1659 42.0744 45.1888 41.6975 47.3073L41.0809 50.7743C40.745 52.662 39.1022 53.989 37.2493 53.989Z" fill="#60D394"/>
<path fill-rule="evenodd" clip-rule="evenodd" d="M62.1497 54.2786L43.6053 62.1588L34.9625 48.9138C33.3447 46.4344 34.3608 43.0952 37.0856 41.9372L52.1177 35.5495C54.8425 34.3916 57.9518 35.9779 58.6138 38.8636L62.1497 54.2786Z" fill="#60D394"/>
<path fill-rule="evenodd" clip-rule="evenodd" d="M63.4439 56.209L54.6605 83.4506L38.5432 54.4312L43.4262 47.4652L49.9538 44.6914L60.1003 45.2709L63.4439 56.209Z" fill="#60D394"/>
<path fill-rule="evenodd" clip-rule="evenodd" d="M45.0017 40.9912C46.277 40.6325 47.0191 39.3095 46.6596 38.0347L46.1952 36.38L44.742 31.2137C44.3834 29.9384 43.0604 29.1964 41.7862 29.5545C41.686 29.5828 41.5894 29.6171 41.4944 29.6575C40.5891 30.0421 40.0189 30.9411 40.0376 31.9053C40.0417 32.1056 40.0699 32.3081 40.1274 32.5114L42.0459 39.332C42.4041 40.6063 43.7274 41.3493 45.0017 40.9912Z" fill="#F8CEC1"/>
<path fill-rule="evenodd" clip-rule="evenodd" d="M41.4327 34.3369C42.662 36.0742 44.1804 37.0584 46.1952 36.38L44.742 31.2137C44.3834 29.9384 43.0604 29.1964 41.7862 29.5545C41.686 29.5828 41.5894 29.6171 41.4944 29.6575C40.5891 30.0421 40.0189 30.9411 40.0376 31.9053C40.0417 32.1056 40.0699 32.3081 40.1274 32.5114L41.4327 34.3369Z" fill="#F2BFAD"/>
<path fill-rule="evenodd" clip-rule="evenodd" d="M46.9153 34.7646C48.2352 33.803 48.5258 31.9533 47.5642 30.6333L46.1203 28.6513C44.8529 26.9117 42.4153 26.529 40.6758 27.7962C38.9363 29.0636 38.5535 31.501 39.8207 33.2407L40.1577 33.7034C41.7307 35.8625 44.7561 36.3376 46.9153 34.7646Z" fill="#F8CEC1"/>
<path fill-rule="evenodd" clip-rule="evenodd" d="M45.9009 28.8355L48.6054 30.1602C48.9119 30.3105 48.914 30.7466 48.6089 30.8998L47.0905 31.6614L45.9009 28.8355Z" fill="#F8CEC1"/>
<path fill-rule="evenodd" clip-rule="evenodd" d="M42.5809 26.669C43.1045 27.9012 44.5279 28.4756 45.7599 27.952C46.9921 27.4284 47.5666 26.005 47.043 24.773C46.5194 23.5408 45.096 22.9664 43.8639 23.49C42.6317 24.0136 42.0573 25.4369 42.5809 26.669Z" fill="#419958"/>
<path fill-rule="evenodd" clip-rule="evenodd" d="M40.2261 27.6311C40.5963 28.5025 41.6029 28.9086 42.4741 28.5385C43.3455 28.1681 43.7516 27.1617 43.3814 26.2903C43.0111 25.4191 42.0046 25.0128 41.1333 25.3831C40.2621 25.7534 39.8558 26.7599 40.2261 27.6311Z" fill="#419958"/>
<path fill-rule="evenodd" clip-rule="evenodd" d="M39.7477 30.5069L45.5619 28.0362C46.3382 27.7064 46.7002 26.8096 46.3703 26.0333C46.0404 25.2572 45.1438 24.8952 44.3674 25.2251L38.5531 27.6958C37.7769 28.0256 37.4149 28.9223 37.7449 29.6987C38.0748 30.4748 38.9714 30.8368 39.7477 30.5069Z" fill="#419958"/>
<path fill-rule="evenodd" clip-rule="evenodd" d="M39.527 33.8928L42.0367 32.8262L41.3363 28.1579L37.7395 29.6862L39.527 33.8928Z" fill="#419958"/>
<path fill-rule="evenodd" clip-rule="evenodd" d="M38.892 33.6437C39.2891 34.5784 40.3685 35.0139 41.303 34.6169C42.2377 34.2197 42.6732 33.1403 42.2762 32.2057C41.879 31.2714 40.7996 30.8357 39.865 31.2327C38.9305 31.6298 38.495 32.7092 38.892 33.6437Z" fill="#F8CEC1"/>
<path fill-rule="evenodd" clip-rule="evenodd" d="M13.6809 52.9163C13.4237 52.9163 13.1636 52.8447 12.9315 52.6942L8.13926 49.5891C7.49932 49.1746 7.31685 48.32 7.73137 47.6802C8.14573 47.0403 9.00051 46.8575 9.64029 47.2723L14.4327 50.3774C15.0725 50.792 15.2551 51.6466 14.8406 52.2863C14.5764 52.6942 14.1331 52.9163 13.6809 52.9163Z" fill="#F8CEC1"/>
<path fill-rule="evenodd" clip-rule="evenodd" d="M14.0872 50.1536C13.8141 50.1536 13.5381 50.0726 13.2974 49.9043L7.84927 46.0952C7.22449 45.6584 7.07216 44.7976 7.50894 44.1729C7.94572 43.5481 8.8065 43.3956 9.43128 43.8327L14.8793 47.6418C15.5041 48.0786 15.6565 48.9392 15.2196 49.564C14.9511 49.9479 14.5227 50.1536 14.0872 50.1536Z" fill="#F8CEC1"/>
<path fill-rule="evenodd" clip-rule="evenodd" d="M15.4406 48.2185C15.1341 48.2185 14.8256 48.1168 14.5694 47.908L10.354 44.4724C9.76314 43.991 9.67442 43.1214 10.1562 42.5305C10.6375 41.9397 11.5071 41.8508 12.0981 42.3326L16.3134 45.7679C16.9044 46.2496 16.9931 47.1192 16.5114 47.71C16.2386 48.0448 15.8413 48.2185 15.4406 48.2185Z" fill="#F8CEC1"/>
<path fill-rule="evenodd" clip-rule="evenodd" d="M197.122 93.9247C197.122 134.317 164.377 167.062 123.984 167.062C83.5927 167.062 50.8472 134.317 50.8472 93.9247C50.8472 53.5318 83.5927 20.7869 123.984 20.7869C164.377 20.7869 197.122 53.5318 197.122 93.9247Z" fill="#FFECAD"/>
<path fill-rule="evenodd" clip-rule="evenodd" d="M61.7274 35.8885C61.6036 35.8885 61.481 35.8354 61.3961 35.7324C61.2451 35.5496 61.271 35.2792 61.454 35.1283C67.9036 29.8055 75.1375 25.6554 82.955 22.7932C91.045 19.8309 99.5549 18.3289 108.249 18.3289C121.841 18.3289 135.116 22.0641 146.644 29.1305C146.846 29.2544 146.909 29.5187 146.786 29.7207C146.661 29.923 146.398 29.9861 146.196 29.8623C134.803 22.8788 121.681 19.1874 108.249 19.1874C91.3986 19.1874 74.9736 25.0837 62.0003 35.7902C61.9203 35.8563 61.8234 35.8885 61.7274 35.8885Z" fill="#24707F"/>
<path fill-rule="evenodd" clip-rule="evenodd" d="M49.0635 135.301C48.9308 135.301 48.8001 135.239 48.7159 135.124C39.5353 122.501 34.6826 107.553 34.6826 91.896C34.6826 85.147 35.5964 78.4608 37.3983 72.0232C37.4623 71.7949 37.699 71.6619 37.9273 71.7255C38.1555 71.7894 38.2888 72.0264 38.2248 72.2544C36.4439 78.6169 35.541 85.2251 35.541 91.896C35.541 107.371 40.3369 122.144 49.4102 134.619C49.5496 134.81 49.5072 135.078 49.3155 135.219C49.2392 135.274 49.151 135.301 49.0635 135.301Z" fill="#24707F"/>
<path fill-rule="evenodd" clip-rule="evenodd" d="M85.6164 161.894C85.5722 161.894 85.528 161.886 85.4838 161.872C78.534 159.613 71.9679 156.327 65.9681 152.106C65.7744 151.97 65.7277 151.702 65.8641 151.509C66.0004 151.315 66.2685 151.268 66.462 151.405C72.3916 155.575 78.8809 158.824 85.749 161.056C85.9747 161.13 86.0978 161.372 86.0252 161.597C85.9652 161.779 85.7979 161.894 85.6164 161.894Z" fill="#24707F"/>
<path fill-rule="evenodd" clip-rule="evenodd" d="M108.249 165.463C104.055 165.463 99.8484 165.107 95.7474 164.404C95.5138 164.365 95.3575 164.144 95.397 163.91C95.4364 163.676 95.6574 163.519 95.8926 163.56C99.9447 164.253 104.103 164.605 108.249 164.605C109.209 164.605 110.181 164.586 111.136 164.548C111.37 164.541 111.574 164.723 111.583 164.96C111.591 165.197 111.408 165.397 111.171 165.406C110.204 165.444 109.22 165.463 108.249 165.463Z" fill="#24707F"/>
<path fill-rule="evenodd" clip-rule="evenodd" d="M178.099 114.074C178.057 114.074 178.014 114.068 177.971 114.055C177.746 113.984 177.619 113.744 177.689 113.517C179.858 106.544 180.958 99.2693 180.958 91.896C180.958 82.08 179.035 72.5582 175.244 63.5946C175.152 63.3763 175.255 63.1245 175.473 63.0322C175.69 62.94 175.943 63.0418 176.035 63.2603C179.87 72.3301 181.817 81.9646 181.817 91.896C181.817 99.3558 180.704 106.716 178.508 113.772C178.451 113.956 178.282 114.074 178.099 114.074Z" fill="#24707F"/>
<path fill-rule="evenodd" clip-rule="evenodd" d="M107.012 130.44C104.612 130.44 102.325 129.41 100.734 127.603L77.1584 100.837C74.1045 97.37 74.4396 92.0835 77.9068 89.0293C81.3749 85.9753 86.6614 86.3106 89.7142 89.7779L106.616 108.967L184.944 8.39825C187.784 4.75295 193.04 4.09944 196.685 6.93858C200.331 9.77773 200.985 15.0344 198.145 18.6797L113.612 127.214C112.082 129.179 109.755 130.361 107.264 130.436C107.181 130.439 107.095 130.44 107.012 130.44Z" fill="#60D394"/>
<path fill-rule="evenodd" clip-rule="evenodd" d="M80.9818 111.466C80.8728 111.466 80.763 111.424 80.6793 111.341L73.1705 103.878C71.5042 102.222 70.5825 100.016 70.5752 97.6671C70.568 95.3176 71.476 93.1062 73.132 91.4398C76.5508 88.0002 82.1309 87.9828 85.5706 91.4014L103.34 109.062L160.669 24.4197C160.802 24.2234 161.069 24.1719 161.264 24.3051C161.462 24.4379 161.512 24.7048 161.38 24.901L103.76 109.972C103.689 110.078 103.574 110.146 103.446 110.158C103.32 110.171 103.193 110.126 103.103 110.036L84.966 92.0103C81.861 88.9253 76.8261 88.941 73.7409 92.0448C72.2465 93.5485 71.4269 95.5443 71.4335 97.6644C71.44 99.7844 72.2719 101.775 73.7754 103.269L81.2848 110.732C81.4522 110.899 81.4537 111.171 81.2864 111.339C81.2028 111.423 81.0923 111.466 80.9818 111.466Z" fill="#24707F"/>
<path fill-rule="evenodd" clip-rule="evenodd" d="M104.673 131.578C102.36 131.578 100.117 130.658 98.4689 129.021L88.4816 119.094C88.3127 118.927 88.3127 118.656 88.4784 118.487C88.6457 118.319 88.9172 118.319 89.0861 118.485L99.0751 128.413C100.638 129.967 102.796 130.807 104.998 130.713C105.145 130.707 105.291 130.698 105.435 130.683C107.795 130.455 109.912 129.198 111.241 127.234L130.051 99.4627C130.183 99.2665 130.452 99.215 130.647 99.3481C130.843 99.4808 130.895 99.7477 130.763 99.944L111.951 127.716C110.478 129.891 108.133 131.285 105.517 131.537C105.359 131.553 105.197 131.564 105.034 131.571C104.913 131.575 104.793 131.578 104.673 131.578Z" fill="#24707F"/>
<path fill-rule="evenodd" clip-rule="evenodd" d="M135.694 92.3252C135.612 92.3252 135.528 92.3013 135.454 92.2513C135.258 92.1184 135.206 91.8516 135.339 91.6554L188.388 13.3317C189.577 11.5762 190.011 9.46299 189.612 7.38106C189.211 5.29913 188.024 3.49787 186.268 2.30892C182.644 -0.145222 177.7 0.806001 175.245 4.42968L166.556 17.2587C166.423 17.4549 166.156 17.5064 165.96 17.3735C165.763 17.2406 165.713 16.9738 165.845 16.7776L174.535 3.94823C177.255 -0.067085 182.734 -1.12139 186.75 1.59827C188.695 2.91587 190.009 4.91192 190.455 7.21879C190.898 9.52597 190.417 11.8677 189.099 13.8128L136.05 92.1367C135.967 92.2592 135.831 92.3252 135.694 92.3252Z" fill="#24707F"/>
<path fill-rule="evenodd" clip-rule="evenodd" d="M53.5 166.628C53.3786 166.628 53.2585 166.575 53.1777 166.47L45.6916 156.946C44.6651 155.743 43.0602 155.171 41.5027 155.457C41.2801 155.496 41.067 155.35 41.0264 155.127C40.986 154.905 41.1335 154.691 41.3557 154.65C43.2031 154.314 45.1054 154.993 46.3204 156.421C46.3238 156.426 46.3271 156.429 46.3305 156.434L53.8215 165.965C53.9612 166.144 53.9303 166.401 53.7526 166.54C53.6776 166.598 53.5884 166.628 53.5 166.628Z" fill="white"/>
<path fill-rule="evenodd" clip-rule="evenodd" d="M181.837 144.158C181.799 144.661 182.177 145.102 182.68 145.14C183.185 145.179 183.624 144.802 183.664 144.297C183.702 143.793 183.324 143.353 182.821 143.315C182.316 143.275 181.877 143.653 181.837 144.158Z" fill="white"/>
<path fill-rule="evenodd" clip-rule="evenodd" d="M96.2035 63.1869L97.2564 65.1779L99.1854 66.2668L97.2564 67.3556L96.2035 69.3466L95.1491 67.3556L93.2217 66.2668L95.1491 65.1779L96.2035 63.1869Z" fill="white"/>
<path fill-rule="evenodd" clip-rule="evenodd" d="M90.3632 52.7714L92.1895 56.2221L95.5313 58.1092L92.1895 59.9965L90.3632 63.447L88.5352 59.9965L85.1951 58.1092L88.5352 56.2221L90.3632 52.7714Z" fill="white"/>
<path fill-rule="evenodd" clip-rule="evenodd" d="M143.782 118.3L141.792 119.354L140.703 121.281L139.613 119.354L137.623 118.3L139.613 117.245L140.703 115.318L141.792 117.245L143.782 118.3Z" fill="white"/>
<path fill-rule="evenodd" clip-rule="evenodd" d="M154.197 112.459L150.747 114.286L148.86 117.627L146.972 114.286L143.522 112.459L146.972 110.632L148.86 107.291L150.747 110.632L154.197 112.459Z" fill="white"/>
<path fill-rule="evenodd" clip-rule="evenodd" d="M3.8647 48.9927H14.6581L11.6344 34.6777H0.84086L3.8647 48.9927ZM15.0993 49.7081H3.57456C3.4055 49.7081 3.25949 49.5897 3.2246 49.4243L0.0496999 34.3938C0.0274426 34.2884 0.0539619 34.1785 0.121839 34.0947C0.189716 34.0109 0.291847 33.9623 0.39966 33.9623H11.9245C12.0936 33.9623 12.2396 34.0807 12.2745 34.2461L15.4494 49.2766C15.4716 49.382 15.4451 49.4919 15.3772 49.5757C15.3092 49.6595 15.2072 49.7081 15.0993 49.7081Z" fill="#24707F"/>
<path fill-rule="evenodd" clip-rule="evenodd" d="M16.8186 49.1429C16.7182 49.1429 16.6164 49.1318 16.5144 49.1089C15.7706 48.9416 15.3032 48.2032 15.4705 47.4594L15.6687 46.5784L14.7485 46.4652C13.9918 46.3721 13.454 45.6832 13.5471 44.9265C13.6402 44.1699 14.3291 43.6321 15.0857 43.7252L17.5184 44.0247C17.9051 44.0722 18.2538 44.2812 18.4783 44.5999C18.7027 44.9186 18.782 45.3172 18.6964 45.6974L18.164 48.0651C18.0197 48.7069 17.45 49.1429 16.8186 49.1429Z" fill="#F8CEC1"/>
</g>
<defs>
<clipPath id="clip0">
<rect width="200" height="167.167" fill="white"/>
</clipPath>
</defs>
</svg>
