<svg width="239" height="120" viewBox="0 0 239 120" fill="none" xmlns="http://www.w3.org/2000/svg">
<path d="M119.501 119.5C185.088 119.5 238.5 123.711 238.5 100.5C238.5 77.2895 185.088 73 119.501 73C53.9152 73 0 77.2895 0 100.5C0 123.711 53.9152 119.5 119.501 119.5Z" fill="url(#paint0_linear)"/>
<path d="M215.169 40.6239C215.134 40.3985 215.055 40.1823 214.936 39.9875C214.817 39.7927 214.661 39.6232 214.477 39.4887C214.293 39.3542 214.084 39.2572 213.862 39.2034C213.641 39.1496 213.41 39.14 213.185 39.1752C212.96 39.2103 212.743 39.2895 212.549 39.4082C212.354 39.5269 212.184 39.6828 212.05 39.867C211.915 40.0513 211.818 40.2602 211.765 40.4818C211.711 40.7035 211.701 40.9336 211.736 41.159C211.987 42.7785 212.306 47.8476 210.555 49.8855C210.194 50.3181 209.688 50.6061 209.132 50.6966L209.32 41.0423C209.317 40.3765 209.05 39.7392 208.577 39.2705C208.104 38.8019 207.464 38.5403 206.798 38.5433C206.132 38.5463 205.495 38.8137 205.026 39.2866C204.558 39.7596 204.296 40.3993 204.299 41.0651L204.752 59.3833C204.178 59.3028 203.654 59.0116 203.283 58.5664C201.533 56.5257 201.86 51.4509 202.099 49.8399C202.17 49.3848 202.058 48.9199 201.787 48.5476C201.515 48.1753 201.107 47.926 200.652 47.8547C200.197 47.7834 199.732 47.8958 199.359 48.1672C198.987 48.4386 198.738 48.8468 198.667 49.302C198.544 50.0989 197.528 57.1974 200.642 60.8206C201.162 61.4336 201.804 61.933 202.525 62.2879C203.247 62.6429 204.034 62.8458 204.837 62.8841L205.036 70.8535H208.828L209.112 54.1946C209.9 54.145 210.67 53.9373 211.376 53.5837C212.082 53.2302 212.71 52.7381 213.222 52.1368C216.299 48.5164 215.297 41.4208 215.169 40.6239Z" fill="#D4D4D4"/>
<path d="M26.482 56.0333C26.4363 55.743 26.2772 55.4828 26.0397 55.3099C25.8022 55.137 25.5057 55.0655 25.2154 55.1111C24.9252 55.1568 24.665 55.3159 24.492 55.5534C24.3191 55.7909 24.2476 56.0874 24.2932 56.3777C24.4526 57.408 24.6547 60.647 23.539 61.9392C23.3106 62.2136 22.9916 62.3973 22.6396 62.4572L22.7421 56.3008C22.7402 55.8766 22.5698 55.4705 22.2685 55.1719C21.9672 54.8732 21.5596 54.7065 21.1354 54.7084C20.7111 54.7103 20.305 54.8806 20.0064 55.1819C19.7077 55.4832 19.541 55.8908 19.5429 56.3151L19.8275 67.9845C19.4693 67.9304 19.1427 67.7484 18.9082 67.4722C17.7925 66.1715 17.9974 62.9411 18.154 61.9107C18.1825 61.7647 18.1813 61.6143 18.1505 61.4688C18.1196 61.3232 18.0597 61.1853 17.9744 61.0634C17.889 60.9414 17.78 60.838 17.6537 60.7592C17.5275 60.6803 17.3867 60.6278 17.2397 60.6046C17.0926 60.5814 16.9425 60.5882 16.7981 60.6244C16.6538 60.6605 16.5182 60.7255 16.3995 60.8152C16.2808 60.905 16.1814 61.0178 16.1073 61.1468C16.0331 61.2759 15.9858 61.4186 15.9681 61.5663C15.8884 62.0758 15.248 66.5984 17.2261 68.9096C17.5582 69.3003 17.967 69.6187 18.4272 69.8449C18.8875 70.0711 19.3893 70.2003 19.9015 70.2245L20.0268 75.3079H22.4432L22.6083 64.6886C23.1111 64.6579 23.6025 64.5258 24.053 64.3003C24.5035 64.0749 24.9037 63.7606 25.2296 63.3765C27.2021 61.0654 26.5617 56.5428 26.482 56.0333Z" fill="#D4D4D4"/>
<path d="M180.014 8H125.544C123.586 8 122 9.5865 122 11.5435V66.0144C122 67.9714 123.586 69.5579 125.544 69.5579H180.014C181.971 69.5579 183.558 67.9714 183.558 66.0144V11.5435C183.558 9.5865 181.971 8 180.014 8Z" fill="#D4D4D4"/>
<path d="M120.216 18.2327C121.301 17.487 123.008 17.4557 124.608 14.6977C125.442 13.2746 126.284 8.85162 125.001 6.2331C122.952 2.05771 118.062 -0.797047 115.825 0.199128C113.972 1.02453 116.693 10.622 118.019 11.0147C119.345 11.4075 120.216 18.2327 120.216 18.2327Z" fill="#419958"/>
<path d="M106.603 27.8302C106.603 27.8302 105.026 30.1669 103.125 32.7456C101.093 35.5064 99.8346 36.4257 97.7882 36.4457C95.7417 36.4656 93.3054 36.4457 93.3054 36.4457L93.0208 41.2842L103.836 42.195L109.785 32.8025L106.603 27.8302Z" fill="#0047A3"/>
<path d="M77.7565 51.9376L74.583 58.2306L80.486 58.5152L82.1881 54.0609L77.7565 51.9376Z" fill="#F2DAD4"/>
<path d="M101.215 48.1322C101.944 47.1417 93.6839 33.4628 90.536 31.5502C87.3881 29.6375 85.0684 31.8063 83.5087 33.4059C81.949 35.0055 73.8316 47.785 74.0707 48.6047C74.3097 49.4244 81.1435 55.4356 81.8465 55.484C82.5495 55.5324 87.5845 46.2025 87.8492 46.2025C88.1139 46.2025 91.0996 56.5684 91.7713 56.8302C92.443 57.0921 100.688 48.8523 101.215 48.1322Z" fill="#405781"/>
<path d="M50.0629 61.2276C49.1692 61.0085 45.3268 59.2951 44.0517 58.0029C42.7766 56.7107 39.0366 59.426 38.8772 60.9089C38.7179 62.3917 40.3886 65.9637 41.2453 66.2227C42.102 66.4818 43.7272 66.7721 43.7272 66.7721L44.3391 66.4618C45.3569 66.3062 46.3871 66.248 47.4159 66.2882C48.8931 66.3764 50.5467 66.8176 50.635 66.7721C50.7232 66.7265 50.0629 61.2276 50.0629 61.2276Z" fill="#F2DAD4"/>
<path d="M98.8868 47.711C97.4182 48.8324 95.2721 52.8342 94.1991 53.3095C93.1261 53.7848 89.9782 55.0997 85.0741 55.4811C80.1701 55.8625 65.2076 59.8928 61.8006 60.2941C58.3937 60.6954 50.0458 60.5787 49.7811 61.1138C49.5164 61.6489 49.9632 68.5282 50.6862 68.7274C51.4091 68.9266 69.0756 67.828 70.7691 67.6288C72.4626 67.4295 91.4667 68.6249 94.4296 68.2407C97.3925 67.8565 109.48 68.3545 111.521 67.3157C113.562 66.2768 115.409 64.0824 115.679 62.813C115.95 61.5436 113.061 54.8436 110.841 53.3038C108.621 51.764 98.8868 47.711 98.8868 47.711Z" fill="#405781"/>
<path d="M86.4517 37.1174C86.1443 36.4115 85.7174 35.1848 84.798 34.6526C83.8787 34.1203 82.8797 33.4002 82.6947 33.1611C82.5097 32.9221 82.0144 33.0131 81.6814 32.7342C81.3484 32.4553 80.8276 32.0682 80.5429 32.5748C80.2583 33.0814 82.2877 35.0539 81.8209 35.0254C81.3271 34.9463 80.8708 34.7132 80.5173 34.3594C80.3551 34.1459 79.7716 33.8272 79.45 34.2797C79.3132 34.4631 79.2394 34.6857 79.2394 34.9144C79.2394 35.1431 79.3132 35.3658 79.45 35.5491C79.6891 35.865 80.9386 37.7435 80.6995 37.6098C80.4604 37.476 78.6644 36.013 78.3314 36.1867C77.9984 36.3603 77.6654 36.8925 77.8789 37.1971C78.0923 37.5016 77.8618 39.326 78.0952 39.5993C78.3286 39.8725 79.3504 40.4332 79.6122 40.7378C79.8741 41.0423 82.1283 41.8592 83.6994 41.7624C85.2705 41.6656 85.723 41.5859 86.2012 41.381C86.6794 41.1761 86.4517 37.1174 86.4517 37.1174Z" fill="url(#paint1_linear)"/>
<path d="M111.348 22.2886C109.725 22.8408 106.665 27.1272 106.076 29.0398C105.487 30.9525 103.959 37.9456 103.686 40.103C103.412 42.2605 100.663 46.5753 99.8403 46.8486C99.0177 47.1218 98.272 47.3979 98.8213 48.0667C99.3706 48.7356 113.491 61.8339 115.062 63.0891C116.633 64.3442 117.532 64.9732 118.042 64.5805C118.551 64.1877 123.933 48.2233 124.358 46.1085C124.782 43.9938 127.653 33.5141 127.574 30.5341C127.494 27.5541 127.377 25.8663 125.416 24.4147C123.455 22.9631 121.181 19.5107 120.669 19.0069C120.157 18.5031 111.348 22.2886 111.348 22.2886Z" fill="url(#paint2_linear)"/>
<path d="M108.917 16.8438C109.435 17.1455 110.317 18.2356 110.662 19.2374C111.006 20.2393 111.464 21.8417 111.33 22.9375C111.197 24.0333 109.543 26.205 109.85 26.0684C110.158 25.9317 115.375 23.1254 117.12 22.2004C118.864 21.2753 121.073 20.2991 120.985 19.4822C120.897 18.6654 120.188 16.7869 120.188 15.7821C120.188 14.7774 117.319 14.433 115.571 14.877C113.824 15.3211 108.917 16.8438 108.917 16.8438Z" fill="url(#paint3_linear)"/>
<path d="M111.336 7.59644C109.964 8.4503 108.726 9.03662 108.806 9.68841C108.886 10.3402 109.717 10.8269 109.375 11.1713C109.034 11.5157 107.061 15.2841 107.477 15.7793C107.892 16.2745 110.582 18.1104 112.537 18.2299C114.493 18.3494 117.145 15.9159 117.66 16.155C118.176 16.3941 120.683 16.7669 121.645 15.7195C122.607 14.6721 122.949 13.6987 122.712 13.0498C122.55 12.6001 121.822 12.4805 121.005 12.694C120.188 12.9075 119.38 12.0991 119.345 11.3847C119.351 10.6959 119.614 10.034 120.083 9.52902C121.082 8.36207 116.647 3.35274 115.292 3.67151C113.061 4.19521 112.162 5.31093 111.826 5.7094C111.208 6.41811 111.84 7.2862 111.336 7.59644Z" fill="#F8CEC1"/>
<path d="M85.1054 39.4854C85.0257 40.9455 85.0798 43.0119 86.0418 43.1855C87.0039 43.3591 95.7787 45.1778 98.2663 45.7471C100.754 46.3163 108.003 45.2262 110.884 43.9255C113.764 42.6248 123.538 36.1639 124.218 35.5434C125.641 34.2455 125.052 27.7249 122.473 25.8947C119.895 24.0646 115.159 26.1794 113.104 28.2799C111.049 30.3804 106.116 37.9257 103.509 38.3156C100.902 38.7055 94.1792 38.6287 92.5711 38.2331C90.9629 37.8375 87.0722 36.3033 86.4858 36.7957C85.8995 37.2881 85.1567 38.549 85.1054 39.4854Z" fill="#2684FF"/>
<path d="M80.671 34.5017C80.543 34.2968 80.9813 34.052 81.2887 34.0321C81.5961 34.0122 82.023 34.8859 81.9575 35.0055C81.8921 35.125 81.3428 35.0681 81.0268 34.8746C80.8655 34.7996 80.7384 34.6664 80.671 34.5017Z" fill="url(#paint4_linear)"/>
<path d="M79.3162 35.2929C79.0316 35.199 78.525 35.7341 78.4311 35.9504C78.3372 36.1667 78.6332 36.5652 78.8068 36.7331C78.9804 36.9011 79.8656 37.8887 80.1331 37.8887C80.4007 37.8887 80.8162 37.7322 80.8162 37.3621C80.8162 36.9921 79.5326 35.3698 79.3162 35.2929Z" fill="url(#paint5_linear)"/>
<path d="M78.2062 37.6496C78.0447 37.7312 77.9133 37.862 77.8309 38.0232C77.7485 38.1843 77.7195 38.3674 77.748 38.5462C78.0155 39.1809 79.4557 39.77 79.7972 39.9095C80.1388 40.049 80.7393 40.308 80.9357 40.0034C81.1321 39.6989 80.6511 38.9759 80.2356 38.7482C79.82 38.5205 79.4529 38.3355 79.3561 38.1164C79.2389 37.9265 79.0642 37.7789 78.8575 37.695C78.6507 37.6111 78.4226 37.5952 78.2062 37.6496Z" fill="url(#paint6_linear)"/>
<path d="M78.8068 39.8469C78.4368 39.9465 78.4937 40.5841 78.6189 40.7007C78.7442 40.8174 79.6663 41.4863 80.042 41.5546C80.4177 41.6229 81.1293 41.7055 81.2944 41.5973C81.4594 41.4891 81.4167 40.9711 81.1691 40.7434C80.9215 40.5157 79.9851 40.4218 79.7005 40.2482C79.4159 40.0746 79.1625 39.7558 78.8068 39.8469Z" fill="url(#paint7_linear)"/>
<path d="M43.0441 59.2495C41.991 60.055 41.1229 61.0796 40.565 61.0284C40.0072 60.9772 39.5916 60.9117 39.5916 61.313C39.5916 61.7143 41.7519 66.1658 42.8306 66.4618C43.9093 66.7578 44.3391 66.4618 44.3391 66.4618C44.3391 66.4618 43.9662 67.3555 41.564 67.2246C39.1618 67.0937 38.3421 66.4248 38.0262 65.682C37.7103 64.9391 36.9845 60.9345 36.3327 59.648C35.6809 58.3615 34.9921 52.5552 36.1847 50.6369C37.3773 48.7185 38.0091 48.0753 38.6979 48.1066C39.3867 48.1379 40.0755 48.1237 40.2605 48.9064C40.4455 49.6891 44.433 57.2828 44.3391 57.8065C44.2452 58.3302 43.0441 59.2495 43.0441 59.2495Z" fill="#419958"/>
<path fill-rule="evenodd" clip-rule="evenodd" d="M157.643 46C158.979 46 160 44.845 160 43.5V36H146V43.5C146 44.845 147.021 46 148.357 46H157.643ZM151 38C150.867 38 150.74 38.0527 150.646 38.1464C150.553 38.2402 150.5 38.3674 150.5 38.5C150.5 38.6326 150.553 38.7598 150.646 38.8536C150.74 38.9473 150.867 39 151 39H155C155.133 39 155.26 38.9473 155.354 38.8536C155.447 38.7598 155.5 38.6326 155.5 38.5C155.5 38.3674 155.447 38.2402 155.354 38.1464C155.26 38.0527 155.133 38 155 38H151ZM145.8 32C145.588 32 145.384 32.0843 145.234 32.2343C145.084 32.3843 145 32.5878 145 32.8V34C145 34.2122 145.084 34.4157 145.234 34.5657C145.384 34.7157 145.588 34.8 145.8 34.8H160.2C160.412 34.8 160.616 34.7157 160.766 34.5657C160.916 34.4157 161 34.2122 161 34V32.8C161 32.5878 160.916 32.3843 160.766 32.2343C160.616 32.0843 160.412 32 160.2 32H145.8Z" fill="#F5F6F8"/>
<defs>
<linearGradient id="paint0_linear" x1="119.501" y1="53.9502" x2="119.501" y2="119.946" gradientUnits="userSpaceOnUse">
<stop stop-color="#E5E5E5"/>
<stop offset="0.48" stop-color="#F4F4F4"/>
<stop offset="1" stop-color="#F5F6F8"/>
</linearGradient>
<linearGradient id="paint1_linear" x1="77.8163" y1="37.0491" x2="86.5086" y2="37.0491" gradientUnits="userSpaceOnUse">
<stop stop-color="#F2BFAD"/>
<stop offset="1" stop-color="#F2DAD4"/>
</linearGradient>
<linearGradient id="paint2_linear" x1="11416.7" y1="1373.2" x2="14328.2" y2="9405.68" gradientUnits="userSpaceOnUse">
<stop stop-color="#4E9CFF"/>
<stop offset="1" stop-color="#176AD4"/>
</linearGradient>
<linearGradient id="paint3_linear" x1="5095" y1="427.273" x2="5197.42" y2="900.65" gradientUnits="userSpaceOnUse">
<stop stop-color="#F2BFAD"/>
<stop offset="1" stop-color="#F2DAD4"/>
</linearGradient>
<linearGradient id="paint4_linear" x1="477.268" y1="157.734" x2="480.182" y2="162.076" gradientUnits="userSpaceOnUse">
<stop stop-color="#F2BFAD"/>
<stop offset="1" stop-color="#F2DAD4"/>
</linearGradient>
<linearGradient id="paint5_linear" x1="784.425" y1="358.825" x2="797.713" y2="375.519" gradientUnits="userSpaceOnUse">
<stop stop-color="#F2BFAD"/>
<stop offset="1" stop-color="#F2DAD4"/>
</linearGradient>
<linearGradient id="paint6_linear" x1="1042.9" y1="379.981" x2="1035.78" y2="393.788" gradientUnits="userSpaceOnUse">
<stop stop-color="#F2BFAD"/>
<stop offset="1" stop-color="#F2DAD4"/>
</linearGradient>
<linearGradient id="paint7_linear" x1="920.5" y1="300.146" x2="949.478" y2="300.146" gradientUnits="userSpaceOnUse">
<stop stop-color="#F2BFAD"/>
<stop offset="1" stop-color="#F2DAD4"/>
</linearGradient>
</defs>
</svg>
