<svg width="239" height="200" viewBox="0 0 239 200" fill="none" xmlns="http://www.w3.org/2000/svg">
<path d="M71.1662 75.1037C72.7658 77.3636 71.4382 80.3006 69.8577 81.954C67.9017 83.9882 65.9159 83.6727 65.01 85.4703C63.9219 87.6458 66.2451 89.2394 65.0318 91.5102C64.2864 92.9052 63.2636 92.5735 61.781 94.3466C59.9746 96.5031 61.7456 97.1177 60.4643 98.6977C56.3484 103.769 54.6971 100.253 52.1917 101.586C48.9436 103.313 46.77 104.789 45.1813 104.444C38.9245 103.084 40.8559 98.9778 37.8227 97.3951C33.7232 95.2548 31.7183 86.5009 34.5338 83.4144C36.0056 81.799 37.4637 81.6032 37.5997 80.2571C37.7983 78.3154 34.8793 77.7497 34.5665 75.4137C34.2292 72.765 37.7466 71.4814 37.2216 69.2433C36.7128 67.0678 33.1029 67.1412 32.869 65.5829C32.5181 63.2197 40.2139 58.9883 48.1955 59.2493C52.004 59.3744 58.2254 60.6091 59.2592 63.7827C59.8549 65.6183 58.3016 66.8012 59.1776 69.1726C59.8141 70.8967 61.2233 71.8594 63.0867 73.1022C64.8631 74.277 68.3425 71.1089 71.1662 75.1037Z" fill="#EEEEEE"/>
<path d="M52.1046 73.6841C53.3587 73.6188 54.0089 81.9866 53.2717 83.0825C52.5345 84.1785 51.1743 84.9861 51.0954 86.1854C51.0165 87.3847 51.5388 108.602 51.9822 108.295C52.4257 107.987 56.1008 102.429 55.3663 101.131C54.6319 99.8343 53.8021 97.8355 53.9735 96.144C54.1449 94.4525 54.1476 92.0404 54.621 92.1002C55.0943 92.16 54.6971 96.3099 55.0263 97.1149C55.3555 97.9198 55.4153 98.5507 55.8887 98.5643C56.362 98.5779 56.3729 94.186 57.0938 94.2622C57.8147 94.3383 57.325 100.813 57.0775 102.013C56.8299 103.212 55.9893 107.348 55.195 108.874C54.4006 110.399 52.0285 111.993 51.9714 112.512C51.9142 113.032 52.2951 125.389 52.2951 125.389L46.0546 125.503C46.0546 125.503 48.3587 101.137 47.8446 100.327C47.3305 99.5162 44.0742 92.9351 43.3778 92.2607C42.6814 91.5862 42.2624 87.488 42.6297 87.4282C42.9969 87.3684 43.2037 91.3687 43.9681 91.4339C44.7325 91.4992 45.146 83.6944 45.701 83.7624C46.2559 83.8304 45.1569 91.8609 45.4616 92.3558C45.7662 92.8508 47.4991 95.8231 48.0785 95.7606C48.658 95.698 47.7602 73.8473 48.2581 73.5998C48.7559 73.3523 49.1259 73.559 49.4306 75.8433C49.7352 78.1277 50.3283 83.126 50.6683 83.1206C51.0084 83.1152 51.868 82.3591 51.8843 81.8588C51.9006 81.3584 51.547 73.7113 52.1046 73.6841Z" fill="#BDBDBD"/>
<path d="M187.352 98.4964C186.449 99.7745 187.195 101.436 188.095 102.374C189.202 103.525 190.326 103.345 190.84 104.365C191.457 105.594 190.141 106.497 190.84 107.783C191.264 108.575 191.841 108.387 192.682 109.388C193.704 110.609 192.701 110.957 193.427 111.852C195.758 114.723 196.691 112.73 198.109 113.483C199.95 114.462 201.18 115.297 202.08 115.101C205.617 114.332 204.529 112.007 206.245 111.109C208.568 109.899 209.7 104.941 208.109 103.196C207.274 102.282 206.449 102.17 206.37 101.409C206.259 100.308 207.921 99.9893 208.09 98.665C208.28 97.1665 206.289 96.4405 206.585 95.1732C206.882 93.9059 208.919 93.9821 209.05 93.0982C209.249 91.7603 204.888 89.3644 200.369 89.514C198.212 89.5847 194.692 90.2809 194.113 92.0812C193.775 93.12 194.657 93.789 194.159 95.1324C193.8 96.1087 193 96.6526 191.944 97.3569C190.924 98.0259 188.952 96.2338 187.352 98.4964Z" fill="#EEEEEE"/>
<path d="M198.147 97.6913C197.437 97.6532 197.059 102.39 197.486 103.011C197.913 103.631 198.672 104.098 198.724 104.77C198.775 105.442 198.473 117.459 198.22 117.279C197.967 117.1 195.889 113.959 196.316 113.225C196.743 112.49 197.203 111.359 197.105 110.402C197.007 109.445 197.007 108.077 196.738 108.112C196.468 108.148 196.694 110.494 196.509 110.951C196.324 111.408 196.289 111.767 196.022 111.767C195.756 111.767 195.75 109.287 195.339 109.32C194.929 109.352 195.206 113.029 195.339 113.706C195.473 114.383 195.962 116.73 196.406 117.592C196.849 118.454 198.199 119.36 198.231 119.654C198.264 119.947 198.046 126.942 198.046 126.942L201.583 127.007C201.583 127.007 200.28 113.211 200.571 112.754C200.862 112.297 202.704 108.566 203.098 108.186C203.492 107.805 203.729 105.482 203.522 105.45C203.316 105.417 203.199 107.683 202.763 107.718C202.328 107.753 202.097 103.337 201.784 103.367C201.471 103.397 202.089 107.952 201.92 108.232C201.751 108.512 200.764 110.195 200.437 110.16C200.111 110.125 200.617 97.7538 200.337 97.6124C200.057 97.471 199.844 97.5879 199.67 98.8851C199.496 100.182 199.164 103.005 198.971 103.002C198.807 102.949 198.658 102.856 198.538 102.732C198.418 102.608 198.33 102.456 198.283 102.29C198.267 102.034 198.462 97.7049 198.147 97.6913Z" fill="#BDBDBD"/>
<path d="M119.501 199.122C185.088 199.122 238.256 180.306 238.256 157.095C238.256 133.885 185.088 115.069 119.501 115.069C53.9152 115.069 0.74707 133.885 0.74707 157.095C0.74707 180.306 53.9152 199.122 119.501 199.122Z" fill="url(#paint0_linear)"/>
<path d="M123.245 111.501C122.973 112.045 122.684 112.703 122.684 113.132C122.684 113.562 122.622 115.158 122.684 115.346C122.747 115.534 124.588 115.86 125.366 115.797C125.672 115.75 125.964 115.64 126.224 115.474C126.485 115.308 126.708 115.089 126.879 114.832C126.925 114.661 127.034 112.259 126.879 111.977C126.724 111.694 123.245 111.501 123.245 111.501Z" fill="#F2DAD4"/>
<path d="M113.843 112.336C113.727 112.953 113.702 113.584 113.77 114.209C113.843 114.481 114.18 115.025 114.18 115.525C114.18 116.026 117.883 116.023 118.03 115.702C118.177 115.381 118.182 114.525 118.168 114.188C118.155 113.85 118.484 113.228 118.381 112.893C118.277 112.559 117.856 111.911 117.458 111.824C117.061 111.737 113.843 112.336 113.843 112.336Z" fill="#F2DAD4"/>
<path d="M107.646 58.2484C106.893 61.006 106.191 69.6701 106.691 73.1891C107.192 76.7081 108.546 86.324 108.546 90.5936C108.546 94.8631 110.018 101.8 110.723 104.335C111.427 106.869 112.426 112.463 112.975 112.588C113.525 112.714 114.376 113.187 115.968 112.888C117.559 112.588 118.016 112.189 118.043 111.528C118.07 110.867 116.917 103.603 116.743 101.855C116.569 100.106 115.383 92.78 115.342 91.7928C115.301 90.8057 116.291 87.3683 116.392 85.345C116.493 83.3218 117.018 76.0717 117.317 75.0954C117.616 74.1191 118.342 69.4471 118.677 69.4227C119.012 69.3982 120.853 75.0709 121.125 76.8957C121.397 78.7204 122.801 90.5936 123.152 91.2925C123.503 91.9914 123.027 96.1657 122.801 97.7158C122.575 99.2659 122.529 111.408 122.777 111.707C123.024 112.007 124.409 112.629 125.298 112.629C126.188 112.629 127.66 112.249 127.88 111.789C128.1 111.329 127.798 109.649 128.04 108.827C128.283 108.006 130.519 99.4263 130.638 97.3514C130.758 95.2765 130.165 87.3302 130.075 85.3722C129.986 83.4142 130.891 77.4858 131.114 75.9167C131.338 74.3476 132.031 67.7937 132.031 66.2518C132.031 64.7099 131.735 59.997 130.815 58.9283C129.896 57.8596 107.646 58.2484 107.646 58.2484Z" fill="#405781"/>
<path d="M144.099 32.6477C144.474 32.392 145.086 31.9161 145.187 31.5844C145.288 31.2526 145.679 30.3661 146.104 30.1539C146.663 29.9134 147.237 29.7055 147.82 29.5312C148.228 29.3952 149.251 28.7996 149.452 28.7153C149.654 28.631 150.244 28.5195 150.405 28.8432C150.474 29.0579 150.464 29.2903 150.377 29.4983C150.289 29.7064 150.13 29.8763 149.929 29.9772C149.501 30.1376 148.498 30.4612 148.59 30.6842C148.683 30.9072 149.648 31.1438 150.405 30.7685C151.161 30.3932 152.475 30.0615 152.782 29.8929C153.09 29.7243 155.347 28.8051 155.576 28.8051C155.691 28.8012 155.805 28.8288 155.906 28.8848C156.007 28.9409 156.09 29.0233 156.147 29.1233C156.251 29.3381 156.928 28.8105 157.135 29.1695C157.342 29.5285 156.863 29.727 156.83 29.8385C156.797 29.95 157.102 30.0669 157.102 30.3334C157.102 30.5999 156.71 30.7468 156.082 31.035C155.454 31.3233 152.592 33.1236 152.137 33.3629C151.355 33.8104 150.49 34.0953 149.594 34.2005C148.438 34.3038 147.029 34.3609 146.699 34.7797C146.37 35.1985 145.611 36.3081 145.394 36.376C145.176 36.444 143.884 36.648 143.566 35.8648C143.247 35.0816 144.099 32.6477 144.099 32.6477Z" fill="#F2DAD4"/>
<path d="M94.8958 30.646C94.5204 30.3904 93.9083 29.9117 93.8077 29.58C93.707 29.2482 93.3153 28.3617 92.8936 28.1495C92.3333 27.9106 91.7602 27.7027 91.1771 27.5268C90.7663 27.3908 89.7434 26.7953 89.5449 26.7109C89.3463 26.6266 88.7505 26.5151 88.59 26.8388C88.5208 27.0531 88.5308 27.2851 88.6181 27.4927C88.7055 27.7003 88.8644 27.8696 89.0661 27.9701C89.4932 28.1332 90.497 28.4568 90.4045 28.6771C90.312 28.8974 89.3463 29.1367 88.59 28.7614C87.8337 28.3861 86.5198 28.0571 86.2124 27.8858C85.905 27.7144 83.6471 26.798 83.4186 26.798C83.3037 26.7953 83.1901 26.8233 83.0896 26.8793C82.9892 26.9352 82.9055 27.017 82.8473 27.1161C82.744 27.331 82.0666 26.8061 81.8599 27.1624C81.6531 27.5186 82.1319 27.7226 82.1645 27.8314C82.1972 27.9401 81.8925 28.0598 81.8925 28.3263C81.8925 28.5928 82.2842 28.7424 82.9154 29.0279C83.5465 29.3135 86.4056 31.1165 86.8599 31.3558C87.6411 31.805 88.5056 32.0909 89.4007 32.1961C90.5596 32.2967 91.966 32.3538 92.2951 32.7726C92.6243 33.1914 92.861 33.7163 93.065 33.7843C93.269 33.8522 94.5748 34.0562 94.8931 33.273C95.2114 32.4898 94.8958 30.646 94.8958 30.646Z" fill="#F2DAD4"/>
<path d="M115.921 18.5064C114.349 18.6968 108.16 19.4555 107.072 21.7208C105.984 23.9861 105.018 29.4087 104.509 30.9343C104.001 32.4599 103.008 36.0414 102.575 36.0414C102.143 36.0414 95.0236 30.5264 94.8713 30.5264C94.7189 30.5264 95.0481 31.8481 94.2102 32.702C93.3724 33.5559 92.7603 33.3383 92.9126 33.768C93.065 34.1977 96.9306 38.8534 97.948 40.1995C98.9654 41.5456 103.313 45.0945 104.406 45.0564C105.5 45.0184 109.188 39.5659 109.466 39.5659C109.743 39.5659 109.12 48.2327 108.65 50.0684C108.179 51.904 106.068 59.9128 106.637 60.6117C107.205 61.3106 113.28 63.3882 118.002 63.5188C122.725 63.6493 132.292 61.9116 132.469 60.6878C132.646 59.4641 130.502 52.7226 130.502 50.014C130.502 47.3054 129.899 37.6677 130.293 37.6079C130.687 37.548 133.329 44.9504 135.91 44.8008C138.492 44.6512 143.8 39.2776 144.382 38.2442C144.964 37.2108 146.082 36.1203 145.777 35.968C145.473 35.8157 144.382 34.815 144.382 34.0644C144.382 33.3138 144.471 32.3348 144.14 32.4871C143.808 32.6394 141.618 34.5811 140.706 35.0978C139.795 35.6145 138.34 36.4331 138.158 36.1285C137.975 35.8239 135.181 30.5754 134.969 29.512C134.757 28.4487 133.359 21.3156 132.175 20.6793C130.992 20.0429 125.478 18.0686 124.523 18.0686C123.568 18.0686 115.921 18.5064 115.921 18.5064Z" fill="#ADD1FF"/>
<path d="M115.823 16.5484C115.823 17.2826 116.215 18.2942 115.921 18.5064C115.628 18.7185 117.312 23.2763 118.944 23.3742C120.576 23.4721 123.484 18.9333 123.549 18.4248C123.56 17.6263 123.495 16.8286 123.353 16.0426C123.304 15.9773 115.823 16.5484 115.823 16.5484Z" fill="url(#paint1_linear)"/>
<path d="M113.604 10.4569C113.318 8.49346 112.698 6.64967 113.119 4.72158C113.541 2.79348 114.92 0.460198 117.766 0.163778C120.611 -0.132643 121.969 0.952419 123.375 2.76358C124.781 4.57473 124.594 10.3019 124.224 10.6717C123.854 11.0416 121.449 12.1865 118.731 12.2246C116.014 12.2626 113.604 10.4569 113.604 10.4569Z" fill="#626262"/>
<path d="M114.719 13.3857C114.719 13.3857 115.285 16.4832 115.685 16.8176C116.085 17.1521 118.209 18.8491 119.564 18.7811C120.919 18.7131 123.683 16.7823 123.848 15.6836C124.014 14.585 123.848 12.4448 123.957 12.4856C124.066 12.5264 124.814 12.6079 124.956 11.4467C125.097 10.2855 125.059 8.46895 124.61 8.45535C124.161 8.44176 123.935 10.1251 123.691 10.1251C123.446 10.1251 123.419 7.66128 122.978 7.13371C122.537 6.60614 119.629 6.02417 119.218 6.02417C118.808 6.02417 116.925 8.47167 114.504 8.85784C114.504 8.85784 114.994 10.7886 114.632 10.8158C114.27 10.843 113.783 9.27119 113.448 9.27119C113.114 9.27119 113.035 10.8675 113.19 11.9226C113.345 12.9778 113.938 13.5706 114.142 13.5706C114.346 13.5706 114.501 13.2416 114.719 13.3857Z" fill="#F2DAD4"/>
<path d="M127.108 115.55C127.445 116.048 127.38 117.317 128.054 118.541C128.729 119.765 129.224 120.82 129.248 121.69C129.273 122.561 128.364 123.98 127.108 124.179C125.851 124.377 124.417 124.451 123.783 124.116C123.149 123.782 122.388 123.208 122.388 122.275C122.388 121.342 122.537 119.537 122.388 119.227C122.203 118.68 122.102 118.109 122.088 117.532C122.088 117.073 121.977 115.716 122.238 115.379C122.858 114.76 123.691 114.4 124.567 114.372C125.6 114.38 126.819 115.126 127.108 115.55Z" fill="#405781"/>
<path d="M113.759 115.55C113.421 116.048 113.487 117.317 112.812 118.541C112.137 119.765 111.642 120.82 111.618 121.69C111.593 122.561 112.502 123.98 113.759 124.179C115.016 124.377 116.449 124.451 117.083 124.116C117.717 123.782 118.479 123.208 118.479 122.275C118.479 121.342 118.329 119.537 118.479 119.227C118.663 118.68 118.764 118.109 118.778 117.532C118.778 117.073 118.889 115.716 118.628 115.379C118.008 114.76 117.175 114.4 116.3 114.372C115.263 114.38 114.044 115.126 113.759 115.55Z" fill="#405781"/>
<defs>
<linearGradient id="paint0_linear" x1="119.501" y1="96.019" x2="119.501" y2="162.015" gradientUnits="userSpaceOnUse">
<stop stop-color="#E5E5E5"/>
<stop offset="0.48" stop-color="#F4F4F4"/>
<stop offset="1" stop-color="#F5F6F8"/>
</linearGradient>
<linearGradient id="paint1_linear" x1="118.487" y1="13.5162" x2="120.64" y2="20.9461" gradientUnits="userSpaceOnUse">
<stop stop-color="#F2BFAD"/>
<stop offset="1" stop-color="#F2DAD4"/>
</linearGradient>
</defs>
</svg>
