<svg width="20" height="20" viewBox="0 0 20 20" fill="none" xmlns="http://www.w3.org/2000/svg">
<path d="M15.9658 4.65759L15.3422 4.03384C15.3187 4.0103 15.2893 4 15.2584 4C15.2275 4 15.1981 4.01177 15.1746 4.03384L14.0554 5.15337C13.5689 4.82362 12.9945 4.64781 12.4068 4.64877C11.6538 4.64877 10.9008 4.93564 10.3257 5.51085L8.82713 7.00993C8.80523 7.03205 8.79295 7.06192 8.79295 7.09305C8.79295 7.12418 8.80523 7.15405 8.82713 7.17617L12.823 11.1732C12.8465 11.1968 12.8759 11.2071 12.9068 11.2071C12.9362 11.2071 12.9671 11.1953 12.9906 11.1732L14.4892 9.67414C15.5025 8.65907 15.6217 7.08937 14.8466 5.94483L15.9658 4.8253C16.0114 4.77823 16.0114 4.7032 15.9658 4.65759ZM10.9831 10.5112C10.961 10.4893 10.9312 10.477 10.9 10.477C10.8689 10.477 10.8391 10.4893 10.817 10.5112L9.83748 11.491L8.50946 10.1626L9.4904 9.18132C9.53599 9.13571 9.53599 9.06068 9.4904 9.01508L8.95507 8.47959C8.93296 8.45769 8.9031 8.4454 8.87198 8.4454C8.84086 8.4454 8.811 8.45769 8.78889 8.47959L7.80794 9.46083L7.17555 8.82825C7.16457 8.81725 7.15149 8.80859 7.13709 8.80278C7.12268 8.79697 7.10725 8.79412 7.09172 8.79441C7.06231 8.79441 7.03142 8.80618 7.00789 8.82825L5.51074 10.3273C4.49744 11.3409 4.37832 12.9121 5.15337 14.0566L4.03418 15.1762C4.01228 15.1983 4 15.2282 4 15.2593C4 15.2904 4.01228 15.3203 4.03418 15.3424L4.65775 15.9662C4.68128 15.9897 4.71069 16 4.74158 16C4.77246 16 4.80187 15.9882 4.8254 15.9662L5.94459 14.8466C6.44021 15.1835 7.01672 15.3512 7.59322 15.3512C8.34621 15.3512 9.0992 15.0644 9.67424 14.4892L11.1729 12.9901C11.2185 12.9445 11.2185 12.8694 11.1729 12.8238L10.5405 12.1912L11.5214 11.21C11.567 11.1644 11.567 11.0894 11.5214 11.0438L10.9831 10.5112Z" fill="#419958"/>
</svg>
