<svg width="20" height="20" viewBox="0 0 20 20" fill="none" xmlns="http://www.w3.org/2000/svg">
<path d="M8.90673 7.4376C8.90673 7.8126 8.90673 8.17606 9.025 8.51644C7.78173 9.97606 4.49904 13.8328 4.19327 14.127C4.1325 14.1815 4.08388 14.2483 4.05059 14.3228C4.01729 14.3973 4.00005 14.4781 4 14.5597C4 14.8049 4.15 15.0414 4.27692 15.1741C4.46731 15.3732 5.28077 16.1261 5.43077 15.9818C5.875 15.5491 5.96442 15.4338 6.14615 15.2549C6.42019 14.9866 6.11731 14.4386 6.2125 14.2164C6.30769 13.9943 6.40865 13.9511 6.57308 13.9164C6.7375 13.8818 7.02885 14.0001 7.25673 14.003C7.49615 14.0059 7.62596 13.9049 7.80481 13.7376C7.94904 13.6049 8.05288 13.4809 8.05577 13.2876C8.06154 13.028 7.68654 12.6847 7.96635 12.4107C8.24615 12.1366 8.65 12.5895 8.94712 12.5549C9.24423 12.5203 9.60481 12.1078 9.64231 11.9318C9.67981 11.7559 9.30481 11.303 9.3625 11.0462C9.38269 10.9597 9.55865 10.7578 9.69135 10.7289C9.82404 10.7001 10.4125 10.928 10.5452 10.8991C10.7067 10.8645 10.8942 10.6943 11.0471 10.5991C11.4942 10.7924 11.901 10.8703 12.4231 10.8703C14.399 10.8703 16 9.3299 16 7.43183C16 5.53375 14.399 4 12.4231 4C10.4471 4 8.90673 5.53952 8.90673 7.4376ZM14.1538 6.76923C14.1538 6.9518 14.0997 7.13027 13.9983 7.28206C13.8969 7.43386 13.7527 7.55218 13.584 7.62204C13.4153 7.69191 13.2297 7.71019 13.0507 7.67457C12.8716 7.63895 12.7072 7.55104 12.5781 7.42194C12.449 7.29285 12.361 7.12837 12.3254 6.94931C12.2898 6.77025 12.3081 6.58466 12.378 6.41598C12.4478 6.24731 12.5661 6.10315 12.7179 6.00172C12.8697 5.90029 13.0482 5.84615 13.2308 5.84615C13.4756 5.84615 13.7104 5.94341 13.8835 6.11652C14.0566 6.28963 14.1538 6.52442 14.1538 6.76923Z" fill="#419958"/>
</svg>
