<svg width="20" height="20" viewBox="0 0 20 20" fill="none" xmlns="http://www.w3.org/2000/svg">
<path d="M16.375 9.5H12C11.6022 9.5 11.2206 9.34196 10.9393 9.06066C10.658 8.77936 10.5 8.39782 10.5 8V3.625C10.5 3.59185 10.4868 3.56005 10.4634 3.53661C10.4399 3.51317 10.4082 3.5 10.375 3.5H8.71094C8.65258 3.39192 8.58459 3.28932 8.50781 3.19344C8.1475 2.74625 7.61219 2.5 7 2.5C5.8225 2.5 5 3.42531 5 4.75V9.25C5 10.0312 5.63562 10.5 6.25 10.5C6.41465 10.5018 6.57801 10.4707 6.73047 10.4085C6.88294 10.3463 7.02146 10.2543 7.13789 10.1379C7.25433 10.0215 7.34633 9.88294 7.40851 9.73047C7.4707 9.57801 7.5018 9.41465 7.5 9.25V4.5C7.5 4.36739 7.44732 4.24021 7.35355 4.14645C7.25979 4.05268 7.13261 4 7 4C6.86739 4 6.74021 4.05268 6.64645 4.14645C6.55268 4.24021 6.5 4.36739 6.5 4.5V9.25C6.50109 9.28312 6.49536 9.31612 6.48318 9.34694C6.47101 9.37777 6.45263 9.40576 6.4292 9.4292C6.40576 9.45263 6.37776 9.47101 6.34694 9.48318C6.31612 9.49536 6.28312 9.50109 6.25 9.5C6.18031 9.5 6 9.455 6 9.25V4.75C6 4.14562 6.26281 3.5 7 3.5C7.92781 3.5 8 4.44219 8 4.73062V9.06656C8 9.61188 7.82906 10.105 7.51844 10.4559C7.20312 10.8125 6.76469 11 6.25 11C5.73531 11 5.29688 10.8125 4.98156 10.4559C4.67094 10.105 4.5 9.61188 4.5 9.06656V6.5C4.5 6.36739 4.44732 6.24021 4.35355 6.14645C4.25979 6.05268 4.13261 6 4 6C3.86739 6 3.74021 6.05268 3.64645 6.14645C3.55268 6.24021 3.5 6.36739 3.5 6.5V9.06656C3.5 10.6763 4.53719 11.8675 6 11.9894V15.5C6 16.0304 6.21071 16.5391 6.58579 16.9142C6.96086 17.2893 7.46957 17.5 8 17.5H14.5C15.0304 17.5 15.5391 17.2893 15.9142 16.9142C16.2893 16.5391 16.5 16.0304 16.5 15.5V9.625C16.5 9.59185 16.4868 9.56005 16.4634 9.53661C16.4399 9.51317 16.4082 9.5 16.375 9.5Z" fill="#419958"/>
<path d="M12 8.5H16.0566C16.0689 8.49995 16.0809 8.49625 16.0911 8.48938C16.1014 8.48251 16.1093 8.47277 16.1141 8.46138C16.1188 8.44999 16.12 8.43747 16.1176 8.42538C16.1152 8.41329 16.1093 8.40218 16.1006 8.39344L11.6066 3.89937C11.5978 3.89069 11.5867 3.88478 11.5746 3.88239C11.5625 3.88 11.55 3.88123 11.5386 3.88594C11.5272 3.89065 11.5175 3.89862 11.5106 3.90885C11.5037 3.91908 11.5001 3.93111 11.5 3.94344V8C11.5 8.13261 11.5527 8.25979 11.6464 8.35355C11.7402 8.44732 11.8674 8.5 12 8.5Z" fill="#419958"/>
</svg>
