<svg width="20" height="20" viewBox="0 0 20 20" fill="none" xmlns="http://www.w3.org/2000/svg">
<path d="M5.5592 16.1853C5.45869 16.2727 5.33534 16.3296 5.20362 16.3493C5.07191 16.3691 4.93729 16.3508 4.81558 16.2967C4.69387 16.2426 4.59012 16.155 4.51651 16.044C4.4429 15.933 4.40248 15.8033 4.4 15.6701V14.1C4.0287 14.1 3.6726 13.9525 3.41005 13.6899C3.1475 13.4274 3 13.0713 3 12.7V7.8C3 7.4287 3.1475 7.0726 3.41005 6.81005C3.6726 6.5475 4.0287 6.4 4.4 6.4H12.1C12.4713 6.4 12.8274 6.5475 13.0899 6.81005C13.3525 7.0726 13.5 7.4287 13.5 7.8V12.7C13.5 13.0713 13.3525 13.4274 13.0899 13.6899C12.8274 13.9525 12.4713 14.1 12.1 14.1H8.6021L5.5592 16.1853ZM14.2 10.6119C14.1978 10.698 14.1978 10.7841 14.2 10.8702V10.6112C14.2035 10.5363 14.2042 9.5983 14.2028 7.7979C14.2022 7.24131 13.9807 6.70771 13.587 6.31433C13.1932 5.92096 12.6594 5.7 12.1028 5.7H6.5V5C6.5 4.6287 6.6475 4.2726 6.91005 4.01005C7.1726 3.7475 7.5287 3.6 7.9 3.6H15.6C15.9713 3.6 16.3274 3.7475 16.5899 4.01005C16.8525 4.2726 17 4.6287 17 5V9.9C17 10.2713 16.8525 10.6274 16.5899 10.8899C16.3274 11.1525 15.9713 11.3 15.6 11.3V12.8701C15.5975 13.0033 15.5571 13.133 15.4835 13.244C15.4099 13.355 15.3061 13.4426 15.1844 13.4967C15.0627 13.5508 14.9281 13.5691 14.7964 13.5493C14.6647 13.5296 14.5413 13.4727 14.4408 13.3853L14.2 13.2201V10.6119Z" fill="#419958"/>
</svg>
