<svg width="20" height="20" viewBox="0 0 20 20" fill="none" xmlns="http://www.w3.org/2000/svg">
<path d="M15.6 5.10156C15.9713 5.10156 16.3274 5.24906 16.5899 5.51161C16.8525 5.77416 17 6.13026 17 6.50156V13.5016C17 13.8729 16.8525 14.229 16.5899 14.4915C16.3274 14.7541 15.9713 14.9016 15.6 14.9016H4.4C4.0287 14.9016 3.6726 14.7541 3.41005 14.4915C3.1475 14.229 3 13.8729 3 13.5016V6.50156C3 5.72456 3.623 5.10156 4.4 5.10156H15.6ZM14.2 13.5016V12.1016H10.35L8.95 13.5016H14.2ZM5.8 13.5016H7.55L12.345 8.68556C12.485 8.55256 12.485 8.32856 12.345 8.18856L11.113 6.95656C10.973 6.81656 10.749 6.81656 10.616 6.95656L5.8 11.7726V13.5016Z" fill="#419958"/>
</svg>
