<svg width="24" height="24" viewBox="0 0 24 24" fill="none" xmlns="http://www.w3.org/2000/svg">
<circle cx="12" cy="12" r="12" fill="#419958"/>
<path d="M16.5343 6.19922V9.54047C15.9943 9.11156 15.3109 8.85534 14.5678 8.85534C13.5168 8.85534 12.5856 9.36806 12.0102 10.1567C11.615 10.6975 11.4025 11.3502 11.4035 12.02C11.4035 12.0236 11.4021 12.0214 11.3993 12.0157C11.3976 13.1005 10.5178 13.9794 9.43278 13.9794C8.34912 13.9794 7.4705 13.1031 7.46628 12.0202V12.0053C7.47022 10.9225 8.34941 10.0462 9.43278 10.0462C10.1697 10.0462 10.812 10.452 11.1484 11.0522C11.1883 10.9172 11.2814 10.6269 11.4119 10.3716C11.5253 10.1499 11.6713 9.95812 11.7514 9.85969C11.4556 9.54021 11.0969 9.2854 10.6978 9.11129C10.2987 8.93719 9.8679 8.84756 9.4325 8.84803C7.70562 8.84803 6.30162 10.2318 6.26844 11.9511H6.26562V17.8326H7.46572V14.4919C8.00572 14.9208 8.68916 15.177 9.43166 15.177C10.4872 15.177 11.4218 14.6601 11.9967 13.8658C12.3718 13.3494 12.5918 12.7127 12.5918 12.0247C12.5918 12.0191 12.5952 12.0259 12.6008 12.0411C12.6008 12.0337 12.6002 12.027 12.6002 12.0194C12.6002 10.9332 13.4805 10.0529 14.5667 10.0529C15.6501 10.0529 16.5287 10.929 16.5332 12.0112V12.0276C16.5287 13.1098 15.6501 13.9859 14.5667 13.9859C13.8293 13.9859 13.1869 13.5798 12.8502 12.979C12.8126 13.1078 12.7181 13.4088 12.5831 13.6729C12.4734 13.888 12.3328 14.0751 12.2512 14.1755C12.5469 14.494 12.9053 14.748 13.3038 14.9216C13.7023 15.0951 14.1323 15.1845 14.567 15.184C16.2939 15.184 17.6979 13.8003 17.7311 12.081H17.7339V6.19922H16.5343Z" fill="white"/>
</svg>
