<svg width="20" height="20" viewBox="0 0 20 20" fill="none" xmlns="http://www.w3.org/2000/svg">
<path d="M7.29893 16.026L14.2991 9.02586L10.9741 5.70091L3.97398 12.7011C3.87761 12.7976 3.80915 12.9183 3.77587 13.0506L3 17L6.94865 16.2241C7.08123 16.191 7.20251 16.1224 7.29893 16.026ZM16.5589 6.76604C16.8413 6.48352 17 6.10039 17 5.70091C17 5.30143 16.8413 4.9183 16.5589 4.63579L15.3642 3.4411C15.0817 3.15866 14.6986 3 14.2991 3C13.8996 3 13.5165 3.15866 13.234 3.4411L12.0393 4.63579L15.3642 7.96073L16.5589 6.76604Z" fill="#419958"/>
</svg>
