<svg width="20" height="20" viewBox="0 0 20 20" fill="none" xmlns="http://www.w3.org/2000/svg">
<path d="M5.56522 8.17216C5.56522 8.45912 5.8 8.6939 6.08696 8.6939C6.37391 8.6939 6.6087 8.45912 6.6087 8.17216V7.12868H7.65217C7.93913 7.12868 8.17391 6.8939 8.17391 6.60695C8.17391 6.31999 7.93913 6.08521 7.65217 6.08521H6.6087V5.04173C6.6087 4.75477 6.37391 4.51999 6.08696 4.51999C5.8 4.51999 5.56522 4.75477 5.56522 5.04173V6.08521H4.52174C4.23478 6.08521 4 6.31999 4 6.60695C4 6.8939 4.23478 7.12868 4.52174 7.12868H5.56522V8.17216Z" fill="#419958"/>
<path d="M10.7826 12.8678C11.647 12.8678 12.3478 12.167 12.3478 11.3026C12.3478 10.4381 11.647 9.73737 10.7826 9.73737C9.91815 9.73737 9.21738 10.4381 9.21738 11.3026C9.21738 12.167 9.91815 12.8678 10.7826 12.8678Z" fill="#419958"/>
<path d="M14.9565 7.12868H13.3026L12.6557 6.42434C12.5584 6.31758 12.44 6.23229 12.3079 6.17389C12.1759 6.1155 12.0331 6.08529 11.8887 6.08521H8.54956C8.63826 6.24173 8.69565 6.4139 8.69565 6.60694C8.69565 7.18086 8.22609 7.65042 7.65217 7.65042H7.13043V8.17216C7.13043 8.74607 6.66087 9.21564 6.08696 9.21564C5.89391 9.21564 5.72174 9.15825 5.56522 9.06955V14.433C5.56522 15.0069 6.03478 15.4765 6.60869 15.4765H14.9565C15.5304 15.4765 16 15.0069 16 14.433V8.17216C16 7.59825 15.5304 7.12868 14.9565 7.12868ZM10.7826 13.9113C9.34261 13.9113 8.17391 12.7426 8.17391 11.3026C8.17391 9.8626 9.34261 8.6939 10.7826 8.6939C12.2226 8.6939 13.3913 9.8626 13.3913 11.3026C13.3913 12.7426 12.2226 13.9113 10.7826 13.9113Z" fill="#419958"/>
</svg>
