<svg width="20" height="20" viewBox="0 0 20 20" fill="none" xmlns="http://www.w3.org/2000/svg">
<path d="M10.8295 9.16874L10.8354 4.11192C10.8354 3.89022 10.7474 3.67759 10.5906 3.52083C10.4338 3.36406 10.2212 3.27599 9.99949 3.27599C9.77779 3.27599 9.56516 3.36406 9.4084 3.52083C9.25163 3.67759 9.16356 3.89022 9.16356 4.11192L9.16944 9.16874L4.11262 9.16285C3.89092 9.16285 3.6783 9.25093 3.52153 9.40769C3.36476 9.56446 3.27669 9.77709 3.27669 9.99879C3.27669 10.2205 3.36476 10.4331 3.52153 10.5899C3.6783 10.7467 3.89092 10.8347 4.11262 10.8347L9.16944 10.8288L9.16356 15.8857C9.16311 15.9956 9.18442 16.1045 9.22627 16.2061C9.26812 16.3077 9.32968 16.4 9.40739 16.4778C9.4851 16.5555 9.57744 16.617 9.67906 16.6589C9.78068 16.7007 9.88959 16.722 9.99949 16.7216C10.1094 16.722 10.2183 16.7007 10.3199 16.6589C10.4215 16.617 10.5139 16.5555 10.5916 16.4778C10.6693 16.4 10.7309 16.3077 10.7727 16.2061C10.8146 16.1045 10.8359 15.9956 10.8354 15.8857L10.8295 10.8288L15.8864 10.8347C15.9963 10.8352 16.1052 10.8139 16.2068 10.772C16.3084 10.7302 16.4007 10.6686 16.4785 10.5909C16.5562 10.5132 16.6177 10.4208 16.6596 10.3192C16.7014 10.2176 16.7227 10.1087 16.7223 9.99879C16.7227 9.88889 16.7014 9.77998 16.6596 9.67836C16.6177 9.57673 16.5562 9.4844 16.4785 9.40669C16.4007 9.32898 16.3084 9.26742 16.2068 9.22557C16.1052 9.18372 15.9963 9.1624 15.8864 9.16286L10.8295 9.16874Z" fill="#419958"/>
</svg>
