<svg width="20" height="20" viewBox="0 0 20 20" fill="none" xmlns="http://www.w3.org/2000/svg">
<path d="M11.7984 9.99403C11.7984 10.9473 10.9918 11.7202 9.99674 11.7202C9.0017 11.7202 8.19506 10.9473 8.19506 9.99403C8.19506 9.04071 9.0017 8.26791 9.99674 8.26791C10.9918 8.2679 11.7984 9.04072 11.7984 9.99403ZM10 6.39999C8.96975 6.40456 7.90186 6.65537 6.89096 7.13556C6.14038 7.50678 5.4089 8.03052 4.77394 8.67697C4.46208 9.00696 4.06431 9.48478 4 9.99459C4.0076 10.4362 4.4813 10.9813 4.77394 11.3122C5.36937 11.9333 6.0818 12.4424 6.89096 12.854C7.83367 13.3115 8.87712 13.5749 10 13.5896C11.0312 13.5849 12.0989 13.3312 13.1087 12.854C13.8592 12.4828 14.5911 11.9587 15.2261 11.3122C15.5379 10.9822 15.9357 10.5044 16 9.99459C15.9924 9.55298 15.5187 9.00788 15.2261 8.67695C14.6306 8.05589 13.9178 7.54716 13.1087 7.13554C12.1664 6.67838 11.1204 6.41678 10 6.39999ZM9.99924 7.29247C11.5604 7.29247 12.826 8.50241 12.826 9.99498C12.826 11.4875 11.5604 12.6975 9.99924 12.6975C8.43805 12.6975 7.17249 11.4875 7.17249 9.99498C7.17249 8.50241 8.43805 7.29247 9.99924 7.29247Z" fill="#419958"/>
</svg>
