<svg width="20" height="20" viewBox="0 0 20 20" fill="none" xmlns="http://www.w3.org/2000/svg">
<path fill-rule="evenodd" clip-rule="evenodd" d="M9.14603 5.61209C9.14595 5.54632 9.15884 5.48119 9.18397 5.42041C9.2091 5.35963 9.24597 5.30441 9.29248 5.25791C9.33898 5.2114 9.3942 5.17453 9.45498 5.1494C9.51576 5.12427 9.5809 5.11138 9.64666 5.11146H13.8893C13.9551 5.11138 14.0202 5.12427 14.081 5.1494C14.1418 5.17453 14.197 5.2114 14.2435 5.25791C14.29 5.30441 14.3269 5.35963 14.352 5.42041C14.3771 5.48119 14.39 5.54632 14.3899 5.61209V9.85473C14.3899 9.98751 14.3372 10.1148 14.2433 10.2087C14.1494 10.3026 14.0221 10.3554 13.8893 10.3554C13.7565 10.3554 13.6292 10.3026 13.5353 10.2087C13.4414 10.1148 13.3887 9.98751 13.3887 9.85473L13.3894 6.11202L9.64666 6.11272C9.5809 6.11281 9.51576 6.09991 9.45498 6.07478C9.39421 6.04965 9.33898 6.01278 9.29248 5.96628C9.24597 5.91977 9.2091 5.86455 9.18397 5.80377C9.15884 5.743 9.14595 5.67786 9.14603 5.61209Z" fill="#419958"/>
<path fill-rule="evenodd" clip-rule="evenodd" d="M5.75758 13.7438C5.66381 13.65 5.61113 13.5229 5.61113 13.3903C5.61113 13.2577 5.66381 13.1305 5.75758 13.0367L13.1822 5.61208C13.276 5.51832 13.4031 5.46564 13.5358 5.46564C13.6684 5.46564 13.7955 5.51832 13.8893 5.61208C13.9831 5.70585 14.0358 5.83303 14.0358 5.96564C14.0358 6.09825 13.9831 6.22542 13.8893 6.31919L6.46468 13.7438C6.37091 13.8376 6.24374 13.8903 6.11113 13.8903C5.97852 13.8903 5.85134 13.8376 5.75758 13.7438Z" fill="#419958"/>
</svg>
