<svg width="20" height="20" viewBox="0 0 20 20" fill="none" xmlns="http://www.w3.org/2000/svg">
<path fill-rule="evenodd" clip-rule="evenodd" d="M13.8891 8.64637C13.9549 8.64628 14.02 8.65918 14.0808 8.68431C14.1416 8.70944 14.1968 8.74631 14.2433 8.79281C14.2898 8.83932 14.3267 8.89454 14.3518 8.95532C14.3769 9.01609 14.3898 9.08123 14.3898 9.147V13.3896C14.3898 13.4554 14.3769 13.5205 14.3518 13.5813C14.3267 13.6421 14.2898 13.6973 14.2433 13.7438C14.1968 13.7903 14.1416 13.8272 14.0808 13.8523C14.02 13.8775 13.9549 13.8904 13.8891 13.8903H9.64648C9.5137 13.8903 9.38637 13.8375 9.29248 13.7436C9.19859 13.6498 9.14585 13.5224 9.14585 13.3896C9.14585 13.2569 9.19859 13.1295 9.29248 13.0356C9.38637 12.9418 9.5137 12.889 9.64648 12.889L13.3892 12.8897L13.3885 9.147C13.3884 9.08123 13.4013 9.0161 13.4264 8.95532C13.4516 8.89454 13.4884 8.83932 13.5349 8.79281C13.5814 8.74631 13.6367 8.70944 13.6974 8.68431C13.7582 8.65918 13.8234 8.64628 13.8891 8.64637Z" fill="#419958"/>
<path fill-rule="evenodd" clip-rule="evenodd" d="M5.7574 5.25791C5.85117 5.16414 5.97834 5.11146 6.11095 5.11146C6.24356 5.11146 6.37074 5.16414 6.4645 5.25791L13.8891 12.6825C13.9829 12.7763 14.0356 12.9035 14.0356 13.0361C14.0356 13.1687 13.9829 13.2959 13.8891 13.3896C13.7954 13.4834 13.6682 13.5361 13.5356 13.5361C13.403 13.5361 13.2758 13.4834 13.182 13.3896L5.7574 5.96502C5.66363 5.87125 5.61095 5.74407 5.61095 5.61147C5.61095 5.47886 5.66363 5.35168 5.7574 5.25791Z" fill="#419958"/>
</svg>
