<svg width="136" height="47" viewBox="0 0 272 94" fill="none" xmlns="http://www.w3.org/2000/svg"
     xmlns:xlink="http://www.w3.org/1999/xlink">
    <g>
        <path d="M89.1124 66.4639L79.2832 60.8549C73.2336 71.4611 63.2822 79.5491 51.3839 83.1569L54.6669 94C69.3594 89.5475 81.6439 79.5609 89.1124 66.4639Z"
              fill="#57bb71">
            <animateTransform attributeName="transform"
                              type="scale"
                              additive="sum"
                              from="0.9 0.9"
                              to="1 1"
                              begin="0s"
                              dur="0.8s"
                              repeatCount="indefinite"
            />
        </path>
        <path d="M37.389 0C17.0173 0 0.5 16.543 0.5 36.9463C0.5 57.3497 17.0173 73.8927 37.389 73.8927C57.7646 73.8927 74.278 57.3497 74.278 36.9463C74.278 16.543 57.7646 0 37.389 0ZM37.389 62.568C23.26 62.568 11.811 51.0973 11.811 36.9503C11.811 22.8033 23.264 11.3326 37.389 11.3326C51.5179 11.3326 62.9669 22.8033 62.9669 36.9503C62.9669 51.0973 51.5179 62.568 37.389 62.568Z"
              fill="#57bb71"/>
    </g>
</svg>
