<svg width="20" height="20" viewBox="0 0 20 20" fill="none" xmlns="http://www.w3.org/2000/svg">
<path d="M10.75 7C10.75 7.79565 10.4339 8.55871 9.87132 9.12132C9.30871 9.68393 8.54565 10 7.75 10C6.95435 10 6.19129 9.68393 5.62868 9.12132C5.06607 8.55871 4.75 7.79565 4.75 7C4.75 6.20435 5.06607 5.44129 5.62868 4.87868C6.19129 4.31607 6.95435 4 7.75 4C8.54565 4 9.30871 4.31607 9.87132 4.87868C10.4339 5.44129 10.75 6.20435 10.75 7ZM13.75 14.5V16H1.75V14.5C1.75 12.8425 4.435 11.5 7.75 11.5C11.065 11.5 13.75 12.8425 13.75 14.5ZM16.375 11.875V13H15.25V11.875H16.375ZM14.875 8.125H13.75V7.75C13.75 7.15326 13.9871 6.58097 14.409 6.15901C14.831 5.73705 15.4033 5.5 16 5.5C16.5967 5.5 17.169 5.73705 17.591 6.15901C18.0129 6.58097 18.25 7.15326 18.25 7.75C18.25 8.4775 17.875 9.16 17.2825 9.5575L17.0575 9.7C16.63 10 16.375 10.4575 16.375 10.975V11.125H15.25V10.975C15.25 10.0825 15.7 9.25 16.4425 8.7625L16.66 8.62C16.9525 8.425 17.125 8.1025 17.125 7.75C17.125 7.45163 17.0065 7.16548 16.7955 6.9545C16.5845 6.74353 16.2984 6.625 16 6.625C15.7016 6.625 15.4155 6.74353 15.2045 6.9545C14.9935 7.16548 14.875 7.45163 14.875 7.75V8.125Z" fill="#419958"/>
</svg>
