<svg width="20" height="20" viewBox="0 0 20 20" fill="none" xmlns="http://www.w3.org/2000/svg">
<path d="M8.75 7.75C9.16421 7.75 9.5 7.41421 9.5 7C9.5 6.58579 9.16421 6.25 8.75 6.25C8.33579 6.25 8 6.58579 8 7C8 7.41421 8.33579 7.75 8.75 7.75Z" fill="#419958"/>
<path d="M8.75 13.75C9.16421 13.75 9.5 13.4142 9.5 13C9.5 12.5858 9.16421 12.25 8.75 12.25C8.33579 12.25 8 12.5858 8 13C8 13.4142 8.33579 13.75 8.75 13.75Z" fill="#419958"/>
<path d="M11.25 7.75C11.6642 7.75 12 7.41421 12 7C12 6.58579 11.6642 6.25 11.25 6.25C10.8358 6.25 10.5 6.58579 10.5 7C10.5 7.41421 10.8358 7.75 11.25 7.75Z" fill="#419958"/>
<path d="M11.25 13.75C11.6642 13.75 12 13.4142 12 13C12 12.5858 11.6642 12.25 11.25 12.25C10.8358 12.25 10.5 12.5858 10.5 13C10.5 13.4142 10.8358 13.75 11.25 13.75Z" fill="#419958"/>
<path d="M11.25 10.75C11.6642 10.75 12 10.4142 12 10C12 9.58579 11.6642 9.25 11.25 9.25C10.8358 9.25 10.5 9.58579 10.5 10C10.5 10.4142 10.8358 10.75 11.25 10.75Z" fill="#419958"/>
<path d="M8.75 10.75C9.16421 10.75 9.5 10.4142 9.5 10C9.5 9.58579 9.16421 9.25 8.75 9.25C8.33579 9.25 8 9.58579 8 10C8 10.4142 8.33579 10.75 8.75 10.75Z" fill="#419958"/>
</svg>
