<svg width="20" height="20" viewBox="0 0 20 20" fill="none" xmlns="http://www.w3.org/2000/svg">
<path fill-rule="evenodd" clip-rule="evenodd" d="M6.75 3C6.28587 3 5.84075 3.18437 5.51256 3.51256C5.18437 3.84075 5 4.28587 5 4.75V15.25C5 15.7141 5.18437 16.1592 5.51256 16.4874C5.84075 16.8156 6.28587 17 6.75 17H13.75C14.2141 17 14.6592 16.8156 14.9874 16.4874C15.3156 16.1592 15.5 15.7141 15.5 15.25V7.73725C15.4999 7.27316 15.3155 6.82811 14.9872 6.5L12 3.51275C11.6719 3.18454 11.2268 3.0001 10.7628 3H6.75ZM8.5 11.75C8.5 11.5179 8.40781 11.2954 8.24372 11.1313C8.07962 10.9672 7.85706 10.875 7.625 10.875C7.39294 10.875 7.17038 10.9672 7.00628 11.1313C6.84219 11.2954 6.75 11.5179 6.75 11.75V14.375C6.75 14.6071 6.84219 14.8296 7.00628 14.9937C7.17038 15.1578 7.39294 15.25 7.625 15.25C7.85706 15.25 8.07962 15.1578 8.24372 14.9937C8.40781 14.8296 8.5 14.6071 8.5 14.375V11.75ZM10.25 9.125C10.4821 9.125 10.7046 9.21719 10.8687 9.38128C11.0328 9.54538 11.125 9.76794 11.125 10V14.375C11.125 14.6071 11.0328 14.8296 10.8687 14.9937C10.7046 15.1578 10.4821 15.25 10.25 15.25C10.0179 15.25 9.79538 15.1578 9.63128 14.9937C9.46719 14.8296 9.375 14.6071 9.375 14.375V10C9.375 9.76794 9.46719 9.54538 9.63128 9.38128C9.79538 9.21719 10.0179 9.125 10.25 9.125ZM13.75 8.25C13.75 8.01794 13.6578 7.79538 13.4937 7.63128C13.3296 7.46719 13.1071 7.375 12.875 7.375C12.6429 7.375 12.4204 7.46719 12.2563 7.63128C12.0922 7.79538 12 8.01794 12 8.25V14.375C12 14.6071 12.0922 14.8296 12.2563 14.9937C12.4204 15.1578 12.6429 15.25 12.875 15.25C13.1071 15.25 13.3296 15.1578 13.4937 14.9937C13.6578 14.8296 13.75 14.6071 13.75 14.375V8.25Z" fill="#419958"/>
</svg>
