<svg width="20" height="20" viewBox="0 0 20 20" fill="none" xmlns="http://www.w3.org/2000/svg">
<path d="M9.15245 13.7665C10.3762 13.7665 11.5498 13.2804 12.4151 12.4151C13.2804 11.5498 13.7665 10.3762 13.7665 9.15245C13.7665 7.92872 13.2804 6.75512 12.4151 5.88982C11.5498 5.02452 10.3762 4.5384 9.15245 4.5384C7.92872 4.5384 6.75512 5.02452 5.88982 5.88982C5.02452 6.75512 4.5384 7.92872 4.5384 9.15245C4.5384 10.3762 5.02452 11.5498 5.88982 12.4151C6.75512 13.2804 7.92872 13.7665 9.15245 13.7665ZM14.0126 12.9252L16.7656 15.6782C16.839 15.7492 16.8975 15.8341 16.9378 15.928C16.978 16.0218 16.9991 16.1228 17 16.2249C17.0008 16.327 16.9812 16.4282 16.9425 16.5227C16.9038 16.6172 16.8466 16.703 16.7744 16.7751C16.7021 16.8473 16.6162 16.9043 16.5217 16.9429C16.4271 16.9815 16.3259 17.0009 16.2238 17C16.1217 16.999 16.0208 16.9777 15.927 16.9374C15.8332 16.897 15.7484 16.8383 15.6775 16.7648L12.9244 14.0118C11.6882 14.9714 10.1328 15.4238 8.57473 15.277C7.01669 15.1301 5.57318 14.395 4.53806 13.2213C3.50293 12.0476 2.954 10.5235 3.00302 8.95937C3.05204 7.39519 3.69532 5.90848 4.8019 4.8019C5.90848 3.69532 7.39519 3.05204 8.95937 3.00302C10.5235 2.954 12.0476 3.50293 13.2213 4.53806C14.395 5.57318 15.1301 7.01669 15.277 8.57473C15.4238 10.1328 14.9714 11.6882 14.0118 12.9244L14.0126 12.9252Z" fill="#419958"/>
</svg>
