<svg width="20" height="20" viewBox="0 0 20 20" fill="none" xmlns="http://www.w3.org/2000/svg">
<path fill-rule="evenodd" clip-rule="evenodd" d="M7.37996 3.49C8.35343 3.2324 9.38663 3 10.0054 3C10.6233 3 11.6574 3.2324 12.6309 3.49C13.4992 3.72312 14.3618 3.97675 15.2181 4.25067C15.7109 4.40747 16.0824 4.83213 16.1542 5.35573C16.689 9.27293 15.4486 12.1756 13.945 14.0964C13.3043 14.9207 12.5436 15.6443 11.6882 16.2431C11.3908 16.4514 11.0764 16.6343 10.7484 16.79C10.4964 16.9057 10.2276 17 10.0054 17C9.7833 17 9.5145 16.9057 9.2625 16.79C8.93436 16.6345 8.61996 16.4515 8.32263 16.2431C7.46764 15.6442 6.70724 14.9206 6.06676 14.0964C4.5613 12.1756 3.32183 9.27293 3.85663 5.35573C3.89239 5.10193 3.99929 4.86345 4.16496 4.66788C4.33063 4.47231 4.54829 4.32766 4.79276 4.25067C5.64905 3.97676 6.51169 3.72313 7.37996 3.49ZM10.4861 9.91507C10.7938 9.80246 11.0523 9.58548 11.2165 9.30191C11.3808 9.01834 11.4403 8.68614 11.3848 8.36319C11.3293 8.04023 11.1623 7.74698 10.9128 7.5345C10.6633 7.32203 10.3472 7.20379 10.0195 7.20039C9.69187 7.19699 9.37339 7.30864 9.11957 7.51589C8.86574 7.72315 8.69266 8.01287 8.63047 8.33461C8.56827 8.65634 8.62091 8.9897 8.77921 9.27662C8.9375 9.56353 9.19143 9.78583 9.49676 9.9048C9.47707 9.94493 9.46323 9.98767 9.4557 10.0317L9.1449 11.8984C9.13379 11.9652 9.13736 12.0337 9.15536 12.099C9.17337 12.1643 9.20538 12.2249 9.24916 12.2766C9.29294 12.3283 9.34746 12.3698 9.40891 12.3983C9.47037 12.4268 9.53729 12.4416 9.60503 12.4416H10.3844C10.4524 12.4416 10.5196 12.4268 10.5813 12.3981C10.643 12.3695 10.6976 12.3277 10.7415 12.2757C10.7853 12.2236 10.8172 12.1627 10.835 12.097C10.8528 12.0314 10.8561 11.9626 10.8445 11.8956L10.5206 10.0289C10.514 9.98966 10.5024 9.95139 10.4861 9.91507Z" fill="#419958"/>
</svg>
