<svg width="20" height="20" viewBox="0 0 20 20" fill="none" xmlns="http://www.w3.org/2000/svg">
<path d="M9.14861 9.02453C10.5748 9.02453 11.7309 7.86841 11.7309 6.44226C11.7309 5.01612 10.5748 3.86 9.14861 3.86C7.72246 3.86 6.56635 5.01612 6.56635 6.44226C6.56635 7.86841 7.72246 9.02453 9.14861 9.02453Z" fill="#419958"/>
<path d="M10.8035 13.7454H13.6016V14.305H10.8035V13.7454Z" fill="#419958"/>
<path d="M8.40511 14.5448V15.744C8.40511 15.85 8.44722 15.9517 8.52219 16.0267C8.59715 16.1016 8.69882 16.1437 8.80484 16.1437H15.6003C15.7063 16.1437 15.808 16.1016 15.8829 16.0267C15.9579 15.9517 16 15.85 16 15.744V11.7467C16 11.6407 15.9579 11.539 15.8829 11.4641C15.808 11.3891 15.7063 11.347 15.6003 11.347H12.8022V10.7594C12.8022 10.6534 12.76 10.5517 12.6851 10.4767C12.6101 10.4018 12.5084 10.3596 12.4024 10.3596C12.2964 10.3596 12.1947 10.4018 12.1198 10.4767C12.0448 10.5517 12.0027 10.6534 12.0027 10.7594V11.347H11.2032V9.91594C10.524 9.80499 9.83687 9.74885 9.14861 9.74805C7.63075 9.74159 6.1299 10.0677 4.75156 10.7034C4.52471 10.8105 4.33333 10.9803 4.20013 11.1929C4.06692 11.4055 3.99749 11.6518 4.00007 11.9026V14.5448H8.40511ZM15.2005 15.3443H9.20457V12.1464H12.0027V12.3143C12.0027 12.4203 12.0448 12.522 12.1198 12.597C12.1947 12.6719 12.2964 12.7141 12.4024 12.7141C12.5084 12.7141 12.6101 12.6719 12.6851 12.597C12.76 12.522 12.8022 12.4203 12.8022 12.3143V12.1464H15.2005V15.3443Z" fill="#419958"/>
</svg>
