<svg width="20" height="20" viewBox="0 0 20 20" fill="none" xmlns="http://www.w3.org/2000/svg">
<path fill-rule="evenodd" clip-rule="evenodd" d="M9.99288 11.5241H10.5344L14.4358 7.62271L13.3757 6.56369L10.7412 9.17127V3H9.24457V9.17127L6.61002 6.56369L5.55 7.62271L9.45138 11.5241H9.99288ZM11.9471 15.0019C11.9471 15.5318 11.7365 16.04 11.3618 16.4148C10.9871 16.7895 10.4789 17 9.94892 17C9.41898 17 8.91074 16.7895 8.53602 16.4148C8.16129 16.04 7.95077 15.5318 7.95077 15.0019C7.95077 14.4719 8.16129 13.9637 8.53602 13.589C8.91074 13.2142 9.41898 13.0037 9.94892 13.0037C10.4789 13.0037 10.9871 13.2142 11.3618 13.589C11.7365 13.9637 11.9471 14.4719 11.9471 15.0019Z" fill="#419958"/>
</svg>
