<svg width="20" height="20" viewBox="0 0 20 20" fill="none" xmlns="http://www.w3.org/2000/svg">
<path d="M6.1 4.8V7.4H13.9V4.8H15.2045C15.5607 4.8 15.85 5.08925 15.85 5.44545V15.8545C15.8498 16.0257 15.7818 16.1898 15.6608 16.3108C15.5398 16.4318 15.3757 16.4998 15.2045 16.5H4.79545C4.62432 16.4998 4.46025 16.4318 4.33924 16.3108C4.21823 16.1898 4.15017 16.0257 4.15 15.8545V5.44545C4.15 5.08925 4.43925 4.8 4.79545 4.8H6.1ZM8.05 13.25H6.75V14.55H8.05V13.25ZM8.05 11.3H6.75V12.6H8.05V11.3ZM8.05 9.35H6.75V10.65H8.05V9.35ZM12.6 3.5V6.1H7.4V3.5H12.6Z" fill="#419958"/>
</svg>
