<svg width="20" height="20" viewBox="0 0 20 20" fill="none" xmlns="http://www.w3.org/2000/svg">
<path d="M7.94827 5.44748C7.73279 5.44748 7.52612 5.53309 7.37375 5.68546C7.22138 5.83783 7.13577 6.0445 7.13577 6.25998C7.13577 6.47547 7.22138 6.68213 7.37375 6.83451C7.52612 6.98688 7.73279 7.07248 7.94827 7.07248H12.4869L11.4363 8.12305C11.2883 8.27629 11.2064 8.48152 11.2083 8.69456C11.2101 8.90759 11.2956 9.11138 11.4462 9.26202C11.5969 9.41267 11.8007 9.49812 12.0137 9.49997C12.2267 9.50182 12.432 9.41992 12.5852 9.27192L15.0227 6.83442C15.175 6.68205 15.2606 6.47543 15.2606 6.25998C15.2606 6.04454 15.175 5.83791 15.0227 5.68555L12.5852 3.24805C12.5103 3.17044 12.4206 3.10855 12.3215 3.06596C12.2223 3.02338 12.1157 3.00097 12.0078 3.00003C11.9 2.99909 11.793 3.01965 11.6931 3.0605C11.5933 3.10136 11.5026 3.16169 11.4263 3.23798C11.35 3.31426 11.2896 3.40498 11.2488 3.50483C11.2079 3.60469 11.1874 3.71168 11.1883 3.81956C11.1893 3.92744 11.2117 4.03406 11.2543 4.13319C11.2968 4.23232 11.3587 4.32197 11.4363 4.39692L12.4869 5.44748H7.94827Z" fill="#419958"/>
<path d="M11.1983 13.5725C11.4138 13.5725 11.6204 13.4869 11.7728 13.3345C11.9252 13.1821 12.0108 12.9755 12.0108 12.76C12.0108 12.5445 11.9252 12.3378 11.7728 12.1855C11.6204 12.0331 11.4138 11.9475 11.1983 11.9475H6.65965L7.71021 10.8969C7.78781 10.822 7.84971 10.7323 7.89229 10.6332C7.93488 10.5341 7.95729 10.4274 7.95823 10.3196C7.95917 10.2117 7.93861 10.1047 7.89775 10.0048C7.8569 9.90498 7.79657 9.81426 7.72028 9.73798C7.64399 9.66169 7.55328 9.60136 7.45342 9.5605C7.35357 9.51965 7.24658 9.49909 7.1387 9.50003C7.03081 9.50097 6.9242 9.52338 6.82507 9.56596C6.72594 9.60855 6.63629 9.67045 6.56134 9.74805L4.12384 12.1855C3.97152 12.3379 3.88595 12.5445 3.88595 12.76C3.88595 12.9754 3.97152 13.1821 4.12384 13.3344L6.56134 15.7719C6.71458 15.9199 6.91982 16.0018 7.13285 16C7.34589 15.9981 7.54967 15.9127 7.70031 15.762C7.85096 15.6114 7.93641 15.4076 7.93826 15.1946C7.94011 14.9815 7.85821 14.7763 7.71021 14.623L6.65965 13.5725H11.1983Z" fill="#419958"/>
</svg>
