<svg width="20" height="20" viewBox="0 0 20 20" fill="none" xmlns="http://www.w3.org/2000/svg">
<path d="M3 7.5V15.6676C3 16.3102 3.52227 16.8352 4.16758 16.8352H4.75V6.33516H4.16758C3.52227 6.33516 3 6.85742 3 7.5ZM15.8324 6.33516H15.25V16.8352H15.8324C16.475 16.8352 17 16.3129 17 15.6676V7.5C17 6.85742 16.4777 6.33516 15.8324 6.33516ZM5.91758 16.8352H14.0852V6.33516H5.91758V16.8352ZM8.83242 5.16758H11.1648V5.75H12.3324V5.16758C12.3324 4.525 11.8102 4 11.1648 4H8.83242C8.18984 4 7.66484 4.52227 7.66484 5.16758V5.75H8.83242V5.16758Z" fill="#419958"/>
</svg>
