<svg width="20" height="20" viewBox="0 0 20 20" fill="none" xmlns="http://www.w3.org/2000/svg">
<path d="M14.8 6.4H10L9.154 5.554C8.926 5.326 8.62 5.2 8.302 5.2H5.2C4.54 5.2 4.006 5.74 4.006 6.4L4 13.6C4 14.26 4.54 14.8 5.2 14.8H14.8C15.46 14.8 16 14.26 16 13.6V7.6C16 6.94 15.46 6.4 14.8 6.4ZM10.6 12.4H7C6.67 12.4 6.4 12.13 6.4 11.8C6.4 11.47 6.67 11.2 7 11.2H10.6C10.93 11.2 11.2 11.47 11.2 11.8C11.2 12.13 10.93 12.4 10.6 12.4ZM13 10H7C6.67 10 6.4 9.73 6.4 9.4C6.4 9.07 6.67 8.8 7 8.8H13C13.33 8.8 13.6 9.07 13.6 9.4C13.6 9.73 13.33 10 13 10Z" fill="#419958"/>
</svg>
