<svg width="12" height="12" viewBox="0 0 12 12" fill="none" xmlns="http://www.w3.org/2000/svg">
<path d="M10.8 1.8H5.328L4.8 0H1.2C0.88174 0 0.576515 0.126428 0.351472 0.351472C0.126428 0.576515 0 0.88174 0 1.2V9C0 9.31826 0.126428 9.62348 0.351472 9.84853C0.576515 10.0736 0.88174 10.2 1.2 10.2H5.4L6 12H10.8C11.1183 12 11.4235 11.8736 11.6485 11.6485C11.8736 11.4235 12 11.1183 12 10.8V3C12 2.68174 11.8736 2.37652 11.6485 2.15147C11.4235 1.92643 11.1183 1.8 10.8 1.8ZM3.102 7.554C2.45116 7.554 1.82697 7.29545 1.36676 6.83524C0.906546 6.37503 0.648 5.75084 0.648 5.1C0.648 4.44916 0.906546 3.82497 1.36676 3.36476C1.82697 2.90455 2.45116 2.646 3.102 2.646C3.726 2.646 4.296 2.868 4.746 3.3L4.8 3.324L4.05 4.032L4.014 4.002C3.84 3.84 3.546 3.648 3.102 3.648C2.316 3.648 1.674 4.302 1.674 5.1C1.674 5.898 2.316 6.552 3.102 6.552C3.924 6.552 4.278 6.03 4.374 5.676H3.048V4.746H5.418L5.424 4.8C5.448 4.914 5.454 5.028 5.454 5.154C5.454 6.564 4.5 7.554 3.102 7.554ZM6.72 6.528C6.918 6.9 7.164 7.236 7.434 7.548L7.11 7.866L6.72 6.528ZM7.182 6.072H6.6L6.402 5.448H8.796C8.796 5.448 8.592 6.234 7.86 7.092C7.548 6.72 7.326 6.354 7.182 6.072ZM11.4 10.8C11.4 10.9591 11.3368 11.1117 11.2243 11.2243C11.1117 11.3368 10.9591 11.4 10.8 11.4H6.6L7.8 10.2L7.314 8.538L7.866 7.986L9.474 9.6L9.9 9.162L8.286 7.554C8.826 6.936 9.246 6.204 9.438 5.448H10.2V4.824H8.016V4.2H7.392V4.824H6.216L5.508 2.4H10.8C10.9591 2.4 11.1117 2.46321 11.2243 2.57574C11.3368 2.68826 11.4 2.84087 11.4 3V10.8Z" fill="#626262"/>
</svg>
