<svg width="20" height="20" viewBox="0 0 20 20" fill="none" xmlns="http://www.w3.org/2000/svg">
<path d="M12.185 4.75H14.81C15.335 4.75 15.685 5.1 15.685 5.625V6.5H4.31V5.625C4.31 5.1 4.7475 4.75 5.185 4.75H7.81C7.985 3.7875 8.9475 3 9.9975 3C11.0475 3 12.01 3.7875 12.185 4.75ZM8.685 4.75H11.31C11.135 4.225 10.5225 3.875 9.9975 3.875C9.4725 3.875 8.86 4.225 8.685 4.75ZM5.185 7.375H14.81L14.0225 16.2125C14.0225 16.65 13.585 17 13.1475 17H6.8475C6.41 17 6.06 16.65 5.9725 16.2125L5.185 7.375Z" fill="#419958"/>
</svg>
