<svg width="20" height="20" viewBox="0 0 20 20" fill="none" xmlns="http://www.w3.org/2000/svg">
<path d="M15.4444 3H4.55556C4.143 3 3.74733 3.16389 3.45561 3.45561C3.16389 3.74733 3 4.143 3 4.55556V15.4444C3 15.857 3.16389 16.2527 3.45561 16.5444C3.74733 16.8361 4.143 17 4.55556 17H15.4444C15.857 17 16.2527 16.8361 16.5444 16.5444C16.8361 16.2527 17 15.857 17 15.4444V4.55556C17 4.143 16.8361 3.74733 16.5444 3.45561C16.2527 3.16389 15.857 3 15.4444 3ZM5.33333 5.33333H9.22222V9.22222H5.33333V5.33333ZM8.83333 15.4444C8.31763 15.4444 7.82306 15.2396 7.4584 14.8749C7.09375 14.5103 6.88889 14.0157 6.88889 13.5C6.88889 12.9843 7.09375 12.4897 7.4584 12.1251C7.82306 11.7604 8.31763 11.5556 8.83333 11.5556C9.34903 11.5556 9.84361 11.7604 10.2083 12.1251C10.5729 12.4897 10.7778 12.9843 10.7778 13.5C10.7778 14.0157 10.5729 14.5103 10.2083 14.8749C9.84361 15.2396 9.34903 15.4444 8.83333 15.4444ZM11.1667 10.7778L13.5 6.88889L15.8333 10.7778H11.1667Z" fill="#419958"/>
</svg>
