<svg width="20" height="20" viewBox="0 0 20 20" fill="none" xmlns="http://www.w3.org/2000/svg">
<path d="M8.41902 13.3648H11.5542C11.7621 13.3648 11.9615 13.2822 12.1085 13.1352C12.2555 12.9882 12.338 12.7889 12.338 12.581V8.66196H13.5811C13.7361 8.66193 13.8877 8.61594 14.0165 8.52982C14.1454 8.44369 14.2458 8.32129 14.3051 8.17809C14.3644 8.03488 14.38 7.87731 14.3497 7.72529C14.3195 7.57327 14.2449 7.43363 14.1353 7.32401L10.5408 3.72949C10.3938 3.58255 10.1945 3.5 9.98663 3.5C9.77879 3.5 9.57946 3.58255 9.43248 3.72949L5.83795 7.32401C5.72837 7.43363 5.65375 7.57327 5.62352 7.72529C5.59329 7.87731 5.60881 8.03488 5.66812 8.17809C5.72743 8.32129 5.82787 8.44369 5.95673 8.52982C6.0856 8.61594 6.2371 8.66193 6.3921 8.66196H7.63521V12.581C7.63521 12.7889 7.71779 12.9882 7.86479 13.1352C8.01178 13.2822 8.21114 13.3648 8.41902 13.3648ZM5.2838 14.9324H14.6894C14.8973 14.9324 15.0967 15.015 15.2437 15.162C15.3907 15.309 15.4733 15.5083 15.4733 15.7162C15.4733 15.9241 15.3907 16.1234 15.2437 16.2704C15.0967 16.4174 14.8973 16.5 14.6894 16.5H5.2838C5.07593 16.5 4.87656 16.4174 4.72957 16.2704C4.58258 16.1234 4.5 15.9241 4.5 15.7162C4.5 15.5083 4.58258 15.309 4.72957 15.162C4.87656 15.015 5.07593 14.9324 5.2838 14.9324Z" fill="#419958"/>
</svg>
