<svg width="12" height="12" viewBox="0 0 12 12" fill="none" xmlns="http://www.w3.org/2000/svg">
<path d="M6.6 0V1.82256C8.634 2.11729 10.2 3.86165 10.2 5.98496C10.2 6.52632 10.092 7.03759 9.912 7.51278L11.472 8.43308C11.808 7.68722 12 6.85714 12 5.98496C12 2.86917 9.63 0.300752 6.6 0ZM6 10.1955C3.678 10.1955 1.8 8.31278 1.8 5.98496C1.8 3.86165 3.366 2.11729 5.4 1.82256V0C2.364 0.300752 0 2.86316 0 5.98496C0 9.30526 2.682 12 5.994 12C7.98 12 9.738 11.0316 10.83 9.53985L9.27 8.61955C8.87858 9.11222 8.38117 9.50985 7.81493 9.78274C7.24869 10.0556 6.62827 10.1967 6 10.1955Z" fill="#FFB133"/>
</svg>
