<svg width="20" height="20" viewBox="0 0 20 20" fill="none" xmlns="http://www.w3.org/2000/svg">
<path fill-rule="evenodd" clip-rule="evenodd" d="M10 17C6.13381 17 3 13.8662 3 10C3 6.13381 6.13381 3 10 3C13.8662 3 17 6.13381 17 10C17 13.8662 13.8662 17 10 17ZM12.8438 11.3799C12.8438 10.2761 12.1543 9.65263 10.5412 9.26412V7.32163C11.0399 7.424 11.5173 7.63881 11.9841 7.97612L12.5786 7.01538C11.993 6.58642 11.3051 6.31851 10.5836 6.23837V5.625H9.6605V6.21781C8.334 6.32019 7.43231 7.07662 7.43231 8.18044C7.43231 9.33544 8.15375 9.89762 9.70294 10.2861V12.2899C9.013 12.1875 8.44031 11.8808 7.83525 11.4105L7.15625 12.3406C7.88306 12.9001 8.74905 13.2502 9.6605 13.353V14.375H10.5836V13.3631C11.9311 13.2506 12.8438 12.5042 12.8438 11.3799ZM9.7025 9.04931C8.88569 8.81437 8.68444 8.53831 8.68444 8.10869C8.68444 7.65938 9.03444 7.3015 9.70294 7.25031L9.7025 9.04931ZM11.5916 11.4512C11.5916 11.9421 11.2097 12.2794 10.5412 12.3306V10.4804C11.3689 10.7157 11.5916 10.9914 11.5916 11.4516V11.4512Z" fill="#419958"/>
</svg>
