<svg width="20" height="20" viewBox="0 0 20 20" fill="none" xmlns="http://www.w3.org/2000/svg">
<path d="M10 10C12.1042 10 13.8095 8.20937 13.8095 6C13.8095 3.79063 12.1042 2 10 2C7.89583 2 6.19047 3.79063 6.19047 6C6.19047 8.20937 7.89583 10 10 10ZM12.6667 11H12.1696C11.5089 11.3188 10.7738 11.5 10 11.5C9.22619 11.5 8.49405 11.3188 7.83036 11H7.33333C5.125 11 3.33333 12.8813 3.33333 15.2V16.5C3.33333 17.3281 3.97321 18 4.7619 18H15.2381C16.0268 18 16.6667 17.3281 16.6667 16.5V15.2C16.6667 12.8813 14.875 11 12.6667 11Z" fill="#419958"/>
</svg>
