<svg width="20" height="20" viewBox="0 0 20 20" fill="none" xmlns="http://www.w3.org/2000/svg">
<path d="M16.2934 6.60425C16.0808 6.50853 15.8448 6.4774 15.6146 6.51472C15.3845 6.55203 15.1704 6.65616 14.999 6.81414L13.4948 8.21344V7.19895C13.4948 6.64227 13.2736 6.1084 12.88 5.71477C12.4864 5.32114 11.9525 5.1 11.3958 5.1H5.09895C4.54227 5.1 4.0084 5.32114 3.61477 5.71477C3.22114 6.1084 3 6.64227 3 7.19895V12.7962C3 13.3528 3.22114 13.8867 3.61477 14.2803C4.0084 14.674 4.54227 14.8951 5.09895 14.8951H11.3958C11.9525 14.8951 12.4864 14.674 12.88 14.2803C13.2736 13.8867 13.4948 13.3528 13.4948 12.7962V11.7817L15.006 13.181C15.2285 13.3823 15.5175 13.4945 15.8176 13.4958C15.9841 13.4954 16.1487 13.4596 16.3004 13.3909C16.5067 13.3074 16.6835 13.1643 16.8081 12.9798C16.9327 12.7954 16.9995 12.578 17 12.3554V7.63973C16.999 7.41632 16.9312 7.19833 16.8052 7.01379C16.6793 6.82926 16.501 6.68663 16.2934 6.60425Z" fill="#419958"/>
</svg>
