<svg width="20" height="20" viewBox="0 0 20 20" fill="none" xmlns="http://www.w3.org/2000/svg">
<path d="M16.3531 14.2582L11.0772 4.54962C10.9722 4.35613 10.8169 4.19458 10.6277 4.082C10.4385 3.96943 10.2224 3.91 10.0023 3.91C9.78213 3.91 9.56605 3.96943 9.37686 4.082C9.18767 4.19458 9.03237 4.35613 8.92735 4.54962L3.65524 14.2582C3.55099 14.4449 3.49749 14.6556 3.50009 14.8694C3.50269 15.0832 3.56129 15.2926 3.67005 15.4767C3.77881 15.6608 3.93394 15.8131 4.11995 15.9186C4.30596 16.024 4.51636 16.0788 4.73018 16.0776H15.2782C15.4898 16.0774 15.6978 16.0223 15.8817 15.9176C16.0657 15.8129 16.2193 15.6624 16.3277 15.4805C16.436 15.2987 16.4953 15.0919 16.4997 14.8803C16.5042 14.6687 16.4537 14.4596 16.3531 14.2734V14.2582ZM9.51609 6.96157C9.51609 6.82054 9.57212 6.68528 9.67184 6.58555C9.77157 6.48583 9.90683 6.4298 10.0479 6.4298C10.1889 6.4298 10.3242 6.48583 10.4239 6.58555C10.5236 6.68528 10.5796 6.82054 10.5796 6.96157V11.5196C10.5796 11.6606 10.5236 11.7959 10.4239 11.8956C10.3242 11.9953 10.1889 12.0514 10.0479 12.0514C9.90683 12.0514 9.77157 11.9953 9.67184 11.8956C9.57212 11.7959 9.51609 11.6606 9.51609 11.5196V6.96157ZM10.0479 14.5013C9.91264 14.5013 9.78045 14.4612 9.66801 14.3861C9.55558 14.3109 9.46795 14.2042 9.4162 14.0792C9.36445 13.9543 9.35091 13.8168 9.37729 13.6842C9.40367 13.5516 9.46879 13.4297 9.56441 13.3341C9.66003 13.2385 9.78185 13.1734 9.91448 13.147C10.0471 13.1206 10.1846 13.1342 10.3095 13.1859C10.4344 13.2377 10.5412 13.3253 10.6163 13.4377C10.6915 13.5502 10.7316 13.6824 10.7316 13.8176C10.7316 13.9074 10.7139 13.9963 10.6795 14.0792C10.6452 14.1622 10.5948 14.2375 10.5313 14.301C10.4678 14.3645 10.3925 14.4149 10.3095 14.4492C10.2265 14.4836 10.1376 14.5013 10.0479 14.5013Z" fill="#419958"/>
</svg>
