<svg width="30" height="30" viewBox="0 0 30 30" fill="none" xmlns="http://www.w3.org/2000/svg">
<rect width="30" height="30" rx="15" fill="#FDFEFF"/>
<path d="M16.5398 6.56055C16.5398 6.45009 16.4503 6.36055 16.3398 6.36055H10.0898C9.37376 6.36055 8.687 6.64501 8.18066 7.15136C7.67431 7.65771 7.38984 8.34446 7.38984 9.06055V21.5605C7.38984 22.2766 7.67431 22.9634 8.18066 23.4697L8.32208 23.3283L8.18066 23.4697C8.687 23.9761 9.37376 24.2605 10.0898 24.2605H20.0898C20.8059 24.2605 21.4927 23.9761 21.999 23.4697C22.5054 22.9634 22.7898 22.2766 22.7898 21.5605V12.8105C22.7898 12.7001 22.7003 12.6105 22.5898 12.6105H21.3398C21.2294 12.6105 21.1398 12.7001 21.1398 12.8105V21.5605C21.1398 21.839 21.0292 22.1061 20.8323 22.303C20.6354 22.4999 20.3683 22.6105 20.0898 22.6105H10.0898C9.81137 22.6105 9.54429 22.4999 9.34738 22.303C9.15047 22.1061 9.03984 21.839 9.03984 21.5605V9.06055C9.03984 8.78207 9.15047 8.515 9.34738 8.31808C9.54429 8.12117 9.81137 8.01055 10.0898 8.01055H16.3398C16.4503 8.01055 16.5398 7.921 16.5398 7.81055V6.56055Z" fill="#419958" stroke="#419958" stroke-width="0.4" stroke-linejoin="round"/>
<path d="M16.4813 6.41913C16.4241 6.36193 16.338 6.34481 16.2633 6.37577C16.1886 6.40673 16.1398 6.47965 16.1398 6.56055V10.9355C16.1398 11.4859 16.3585 12.0137 16.7476 12.4028C17.1367 12.7919 17.6645 13.0105 18.2148 13.0105H22.5898C22.6707 13.0105 22.7437 12.9618 22.7746 12.8871C22.8056 12.8123 22.7885 12.7263 22.7313 12.6691L16.4813 6.41913Z" fill="#419958" stroke="#419958" stroke-width="0.4" stroke-linejoin="round"/>
</svg>
