<svg width="248" height="250" viewBox="0 0 248 250" fill="none" xmlns="http://www.w3.org/2000/svg">
<path fill-rule="evenodd" clip-rule="evenodd" d="M86.6524 207.792C106.667 200.872 126.23 220.217 160.626 225.833C195.023 231.449 219.744 186.462 206.065 163.2C192.387 139.939 195.023 109.593 204.05 80.75C213.077 51.9066 201.535 34.7372 189.269 27.7083C177.004 20.6793 164.967 18.4764 145.77 19.7986C126.572 21.1208 106.568 26.8719 87.855 36.3997C69.1415 45.9274 48.1035 67.0414 45.936 80.5804C43.7685 94.1194 52.4289 95.4433 53.9783 116.858C55.5278 138.273 34.1891 166.906 42.866 186.328C51.5428 205.75 66.6377 214.711 86.6524 207.792Z" fill="#D9DDE6"/>
<path fill-rule="evenodd" clip-rule="evenodd" d="M80.0538 207.247L79.9448 208.126C79.9448 208.126 81.516 208.305 82.1887 208.206C82.8614 208.106 84.0929 206.735 84.0929 206.735C84.0929 206.735 82.8077 206.887 82.1887 206.965" fill="#E7EAEE"/>
<path fill-rule="evenodd" clip-rule="evenodd" d="M85.0547 235.993L87.5286 238.374L127.615 90.551L125.167 87.344L85.0547 235.993Z" fill="white"/>
<path fill-rule="evenodd" clip-rule="evenodd" d="M65.7593 237.596C65.7593 237.596 68.689 238.374 71.273 229.426C73.8569 220.478 108.126 93.1378 108.126 93.1378L106.993 90.344L65.7593 237.596Z" fill="white"/>
<path fill-rule="evenodd" clip-rule="evenodd" d="M133.751 15.2421C133.995 14.6055 135.3 15.3781 135.963 15.2421C135.938 16.2486 114.837 71.4076 112.886 75.3837C112.538 75.1198 110.963 74.3488 110.616 74.0849C111.36 73.8786 126.592 33.9429 133.751 15.2421Z" fill="white"/>
<path fill-rule="evenodd" clip-rule="evenodd" d="M154.445 14.0045C150.894 24.1089 134.659 67.2107 132.921 70.7516C132.734 70.6097 131.694 71.6225 130.947 71.6922C130.304 71.7523 129.943 70.8737 129.782 70.7516C130.514 70.5486 145.269 31.8924 152.563 12.8336C152.683 12.5199 154.882 12.7624 154.445 14.0045Z" fill="white"/>
<path fill-rule="evenodd" clip-rule="evenodd" d="M89.2287 182.706L92.9362 184.543C92.9362 184.543 102.699 170.461 102.699 163.421C102.699 160.615 94.6601 158.735 90.0685 155.543C87.4532 153.725 86.3682 150.451 84.9098 149.191C83.7686 148.204 81.2117 147.689 77.6338 147.93C76.7762 147.988 74.8961 149.191 74.8961 149.191C74.8961 149.191 67.0802 156.144 71.3112 161.82C72.5784 163.52 77.8662 172.242 79.0298 178.012C80.5655 185.626 79.6614 206.832 79.6614 206.832C79.6614 206.832 81.2935 206.816 82.3008 206.587C83.308 206.358 85.4028 205.526 85.4028 205.526C85.4028 205.526 85.1667 198.32 85.4028 195.113C86.0156 186.789 86.9485 180.135 86.1613 174.973C84.5256 164.248 78.3719 159.422 78.3719 159.422L96.3255 168.066L89.2287 182.706Z" fill="white"/>
<path fill-rule="evenodd" clip-rule="evenodd" d="M92.6066 186.411C92.6348 186.99 92.4458 187.578 92.0857 188.03C91.9431 187.528 91.9042 186.996 91.9722 186.478C90.6637 186.305 89.3868 185.891 88.2238 185.262C87.7865 186.365 87.4387 187.504 87.1851 188.664C87.0709 189.186 87.0003 189.804 87.3676 190.19C87.6872 190.526 88.2055 190.54 88.6668 190.532C90.11 190.507 91.5738 190.479 92.9584 190.067C94.343 189.656 95.6627 188.807 96.3253 187.513C95.6649 186.845 94.689 186.509 93.7615 186.631C94.0028 187.073 93.9423 187.663 93.6164 188.045C93.3147 187.602 93.215 187.025 93.3507 186.506C93.1215 186.394 92.856 186.36 92.6066 186.411Z" fill="white"/>
<path fill-rule="evenodd" clip-rule="evenodd" d="M81.9033 208.529C81.1779 208.691 80.3129 208.871 79.7781 208.35C79.6604 209.323 79.6318 210.307 79.6927 211.286C79.8328 211.385 80.0175 211.418 80.1831 211.374C80.2743 211.586 80.3066 211.824 80.2754 212.054C80.8184 212.711 81.8533 212.501 82.6509 212.209C83.9183 211.746 85.1862 211.212 86.2235 210.344C86.7138 209.934 87.1779 209.361 87.0985 208.723C87.019 208.086 86.0685 207.665 85.7234 208.205C86.0275 208.509 86.1692 208.969 86.0893 209.394C85.4674 208.942 84.8454 208.489 84.2234 208.037C84.461 208.654 84.6986 209.271 84.9361 209.888C84.7877 210.127 84.3959 210.009 84.2424 209.774C84.089 209.539 84.0642 209.239 83.9262 208.995C83.5589 208.343 82.6288 208.367 81.9033 208.529Z" fill="white"/>
<path fill-rule="evenodd" clip-rule="evenodd" d="M88.4731 124.439C89.971 123.495 91.7926 124.949 92.9615 126.284C94.3965 127.924 95.8315 129.563 97.2665 131.202C97.9594 126.784 100.643 122.984 103.25 119.366C103.999 118.327 104.77 117.266 105.826 116.549C106.883 115.833 108.917 116.35 109.443 116.087C109.371 115.312 108.71 114.634 107.942 114.549C108.044 113.648 108.467 112.788 109.116 112.161C109.121 111.623 108.28 111.707 107.827 111.993C103.23 114.897 99.1158 118.577 95.7077 122.833C94.8771 123.871 93.6023 125.066 92.4368 124.437C91.2317 123.786 91.5812 121.996 91.9233 120.661C92.3921 118.832 92.5108 116.912 92.2711 115.037C92.0157 113.041 91.3596 111.021 91.8035 109.059C92.2474 107.097 94.4718 105.359 96.1995 106.365C97.5287 107.14 99.3743 106.417 100.144 105.077C100.913 103.738 100.757 102.011 100.095 100.614C99.433 99.2167 98.3302 98.0875 97.2103 97.0286C96.445 96.3051 95.6147 95.5752 94.5928 95.3372C93.0917 94.9876 91.4047 95.9378 90.9124 97.4104C90.4201 98.8829 91.1919 100.67 92.5963 101.308C91.7155 101.576 90.7246 101.449 89.9379 100.969C91.1259 101.516 91.6357 103.04 91.3709 104.33C91.106 105.62 90.2351 106.698 89.2819 107.598C88.2671 108.557 87.1264 109.379 85.899 110.038C79.5788 113.431 76.5222 120.851 75.0531 127.919C73.5839 134.987 73.1642 142.421 69.9956 148.897C70.614 149.526 71.6416 149.008 72.4285 148.615C76.1422 146.761 80.5733 148.533 84.7081 148.256C85.7528 148.186 86.887 147.923 87.5198 147.082C87.8934 146.585 88.037 145.956 88.1713 145.347C88.4927 143.889 88.8142 142.432 89.1356 140.974C89.2132 140.622 89.291 140.259 89.2244 139.905C89.1417 139.466 88.849 139.101 88.5666 138.757C86.9867 136.829 85.4064 134.864 84.3392 132.606C83.272 130.348 82.7509 127.737 83.3916 125.321C84.075 129.023 85.5784 132.568 87.7603 135.623C89.0372 137.412 90.6659 139.109 92.7817 139.658C95.1905 140.283 97.7034 139.301 99.9367 138.197C105.302 135.543 110.265 132.062 114.598 127.911C114.197 128.039 113.796 128.168 113.395 128.296C113.717 127.662 114.155 127.089 114.682 126.613C114.119 126.9 113.556 127.187 112.993 127.474C113.449 126.811 113.904 126.149 114.36 125.486C113.418 125.842 112.566 126.436 111.903 127.199C112.089 126.472 112.047 125.687 111.786 124.984C111.377 127.083 109.222 128.273 107.299 129.177C105.329 130.103 103.359 131.029 101.388 131.955C99.8863 132.661 97.8162 133.245 96.8109 131.916C94.5408 128.916 91.693 126.362 88.4731 124.439Z" fill="white"/>
<path fill-rule="evenodd" clip-rule="evenodd" d="M96.0132 103.667C96.4679 103.667 96.6373 103.294 96.3962 102.833C96.1602 102.373 95.6983 102 95.3598 102C95.0212 102 94.8401 102.373 94.9598 102.833C95.0847 103.294 95.5585 103.667 96.0132 103.667Z" fill="#FFB133"/>
<path fill-rule="evenodd" clip-rule="evenodd" d="M99.5243 101C99.8737 101 100.006 100.627 99.8196 100.167C99.6332 99.7063 99.1989 99.3333 98.8495 99.3333C98.5001 99.3333 98.3679 99.7063 98.5542 100.167C98.7406 100.627 99.1749 101 99.5243 101Z" fill="#FFB133"/>
<path fill-rule="evenodd" clip-rule="evenodd" d="M135.093 100.484L134.573 139.858L179.235 142.754L182.286 141.211L182.804 60.3713C182.819 57.9524 181.426 55.7456 179.235 54.7197V54.7197L146.46 57.5673L135.093 100.484Z" fill="white"/>
<path fill-rule="evenodd" clip-rule="evenodd" d="M88.4562 189.253C88.2461 189.165 88.0181 189.12 87.7906 189.123C87.5213 189.03 87.6795 188.588 87.9423 188.478C88.2051 188.368 88.5345 188.38 88.7268 188.169C88.8881 187.991 88.8883 187.724 88.9688 187.497C89.0493 187.27 89.3092 187.21 89.4913 187.365C89.5282 187.996 90.3072 187.553 90.8736 187.898C91.1895 188.091 90.6631 188.348 90.7005 188.659C90.7478 189.054 91.6412 189.942 91.2185 189.787C90.7573 189.617 90.1114 189.355 89.627 189.435C89.1931 189.506 88.917 189.895 88.5594 190.153C88.4445 189.87 88.4084 189.555 88.4562 189.253Z" fill="#FFB133"/>
<path fill-rule="evenodd" clip-rule="evenodd" d="M82.2066 211.285C82.4072 211.407 82.5565 211.612 82.6124 211.842C82.3868 211.901 81.9796 211.421 81.6675 211.512C81.3512 211.604 81.1301 212.265 80.8938 212.255C80.6466 212.245 81.118 211.708 80.9992 211.387C80.8925 211.1 80.1829 211.034 80.1841 210.881C80.185 210.764 80.6931 210.777 80.8938 210.591C81.0218 210.473 80.8662 210.138 80.8938 210.08C80.9992 209.855 81.3983 210.08 81.6675 210.393C81.9571 210.316 82.2467 210.239 82.5362 210.162C82.6612 210.557 81.9479 210.75 82.0799 211.122L82.2066 211.285Z" fill="#FFB133"/>
<path fill-rule="evenodd" clip-rule="evenodd" d="M113.238 72.8425C112.961 73.5685 112.587 74.3858 111.843 74.5921L112.886 75.384C114.837 71.4079 116.529 67.3026 117.949 63.1033C122.716 63.2741 127.491 63.2224 132.254 62.9483L129.766 70.2503C129.599 70.7431 129.746 71.5797 130.228 71.3941C137.81 51.8548 145.298 32.2787 152.693 12.6667C151.432 12.7253 150.948 14.0947 150.467 15.4551C149.982 16.8278 149.5 18.1914 148.225 18.1895L135.31 18.17C135.715 17.25 135.939 16.2488 135.964 15.2423C135.301 15.3783 134.958 16.1034 134.714 16.7399L113.238 72.8425ZM142.272 36.7057C141.144 39.9124 139.984 43.1079 138.793 46.2916C138.604 46.7987 138.398 47.3279 137.99 47.6805C137.377 48.2096 136.487 48.203 135.681 48.1802C131.702 48.0673 127.715 48.2383 123.759 48.6914C123.894 49.5067 124.969 49.6761 125.787 49.6485L136.205 49.2977C136.499 49.2878 136.824 49.2879 137.048 49.4805C137.426 49.8054 137.272 50.4168 137.087 50.8819L133.284 60.4481C133.153 60.7779 133.01 61.1237 132.732 61.3416C132.398 61.6025 131.945 61.6244 131.523 61.6353L118.496 61.9736C118.567 61.4918 118.809 61.0374 119.169 60.7122C123.828 61.0325 128.526 60.7935 133.13 60.0018C128.563 58.9293 123.752 58.9253 119.183 59.9904L134.33 20.6172C134.456 20.2887 134.648 19.9078 134.995 19.8752C139.652 19.4391 144.331 19.2564 149.007 19.3281C148.768 20.9115 146.703 21.2897 145.115 21.2831L136.09 21.2458C135.446 21.2431 134.553 21.5229 134.683 22.1588C134.785 22.6566 135.438 22.7552 135.942 22.7422L147.604 22.4413C146.848 25.0825 145.888 27.6641 144.735 30.155C144.577 30.4947 144.409 30.8427 144.129 31.0895C143.644 31.5175 142.941 31.55 142.296 31.5608L132.257 31.7286C131.815 31.736 131.341 31.7538 130.986 32.0193C130.631 32.2849 130.506 32.8972 130.86 33.1631C131.057 33.3104 131.323 33.3045 131.568 33.2922L143.73 32.6808C143.89 33.7818 143.049 34.8299 142.038 35.2738C141.026 35.7177 139.883 35.6976 138.78 35.6698L131.309 35.4819C130.282 35.456 128.832 35.9193 129.089 36.9231C133.484 36.9898 137.882 36.9173 142.272 36.7057ZM134.938 13.8751C127.262 33.6717 119.574 53.4641 111.875 73.252C111.676 73.7646 111.065 74.3656 110.717 73.9416C110.538 73.7238 110.632 73.3985 110.735 73.1353L133.429 14.8733C133.689 14.206 134.403 13.4038 134.938 13.8751ZM154.813 15.7312L134.535 68.7906C134.179 69.7204 133.661 70.7892 132.683 70.9356L154.495 13.9137C155.162 14.0986 155.062 15.0799 154.813 15.7312ZM125.209 46.9369C125.086 46.6694 125.256 46.3398 125.506 46.1875C125.757 46.0351 126.062 46.015 126.354 45.9997C130.102 45.8035 133.859 45.7538 137.611 45.8509C137.95 45.8597 138.043 46.3899 137.808 46.6357C137.573 46.8814 137.199 46.9084 136.861 46.9198L126.14 47.2818C125.788 47.2937 125.356 47.2586 125.209 46.9369ZM99.2885 116.294C100.177 116.257 100.625 115.219 100.867 114.356L106.836 93.0318C107.063 92.2224 107.291 91.3787 107.144 90.551C106.262 91.3451 105.9 92.5563 105.577 93.7031C103.458 101.227 101.362 108.757 99.2885 116.294ZM108.245 125.209C108.34 125.493 108.509 125.751 108.731 125.95C107.425 125.948 106.155 126.278 104.883 126.608C103.739 126.904 102.594 127.201 101.421 127.258C100.884 127.284 100.129 126.936 100.364 126.449C100.467 126.235 100.724 126.155 100.953 126.099C103.338 125.519 105.791 125.219 108.245 125.209ZM88.1402 110.803C88.6869 112.507 89.8423 114.004 91.3451 114.957C91.4915 114.199 90.8546 113.602 90.2666 113.051L90.2662 113.05L90.2658 113.05L90.2655 113.05C90.1671 112.957 90.0702 112.866 89.9784 112.776C89.112 111.924 88.5769 110.737 88.5089 109.519C88.1484 109.821 87.9958 110.353 88.1402 110.803ZM93.0032 99.588C93.6888 99.588 94.8371 100.507 94.2779 100.947C93.7187 101.386 92.4299 99.588 93.0032 99.588ZM100.854 129.652L104.655 128.403C104.933 128.312 105.268 128.145 105.257 127.85C103.376 127.982 101.508 128.3 99.6883 128.797C99.3134 128.9 99.3792 129.527 99.7231 129.709C100.067 129.891 100.485 129.773 100.854 129.652ZM95.4453 97.7162C95.7408 97.4255 97.4001 98.5013 96.822 99.1232C96.5255 99.4421 95.1186 98.0376 95.4453 97.7162ZM92.3292 99.105C92.3833 98.9929 92.4381 98.8793 92.5261 98.7779C92.6363 98.6509 92.8098 98.4996 92.9842 98.3474L92.9843 98.3473L92.9844 98.3473C93.3272 98.0482 93.6736 97.7461 93.5503 97.6194C92.8155 97.8125 92.1695 98.3266 91.8124 99.0025C91.5119 99.588 91.9792 99.6308 92.0751 99.4845C92.1982 99.3766 92.2632 99.2419 92.3292 99.105ZM97.3507 99.588C97.4402 99.6357 97.5364 99.683 97.6347 99.7314C98.1708 99.9953 98.7713 100.291 98.7215 100.846C98.6627 101.502 97.8896 101.975 97.6332 101.369C97.6828 101.261 97.788 101.223 97.897 101.184C98.0624 101.124 98.2362 101.061 98.2362 100.747C98.2362 100.531 98.0339 100.375 97.8227 100.211C97.5984 100.038 97.364 99.8567 97.3507 99.588ZM95.4788 96.626C94.7779 96.6987 94.1861 97.4038 94.2537 98.1113C94.3548 98.1923 94.5048 97.9675 94.6722 97.7168C94.7917 97.5379 94.92 97.3458 95.0456 97.2419C95.1795 97.1312 95.4187 97.0199 95.6398 96.917C95.9529 96.7713 96.2297 96.6425 96.1195 96.5564C96.0096 96.5678 95.9044 96.5795 95.7992 96.5912L95.6564 96.607L95.5806 96.6152L95.4788 96.626ZM109.856 139.441C110.077 139.824 109.5 140.16 109.065 140.227C105.071 140.843 101.063 141.371 97.0463 141.811C96.9351 141.322 97.2568 140.816 97.6833 140.557C98.1099 140.298 98.6205 140.23 99.1146 140.168L101.62 139.854C104.147 139.537 106.68 139.219 109.226 139.212C109.46 139.211 109.738 139.237 109.856 139.441ZM92.9616 126.285C91.7927 124.949 89.9711 123.495 88.4732 124.439C91.6931 126.362 94.5409 128.916 96.811 131.916C97.8163 133.245 99.8864 132.661 101.389 131.955L107.299 129.177C109.222 128.273 111.378 127.084 111.786 124.984C112.047 125.687 112.089 126.472 111.903 127.199C112.566 126.436 113.418 125.842 114.36 125.486L112.993 127.474L114.682 126.614C114.156 127.089 113.717 127.662 113.395 128.296L114.598 127.911C110.265 132.062 105.302 135.543 99.9368 138.197C97.7036 139.301 95.1906 140.283 92.7818 139.658C90.666 139.109 89.0373 137.412 87.7604 135.624C85.5785 132.568 84.0751 129.023 83.3917 125.321C82.751 127.737 83.2721 130.349 84.3393 132.606C85.4065 134.864 86.9868 136.829 88.5667 138.757C88.8491 139.101 89.1418 139.466 89.2245 139.905C89.2911 140.259 89.2133 140.623 89.1357 140.974L88.1714 145.347C88.0372 145.956 87.8936 146.585 87.5199 147.082C86.8871 147.924 85.7529 148.186 84.7082 148.256C83.2101 148.356 81.6731 148.188 80.1455 148.02C77.4567 147.725 74.7968 147.433 72.4286 148.616L72.4183 148.621C71.6328 149.013 70.6114 149.523 69.9957 148.897C72.2888 144.21 73.1422 139.022 73.9956 133.834C74.3214 131.853 74.6473 129.872 75.0532 127.919C76.5223 120.851 79.5789 113.431 85.8991 110.038C87.1265 109.38 88.2672 108.557 89.282 107.598C90.2352 106.698 91.1061 105.62 91.371 104.33C91.6152 103.14 91.2007 101.752 90.2033 101.114C90.9404 101.473 91.812 101.547 92.5964 101.309C91.192 100.67 90.4202 98.8831 90.9125 97.4105C91.4048 95.938 93.0918 94.9877 94.5929 95.3374C95.6149 95.5754 96.4451 96.3053 97.2104 97.0288C98.3304 98.0877 99.4331 99.2169 100.095 100.614C100.757 102.011 100.913 103.738 100.144 105.078C99.3744 106.417 97.5288 107.14 96.1996 106.365C94.4719 105.359 92.2475 107.097 91.8036 109.059C91.4781 110.498 91.744 111.968 92.0097 113.436C92.1064 113.971 92.2031 114.505 92.2712 115.038C92.5109 116.912 92.3922 118.832 91.9234 120.661C91.5813 121.996 91.2318 123.786 92.4369 124.437C93.6025 125.066 94.8772 123.871 95.7078 122.834C99.1159 118.577 103.23 114.897 107.828 111.993C108.28 111.708 109.121 111.623 109.117 112.161C108.467 112.788 108.044 113.648 107.942 114.549C108.71 114.634 109.371 115.312 109.443 116.087C109.244 116.187 108.828 116.174 108.331 116.159C107.517 116.135 106.483 116.104 105.826 116.55C104.77 117.266 103.999 118.327 103.25 119.366C100.643 122.984 97.9595 126.784 97.2666 131.202L92.9616 126.285ZM89.938 100.969C90.0241 101.022 90.1127 101.07 90.2033 101.114C90.119 101.06 90.0305 101.012 89.938 100.969ZM103.721 119.922C105.178 117.86 107.664 115.543 109.812 116.853C110.212 116.229 109.535 115.485 109.021 114.919C108.712 114.578 108.461 114.303 108.54 114.157C108.57 114.103 108.601 114.046 108.633 113.986L108.634 113.985C109.49 112.416 111.141 109.392 106.172 112.157C102.784 114.042 97.5833 119.321 94.9006 122.044L94.9006 122.044L94.9002 122.045C93.8396 123.121 93.1726 123.798 93.1672 123.707C93.0616 121.942 93.0138 119.979 92.966 118.016L92.966 118.015C92.9182 116.052 92.8704 114.089 92.7647 112.324C92.6913 111.097 92.6299 109.807 93.1672 108.704C93.7046 107.602 95.0628 106.804 96.1659 107.325C98.9737 108.651 102.015 104.954 101.404 101.889C100.793 98.8226 98.1173 96.6848 95.6245 94.8256C96.8938 93.2739 97.1807 90.971 96.3314 89.1508C95.4821 87.3306 93.54 86.0859 91.5456 86.0838C91.8505 87.3811 91.5887 88.8033 90.8425 89.9038C90.1129 90.9799 89.012 91.6851 87.9077 92.3924C87.3949 92.7208 86.8814 93.0497 86.404 93.4164C84.8984 94.573 83.6656 96.6561 84.5795 98.3278C85.1063 99.2912 86.1309 99.7421 87.1652 100.197C88.0871 100.603 89.0166 101.012 89.608 101.79C90.8402 103.412 89.9719 105.874 88.4642 107.238C87.5364 108.078 86.4269 108.657 85.3148 109.238C84.6197 109.601 83.9237 109.965 83.2703 110.393C78.5939 113.456 76.6862 119.308 75.2249 124.736C72.9397 133.225 70.9512 141.795 69.2646 150.424L71.6092 150.413C69.3902 153.138 69.2887 157.105 70.2899 160.484C71.0233 162.959 72.2621 165.23 73.5006 167.501C73.9527 168.33 74.4048 169.159 74.8323 169.998C77.8271 175.874 79.6593 182.498 79.0961 189.08C78.7869 192.693 77.7716 196.202 76.7616 199.682L65.7593 237.596C67.9788 230.766 70.2996 223.214 72.6204 215.662L72.6206 215.662L72.6207 215.662C74.9414 208.11 77.2621 200.559 79.4816 193.728C79.5742 193.443 79.5279 194.703 79.4816 195.962C79.4352 197.222 79.3889 198.482 79.4816 198.197C78.9283 200.3 78.2729 202.467 77.6484 204.531L77.6483 204.531L77.648 204.532L77.6479 204.532L77.6479 204.533L77.6475 204.534L77.6475 204.534C77.1723 206.104 76.7151 207.616 76.3345 208.995C75.6241 211.569 74.9576 214.007 74.288 216.456C72.605 222.612 70.9016 228.843 68.4286 237.504C72.0307 229.578 73.9613 221.003 75.8684 212.498C76.2782 212.497 76.7706 212.496 77.263 212.494C77.7554 212.493 78.2478 212.491 78.6576 212.49C78.1707 211.899 76.3345 211.505 76.3345 211.505L76.535 210.477C76.535 210.477 78.9894 210.899 78.864 210.355C78.6135 210.174 76.7616 209.889 76.7616 209.889C76.7616 209.889 78.7714 202.522 79.4816 200.133L78.9894 211.767C78.9703 212.218 78.9723 212.726 79.2896 213.044C79.6155 213.37 80.1379 213.359 80.5942 213.305C81.9577 213.144 83.2998 212.799 84.5739 212.283C85.623 211.858 86.7159 211.179 87.2553 210.234L90.9126 210.344C90.9126 210.344 90.7247 211.156 90.6343 211.545C90.6207 211.604 89.6178 211.63 88.6189 211.657H88.6187H88.6184H88.6178C87.6274 211.684 86.6413 211.71 86.628 211.767C86.6108 211.841 87.5858 211.946 88.5556 212.051H88.5557C89.5148 212.155 90.4686 212.258 90.4519 212.329C89.988 214.323 89.5911 216.181 89.2614 217.726L89.2612 217.727L89.2612 217.727C88.9482 219.193 88.6957 220.376 88.5036 221.121C88.3167 221.847 88.0998 222.622 87.5279 223.101C87.1761 223.396 84.9612 223.661 83.6139 223.823L83.6135 223.823L83.6129 223.823C83.1584 223.877 82.8027 223.92 82.6509 223.948C80.7231 224.302 79.0665 224.326 77.5089 224.349C76.2413 224.368 75.0392 224.386 73.8097 224.579C73.2276 224.671 72.9204 225.217 73.106 225.4C75.5509 225.325 77.894 225.157 80.2371 224.99C82.5802 224.822 84.9232 224.655 87.3679 224.579C87.315 224.817 87.289 225.015 87.2676 225.178C87.2152 225.576 87.1906 225.763 86.867 225.814C84.722 226.15 82.4622 226.324 80.2023 226.498L80.2017 226.498C77.942 226.672 75.6824 226.846 73.5377 227.182C72.8308 227.293 71.9996 228.25 72.6799 228.473L86.7028 226.877C85.6731 229.819 84.6279 232.902 85.0552 235.993C92.3242 210.246 99.3611 184.432 106.165 158.556C102.91 158.155 99.5695 158.476 96.4482 159.489C99.0288 160.228 102.088 161.501 102.411 164.188C102.579 165.582 101.905 166.925 101.251 168.165L92.726 184.351L89.432 182.543L95.7341 170.79C96.2409 169.845 96.7447 168.662 96.168 167.758C95.8594 167.275 95.3123 167.012 94.7935 166.774L77.4433 158.807C79.9226 160.257 81.747 162.8 82.3363 165.629C82.6509 167.138 83.3656 168.507 84.0823 169.88C84.5898 170.852 85.0983 171.825 85.4665 172.853C86.7566 176.452 86.2419 180.385 85.7413 184.209C85.6889 184.61 85.6366 185.009 85.5866 185.407C84.7509 192.05 84.5891 198.78 85.1045 205.456L80 206.636C80.9861 195.009 81.8658 182.742 76.9037 172.2C76.2872 170.89 75.5859 169.622 74.8848 168.354C73.9155 166.602 72.9467 164.85 72.2036 162.991C70.9229 159.787 70.3677 156.069 71.7726 152.919C73.1774 149.768 77.0225 147.604 80.1717 148.961C81.6111 149.582 83.2577 149.7 84.7697 149.291C88.3519 157.011 98.8481 160.489 106.27 156.415C107.068 155.977 107.377 155 107.616 154.116L113.871 130.947C112.226 132.101 111.836 134.272 111.47 136.309L111.47 136.31L111.47 136.312L111.469 136.313C111.424 136.569 111.378 136.822 111.331 137.07C110.903 139.305 109.615 141.891 107.359 141.916C103.261 141.961 99.1677 142.436 95.166 143.329L95.81 140.686C101.724 138.682 107.262 135.552 112.045 131.51C114.097 129.776 116.172 126.981 114.846 124.635L112.441 125.576C112.733 125.179 112.459 124.509 111.974 124.436C108.398 128.334 103.476 130.951 98.2673 131.726C98.5665 127.337 101.19 123.505 103.721 119.922ZM87.4318 209.864C87.3826 209.992 87.3234 210.115 87.2553 210.234L86.867 210.223C86.867 210.223 86.9853 210.019 87.4318 209.864ZM86.2568 188.418C86.5041 189.877 87.9744 191.199 89.5318 191.403C91.581 191.671 93.5575 190.657 95.3796 189.674C95.7543 189.472 96.1404 189.26 96.4013 188.922C97.1367 187.969 96.4651 186.463 95.3943 185.923C94.3235 185.383 93.0542 185.521 91.8663 185.672C93.7861 185.342 94.6102 183.185 95.3306 181.299C95.3879 181.149 95.4445 181.001 95.501 180.855C96.2677 178.88 98.3754 176.766 100.151 177.902C98.7788 182.238 97.5872 186.633 96.5804 191.07L88.4244 192.044C87.4471 192.16 86.132 192.832 86.555 193.728L96.2301 192.379L92.8381 204.844C92.5875 205.765 91.5456 209.394 91.5456 209.394C91.5456 209.394 88.4859 209.625 87.7635 209.774C87.6367 209.8 87.5268 209.831 87.4318 209.864C87.5232 209.627 87.5802 209.375 87.595 209.108C87.6808 207.56 85.1816 206.446 84.5946 207.879C83.8384 207.177 84.6695 205.62 85.667 205.87C85.4382 200.048 85.6363 194.21 86.2568 188.418ZM86.2568 188.418C86.3054 187.964 86.3566 187.51 86.4104 187.057C86.2206 187.505 86.1806 187.968 86.2568 188.418ZM86.4104 187.057C86.726 184.398 87.1309 181.749 87.6245 179.118L89.9534 179.026L86.4243 187.025L86.4104 187.057ZM97.8791 156.867C95.8468 157.144 93.4967 157.321 92.033 155.872C91.8887 155.729 91.7522 155.563 91.7133 155.363C91.6776 155.179 91.7285 154.991 91.7791 154.811L94.7415 144.25C96.6044 144.513 98.4966 144.262 100.361 144.012L109.613 142.771C108.643 146.734 107.603 150.679 106.495 154.604C106.383 155.001 106.247 155.431 105.905 155.659C105.688 155.803 105.421 155.842 105.164 155.877L97.8791 156.867ZM121.143 99.0313C121.002 101.505 120.841 104.061 119.723 106.267C118.606 108.473 118.281 110.475 118.281 110.475L117.407 113.438C114.9 113.255 112.357 113.586 109.979 114.406C112.288 115.423 115.01 115.443 117.334 114.46C116.161 117.585 115.481 120.898 115.326 124.236C119.252 112.374 122.657 100.337 125.528 88.1707C127.095 88.4655 127.081 90.7265 126.663 92.2783L88.0709 235.741C87.528 237.596 86.4499 243.291 90.5838 228.473C95.3227 211.488 102.77 184.32 110.09 157.612L110.091 157.609L110.091 157.608C116.76 133.281 123.323 109.336 127.64 93.8166C127.975 92.6104 128.314 91.019 128.088 89.7871C127.862 88.5553 126.888 87.3662 125.646 87.344C124.13 89.5764 123.057 92.1131 122.507 94.7614L108.02 96.1058C108.671 94.9872 108.609 93.4866 107.867 92.427L102.044 114.524C104.562 109.192 106.376 103.521 107.421 97.7098L122.35 95.6706C122.396 97.9149 119.273 98.3723 117.048 98.3619C113.79 98.3465 110.531 99.0157 107.539 100.314C112.103 100.493 116.69 100.06 121.143 99.0313ZM87.6651 174.89C87.66 175.403 87.8219 175.916 88.12 176.332C89.3148 176.054 90.549 175.95 91.773 176.022C91.1035 176.847 90.5443 177.762 90.1154 178.736L89.9194 177.929L87.7245 178.034L87.2891 176.102C87.051 175.046 86.8114 173.971 86.8854 172.89C86.9463 172 87.2179 171.141 87.4875 170.291L89.0839 165.26L94.2501 167.362C94.6736 167.534 95.1126 167.717 95.418 168.06C95.7234 168.402 95.85 168.954 95.5802 169.326C94.2041 171.221 93.0277 173.264 92.0772 175.409C91.9289 175.092 91.9249 174.71 92.0665 174.389C90.59 174.449 89.1178 174.617 87.6651 174.89ZM90.006 140.732C90.0504 140.397 90.4523 140.213 90.7807 140.279C91.1091 140.345 91.3736 140.582 91.6207 140.81L92.0615 140.4C92.3142 140.43 92.3266 140.795 92.266 141.044C91.2569 145.197 90.0981 149.313 88.7928 153.382L86.1615 149.073C87.1828 149.214 88.1709 148.507 88.6888 147.608C89.2067 146.709 89.3535 145.648 89.4902 144.618L90.006 140.732ZM92.0861 188.03C92.4462 187.578 92.6352 186.991 92.607 186.411C92.8564 186.361 93.1219 186.394 93.351 186.506C93.2154 187.025 93.3151 187.603 93.6168 188.045C93.9426 187.663 94.0032 187.073 93.7619 186.631C94.6894 186.51 95.6653 186.845 96.3257 187.514C95.6631 188.807 94.3434 189.656 92.9588 190.068C91.5742 190.479 90.1104 190.507 88.6672 190.532C88.2059 190.54 87.6876 190.526 87.368 190.19C87.0007 189.805 87.0712 189.186 87.1855 188.664C87.4391 187.504 87.7869 186.365 88.2242 185.263C89.3872 185.892 90.6641 186.306 91.9726 186.478C91.9045 186.996 91.9434 187.528 92.0861 188.03ZM79.7781 208.35C80.3129 208.871 81.1779 208.692 81.9034 208.529C82.6288 208.367 83.5589 208.343 83.9262 208.995C83.9906 209.109 84.0304 209.235 84.0701 209.361C84.1154 209.505 84.1606 209.649 84.2424 209.774C84.3959 210.009 84.7878 210.127 84.9362 209.889L84.2235 208.038L86.0894 209.394C86.1692 208.97 86.0275 208.509 85.7234 208.205C86.0685 207.665 87.019 208.086 87.0985 208.724C87.1779 209.361 86.7138 209.934 86.2236 210.344C85.1862 211.212 83.9183 211.747 82.651 212.21C81.8533 212.501 80.8185 212.711 80.2754 212.054C80.3066 211.824 80.2743 211.587 80.1832 211.374C80.0175 211.419 79.8329 211.385 79.6927 211.286C79.6318 210.307 79.6605 209.323 79.7781 208.35ZM90.8063 155.106C90.1598 154.926 89.7375 154.163 89.9246 153.513L93.5939 140.771C93.9635 140.731 94.3406 140.763 94.6987 140.864L90.8063 155.106ZM100.214 172.539C100.333 172.273 100.451 172.007 100.572 171.743C101.321 170.1 102.168 168.502 103.106 166.96C103.399 167.886 102.947 168.849 102.529 169.74L102.465 169.878L102.439 169.935C101.73 171.46 101.257 173.097 101.043 174.768C100.88 176.034 99.3116 176.881 98.1766 176.316C99.0415 175.174 99.629 173.854 100.214 172.539ZM85.9982 164.069C86.1167 164.26 86.0913 164.504 86.0565 164.726C85.8203 166.236 85.339 167.707 84.6378 169.062L82.4209 162.882C83.4816 163.05 84.5235 163.339 85.5203 163.742C85.7023 163.815 85.894 163.902 85.9982 164.069ZM100.216 160.153C101.745 159.408 103.536 159.224 105.183 159.643C104.614 161.101 104.239 162.636 104.072 164.194C103.71 164.336 103.479 163.812 103.395 163.429C103.051 161.857 101.767 160.534 100.216 160.153ZM87.9689 165.046C88.0398 165.293 87.969 165.555 87.8985 165.801L86.2439 171.574C85.7129 170.797 85.883 169.752 86.0888 168.832C86.4074 167.406 86.7599 165.987 87.146 164.578C87.4829 164.488 87.8715 164.709 87.9689 165.046ZM90.8857 185.561C90.2747 185.535 89.6158 185.49 89.1453 185.096C88.6747 184.702 88.5783 183.822 89.1149 183.526L91.3864 184.72L90.8857 185.561ZM82.0349 208.079C81.3824 208.203 80.7122 208.06 80.0632 207.918L80.1474 207.27C81.259 207.278 82.3717 207.13 83.4434 206.833C83.3241 207.492 82.6875 207.954 82.0349 208.079ZM99.4996 102.017C99.6092 101.97 99.7344 102.025 99.7793 102.139C99.8242 102.253 99.7718 102.384 99.6621 102.431C99.1253 102.66 98.7947 102.963 98.5168 103.383C98.3966 103.565 98.2301 103.947 98.0654 104.325L98.0654 104.325C97.8389 104.845 97.6156 105.357 97.5199 105.333C97.3545 105.29 97.7694 103.634 98.0893 103.151C98.4166 102.656 98.8884 102.278 99.4996 102.017ZM148.855 58.5213L175.069 55.9382C175.687 55.8773 176.511 55.5458 176.361 54.9386C167.295 55.6282 158.238 56.4355 149.192 57.36C148.594 57.4212 147.793 58.0119 148.245 58.413C148.404 58.5549 148.643 58.5422 148.855 58.5213ZM152.878 80.7946C152.885 80.9886 152.898 81.1987 153.023 81.3462C153.195 81.5489 153.499 81.5502 153.763 81.535L161.039 81.1168C161.3 81.1018 161.568 81.0852 161.807 80.9774C162.604 80.6179 162.671 79.5227 162.628 78.6428C162.459 75.1634 162.485 71.6744 162.706 68.198C162.735 67.7274 162.962 67.0953 163.42 67.189L163.309 80.8867C163.307 81.1862 163.292 81.5179 163.085 81.7322C162.888 81.9357 162.579 81.9677 162.298 81.9875C160.704 82.1 159.109 82.2081 157.514 82.3162L157.506 82.3167L152.654 82.6456C152.473 82.6579 152.275 82.6656 152.128 82.5578C151.929 82.4117 151.911 82.1245 151.911 81.8763L151.93 69.7556C151.93 69.3137 151.965 68.8018 152.321 68.5447C152.857 69.1922 152.855 70.1187 152.833 70.9617C152.749 74.2388 152.763 77.5185 152.878 80.7946ZM181.552 118.513C181.572 117.967 181.575 117.418 181.577 116.875L181.72 70.4267C181.724 69.1852 181.689 67.8297 180.898 66.8787C180.599 84.4943 180.554 102.114 180.763 119.731C180.691 120.18 180.682 120.654 180.684 121.102C180.696 123.251 180.66 126.462 180.624 129.673C180.588 132.884 180.552 136.096 180.564 138.245C180.569 139.151 179.824 139.921 178.981 140.233C178.137 140.545 177.211 140.498 176.314 140.446L133.379 137.979L133.621 122.509C138.725 121.99 143.892 122.1 148.97 122.839C148.681 125.943 148.498 129.058 148.42 132.176C147.952 132.439 145.314 132.428 142.373 132.415C139.532 132.402 136.409 132.389 134.686 132.621C141.511 133.982 148.48 133.792 155.461 133.601C160.666 133.458 165.877 133.316 171.041 133.816C171.268 133.883 171.425 133.531 171.297 133.331C171.169 133.132 170.912 133.072 170.68 133.028L165.84 132.114L166.058 124.566C166.069 124.174 166.088 123.757 166.31 123.436C166.748 122.802 167.569 122.918 168.404 123.035C169.207 123.147 170.021 123.261 170.518 122.714C169.961 126.16 170.245 129.74 171.336 133.053C172.214 109.986 172.539 86.8978 172.311 63.8152C172.306 63.2987 172.276 62.7224 171.906 62.3655C171.524 61.9968 170.93 62.006 170.402 62.0382L153.644 63.0627C150.231 63.2713 146.692 63.5151 143.691 65.1658L171.385 62.8253C171.338 64.4394 169.226 64.9452 167.626 65.0029C159.173 65.3076 150.748 66.4078 142.497 68.2848C144.226 68.9453 146.192 68.952 147.926 68.3032C148.49 68.0922 148.814 68.9451 148.818 69.5516L148.887 80.8867C148.889 81.2721 148.765 81.7926 148.383 81.7807C144.655 81.6639 140.913 82.0135 137.27 82.819C137.375 83.4116 138.168 83.5107 138.763 83.4661L148.784 82.7159C149.302 82.6771 149.974 82.4831 149.977 81.9595L150.041 69.0287C150.042 68.6454 150.056 68.2288 150.297 67.9325C150.576 67.5895 151.062 67.5233 151.5 67.4819L170.901 65.6448L171.75 78.2836C171.815 79.2618 171.027 80.1322 170.118 80.4804C169.21 80.8286 168.205 80.7727 167.235 80.7118C166.892 80.6903 166.509 80.6495 166.288 80.3843C166.096 80.1545 166.087 79.8266 166.088 79.5263L166.111 67.4864C166.111 67.1858 165.644 67.0982 165.432 67.3088C165.219 67.5194 165.202 67.8537 165.199 68.1543L165.068 79.646C165.066 79.8404 165.059 80.0252 165.052 80.1992C165.011 81.2252 164.985 81.8805 166.118 81.9595C167.443 82.052 170.338 81.6135 171.543 81.0483L171.03 103.876L166.84 103.996C166.368 104.009 165.849 104.042 165.509 104.373C165.146 104.727 165.117 105.294 165.111 105.803L164.978 117.345C164.976 117.52 164.968 117.687 164.961 117.845C164.923 118.708 164.897 119.293 165.84 119.405C166.957 119.538 169.414 119.209 170.462 118.798C170.74 119.854 170.774 120.974 170.562 122.045L165.87 121.693C165.498 121.665 164.983 121.759 164.98 122.136L164.911 130.987C164.905 131.714 164.611 132.711 163.899 132.601C163.299 132.508 163.167 131.706 163.181 131.095L163.384 122.568C163.395 122.107 162.789 121.945 162.332 121.93L152.952 121.634C152.702 121.626 152.437 121.622 152.225 121.755C151.868 121.981 151.824 122.478 151.818 122.903L151.724 129.54C151.706 130.876 151.239 132.671 149.916 132.608L149.863 122.799C149.861 122.508 149.849 122.186 149.652 121.973C149.483 121.789 149.222 121.734 148.978 121.69C144.065 120.806 139.014 120.704 134.07 121.389C133.402 120.392 133.164 119.112 133.429 117.938C134.611 118.505 135.973 118.496 137.281 118.476L148.675 118.301C148.976 118.297 149.301 118.284 149.537 118.095C149.861 117.835 149.888 117.356 149.887 116.938L149.864 106.414C149.862 105.767 149.831 105.044 149.37 104.593C148.898 104.13 148.158 104.133 147.501 104.164L134.469 104.792C134.077 102.679 133.893 100.525 133.923 98.3753C134.001 98.0871 133.541 97.9107 133.311 98.0984C133.08 98.2861 133.047 98.6216 133.032 98.9199C132.376 111.713 132.195 124.532 132.489 137.339C132.519 138.623 134.175 139.069 135.446 139.141L176.19 141.453C177.358 141.519 178.564 141.58 179.661 141.169C180.757 140.757 181.72 139.743 181.695 138.563C181.638 135.872 181.629 132.118 181.62 128.364C181.611 124.769 181.603 121.175 181.552 118.513ZM161.465 119.403L152.436 119.136C152.295 119.132 152.144 119.124 152.028 119.042C151.84 118.908 151.822 118.638 151.822 118.406L151.815 105.178C151.815 104.842 151.833 104.464 152.08 104.24C152.299 104.042 152.622 104.034 152.915 104.037L162.725 104.128C162.882 104.129 163.052 104.136 163.17 104.239C163.314 104.364 163.325 104.581 163.325 104.773L163.334 118.394C163.334 119.194 162.258 119.427 161.465 119.403ZM152.974 105.165C152.64 105.327 152.594 105.78 152.594 106.154L152.603 117.725C152.603 117.864 152.612 118.024 152.72 118.11C152.79 118.166 152.884 118.177 152.972 118.185C155.576 118.424 158.197 118.469 160.807 118.32C161.608 118.275 162.663 117.931 162.593 117.125C162.28 113.522 162.251 109.894 162.506 106.287C162.563 105.477 161.476 105.183 160.672 105.175L153.419 105.101C153.268 105.099 153.11 105.099 152.974 105.165ZM153.161 84.9462C152.76 84.8862 152.256 84.8622 152.05 85.2146C151.965 85.3591 151.956 85.5348 151.95 85.7025C151.758 90.8467 151.745 95.9978 151.91 101.143C152.626 100.896 152.719 99.9305 152.696 99.1679C152.56 94.8231 152.819 90.4767 153.078 86.1376C156.067 86.4484 159.1 86.3363 162.059 85.8055C162.478 85.7303 162.642 86.3331 162.626 86.7621C162.48 90.8206 162.472 94.8842 162.602 98.9432C162.658 99.1648 162.348 99.2772 162.121 99.2862L153.491 99.6294C153.16 99.6426 153.084 100.169 153.325 100.398C153.566 100.628 153.934 100.633 154.266 100.625L162.77 100.409C162.933 100.404 163.115 100.392 163.223 100.269C163.319 100.16 163.325 100 163.325 99.8543L163.328 85.4925C163.328 85.3313 163.326 85.1627 163.252 85.0201C163.052 84.6374 162.507 84.6738 162.086 84.7553C159.15 85.3233 156.119 85.3881 153.161 84.9462ZM182.014 60.937C181.948 62.9479 181.868 65.0221 181.027 66.8465L180.634 58.8059C180.574 57.5857 179.916 55.9094 178.765 56.2894L178.608 135.616C178.605 137.191 178.598 138.793 178.137 140.298C177.639 140.013 177.581 139.326 177.583 138.748L177.872 56.22C177.873 56.0114 177.875 55.796 177.958 55.605C178.159 55.1412 178.757 54.9973 179.254 55.0718C180.421 55.2469 181.32 56.2743 181.704 57.4002C182.087 58.5261 182.053 59.7471 182.014 60.937ZM148.748 87.2968L148.796 98.7843C148.797 98.9978 148.784 99.2413 148.621 99.3772C148.508 99.4713 148.352 99.4866 148.205 99.4978L134.872 100.527C134.456 100.559 134.388 101.226 134.704 101.499C135.021 101.773 135.485 101.754 135.9 101.715C136.954 101.618 138.009 101.496 139.065 101.373C142.405 100.984 145.749 100.595 149.071 101.025C149.708 101.108 149.959 100.222 149.963 99.5738L150.038 85.5668C150.039 85.4047 150.029 85.2195 149.905 85.1172C149.797 85.0289 149.643 85.0367 149.505 85.0491L138.117 86.0695C137.819 86.0961 137.504 86.1291 137.264 86.3094C137.024 86.4897 136.908 86.8724 137.106 87.0983L147.695 86.5257C148.063 86.5058 148.516 86.5322 148.681 86.8652C148.746 86.9967 148.748 87.1498 148.748 87.2968ZM165.079 98.8656L165.143 85.4961C165.144 85.2851 165.152 85.0559 165.284 84.8923C165.406 84.7417 165.604 84.6835 165.79 84.6332L169.709 83.5756C170.067 83.4791 170.469 83.3877 170.79 83.5755C171.11 83.7633 171.155 84.3589 170.796 84.4515L166.972 85.4379C166.709 85.5057 166.427 85.5861 166.261 85.8025C166.097 86.0157 166.089 86.3068 166.087 86.5763L166.021 98.6859C166.019 99 166.153 99.4365 166.458 99.3724C167.953 99.0578 169.525 99.1198 170.991 99.5512C170.874 100.184 170.047 100.32 169.409 100.311L165.841 100.259C165.254 100.251 165.076 99.4579 165.079 98.8656ZM148.509 105.678C148.688 105.828 148.702 106.096 148.702 106.33L148.705 116.428C148.706 116.851 148.624 117.388 148.217 117.494C143.8 117.183 139.366 117.117 134.942 117.296C134.53 117.312 134.172 116.966 134.034 116.574C133.895 116.182 133.926 115.752 133.955 115.337C134.152 112.583 134.234 109.821 134.199 107.061C134.194 106.729 134.225 106.331 134.514 106.172C134.615 106.117 134.732 106.102 134.847 106.089C139.214 105.584 143.618 105.403 148.012 105.549C148.186 105.554 148.375 105.566 148.509 105.678ZM162.514 125.027C162.309 126.953 162.272 128.898 162.405 130.83C162.412 130.94 162.403 131.089 162.393 131.251C162.37 131.632 162.342 132.087 162.514 132.277C162.211 132.608 155.807 132.56 153.315 132.323C153.086 132.301 152.829 132.261 152.697 132.071C152.604 131.936 152.601 131.76 152.6 131.596L152.594 123.768C152.594 123.484 152.605 123.169 152.802 122.966C153.012 122.751 153.349 122.746 153.648 122.755L160.608 122.974C161.252 122.995 161.996 123.069 162.352 123.61C162.618 124.015 162.566 124.544 162.514 125.027ZM165.996 105.699C165.996 105.504 166.243 105.428 166.434 105.408L171.115 104.931L170.869 117.232C170.864 117.513 170.829 117.845 170.586 117.983C170.474 118.047 170.339 118.053 170.209 118.057L166.84 118.164C166.581 118.172 166.281 118.163 166.118 117.96C165.997 117.809 165.992 117.599 165.992 117.405L165.996 105.699Z" fill="#419958"/>
</svg>
