<svg width="325" height="325" viewBox="0 0 325 325" fill="none" xmlns="http://www.w3.org/2000/svg">
<rect width="325" height="325" fill="#F5F6F8"/>
<path fill-rule="evenodd" clip-rule="evenodd" d="M54.8794 260.374C77.9484 249.052 115.454 224.876 116.899 223.225C117.156 222.934 117.425 222.652 117.698 222.376C120.282 219.771 123.132 212.535 127.476 208.06H128.137C128.363 203.777 128.393 196.989 128.11 195.628C127.498 192.681 125.946 191.039 124.12 185.681C121.669 175.355 120.205 170.894 120.205 170.894C106.7 166.3 106.724 153.95 105.931 149.407C105.136 144.864 104.441 142.611 104.778 138.544C105.114 134.476 108.958 132.849 108.958 132.849C108.958 132.849 110.064 134.763 107.709 127.202C105.353 119.641 105.883 111.362 106.17 108.06C106.459 104.758 109.199 97.7711 109.199 97.7711C109.199 97.7711 111.361 85.4721 113.956 84.2758C112.852 82.6965 113.717 81.1651 113.717 81.1651C113.717 81.1651 114.101 79.9688 115.879 78.1981C116.311 76.8103 115.879 75.8532 115.879 75.8532C115.879 75.8532 117.224 73.4126 118.908 72.599C120.926 66.4735 124.961 65.995 126.26 64.8465C127.558 63.6982 127.845 62.1666 127.845 62.1666C127.845 62.1666 128.843 61.7809 129.512 61.6364C129.895 61.5539 130.266 61.4108 130.61 61.2245C132.039 60.4536 131.499 60.9453 132.796 60.8266C134.046 60.0611 134.046 60.3002 134.141 58.3382C136.929 56.8546 137.409 57.381 137.985 57.4289C138.515 55.9455 140.389 55.8496 140.389 55.8496C140.389 55.8496 140.677 56.4241 141.11 56.376C141.542 56.3282 141.735 55.419 141.735 55.419C141.735 55.419 142.265 54.8924 143.056 54.4619C143.633 54.39 143.993 54.8926 144.318 55.3232C145.868 55.2873 146.192 56.2564 146.949 56.2205C147.706 56.1848 149.977 54.4978 150.842 54.2466C151.707 53.9954 154.518 54.2466 154.518 54.2466C156.501 51.3393 162.123 52.2725 162.7 52.488C168.539 50.8728 170.758 53.7094 175.676 54.6055C185.156 55.6103 191.391 59.4149 191.391 59.4149L198.456 63.0758C198.456 63.0758 199.934 63.6859 202.385 63.7937C204.079 63.7218 204.62 65.1574 204.812 66.0908C207.719 66.7128 206.037 69.2015 206.037 69.2015C206.037 69.2015 206.686 69.0816 207.022 69.1774C207.359 69.2731 206.878 70.7327 206.71 71.4746C208.897 72.982 208.32 73.8193 208.536 74.6329C212.862 76.3556 212.915 78.5733 213.438 79.6577C215.265 83.1991 216.058 83.2948 216.442 84.5869C216.827 85.8788 216.971 87.6017 216.971 87.6017C216.971 87.6017 217.173 90.3229 216.614 93.005C216.317 94.4288 216.463 95.9097 217 97.2619C218.125 100.096 217.282 96.9044 218.532 102.748C219.782 108.586 219.542 111.793 219.061 117.655C219.301 124.522 217.115 128.566 217.115 128.566C217.115 128.566 215.168 131.174 215.337 133.639C215.337 133.639 219.157 133.997 219.83 137.539C220.503 141.08 219.985 143.138 219.985 143.138C219.985 143.138 218.633 148.072 218.532 150.029C218.432 151.986 218.869 166.778 203.923 172.09L200.967 185.681C198.772 192.111 197.549 192.616 197.128 195.493C196.958 196.653 196.786 204.159 196.834 208.06H197.523C201.867 212.535 204.718 219.771 207.301 222.376C207.575 222.652 207.844 222.934 208.1 223.225C209.546 224.876 247.051 249.052 270.121 260.374C283.517 266.948 292 280.53 292 295.401V325H33V295.401C33 280.53 41.4827 266.948 54.8794 260.374Z" fill="#57bb71"/>
</svg>
