<svg width="325" height="325" viewBox="0 0 325 325" fill="none" xmlns="http://www.w3.org/2000/svg">
<rect width="325" height="325" fill="#F5F6F8"/>
<path fill-rule="evenodd" clip-rule="evenodd" d="M214.259 231.63H215.127C225.672 216.927 230.786 189.084 230.786 189.084C230.786 189.084 231.622 198.885 229.43 203.893C232.721 197.198 232.432 190.479 232.432 190.479C232.432 190.479 233.913 199.477 232.249 206.396C236.528 193.359 233.502 181.159 233.502 181.159L230.631 163.692C230.631 163.692 227.494 159.625 226.399 136.552C225.306 113.478 221.914 103.988 221.914 103.988C198.842 45.2785 156.146 58.2091 156.146 58.2091C147.011 57.0885 143.644 59.6701 143.644 59.6701C112.248 62.1728 100.817 119.579 100.817 119.579C100.817 119.579 92.8834 155.609 92.8311 162.441C96.136 141.994 97.5289 143.199 97.5289 143.199L95.4933 167.915C95.4933 167.915 95.4933 210.253 109.743 231.63C86.9329 263.124 41 261.872 41 288.987C41 292.376 41 325 41 325H283C283 325 283 292.376 283 288.987C283 261.872 237.069 263.124 214.259 231.63Z" fill="#57bb71"/>
</svg>
