<svg width="50" height="50" viewBox="0 0 50 50" fill="none" xmlns="http://www.w3.org/2000/svg">
<path d="M34.2999 41.6736C33.8331 41.6732 33.3771 41.5334 32.9902 41.2723L25.1109 35.9912C25.0721 35.9644 25.026 35.9501 24.9789 35.9501C24.9317 35.9501 24.8857 35.9644 24.8468 35.9912L16.9676 41.2723C16.5719 41.5364 16.1052 41.674 15.6295 41.6667C15.1538 41.6594 14.6916 41.5076 14.3042 41.2314C13.9169 40.9552 13.6227 40.5677 13.4607 40.1203C13.2988 39.673 13.2768 39.187 13.3976 38.7268L15.9853 29.6012C15.9975 29.5553 15.996 29.5068 15.981 29.4618C15.966 29.4167 15.9381 29.3771 15.9008 29.3477L8.44398 23.4858C8.05143 23.1933 7.76024 22.7854 7.61125 22.3191C7.46226 21.8528 7.46293 21.3516 7.61318 20.8857C7.76343 20.4198 8.05571 20.0127 8.44904 19.7213C8.84238 19.4299 9.31705 19.2689 9.80649 19.2609L19.3123 18.9018C19.3591 18.8986 19.4039 18.8819 19.4414 18.8538C19.4788 18.8257 19.5074 18.7874 19.5236 18.7434L22.7978 9.83958C22.9628 9.3882 23.2626 8.99844 23.6565 8.72306C24.0504 8.44769 24.5194 8.3 25 8.3C25.4806 8.3 25.9496 8.44769 26.3435 8.72306C26.7374 8.99844 27.0371 9.3882 27.2022 9.83958L30.4764 18.7434C30.4926 18.7874 30.5212 18.8257 30.5586 18.8538C30.5961 18.8819 30.6409 18.8986 30.6877 18.9018L40.1935 19.2609C40.683 19.2689 41.1576 19.4299 41.551 19.7213C41.9443 20.0127 42.2366 20.4198 42.3868 20.8857C42.5371 21.3516 42.5377 21.8528 42.3887 22.3191C42.2397 22.7854 41.9486 23.1933 41.556 23.4858L34.0992 29.3477C34.0608 29.3761 34.032 29.4157 34.0169 29.4611C34.0018 29.5064 34.001 29.5554 34.0147 29.6012L36.6024 38.7268C36.6932 39.0768 36.7023 39.4431 36.6287 39.7971C36.5552 40.1512 36.4012 40.4836 36.1785 40.7686C35.9559 41.0535 35.6706 41.2834 35.3448 41.4403C35.019 41.5973 34.6615 41.6771 34.2999 41.6736ZM24.9842 33.8366C25.4519 33.8509 25.9045 34.0054 26.2833 34.2802L34.1626 39.5612C34.2025 39.5916 34.2512 39.6082 34.3013 39.6086C34.3515 39.609 34.4004 39.5931 34.4408 39.5634C34.4812 39.5337 34.511 39.4917 34.5255 39.4437C34.5401 39.3957 34.5388 39.3443 34.5217 39.2972L31.934 30.1715C31.8067 29.7239 31.816 29.2484 31.961 28.8061C32.1059 28.3638 32.3797 27.975 32.7473 27.6895L40.2041 21.8275C40.2448 21.7989 40.2752 21.7581 40.2909 21.7109C40.3067 21.6638 40.3069 21.6128 40.2915 21.5655C40.2761 21.5183 40.246 21.4772 40.2056 21.4483C40.1651 21.4194 40.1165 21.4042 40.0668 21.405L30.5609 21.0459C30.0955 21.0278 29.646 20.8714 29.2697 20.5968C28.8935 20.3221 28.6076 19.9416 28.4485 19.5039L25.1743 10.6001C25.1595 10.5528 25.13 10.5115 25.0901 10.4821C25.0502 10.4528 25.002 10.4369 24.9525 10.4369C24.9029 10.4369 24.8547 10.4528 24.8148 10.4821C24.7749 10.5115 24.7454 10.5528 24.7307 10.6001L21.4881 19.4933C21.329 19.9311 21.0431 20.3116 20.6669 20.5862C20.2907 20.8609 19.8412 21.0172 19.3757 21.0354L9.86986 21.3945C9.82016 21.3937 9.77151 21.4088 9.73106 21.4377C9.6906 21.4666 9.66049 21.5077 9.64512 21.555C9.62976 21.6023 9.62996 21.6532 9.64569 21.7004C9.66143 21.7475 9.69187 21.7884 9.73255 21.817L17.1999 27.6895C17.5664 27.9759 17.8393 28.3648 17.9842 28.8068C18.129 29.2487 18.1391 29.7238 18.0132 30.1715L15.4361 39.2972C15.4207 39.3428 15.4206 39.3923 15.4359 39.438C15.4511 39.4838 15.4808 39.5233 15.5206 39.5506C15.5588 39.5834 15.6075 39.6014 15.6579 39.6014C15.7082 39.6014 15.7569 39.5834 15.7952 39.5506L23.6745 34.2696C24.0595 34.0142 24.5115 33.8782 24.9736 33.8788L24.9842 33.8366Z" fill="#57bb71"/>
</svg>
