<svg width="50" height="50" viewBox="0 0 50 50" fill="none" xmlns="http://www.w3.org/2000/svg">
<path d="M41.5563 23.4495C41.9487 23.1572 42.2398 22.7493 42.3888 22.2832C42.5377 21.817 42.5371 21.316 42.3869 20.8502C42.2367 20.3845 41.9445 19.9774 41.5512 19.6862C41.158 19.3949 40.6835 19.2339 40.1942 19.226L30.6912 18.8669C30.6445 18.8637 30.5997 18.8471 30.5622 18.819C30.5248 18.7909 30.4962 18.7525 30.4801 18.7086L27.1962 9.83912C27.0313 9.38787 26.7316 8.99823 26.3378 8.72294C25.944 8.44764 25.4752 8.3 24.9947 8.3C24.5143 8.3 24.0454 8.44764 23.6516 8.72294C23.2579 8.99823 22.9582 9.38787 22.7932 9.83912L19.5199 18.7402C19.5038 18.7842 19.4752 18.8225 19.4378 18.8506C19.4003 18.8787 19.3555 18.8954 19.3088 18.8986L9.80579 19.2576C9.3165 19.2656 8.84198 19.4265 8.44876 19.7178C8.05554 20.0091 7.76335 20.4162 7.61315 20.8819C7.46295 21.3476 7.46227 21.8487 7.61122 22.3149C7.76017 22.781 8.05126 23.1888 8.4437 23.4812L15.8983 29.3413C15.9356 29.3707 15.9634 29.4104 15.9785 29.4554C15.9935 29.5004 15.995 29.5489 15.9827 29.5948L13.4169 38.6859C13.284 39.1489 13.2968 39.6416 13.4538 40.0969C13.6108 40.5523 13.9042 40.9482 14.2942 41.2309C14.6842 41.5136 15.1518 41.6693 15.6334 41.6768C16.115 41.6843 16.5872 41.5433 16.9858 41.2729L24.8627 35.9934C24.9015 35.9666 24.9476 35.9523 24.9947 35.9523C25.0419 35.9523 25.0879 35.9666 25.1267 35.9934L33.0036 41.2729C33.3968 41.5525 33.8674 41.7028 34.3499 41.7028C34.8324 41.7028 35.3029 41.5525 35.6961 41.2729C36.0862 40.9928 36.3799 40.5988 36.5369 40.145C36.6938 39.6912 36.7063 39.1999 36.5725 38.7387L33.9856 29.6159C33.9719 29.5701 33.9726 29.5212 33.9878 29.4758C34.0029 29.4305 34.0316 29.3909 34.0701 29.3625L41.5563 23.4495Z" fill="#57bb71"/>
</svg>
