<svg width="22" height="23" viewBox="0 0 22 23" fill="none" xmlns="http://www.w3.org/2000/svg">
<circle cx="11" cy="11.1677" r="10" fill="#57bb71"/>
<path fill-rule="evenodd" clip-rule="evenodd" d="M13.9706 8.13703C14.1106 7.9983 14.2995 7.92022 14.4966 7.91968C14.6936 7.91914 14.883 7.99617 15.0237 8.13412C15.1644 8.27208 15.2452 8.45987 15.2485 8.6569C15.2519 8.85392 15.1776 9.04436 15.0416 9.18703L11.0496 14.177C10.981 14.2509 10.8982 14.3102 10.8062 14.3514C10.7141 14.3926 10.6147 14.4147 10.5139 14.4166C10.4131 14.4185 10.3129 14.4 10.2194 14.3623C10.1259 14.3245 10.0409 14.2683 9.96965 14.197L7.32465 11.551C7.25096 11.4824 7.19186 11.3996 7.15086 11.3076C7.10987 11.2156 7.08783 11.1163 7.08605 11.0156C7.08428 10.9148 7.1028 10.8148 7.14052 10.7214C7.17824 10.628 7.23439 10.5432 7.30561 10.472C7.37683 10.4008 7.46166 10.3446 7.55505 10.3069C7.64844 10.2692 7.74847 10.2507 7.84917 10.2524C7.94987 10.2542 8.04918 10.2763 8.14118 10.3172C8.23318 10.3582 8.31598 10.4173 8.38465 10.491L10.4786 12.584L13.9516 8.15903C13.9578 8.15128 13.9645 8.14393 13.9716 8.13703H13.9706Z" fill="#FDFEFF"/>
</svg>
