<svg width="22" height="23" viewBox="0 0 22 23" fill="none" xmlns="http://www.w3.org/2000/svg">
<circle cx="11" cy="11.1677" r="9.25" transform="rotate(90 11 11.1677)" stroke="#D4D4D4" stroke-width="1.5"/>
<path d="M14.0072 13.9068C13.9819 13.9679 13.9447 14.0234 13.8979 14.0702C13.8979 14.0702 13.8979 14.0702 13.8979 14.0702L13.8626 14.0348C13.6896 14.2078 13.3984 14.2078 13.2254 14.0348L14.0072 13.9068ZM14.0072 13.9068C14.0326 13.8457 14.0456 13.7802 14.0456 13.714M14.0072 13.9068L14.0456 13.714M14.0456 13.714C14.0456 13.6478 14.0326 13.5823 14.0072 13.5212M14.0456 13.714L14.0072 13.5212M14.0072 13.5212C13.9819 13.4601 13.9448 13.4046 13.8979 13.3578L14.0072 13.5212ZM8.80994 14.0702L11 11.8801L13.8979 13.3578L11.7124 11.1678L13.9025 8.97766C13.9492 8.93089 13.9863 8.87535 14.0117 8.81424C14.037 8.75312 14.05 8.68762 14.05 8.62146C14.05 8.55531 14.037 8.48981 14.0117 8.42869C13.9863 8.36757 13.9492 8.31204 13.9025 8.26527C13.8557 8.21849 13.8001 8.18138 13.739 8.15607C13.6779 8.13075 13.6124 8.11772 13.5463 8.11772C13.4801 8.11772 13.4146 8.13075 13.3535 8.15607C13.2924 8.18138 13.2368 8.21849 13.1901 8.26527L11 10.4553L8.80994 8.26527C8.76316 8.21849 8.70763 8.18138 8.64651 8.15607C8.5854 8.13075 8.51989 8.11772 8.45374 8.11772C8.38759 8.11772 8.32208 8.13075 8.26097 8.15607C8.19985 8.18138 8.14432 8.21849 8.09754 8.26527C8.05077 8.31204 8.01366 8.36757 7.98834 8.42869C7.96303 8.48981 7.95 8.55531 7.95 8.62146C7.95 8.68762 7.96303 8.75312 7.98834 8.81424C8.01366 8.87535 8.05077 8.93089 8.09754 8.97766L10.2876 11.1677L8.09754 13.3578C8.05077 13.4046 8.01366 13.4601 7.98834 13.5212C7.96303 13.5823 7.95 13.6478 7.95 13.714C7.95 13.7801 7.96303 13.8456 7.98834 13.9068C8.01366 13.9679 8.05077 14.0234 8.09754 14.0702C8.14432 14.117 8.19985 14.1541 8.26097 14.1794C8.32208 14.2047 8.38759 14.2177 8.45374 14.2177C8.51989 14.2177 8.5854 14.2047 8.64651 14.1794C8.70763 14.1541 8.76316 14.117 8.80994 14.0702Z" fill="#D4D4D4" stroke="#D4D4D4" stroke-width="0.1"/>
</svg>
