<svg width="22" height="23" viewBox="0 0 22 23" fill="none" xmlns="http://www.w3.org/2000/svg">
<circle cx="11" cy="11.1677" r="9.25" transform="rotate(90 11 11.1677)" stroke="#57bb71" stroke-width="1.5"/>
<circle cx="11" cy="11.1677" r="9.25" transform="rotate(90 11 11.1677)" stroke="#57bb71" stroke-width="1.5"/>
<path fill-rule="evenodd" clip-rule="evenodd" d="M13.8569 11.1675C13.8569 11.319 13.7967 11.4644 13.6896 11.5715C13.5825 11.6786 13.4371 11.7388 13.2856 11.7388H7.57235C7.42083 11.7388 7.27551 11.6786 7.16836 11.5715C7.06122 11.4644 7.00103 11.319 7.00103 11.1675C7.00103 11.016 7.06122 10.8707 7.16836 10.7635C7.27551 10.6564 7.42083 10.5962 7.57235 10.5962H13.2856C13.4371 10.5962 13.5825 10.6564 13.6896 10.7635C13.7967 10.8707 13.8569 11.016 13.8569 11.1675Z" fill="#57bb71"/>
<path fill-rule="evenodd" clip-rule="evenodd" d="M14.8322 10.7632C14.8854 10.8163 14.9276 10.8793 14.9564 10.9488C14.9852 11.0182 15 11.0926 15 11.1677C15 11.2429 14.9852 11.3173 14.9564 11.3867C14.9276 11.4561 14.8854 11.5192 14.8322 11.5722L11.4042 15.0002C11.2969 15.1075 11.1514 15.1677 10.9997 15.1677C10.848 15.1677 10.7025 15.1075 10.5952 15.0002C10.4879 14.8929 10.4277 14.7474 10.4277 14.5957C10.4277 14.444 10.4879 14.2985 10.5952 14.1912L13.6198 11.1677L10.5952 8.14427C10.5421 8.09115 10.4999 8.02809 10.4712 7.95869C10.4424 7.88928 10.4277 7.81489 10.4277 7.73977C10.4277 7.66465 10.4424 7.59026 10.4712 7.52086C10.4999 7.45145 10.5421 7.38839 10.5952 7.33527C10.6483 7.28215 10.7114 7.24002 10.7808 7.21127C10.8502 7.18252 10.9246 7.16772 10.9997 7.16772C11.0748 7.16772 11.1492 7.18252 11.2186 7.21127C11.288 7.24002 11.3511 7.28215 11.4042 7.33527L14.8322 10.7632Z" fill="#57bb71"/>
</svg>
