<svg width="24" height="24" viewBox="0 0 24 24" fill="none" xmlns="http://www.w3.org/2000/svg">
<circle cx="12" cy="12" r="12" fill="#23804D"/>
<path fill-rule="evenodd" clip-rule="evenodd" d="M15.4343 8.28627C15.6058 8.11632 15.8372 8.02067 16.0787 8.02C16.3201 8.01933 16.552 8.1137 16.7244 8.28271C16.8968 8.45171 16.9958 8.68178 16.9999 8.92315C17.004 9.16453 16.9129 9.39783 16.7464 9.57261L11.8559 15.6858C11.7718 15.7763 11.6704 15.849 11.5576 15.8994C11.4448 15.9498 11.3231 15.977 11.1995 15.9793C11.076 15.9816 10.9533 15.9589 10.8388 15.9127C10.7242 15.8665 10.6201 15.7976 10.5328 15.7103L7.29244 12.4687C7.20217 12.3846 7.12976 12.2832 7.07954 12.1704C7.02932 12.0577 7.00232 11.9361 7.00014 11.8127C6.99797 11.6893 7.02066 11.5668 7.06687 11.4524C7.11308 11.338 7.18187 11.234 7.26911 11.1468C7.35636 11.0595 7.46029 10.9908 7.5747 10.9446C7.68911 10.8983 7.81165 10.8756 7.93502 10.8778C8.05839 10.88 8.18006 10.907 8.29277 10.9572C8.40547 11.0074 8.50691 11.0798 8.59103 11.1701L11.1564 13.7342L15.4111 8.31322C15.4187 8.30373 15.4268 8.29473 15.4356 8.28627H15.4343Z" fill="#FDFEFF"/>
</svg>
