<svg width="24" height="24" viewBox="0 0 24 24" fill="none" xmlns="http://www.w3.org/2000/svg">
<circle cx="12" cy="12" r="12" fill="#419958"/>
<path d="M18 12.1911C17.9856 11.3841 17.8119 10.5879 17.489 9.84827C17.1661 9.1086 16.7002 8.44001 16.1182 7.88087C15.261 7.05255 14.1772 6.49736 13.0042 6.28568C11.8311 6.074 10.6216 6.21537 9.52901 6.69185C8.81452 7.00537 8.16814 7.45976 7.63324 8.01712C7.09834 8.57447 6.67568 9.23555 6.397 9.95005C5.83839 11.3853 5.87039 12.9832 6.48602 14.3949C6.78947 15.0854 7.22993 15.7109 7.76948 16.228C8.30903 16.7451 8.94844 17.1531 9.63971 17.4224C10.3299 17.6906 11.0661 17.8203 11.8064 17.8041C12.9022 17.7828 13.9671 17.4371 14.8663 16.8105C15.7655 16.184 16.4587 15.3048 16.8582 14.2842C17.0153 13.8801 17.1231 13.4585 17.1795 13.0286L17.2251 13.0302C17.3322 13.0301 17.438 13.0079 17.536 12.9648C17.634 12.9218 17.722 12.8589 17.7945 12.7801C17.8669 12.7013 17.9223 12.6084 17.957 12.5071C17.9917 12.4059 18.005 12.2985 17.9961 12.1918H17.9992L18 12.1911ZM16.77 14.2463C16.4859 14.8896 16.0748 15.4725 15.5701 15.954C15.0654 16.4355 14.4693 16.8148 13.8253 17.064C13.1821 17.3131 12.496 17.4325 11.8064 17.4155C11.1265 17.4008 10.4561 17.252 9.83376 16.9777C9.21142 16.7034 8.64934 16.3089 8.17976 15.817C7.71667 15.3318 7.35367 14.7602 7.1115 14.1348C6.63037 12.8896 6.66266 11.5044 7.20129 10.2829C7.46604 9.68685 7.84844 9.14653 8.31677 8.70065C8.7851 8.25476 9.33936 7.9041 9.93619 7.67419C10.533 7.44351 11.1717 7.33513 11.8064 7.35216C12.4412 7.36919 13.0674 7.50853 13.6395 7.76398C14.2123 8.01866 14.731 8.38714 15.159 8.83766C15.5871 9.28819 15.9239 9.82077 16.1437 10.3944C16.3633 10.967 16.4678 11.5773 16.451 12.1903H16.4541C16.4374 12.3914 16.4999 12.5912 16.6283 12.7469C16.7567 12.9027 16.9409 13.0021 17.1415 13.024C17.0669 13.4447 16.9419 13.8548 16.7692 14.2455L16.77 14.2463Z" fill="#FDFEFF"/>
</svg>
