<svg width="24" height="24" viewBox="0 0 24 24" fill="none" xmlns="http://www.w3.org/2000/svg">
<circle cx="12" cy="12" r="12" fill="#419958"/>
<path d="M12.9391 11.9989L15.803 9.14162C15.9284 9.01621 15.9989 8.84611 15.9989 8.66875C15.9989 8.49139 15.9284 8.32129 15.803 8.19587C15.6776 8.07046 15.5075 8 15.3301 8C15.1528 8 14.9827 8.07046 14.8572 8.19587L12 11.0598L9.14276 8.19587C9.01735 8.07046 8.84725 8 8.66988 8C8.49252 8 8.32242 8.07046 8.19701 8.19587C8.07159 8.32129 8.00114 8.49139 8.00114 8.66875C8.00114 8.84611 8.07159 9.01621 8.19701 9.14162L11.0609 11.9989L8.19701 14.8561C8.13458 14.918 8.08504 14.9917 8.05122 15.0728C8.01741 15.154 8 15.2411 8 15.329C8 15.4169 8.01741 15.504 8.05122 15.5851C8.08504 15.6663 8.13458 15.7399 8.19701 15.8019C8.25892 15.8643 8.33259 15.9138 8.41375 15.9476C8.49491 15.9815 8.58196 15.9989 8.66988 15.9989C8.75781 15.9989 8.84486 15.9815 8.92602 15.9476C9.00718 15.9138 9.08085 15.8643 9.14276 15.8019L12 12.938L14.8572 15.8019C14.9192 15.8643 14.9928 15.9138 15.074 15.9476C15.1551 15.9815 15.2422 15.9989 15.3301 15.9989C15.418 15.9989 15.5051 15.9815 15.5863 15.9476C15.6674 15.9138 15.7411 15.8643 15.803 15.8019C15.8654 15.7399 15.915 15.6663 15.9488 15.5851C15.9826 15.504 16 15.4169 16 15.329C16 15.2411 15.9826 15.154 15.9488 15.0728C15.915 14.9917 15.8654 14.918 15.803 14.8561L12.9391 11.9989Z" fill="#FDFEFF"/>
</svg>
