<svg width="24" height="24" viewBox="0 0 24 24" fill="none" xmlns="http://www.w3.org/2000/svg">
<circle cx="12" cy="12" r="12" fill="#419958"/>
<path d="M7.58922 11.1902C8.28419 11.1902 8.84922 10.6251 8.84922 9.93016C8.84922 9.23519 8.28419 8.67016 7.58922 8.67016C6.89425 8.67016 6.32922 9.23519 6.32922 9.93016C6.32922 10.6251 6.89425 11.1902 7.58922 11.1902ZM16.4092 11.1902C17.1042 11.1902 17.6692 10.6251 17.6692 9.93016C17.6692 9.23519 17.1042 8.67016 16.4092 8.67016C15.7142 8.67016 15.1492 9.23519 15.1492 9.93016C15.1492 10.6251 15.7142 11.1902 16.4092 11.1902ZM17.0392 11.8202H15.7792C15.4327 11.8202 15.1197 11.9599 14.8913 12.1863C15.6847 12.6214 16.2478 13.407 16.3698 14.3402H17.6692C18.0177 14.3402 18.2992 14.0586 18.2992 13.7102V13.0802C18.2992 12.3852 17.7342 11.8202 17.0392 11.8202ZM11.9992 11.8202C13.2179 11.8202 14.2042 10.8338 14.2042 9.61516C14.2042 8.3965 13.2179 7.41016 11.9992 7.41016C10.7806 7.41016 9.79422 8.3965 9.79422 9.61516C9.79422 10.8338 10.7806 11.8202 11.9992 11.8202ZM13.5112 12.4502H13.3478C12.9383 12.647 12.4835 12.7652 11.9992 12.7652C11.5149 12.7652 11.0621 12.647 10.6506 12.4502H10.4872C9.23509 12.4502 8.21922 13.466 8.21922 14.7182V15.2852C8.21922 15.8069 8.6425 16.2302 9.16422 16.2302H14.8342C15.3559 16.2302 15.7792 15.8069 15.7792 15.2852V14.7182C15.7792 13.466 14.7633 12.4502 13.5112 12.4502ZM9.10713 12.1863C8.87875 11.9599 8.56572 11.8202 8.21922 11.8202H6.95922C6.26425 11.8202 5.69922 12.3852 5.69922 13.0802V13.7102C5.69922 14.0586 5.98075 14.3402 6.32922 14.3402H7.62663C7.75066 13.407 8.31372 12.6214 9.10713 12.1863Z" fill="#FDFEFF"/>
</svg>
