<svg width="24" height="24" viewBox="0 0 24 24" fill="none" xmlns="http://www.w3.org/2000/svg">
<circle cx="12" cy="12" r="12" fill="#419958"/>
<path d="M17.0825 14.9065L12.8618 7.13969C12.7777 6.9849 12.6535 6.85566 12.5021 6.7656C12.3508 6.67554 12.1779 6.628 12.0018 6.628C11.8257 6.628 11.6528 6.67554 11.5015 6.7656C11.3501 6.85566 11.2259 6.9849 11.1419 7.13969L6.92418 14.9065C6.84078 15.0559 6.79798 15.2245 6.80006 15.3955C6.80214 15.5666 6.84902 15.7341 6.93603 15.8813C7.02304 16.0286 7.14714 16.1505 7.29595 16.2349C7.44476 16.3192 7.61308 16.3631 7.78413 16.3621H16.2225C16.3918 16.3619 16.5582 16.3178 16.7054 16.2341C16.8525 16.1504 16.9754 16.0299 17.0621 15.8844C17.1488 15.739 17.1962 15.5735 17.1998 15.4043C17.2033 15.235 17.1629 15.0677 17.0825 14.9187V14.9065ZM11.6129 9.06925C11.6129 8.95642 11.6577 8.84822 11.7375 8.76844C11.8172 8.68866 11.9254 8.64384 12.0383 8.64384C12.1511 8.64384 12.2593 8.68866 12.3391 8.76844C12.4189 8.84822 12.4637 8.95642 12.4637 9.06925V12.7157C12.4637 12.8285 12.4189 12.9367 12.3391 13.0165C12.2593 13.0963 12.1511 13.1411 12.0383 13.1411C11.9254 13.1411 11.8172 13.0963 11.7375 13.0165C11.6577 12.9367 11.6129 12.8285 11.6129 12.7157V9.06925ZM12.0383 15.101C11.9301 15.101 11.8243 15.0689 11.7344 15.0088C11.6445 14.9487 11.5743 14.8633 11.5329 14.7634C11.4915 14.6634 11.4807 14.5535 11.5018 14.4474C11.5229 14.3413 11.575 14.2438 11.6515 14.1673C11.728 14.0908 11.8255 14.0387 11.9316 14.0176C12.0377 13.9965 12.1476 14.0073 12.2476 14.0487C12.3475 14.0901 12.433 14.1602 12.4931 14.2502C12.5532 14.3401 12.5852 14.4459 12.5852 14.5541C12.5852 14.6259 12.5711 14.697 12.5436 14.7634C12.5161 14.8297 12.4758 14.89 12.425 14.9408C12.3742 14.9916 12.3139 15.0319 12.2476 15.0594C12.1812 15.0869 12.1101 15.101 12.0383 15.101Z" fill="#FDFEFF"/>
</svg>
