<svg width="10" height="8" viewBox="0 0 10 8" fill="none" xmlns="http://www.w3.org/2000/svg">
<path fill-rule="evenodd" clip-rule="evenodd" d="M9.41045 0.675498C9.52283 0.788016 9.58595 0.940538 9.58595 1.09956C9.58595 1.25859 9.52283 1.41111 9.41045 1.52363L3.60958 7.3245C3.49706 7.43688 3.34454 7.5 3.18551 7.5C3.02649 7.5 2.87397 7.43688 2.76145 7.3245L0.161058 4.72411C0.0550578 4.61035 -0.0026495 4.45989 9.34917e-05 4.30443C0.00283648 4.14896 0.0658156 4.00063 0.175763 3.89069C0.28571 3.78074 0.43404 3.71776 0.589504 3.71502C0.744969 3.71227 0.895429 3.76998 1.00919 3.87598L3.18551 6.05231L8.56233 0.675498C8.67484 0.563121 8.82737 0.5 8.98639 0.5C9.14542 0.5 9.29794 0.563121 9.41045 0.675498Z" fill="#FDFEFF"/>
</svg>
