<svg width="7" height="8" viewBox="0 0 7 8" fill="none" xmlns="http://www.w3.org/2000/svg">
<path d="M4.32232 3.9995L6.82859 1.49906C6.93834 1.38931 7 1.24045 7 1.08524C7 0.930023 6.93834 0.781166 6.82859 0.671412C6.71883 0.561659 6.56998 0.5 6.41476 0.5C6.25955 0.5 6.11069 0.561659 6.00094 0.671412L3.5005 3.17768L1.00006 0.671412C0.890305 0.561659 0.741447 0.5 0.586233 0.5C0.431018 0.5 0.28216 0.561659 0.172407 0.671412C0.0626535 0.781166 0.000994698 0.930023 0.000994697 1.08524C0.000994696 1.24045 0.0626535 1.38931 0.172407 1.49906L2.67867 3.9995L0.172407 6.49994C0.117777 6.55413 0.0744162 6.61859 0.0448256 6.68962C0.0152349 6.76064 0 6.83682 0 6.91377C0 6.99071 0.0152349 7.06689 0.0448256 7.13792C0.0744162 7.20894 0.117777 7.27341 0.172407 7.32759C0.226591 7.38222 0.291055 7.42558 0.362081 7.45517C0.433107 7.48477 0.509289 7.5 0.586233 7.5C0.663176 7.5 0.739358 7.48477 0.810384 7.45517C0.88141 7.42558 0.945875 7.38222 1.00006 7.32759L3.5005 4.82133L6.00094 7.32759C6.05512 7.38222 6.11959 7.42558 6.19061 7.45517C6.26164 7.48477 6.33782 7.5 6.41476 7.5C6.49171 7.5 6.56789 7.48477 6.63891 7.45517C6.70994 7.42558 6.7744 7.38222 6.82859 7.32759C6.88322 7.27341 6.92658 7.20894 6.95617 7.13792C6.98576 7.06689 7.001 6.99071 7.001 6.91377C7.001 6.83682 6.98576 6.76064 6.95617 6.68962C6.92658 6.61859 6.88322 6.55413 6.82859 6.49994L4.32232 3.9995Z" fill="#FDFEFF"/>
</svg>
