  <svg width="40" height="40" viewBox="0 0 40 40" fill="none" xmlns="http://www.w3.org/2000/svg">
<circle cx="20" cy="20" r="20" fill="#9167F4"/>
<path d="M23.3333 20.4286C21.0333 20.4286 19.1667 22.3486 19.1667 24.7143C19.1667 27.08 21.0333 29 23.3333 29C25.6333 29 27.5 27.08 27.5 24.7143C27.5 22.3486 25.6333 20.4286 23.3333 20.4286ZM24.7083 26.7286L22.9167 24.8857V22.1429H23.75V24.5343L25.2917 26.12L24.7083 26.7286ZM24.1667 12.7143H21.5167C21.1667 11.72 20.25 11 19.1667 11C18.0833 11 17.1667 11.72 16.8167 12.7143H14.1667C13.25 12.7143 12.5 13.4857 12.5 14.4286V27.2857C12.5 28.2286 13.25 29 14.1667 29H19.2583C18.7653 28.5078 18.3642 27.9268 18.075 27.2857H14.1667V14.4286H15.8333V17H22.5V14.4286H24.1667V18.7829C24.7583 18.8686 25.3167 19.0486 25.8333 19.2971V14.4286C25.8333 13.4857 25.0833 12.7143 24.1667 12.7143ZM19.1667 14.4286C18.7083 14.4286 18.3333 14.0429 18.3333 13.5714C18.3333 13.1 18.7083 12.7143 19.1667 12.7143C19.625 12.7143 20 13.1 20 13.5714C20 14.0429 19.625 14.4286 19.1667 14.4286Z" fill="#FDFEFF"/>
</svg>
