<svg width="40" height="40" viewBox="0 0 40 40" fill="none" xmlns="http://www.w3.org/2000/svg">
<circle cx="20" cy="20" r="20" fill="#9167F4"/>
<path d="M23.3913 19.6083L24.6472 18.3522L21.6476 15.3521L20.3918 16.6081L17.0802 13.3039C16.4563 12.6799 15.4404 12.6799 14.8165 13.3039L13.2967 14.824C12.6728 15.4481 12.6728 16.4641 13.2967 17.0882L16.6003 20.3924L12.8008 24.2006V27.2008H15.8004L19.6079 23.3925L22.9114 26.6968C23.6713 27.4568 24.6952 27.1768 25.1751 26.6968L26.6949 25.1767C27.3188 24.5526 27.3188 23.5366 26.6949 22.9125L23.3913 19.6083ZM17.7441 19.2563L14.4326 15.9521L15.9444 14.432L16.9602 15.4481L16.0163 16.4001L17.1442 17.5282L18.0961 16.5761L19.2559 17.7362L17.7441 19.2563ZM24.0473 25.5687L20.7437 22.2645L22.2635 20.7444L23.4233 21.9045L22.4715 22.8565L23.5993 23.9846L24.5512 23.0325L25.567 24.0486L24.0473 25.5687ZM26.9669 16.0321C27.041 15.9581 27.0998 15.8702 27.14 15.7734C27.1801 15.6766 27.2008 15.5728 27.2008 15.4681C27.2008 15.3633 27.1801 15.2595 27.14 15.1627C27.0998 15.066 27.041 14.978 26.9669 14.904L25.0951 13.0319C24.7192 12.6559 24.1992 12.7999 23.9673 13.0319L22.5035 14.496L25.5031 17.4962L26.9669 16.0321Z" fill="#FDFEFF"/>
</svg>
