<svg width="40" height="40" viewBox="0 0 40 40" fill="none" xmlns="http://www.w3.org/2000/svg">
<circle cx="20" cy="20" r="20" fill="#9167F4"/>
<path d="M25.2042 13.048H18.2696C17.4977 13.048 16.8731 13.6726 16.8731 14.4445V18.361L13.6062 21.5862C13.5084 21.683 13.4414 21.8067 13.414 21.9416C13.3865 22.0765 13.3998 22.2165 13.452 22.3439C13.5043 22.4712 13.5932 22.5802 13.7075 22.657C13.8218 22.7337 13.9563 22.7748 14.094 22.7749V26.2488C14.094 26.4331 14.1672 26.6098 14.2975 26.7401C14.4278 26.8704 14.6045 26.9436 14.7888 26.9436H25.9052C26.0895 26.9436 26.2662 26.8704 26.3965 26.7401C26.5268 26.6098 26.6 26.4331 26.6 26.2488V14.4438C26.6 13.6726 25.9761 13.048 25.2042 13.048ZM19.598 22.1573V25.5541H15.4835V21.6855L17.5588 19.6366L19.598 21.723V22.1573ZM21.0418 17.9115H19.6522V16.5219H21.0418V17.9115ZM23.8209 23.4697H22.4313V22.0801H23.8209V23.4697ZM23.8209 20.6906H22.4313V19.301H23.8209V20.6906ZM23.8209 17.9115H22.4313V16.5219H23.8209V17.9115Z" fill="#FDFEFF"/>
</svg>
