<svg width="40" height="40" viewBox="0 0 40 40" fill="none" xmlns="http://www.w3.org/2000/svg">
<circle cx="20" cy="20" r="20" fill="#ED6060"/>
<path d="M26.6241 12.8H13.376C13.0574 12.8 12.8 13.0574 12.8 13.376V26.624C12.8 26.9426 13.0574 27.2 13.376 27.2H26.6241C26.9426 27.2 27.2 26.9426 27.2 26.624V13.376C27.2 13.0574 26.9426 12.8 26.6241 12.8ZM18.056 23.078V24.464C18.056 24.5432 17.9912 24.608 17.912 24.608H17.048C16.9688 24.608 16.904 24.5432 16.904 24.464V23.078C16.1534 22.8332 15.608 22.1276 15.608 21.296C15.608 20.4644 16.1534 19.757 16.904 19.514V15.536C16.904 15.4568 16.9688 15.392 17.048 15.392H17.912C17.9912 15.392 18.056 15.4568 18.056 15.536V19.514C18.8066 19.7588 19.352 20.4644 19.352 21.296C19.352 22.1276 18.8066 22.835 18.056 23.078ZM23.0888 20.4878C23.0924 20.4878 23.0942 20.486 23.096 20.486V24.464C23.096 24.5432 23.0312 24.608 22.952 24.608H22.088C22.0088 24.608 21.944 24.5432 21.944 24.464V20.486C21.9476 20.486 21.9494 20.4878 21.9513 20.4878C21.1952 20.2466 20.648 19.5392 20.648 18.704C20.648 17.8688 21.1952 17.1614 21.9513 16.9202C21.9476 16.9202 21.9458 16.922 21.944 16.922V15.536C21.944 15.4568 22.0088 15.392 22.088 15.392H22.952C23.0312 15.392 23.096 15.4568 23.096 15.536V16.922C23.0924 16.922 23.0906 16.9202 23.0888 16.9202C23.8448 17.1614 24.392 17.8688 24.392 18.704C24.392 19.5392 23.8448 20.2466 23.0888 20.4878ZM21.872 18.704C21.872 18.8759 21.9403 19.0407 22.0618 19.1622C22.1834 19.2837 22.3482 19.352 22.52 19.352C22.6919 19.352 22.8567 19.2837 22.9783 19.1622C23.0998 19.0407 23.168 18.8759 23.168 18.704C23.168 18.5321 23.0998 18.3673 22.9783 18.2458C22.8567 18.1243 22.6919 18.056 22.52 18.056C22.3482 18.056 22.1834 18.1243 22.0618 18.2458C21.9403 18.3673 21.872 18.5321 21.872 18.704ZM18.0452 20.981L18.0182 20.9378C18.0182 20.936 18.0164 20.936 18.0164 20.9342L18.0002 20.9126C17.9984 20.9108 17.9966 20.909 17.9966 20.9072C17.9786 20.8838 17.9606 20.8622 17.939 20.8424L17.9354 20.8388C17.9282 20.8316 17.921 20.8244 17.9138 20.819C17.8994 20.8046 17.8832 20.792 17.867 20.7812H17.8652L17.8436 20.765C17.8418 20.7632 17.8382 20.7614 17.8364 20.7596C17.8148 20.7452 17.7914 20.7308 17.7662 20.72C17.7626 20.7182 17.7572 20.7164 17.7536 20.7128C17.7464 20.7092 17.741 20.7074 17.7338 20.7038C17.7284 20.702 17.7212 20.6984 17.7158 20.6966C17.7068 20.693 17.6978 20.6894 17.6888 20.6876C17.6816 20.6858 17.6726 20.6822 17.6654 20.6804L17.6492 20.675L17.624 20.6696C17.6204 20.6678 17.615 20.6678 17.6114 20.666C17.5988 20.6642 17.5862 20.6606 17.5736 20.6588C17.57 20.6588 17.5664 20.6588 17.5628 20.657C17.552 20.6552 17.543 20.6552 17.5322 20.6534C17.5286 20.6534 17.525 20.6534 17.5196 20.6516C17.5052 20.6516 17.4926 20.6498 17.4782 20.6498C17.4638 20.6498 17.4512 20.6498 17.4368 20.6516C17.4332 20.6516 17.4296 20.6516 17.4242 20.6534C17.4134 20.6534 17.4026 20.6552 17.3936 20.657C17.39 20.657 17.3864 20.657 17.3828 20.6588C17.3702 20.6606 17.3576 20.6624 17.345 20.666C17.3414 20.6678 17.336 20.6678 17.3324 20.6696L17.3072 20.675L17.291 20.6804C17.2838 20.6822 17.2748 20.6858 17.2676 20.6876C17.2586 20.6912 17.2496 20.6948 17.2406 20.6966C17.2352 20.6984 17.228 20.702 17.2226 20.7038C17.2154 20.7074 17.21 20.7092 17.2028 20.7128C17.1992 20.7146 17.1938 20.7164 17.1902 20.72C17.1668 20.7326 17.1434 20.7452 17.12 20.7596C17.1182 20.7614 17.1146 20.7632 17.1128 20.765L17.0912 20.7812H17.0894C17.0732 20.7938 17.057 20.8064 17.0426 20.819C17.0354 20.8262 17.0282 20.8316 17.021 20.8388L17.0174 20.8424C16.9973 20.8631 16.9781 20.8848 16.9598 20.9072C16.958 20.909 16.9562 20.9108 16.9562 20.9126L16.94 20.9342C16.94 20.936 16.9382 20.936 16.9382 20.9378L16.9112 20.981C16.9094 20.9846 16.9076 20.9864 16.9058 20.99C16.8572 21.0818 16.8284 21.1862 16.8284 21.296C16.8284 21.4058 16.8572 21.512 16.9058 21.602C16.9076 21.6056 16.9094 21.6074 16.9112 21.611L16.9382 21.6542C16.9382 21.656 16.94 21.656 16.94 21.6578L16.9562 21.6794C16.958 21.6812 16.9598 21.683 16.9598 21.6848C16.9778 21.7082 16.9958 21.7298 17.0174 21.7496L17.021 21.7532C17.0282 21.7604 17.0354 21.7676 17.0426 21.773C17.057 21.7874 17.0732 21.8 17.0894 21.8108H17.0912L17.1128 21.827C17.1146 21.8288 17.1182 21.8306 17.12 21.8324C17.1416 21.8468 17.165 21.8612 17.1902 21.872C17.1938 21.8738 17.1992 21.8756 17.2028 21.8792C17.21 21.8828 17.2154 21.8846 17.2226 21.8882C17.228 21.89 17.2352 21.8936 17.2406 21.8954C17.2496 21.899 17.2586 21.9026 17.2676 21.9044C17.2748 21.9062 17.2838 21.9098 17.291 21.9116L17.3072 21.917L17.3324 21.9224C17.336 21.9242 17.3414 21.9242 17.345 21.926C17.3576 21.9278 17.3702 21.9314 17.3828 21.9332C17.3864 21.9332 17.39 21.9332 17.3936 21.935C17.4044 21.9368 17.4134 21.9368 17.4242 21.9386C17.4278 21.9386 17.4314 21.9386 17.4368 21.9404C17.4512 21.9404 17.4638 21.9422 17.4782 21.9422C17.4926 21.9422 17.5052 21.9422 17.5196 21.9404C17.5232 21.9404 17.5268 21.9404 17.5322 21.9386C17.543 21.9386 17.5538 21.9368 17.5628 21.935C17.5664 21.935 17.57 21.935 17.5736 21.9332C17.5862 21.9314 17.5988 21.9296 17.6114 21.926C17.615 21.9242 17.6204 21.9242 17.624 21.9224L17.6492 21.917L17.6654 21.9116C17.6726 21.9098 17.6816 21.9062 17.6888 21.9044C17.6978 21.9008 17.7068 21.8972 17.7158 21.8954C17.7212 21.8936 17.7284 21.89 17.7338 21.8882C17.741 21.8846 17.7464 21.8828 17.7536 21.8792C17.7572 21.8774 17.7626 21.8756 17.7662 21.872C17.7896 21.8594 17.813 21.8468 17.8364 21.8324C17.8382 21.8306 17.8418 21.8288 17.8436 21.827L17.8652 21.8108H17.867C17.8832 21.7982 17.8994 21.7856 17.9138 21.773C17.921 21.7658 17.9282 21.7604 17.9354 21.7532L17.939 21.7496C17.9588 21.7298 17.9786 21.7064 17.9966 21.6848C17.9984 21.683 18.0002 21.6812 18.0002 21.6794L18.0164 21.6578C18.0164 21.656 18.0182 21.656 18.0182 21.6542L18.0452 21.611C18.047 21.6074 18.0488 21.6056 18.0506 21.602C18.0992 21.5102 18.128 21.4058 18.128 21.296C18.128 21.1862 18.0992 21.08 18.0506 20.99C18.0488 20.9864 18.047 20.9828 18.0452 20.981Z" fill="#FDFEFF"/>
</svg>
