<svg width="40" height="40" viewBox="0 0 40 40" fill="none" xmlns="http://www.w3.org/2000/svg">
<circle cx="20" cy="20" r="20" fill="#69C1D5"/>
<path d="M14.12 18.92C15.0466 18.92 15.8 18.1666 15.8 17.24C15.8 16.3134 15.0466 15.56 14.12 15.56C13.1934 15.56 12.44 16.3134 12.44 17.24C12.44 18.1666 13.1934 18.92 14.12 18.92ZM25.88 18.92C26.8066 18.92 27.56 18.1666 27.56 17.24C27.56 16.3134 26.8066 15.56 25.88 15.56C24.9534 15.56 24.2 16.3134 24.2 17.24C24.2 18.1666 24.9534 18.92 25.88 18.92ZM26.72 19.76H25.04C24.578 19.76 24.1606 19.9464 23.8561 20.2483C24.914 20.8284 25.6647 21.8758 25.8275 23.12H27.56C28.0246 23.12 28.4 22.7446 28.4 22.28V21.44C28.4 20.5134 27.6466 19.76 26.72 19.76ZM20 19.76C21.6249 19.76 22.94 18.4449 22.94 16.82C22.94 15.1951 21.6249 13.88 20 13.88C18.3751 13.88 17.06 15.1951 17.06 16.82C17.06 18.4449 18.3751 19.76 20 19.76ZM22.016 20.6H21.7981C21.2521 20.8625 20.6457 21.02 20 21.02C19.3542 21.02 18.7505 20.8625 18.2019 20.6H17.984C16.3145 20.6 14.96 21.9545 14.96 23.624V24.38C14.96 25.0756 15.5244 25.64 16.22 25.64H23.78C24.4756 25.64 25.04 25.0756 25.04 24.38V23.624C25.04 21.9545 23.6855 20.6 22.016 20.6ZM16.1439 20.2483C15.8394 19.9464 15.422 19.76 14.96 19.76H13.28C12.3534 19.76 11.6 20.5134 11.6 21.44V22.28C11.6 22.7446 11.9754 23.12 12.44 23.12H14.1699C14.3352 21.8758 15.086 20.8284 16.1439 20.2483Z" fill="#FDFEFF"/>
</svg>
