<svg width="40" height="40" viewBox="0 0 40 40" fill="none" xmlns="http://www.w3.org/2000/svg">
<circle cx="20" cy="20" r="20" fill="#60D394"/>
<path d="M26.5624 14.1233L25.8765 13.4372C25.8506 13.4113 25.8182 13.4 25.7843 13.4C25.7503 13.4 25.7179 13.4129 25.6921 13.4372L24.461 14.6687C23.9258 14.306 23.2939 14.1126 22.6475 14.1136C21.8192 14.1136 20.9909 14.4292 20.3583 15.0619L18.7099 16.7109C18.6858 16.7352 18.6723 16.7681 18.6723 16.8023C18.6723 16.8366 18.6858 16.8694 18.7099 16.8938L23.1053 21.2905C23.1312 21.3164 23.1635 21.3278 23.1975 21.3278C23.2299 21.3278 23.2638 21.3148 23.2897 21.2905L24.9382 19.6416C26.0528 18.525 26.1839 16.7983 25.3313 15.5393L26.5624 14.3078C26.6126 14.256 26.6126 14.1735 26.5624 14.1233ZM21.0815 20.5623C21.0572 20.5382 21.0243 20.5247 20.9901 20.5247C20.9558 20.5247 20.923 20.5382 20.8987 20.5623L19.8213 21.6401L18.3604 20.1788L19.4395 19.0994C19.4896 19.0493 19.4896 18.9667 19.4395 18.9166L18.8506 18.3275C18.8263 18.3034 18.7934 18.2899 18.7592 18.2899C18.725 18.2899 18.6921 18.3034 18.6678 18.3275L17.5888 19.4069L16.8931 18.7111C16.8811 18.699 16.8667 18.6894 16.8508 18.6831C16.835 18.6767 16.818 18.6735 16.8009 18.6738C16.7686 18.6738 16.7346 18.6868 16.7087 18.7111L15.0618 20.3601C13.9472 21.475 13.8162 23.2033 14.6687 24.4623L13.4376 25.6938C13.4135 25.7181 13.4 25.751 13.4 25.7852C13.4 25.8195 13.4135 25.8523 13.4376 25.8766L14.1235 26.5628C14.1494 26.5887 14.1818 26.6 14.2158 26.6C14.2497 26.6 14.2821 26.587 14.308 26.5628L15.5391 25.3313C16.0843 25.7019 16.7184 25.8864 17.3526 25.8864C18.1809 25.8864 19.0091 25.5708 19.6417 24.9381L21.2902 23.2891C21.3403 23.2389 21.3403 23.1564 21.2902 23.1062L20.5945 22.4104L21.6736 21.331C21.7237 21.2808 21.7237 21.1983 21.6736 21.1481L21.0815 20.5623Z" fill="#FDFEFF"/>
</svg>
