<svg width="40" height="40" viewBox="0 0 40 40" fill="none" xmlns="http://www.w3.org/2000/svg">
<circle cx="20" cy="20" r="20" fill="#249FEB"/>
<path d="M27.0125 19.45H22.2C21.7624 19.45 21.3427 19.2762 21.0332 18.9667C20.7238 18.6573 20.55 18.2376 20.55 17.8V12.9875C20.55 12.951 20.5355 12.9161 20.5097 12.8903C20.4839 12.8645 20.4489 12.85 20.4125 12.85H18.582C18.5178 12.7311 18.443 12.6182 18.3586 12.5128C17.9622 12.0209 17.3734 11.75 16.7 11.75C15.4047 11.75 14.5 12.7678 14.5 14.225V19.175C14.5 20.0344 15.1992 20.55 15.875 20.55C16.0561 20.552 16.2358 20.5178 16.4035 20.4494C16.5712 20.381 16.7236 20.2798 16.8517 20.1517C16.9797 20.0236 17.0809 19.8712 17.1493 19.7035C17.2177 19.5358 17.252 19.3561 17.25 19.175V13.95C17.25 13.8041 17.192 13.6642 17.0889 13.5611C16.9857 13.4579 16.8458 13.4 16.7 13.4C16.5541 13.4 16.4142 13.4579 16.3111 13.5611C16.2079 13.6642 16.15 13.8041 16.15 13.95V19.175C16.1512 19.2114 16.1449 19.2477 16.1315 19.2816C16.1181 19.3155 16.0979 19.3463 16.0721 19.3721C16.0463 19.3979 16.0155 19.4181 15.9816 19.4315C15.9477 19.4449 15.9114 19.4512 15.875 19.45C15.7983 19.45 15.6 19.4005 15.6 19.175V14.225C15.6 13.5602 15.8891 12.85 16.7 12.85C17.7206 12.85 17.8 13.8864 17.8 14.2037V18.9732C17.8 19.5731 17.6119 20.1155 17.2703 20.5015C16.9234 20.8938 16.4411 21.1 15.875 21.1C15.3088 21.1 14.8265 20.8938 14.4797 20.5015C14.138 20.1155 13.95 19.5731 13.95 18.9732V16.15C13.95 16.0041 13.892 15.8642 13.7889 15.7611C13.6857 15.6579 13.5458 15.6 13.4 15.6C13.2541 15.6 13.1142 15.6579 13.0111 15.7611C12.9079 15.8642 12.85 16.0041 12.85 16.15V18.9732C12.85 20.7439 13.9909 22.0543 15.6 22.1883V26.05C15.6 26.6335 15.8318 27.1931 16.2443 27.6056C16.6569 28.0182 17.2165 28.25 17.8 28.25H24.95C25.5335 28.25 26.093 28.0182 26.5056 27.6056C26.9182 27.1931 27.15 26.6335 27.15 26.05V19.5875C27.15 19.551 27.1355 19.5161 27.1097 19.4903C27.0839 19.4645 27.0489 19.45 27.0125 19.45Z" fill="#FDFEFF"/>
<path d="M22.2 18.35H26.6622C26.6758 18.3499 26.689 18.3459 26.7003 18.3383C26.7115 18.3308 26.7203 18.32 26.7255 18.3075C26.7307 18.295 26.732 18.2812 26.7294 18.2679C26.7268 18.2546 26.7203 18.2424 26.7107 18.2328L21.7672 13.2893C21.7576 13.2798 21.7454 13.2733 21.7321 13.2706C21.7188 13.268 21.705 13.2694 21.6925 13.2745C21.68 13.2797 21.6693 13.2885 21.6617 13.2997C21.6541 13.311 21.6501 13.3242 21.65 13.3378V17.8C21.65 17.9459 21.708 18.0858 21.8111 18.1889C21.9143 18.2921 22.0542 18.35 22.2 18.35Z" fill="#FDFEFF"/>
</svg>
