<svg width="40" height="40" viewBox="0 0 40 40" fill="none" xmlns="http://www.w3.org/2000/svg">
<circle cx="20" cy="20" r="20" fill="#2684FF"/>
<path d="M20 10.2C14.5876 10.2 10.2 14.5876 10.2 20C10.2001 21.287 10.4536 22.5613 10.9462 23.7503C11.4387 24.9392 12.1607 26.0195 13.0707 26.9295C13.9808 27.8395 15.0612 28.5613 16.2502 29.0537C17.4392 29.5462 18.7136 29.7996 20.0005 29.7995C21.2875 29.7994 22.5618 29.5459 23.7508 29.0533C24.9397 28.5608 26.0201 27.8388 26.93 26.9288C27.84 26.0187 28.5618 24.9383 29.0542 23.7493C29.5467 22.5603 29.8001 21.2859 29.8 19.999C29.8 14.5876 25.4114 10.2 20 10.2ZM19.8459 25.7157H19.7938C18.9955 25.6922 18.432 25.1032 18.4555 24.3161C18.478 23.5423 19.0547 22.9798 19.8265 22.9798L19.8734 22.9819C20.6942 23.0053 21.2516 23.5882 21.2281 24.3978C21.2046 25.1736 20.638 25.7157 19.8459 25.7157ZM23.2054 19.0486C23.0176 19.314 22.6052 19.6468 22.0846 20.0521L21.5108 20.4471C21.1964 20.6921 21.0066 20.9239 20.9361 21.1495C20.8789 21.3271 20.8524 21.3751 20.8473 21.7375V21.8293H18.6576L18.6637 21.6436C18.6913 20.8841 18.7097 20.4349 19.0251 20.0643C19.5202 19.4845 20.6125 18.7801 20.6585 18.7505C20.8083 18.641 20.939 18.5076 21.0453 18.3554C21.275 18.038 21.3761 17.7889 21.3761 17.5459C21.3761 17.205 21.2761 16.8895 21.077 16.6108C20.8851 16.3393 20.5206 16.2046 19.9939 16.2046C19.4712 16.2046 19.1129 16.3699 18.8996 16.7109C18.6791 17.059 18.5678 17.4255 18.5678 17.8001V17.894H16.3107L16.3148 17.796C16.373 16.4148 16.8671 15.4195 17.7797 14.8387C18.3544 14.4702 19.07 14.2833 19.9041 14.2833C20.9943 14.2833 21.9171 14.5488 22.6419 15.0714C23.3779 15.6012 23.7506 16.3954 23.7506 17.4306C23.7495 18.0094 23.5668 18.5535 23.2054 19.0486Z" fill="#FDFEFF"/>
</svg>
