<svg width="40" height="40" viewBox="0 0 40 40" fill="none" xmlns="http://www.w3.org/2000/svg">
<circle cx="20" cy="20" r="20" fill="#FF6D70"/>
<path d="M20.72 24.32H21.44C21.631 24.32 21.8141 24.3959 21.9492 24.5309C22.0842 24.6659 22.16 24.849 22.16 25.04H27.2V26.48H22.16C22.16 26.671 22.0842 26.8541 21.9492 26.9891C21.8141 27.1241 21.631 27.2 21.44 27.2H18.56C18.3691 27.2 18.186 27.1241 18.0509 26.9891C17.9159 26.8541 17.84 26.671 17.84 26.48H12.8V25.04H17.84C17.84 24.849 17.9159 24.6659 18.0509 24.5309C18.186 24.3959 18.3691 24.32 18.56 24.32H19.28V23.1248C17.1704 22.2536 15.68 20 15.68 17.6024V14.7224L20 12.8L24.32 14.7224V17.6024C24.32 20 22.8296 22.2536 20.72 23.1248V24.32ZM20 14.24L17.12 15.4568V17.84H20V14.24ZM20 17.84V22.16C21.3752 21.8216 22.88 20.0432 22.88 18.56V17.84H20Z" fill="#FDFEFF"/>
</svg>
