<svg width="40" height="40" viewBox="0 0 40 40" fill="none" xmlns="http://www.w3.org/2000/svg">
<circle cx="20" cy="20" r="20" fill="#2684FF"/>
<path fill-rule="evenodd" clip-rule="evenodd" d="M16.5 13.4375C16.5 13.3215 16.4539 13.2102 16.3719 13.1281C16.2898 13.0461 16.1785 13 16.0625 13C15.9465 13 15.8352 13.0461 15.7531 13.1281C15.6711 13.2102 15.625 13.3215 15.625 13.4375V13.875H14.75C14.2859 13.875 13.8408 14.0594 13.5126 14.3876C13.1844 14.7158 13 15.1609 13 15.625V16.5H27V15.625C27 15.1609 26.8156 14.7158 26.4874 14.3876C26.1592 14.0594 25.7141 13.875 25.25 13.875H24.375V13.4375C24.375 13.3215 24.3289 13.2102 24.2469 13.1281C24.1648 13.0461 24.0535 13 23.9375 13C23.8215 13 23.7102 13.0461 23.6281 13.1281C23.5461 13.2102 23.5 13.3215 23.5 13.4375V13.875H16.5V13.4375ZM13 17.375H27V25.25C27 25.7141 26.8156 26.1592 26.4874 26.4874C26.1592 26.8156 25.7141 27 25.25 27H14.75C14.2859 27 13.8408 26.8156 13.5126 26.4874C13.1844 26.1592 13 25.7141 13 25.25V17.375ZM21.3125 19.125C21.1965 19.125 21.0852 19.1711 21.0031 19.2531C20.9211 19.3352 20.875 19.4465 20.875 19.5625V20.4375C20.875 20.5535 20.9211 20.6648 21.0031 20.7469C21.0852 20.8289 21.1965 20.875 21.3125 20.875H22.1875C22.3035 20.875 22.4148 20.8289 22.4969 20.7469C22.5789 20.6648 22.625 20.5535 22.625 20.4375V19.5625C22.625 19.4465 22.5789 19.3352 22.4969 19.2531C22.4148 19.1711 22.3035 19.125 22.1875 19.125H21.3125ZM23.9375 19.125C23.8215 19.125 23.7102 19.1711 23.6281 19.2531C23.5461 19.3352 23.5 19.4465 23.5 19.5625V20.4375C23.5 20.5535 23.5461 20.6648 23.6281 20.7469C23.7102 20.8289 23.8215 20.875 23.9375 20.875H24.8125C24.9285 20.875 25.0398 20.8289 25.1219 20.7469C25.2039 20.6648 25.25 20.5535 25.25 20.4375V19.5625C25.25 19.4465 25.2039 19.3352 25.1219 19.2531C25.0398 19.1711 24.9285 19.125 24.8125 19.125H23.9375ZM14.75 22.1875C14.75 22.0715 14.7961 21.9602 14.8781 21.8781C14.9602 21.7961 15.0715 21.75 15.1875 21.75H16.0625C16.1785 21.75 16.2898 21.7961 16.3719 21.8781C16.4539 21.9602 16.5 22.0715 16.5 22.1875V23.0625C16.5 23.1785 16.4539 23.2898 16.3719 23.3719C16.2898 23.4539 16.1785 23.5 16.0625 23.5H15.1875C15.0715 23.5 14.9602 23.4539 14.8781 23.3719C14.7961 23.2898 14.75 23.1785 14.75 23.0625V22.1875ZM17.8125 21.75C17.6965 21.75 17.5852 21.7961 17.5031 21.8781C17.4211 21.9602 17.375 22.0715 17.375 22.1875V23.0625C17.375 23.1785 17.4211 23.2898 17.5031 23.3719C17.5852 23.4539 17.6965 23.5 17.8125 23.5H18.6875C18.8035 23.5 18.9148 23.4539 18.9969 23.3719C19.0789 23.2898 19.125 23.1785 19.125 23.0625V22.1875C19.125 22.0715 19.0789 21.9602 18.9969 21.8781C18.9148 21.7961 18.8035 21.75 18.6875 21.75H17.8125Z" fill="#FDFEFF"/>
</svg>
