<svg width="40" height="40" viewBox="0 0 40 40" fill="none" xmlns="http://www.w3.org/2000/svg">
<circle cx="20" cy="20" r="20" fill="#ED6060"/>
<path fill-rule="evenodd" clip-rule="evenodd" d="M17.118 12.839C18.1888 12.5556 19.3253 12.3 20.006 12.3C20.6857 12.3 21.8232 12.5556 22.894 12.839C23.8491 13.0954 24.798 13.3744 25.7399 13.6757C26.282 13.8482 26.6906 14.3153 26.7697 14.8913C27.358 19.2002 25.9935 22.3932 24.3396 24.506C23.6347 25.4128 22.7979 26.2088 21.8571 26.8674C21.5299 27.0965 21.1841 27.2978 20.8232 27.469C20.546 27.5963 20.2504 27.7 20.006 27.7C19.7617 27.7 19.466 27.5963 19.1888 27.469C18.8278 27.2979 18.482 27.0967 18.1549 26.8674C17.2144 26.2087 16.378 25.4127 15.6735 24.506C14.0175 22.3932 12.654 19.2002 13.2423 14.8913C13.2817 14.6121 13.3992 14.3498 13.5815 14.1347C13.7637 13.9195 14.0032 13.7604 14.2721 13.6757C15.214 13.3744 16.1629 13.0954 17.118 12.839ZM20.5347 19.9066C20.8732 19.7827 21.1576 19.544 21.3382 19.2321C21.5189 18.9202 21.5844 18.5548 21.5233 18.1995C21.4622 17.8443 21.2785 17.5217 21.0041 17.288C20.7297 17.0542 20.382 16.9242 20.0215 16.9204C19.6611 16.9167 19.3108 17.0395 19.0316 17.2675C18.7523 17.4955 18.562 17.8142 18.4935 18.1681C18.4251 18.522 18.483 18.8887 18.6572 19.2043C18.8313 19.5199 19.1106 19.7644 19.4465 19.8953C19.4248 19.9394 19.4096 19.9864 19.4013 20.0349L19.0594 22.0882C19.0472 22.1618 19.0511 22.237 19.0709 22.3089C19.0907 22.3807 19.1259 22.4474 19.1741 22.5042C19.2223 22.5611 19.2822 22.6068 19.3498 22.6381C19.4174 22.6695 19.491 22.6857 19.5656 22.6858H20.4228C20.4977 22.6858 20.5716 22.6695 20.6394 22.638C20.7073 22.6064 20.7674 22.5604 20.8156 22.5032C20.8639 22.446 20.899 22.379 20.9186 22.3067C20.9381 22.2345 20.9417 22.1589 20.929 22.0852L20.5727 20.0318C20.5655 19.9886 20.5527 19.9465 20.5347 19.9066Z" fill="#FDFEFF"/>
</svg>
