<svg width="40" height="40" viewBox="0 0 40 40" fill="none" xmlns="http://www.w3.org/2000/svg">
<circle cx="20" cy="20" r="20" fill="#69C1D5"/>
<path d="M19.0635 18.927C20.6323 18.927 21.904 17.6553 21.904 16.0865C21.904 14.5177 20.6323 13.246 19.0635 13.246C17.4948 13.246 16.223 14.5177 16.223 16.0865C16.223 17.6553 17.4948 18.927 19.0635 18.927Z" fill="#FDFEFF"/>
<path d="M20.8839 24.1199H23.9618V24.7355H20.8839V24.1199Z" fill="#FDFEFF"/>
<path d="M18.2456 24.9993V26.3184C18.2456 26.435 18.292 26.5469 18.3744 26.6293C18.4569 26.7118 18.5687 26.7581 18.6853 26.7581H26.1603C26.2769 26.7581 26.3888 26.7118 26.4712 26.6293C26.5537 26.5469 26.6 26.435 26.6 26.3184V21.9214C26.6 21.8048 26.5537 21.6929 26.4712 21.6105C26.3888 21.528 26.2769 21.4817 26.1603 21.4817H23.0824V20.8353C23.0824 20.7187 23.0361 20.6068 22.9536 20.5244C22.8711 20.4419 22.7593 20.3956 22.6427 20.3956C22.5261 20.3956 22.4142 20.4419 22.3318 20.5244C22.2493 20.6068 22.203 20.7187 22.203 20.8353V21.4817H21.3236V19.9075C20.5764 19.7855 19.8206 19.7237 19.0635 19.7229C17.3938 19.7157 15.7429 20.0745 14.2267 20.7737C13.9772 20.8915 13.7667 21.0784 13.6202 21.3122C13.4736 21.546 13.3973 21.8169 13.4001 22.0929V24.9993H18.2456ZM25.7206 25.8787H19.1251V22.3611H22.203V22.5458C22.203 22.6624 22.2493 22.7742 22.3318 22.8567C22.4142 22.9391 22.5261 22.9855 22.6427 22.9855C22.7593 22.9855 22.8711 22.9391 22.9536 22.8567C23.0361 22.7742 23.0824 22.6624 23.0824 22.5458V22.3611H25.7206V25.8787Z" fill="#FDFEFF"/>
</svg>
