<svg width="12" height="14" viewBox="0 0 12 14" fill="none" xmlns="http://www.w3.org/2000/svg">
<path d="M4.41902 10.3648H7.55423C7.76211 10.3648 7.96147 10.2822 8.10847 10.1352C8.25546 9.98822 8.33804 9.78886 8.33804 9.58098V5.66196H9.58115C9.73615 5.66193 9.88765 5.61594 10.0165 5.52982C10.1454 5.44369 10.2458 5.32129 10.3051 5.17809C10.3644 5.03488 10.38 4.87731 10.3497 4.72529C10.3195 4.57327 10.2449 4.43363 10.1353 4.32401L6.54077 0.729487C6.39379 0.582547 6.19446 0.5 5.98663 0.5C5.77879 0.5 5.57946 0.582547 5.43248 0.729487L1.83795 4.32401C1.72837 4.43363 1.65375 4.57327 1.62352 4.72529C1.59329 4.87731 1.60881 5.03488 1.66812 5.17809C1.72743 5.32129 1.82787 5.44369 1.95673 5.52982C2.0856 5.61594 2.2371 5.66193 2.3921 5.66196H3.63521V9.58098C3.63521 9.78886 3.71779 9.98822 3.86479 10.1352C4.01178 10.2822 4.21114 10.3648 4.41902 10.3648ZM1.2838 11.9324H10.6894C10.8973 11.9324 11.0967 12.015 11.2437 12.162C11.3907 12.309 11.4733 12.5083 11.4733 12.7162C11.4733 12.9241 11.3907 13.1234 11.2437 13.2704C11.0967 13.4174 10.8973 13.5 10.6894 13.5H1.2838C1.07593 13.5 0.876563 13.4174 0.729571 13.2704C0.582579 13.1234 0.5 12.9241 0.5 12.7162C0.5 12.5083 0.582579 12.309 0.729571 12.162C0.876563 12.015 1.07593 11.9324 1.2838 11.9324Z" fill="#419958"/>
</svg>
