<svg width="40" height="40" viewBox="0 0 40 40" fill="none" xmlns="http://www.w3.org/2000/svg">
<circle cx="20" cy="20" r="20" fill="#ED6060"/>
<path d="M18.7974 17.1813C18.7974 17.5938 18.7974 17.9937 18.9275 18.3681C17.5599 19.9737 13.949 24.2161 13.6126 24.5397C13.5458 24.5997 13.4923 24.6731 13.4557 24.7551C13.419 24.8371 13.4001 24.9259 13.4 25.0157C13.4 25.2854 13.565 25.5456 13.7046 25.6915C13.9141 25.9105 14.8089 26.7387 14.9739 26.58C15.4625 26.104 15.5609 25.9771 15.7608 25.7804C16.0622 25.4853 15.7291 24.8824 15.8338 24.6381C15.9385 24.3938 16.0495 24.3462 16.2304 24.3081C16.4113 24.27 16.7318 24.4001 16.9824 24.4033C17.2458 24.4064 17.3886 24.2954 17.5853 24.1113C17.744 23.9654 17.8582 23.8289 17.8614 23.6163C17.8677 23.3308 17.4552 22.9532 17.763 22.6517C18.0708 22.3503 18.515 22.8485 18.8419 22.8104C19.1687 22.7723 19.5653 22.3186 19.6066 22.125C19.6478 21.9314 19.2353 21.4333 19.2988 21.1509C19.321 21.0557 19.5145 20.8336 19.6605 20.8018C19.8065 20.7701 20.4538 21.0208 20.5997 20.989C20.7774 20.951 20.9837 20.7638 21.1519 20.659C21.6437 20.8716 22.0911 20.9573 22.6654 20.9573C24.839 20.9573 26.6 19.2629 26.6 17.175C26.6 15.0871 24.839 13.4 22.6654 13.4C20.4919 13.4 18.7974 15.0935 18.7974 17.1813ZM24.5693 16.4461C24.5693 16.647 24.5097 16.8433 24.3981 17.0103C24.2866 17.1772 24.128 17.3074 23.9424 17.3842C23.7569 17.4611 23.5527 17.4812 23.3558 17.442C23.1588 17.4028 22.9779 17.3061 22.8359 17.1641C22.6939 17.0221 22.5972 16.8412 22.558 16.6442C22.5188 16.4473 22.5389 16.2431 22.6158 16.0576C22.6926 15.872 22.8228 15.7135 22.9898 15.6019C23.1567 15.4903 23.353 15.4308 23.5539 15.4308C23.8232 15.4308 24.0814 15.5377 24.2719 15.7282C24.4623 15.9186 24.5693 16.1769 24.5693 16.4461Z" fill="#FDFEFF"/>
</svg>
