<svg width="40" height="40" viewBox="0 0 40 40" fill="none" xmlns="http://www.w3.org/2000/svg">
<circle cx="20" cy="20" r="20" fill="#FF6D70"/>
<path d="M17.2 17.6C15.8209 17.6 14.4982 18.1479 13.523 19.123C12.5479 20.0982 12 21.4209 12 22.8C12 23.4829 12.1345 24.1591 12.3958 24.79C12.6572 25.4208 13.0402 25.9941 13.523 26.477C14.4982 27.4521 15.8209 28 17.2 28C17.8829 28 18.5591 27.8655 19.19 27.6042C19.8208 27.3428 20.3941 26.9598 20.877 26.477C21.3598 25.9941 21.7428 25.4208 22.0042 24.79C22.2655 24.1591 22.4 23.4829 22.4 22.8V21.528L28 20V17.6H19.2V19.2H17.6V17.6H17.2ZM19.2 12V16H17.6V12H19.2ZM15.48 16.224C14.944 16.352 14.432 16.544 13.944 16.8L12.112 14.304L13.408 13.36L15.48 16.224ZM24.688 14.304L23.456 16H21.48L23.392 13.36L24.688 14.304Z" fill="#FDFEFF"/>
</svg>
