<svg width="40" height="40" viewBox="0 0 40 40" fill="none" xmlns="http://www.w3.org/2000/svg">
<circle cx="20" cy="20" r="20" fill="#626262"/>
<path d="M20.75 17C20.75 17.7956 20.4339 18.5587 19.8713 19.1213C19.3087 19.6839 18.5456 20 17.75 20C16.9543 20 16.1913 19.6839 15.6287 19.1213C15.0661 18.5587 14.75 17.7956 14.75 17C14.75 16.2044 15.0661 15.4413 15.6287 14.8787C16.1913 14.3161 16.9543 14 17.75 14C18.5456 14 19.3087 14.3161 19.8713 14.8787C20.4339 15.4413 20.75 16.2044 20.75 17ZM23.75 24.5V26H11.75V24.5C11.75 22.8425 14.435 21.5 17.75 21.5C21.065 21.5 23.75 22.8425 23.75 24.5ZM26.375 21.875V23H25.25V21.875H26.375ZM24.875 18.125H23.75V17.75C23.75 17.1533 23.9871 16.581 24.409 16.159C24.831 15.7371 25.4033 15.5 26 15.5C26.5967 15.5 27.169 15.7371 27.591 16.159C28.0129 16.581 28.25 17.1533 28.25 17.75C28.25 18.4775 27.875 19.16 27.2825 19.5575L27.0575 19.7C26.63 20 26.375 20.4575 26.375 20.975V21.125H25.25V20.975C25.25 20.0825 25.7 19.25 26.4425 18.7625L26.66 18.62C26.9525 18.425 27.125 18.1025 27.125 17.75C27.125 17.4516 27.0065 17.1655 26.7955 16.9545C26.5845 16.7435 26.2984 16.625 26 16.625C25.7016 16.625 25.4155 16.7435 25.2045 16.9545C24.9935 17.1655 24.875 17.4516 24.875 17.75V18.125Z" fill="#FDFEFF"/>
</svg>
