<svg width="40" height="40" viewBox="0 0 40 40" fill="none" xmlns="http://www.w3.org/2000/svg">
<circle cx="20" cy="20" r="20" fill="#242424"/>
<path d="M28.2938 25.0055C27.8423 23.939 27.1871 22.9702 26.3646 22.1531C25.5446 21.3337 24.5733 20.6804 23.5042 20.2293C23.4947 20.2245 23.4851 20.2221 23.4755 20.2173C24.9667 19.1432 25.9361 17.3936 25.9361 15.4196C25.9361 12.1495 23.2792 9.5 20 9.5C16.7208 9.5 14.0639 12.1495 14.0639 15.4196C14.0639 17.3936 15.0333 19.1432 16.5245 20.2197C16.5149 20.2245 16.5053 20.2269 16.4958 20.2317C15.4234 20.6828 14.4612 21.3296 13.6354 22.1555C12.8137 22.9732 12.1586 23.9418 11.7062 25.0079C11.2617 26.0516 11.022 27.1706 11.0001 28.3043C10.9994 28.3297 11.0039 28.3551 11.0132 28.3788C11.0226 28.4025 11.0366 28.4242 11.0544 28.4424C11.0723 28.4606 11.0936 28.4751 11.1171 28.485C11.1407 28.4949 11.166 28.5 11.1915 28.5H12.6277C12.733 28.5 12.8168 28.4165 12.8192 28.3138C12.8671 26.4711 13.6091 24.7454 14.9208 23.4373C16.2779 22.0839 18.0803 21.3392 20 21.3392C21.9197 21.3392 23.722 22.0839 25.0792 23.4373C26.3909 24.7454 27.1329 26.4711 27.1808 28.3138C27.1832 28.4188 27.267 28.5 27.3723 28.5H28.8085C28.834 28.5 28.8593 28.4949 28.8829 28.485C28.9064 28.4751 28.9277 28.4606 28.9456 28.4424C28.9634 28.4242 28.9774 28.4025 28.9868 28.3788C28.9961 28.3551 29.0006 28.3297 28.9999 28.3043C28.976 27.1633 28.739 26.0534 28.2938 25.0055ZM20 19.5251C18.9013 19.5251 17.8673 19.0979 17.0894 18.3221C16.3115 17.5464 15.883 16.5152 15.883 15.4196C15.883 14.324 16.3115 13.2928 17.0894 12.5171C17.8673 11.7413 18.9013 11.3141 20 11.3141C21.0987 11.3141 22.1327 11.7413 22.9106 12.5171C23.6885 13.2928 24.117 14.324 24.117 15.4196C24.117 16.5152 23.6885 17.5464 22.9106 18.3221C22.1327 19.0979 21.0987 19.5251 20 19.5251Z" fill="#FDFEFF"/>
</svg>
