<svg width="24" height="24" viewBox="0 0 24 24" fill="none" xmlns="http://www.w3.org/2000/svg">
<circle cx="12" cy="12" r="12" fill="#419958"/>
<path d="M11.3189 11.2196C12.4598 11.2196 13.3847 10.2947 13.3847 9.15381C13.3847 8.01289 12.4598 7.088 11.3189 7.088C10.178 7.088 9.25311 8.01289 9.25311 9.15381C9.25311 10.2947 10.178 11.2196 11.3189 11.2196Z" fill="#FDFEFF"/>
<path d="M12.6428 14.9963H14.8813V15.444H12.6428V14.9963Z" fill="#FDFEFF"/>
<path d="M10.7241 15.6358V16.5952C10.7241 16.68 10.7578 16.7614 10.8178 16.8213C10.8777 16.8813 10.9591 16.915 11.0439 16.915H16.4802C16.565 16.915 16.6464 16.8813 16.7064 16.8213C16.7663 16.7614 16.8 16.68 16.8 16.5952V13.3974C16.8 13.3125 16.7663 13.2312 16.7064 13.1712C16.6464 13.1113 16.565 13.0776 16.4802 13.0776H14.2417V12.6075C14.2417 12.5227 14.208 12.4413 14.1481 12.3814C14.0881 12.3214 14.0068 12.2877 13.9219 12.2877C13.8371 12.2877 13.7558 12.3214 13.6958 12.3814C13.6359 12.4413 13.6022 12.5227 13.6022 12.6075V13.0776H12.9626V11.9327C12.4192 11.844 11.8695 11.7991 11.3189 11.7984C10.1046 11.7933 8.90393 12.0541 7.80126 12.5627C7.61978 12.6484 7.46667 12.7843 7.36011 12.9543C7.25355 13.1244 7.19801 13.3214 7.20007 13.5221V15.6358H10.7241ZM16.1604 16.2754H11.3637V13.7171H13.6022V13.8514C13.6022 13.9363 13.6359 14.0176 13.6958 14.0776C13.7558 14.1375 13.8371 14.1712 13.9219 14.1712C14.0068 14.1712 14.0881 14.1375 14.1481 14.0776C14.208 14.0176 14.2417 13.9363 14.2417 13.8514V13.7171H16.1604V16.2754Z" fill="#FDFEFF"/>
</svg>
