<svg width="24" height="24" viewBox="0 0 24 24" fill="none" xmlns="http://www.w3.org/2000/svg">
<circle cx="12" cy="12" r="12" fill="#419958"/>
<path d="M7.87 7.5V16.5H8.62V13.5H16.12V7.5H7.87ZM8.62 8.25H9.745V9.375H10.87V8.25H11.995V9.375H13.12V8.25H14.245V9.375H15.37V10.5H14.245V11.625H15.37V12.75H14.245V11.625H13.12V12.75H11.995V11.625H10.87V12.75H9.745V11.625H8.62V10.5H9.745V9.375H8.62V8.25ZM9.745 10.5V11.625H10.87V10.5H9.745ZM10.87 10.5H11.995V9.375H10.87V10.5ZM11.995 10.5V11.625H13.12V10.5H11.995ZM13.12 10.5H14.245V9.375H13.12V10.5Z" fill="#FDFEFF"/>
</svg>
