<svg width="24" height="24" viewBox="0 0 24 24" fill="none" xmlns="http://www.w3.org/2000/svg">
<circle cx="12" cy="12" r="12" fill="#419958"/>
<path d="M16.0784 7.52C15.6351 7.9442 15.1079 8.27074 14.5307 8.47857C13.922 8.58598 12.2376 7.80481 11.4076 8.60225C11.2693 8.74059 11.0984 8.87892 10.9194 9.01725C10.5288 8.84637 9.92664 8.58598 9.48723 8.33372C9.04782 8.08147 7.94116 7.52 7.94116 7.52L5.5 10.368C5.5 10.368 6.10215 11.1817 6.47646 11.7188C6.72058 12.0768 7.02166 12.622 7.21695 12.9882L6.94029 13.3137C6.87403 13.4453 6.85019 13.5942 6.87205 13.7399C6.89391 13.8857 6.96039 14.021 7.06234 14.1274C7.18002 14.2156 7.32321 14.2632 7.47029 14.2629C7.61737 14.2626 7.76036 14.2145 7.87769 14.1258C7.83419 14.1767 7.80126 14.2358 7.78084 14.2996C7.76041 14.3634 7.7529 14.4306 7.75873 14.4974C7.76456 14.5641 7.78363 14.629 7.81481 14.6883C7.84599 14.7476 7.88867 14.8001 7.94035 14.8427C8.06461 14.9152 8.20597 14.9534 8.34987 14.9531C8.49377 14.9528 8.63498 14.9141 8.75895 14.841C8.66598 14.9569 8.61511 15.1009 8.61466 15.2495C8.61422 15.3981 8.66423 15.5424 8.75651 15.6588C8.87646 15.7004 9.00439 15.7136 9.1303 15.6975C9.25621 15.6814 9.3767 15.6364 9.48235 15.5661C9.42971 15.6907 9.41608 15.8283 9.44325 15.9607C9.47041 16.0932 9.5371 16.2144 9.63451 16.3082C9.77212 16.3693 9.923 16.3945 10.073 16.3814C10.223 16.3684 10.3672 16.3174 10.4922 16.2333L10.9121 15.8533C11.2961 16.2358 11.8259 16.4726 12.4109 16.4726L12.4606 16.4717C12.6534 16.4553 12.8381 16.3867 12.9949 16.2733C13.1517 16.1599 13.2747 16.006 13.3508 15.8281C13.4696 15.8737 13.6047 15.9046 13.7479 15.9046C13.9399 15.9046 14.1181 15.8492 14.2687 15.754C14.7447 15.4391 14.6308 15.195 14.6308 15.195C14.8 15.2679 14.988 15.2852 15.1678 15.2444C15.3475 15.2036 15.5096 15.1068 15.6308 14.968C15.7568 14.8391 15.8362 14.672 15.8566 14.4929C15.8769 14.3139 15.837 14.1331 15.7431 13.9793C15.7483 13.9824 15.7542 13.9838 15.7602 13.9834C16.1028 13.9834 16.4006 13.7946 16.556 13.5163C16.6325 13.3185 16.6583 13.1047 16.6312 12.8944C16.6041 12.6841 16.5248 12.4839 16.4006 12.312L16.403 12.3161C17.0703 12.1859 17.0459 11.8523 17.3714 11.364C17.6796 10.9656 18.063 10.6316 18.5 10.381L16.0784 7.52ZM16.0377 13.2649C15.6796 13.6229 15.403 13.4683 14.7927 13.0045C14.1824 12.5407 12.97 11.67 12.97 11.67C13.0196 11.9182 13.1343 12.1338 13.2963 12.3055C13.5558 12.5976 14.3289 13.2649 14.695 13.6066C14.9229 13.8182 15.5088 14.2413 15.167 14.5668C14.8252 14.8923 14.5567 14.5668 13.9952 14.1111C13.4338 13.6555 12.1806 12.5325 12.1806 12.5325C12.1737 12.6402 12.1898 12.748 12.2276 12.849C12.2655 12.95 12.3244 13.0418 12.4004 13.1184C12.5387 13.2811 13.3117 14.0298 13.6372 14.3715C13.9627 14.7133 14.2475 14.9167 13.9708 15.1853C13.6942 15.4538 13.1327 15.0306 12.8235 14.7133C12.3434 14.2495 11.3913 13.3869 11.3913 13.3869L11.3905 13.4301C11.3905 13.6612 11.4703 13.8727 11.6045 14.0403C11.8389 14.3479 12.2946 14.7467 12.5712 15.0559C12.8479 15.3651 13.0106 15.6255 12.5712 15.8696C12.1318 16.1137 11.4808 15.5116 11.196 15.2186V15.217C11.1961 15.1366 11.1672 15.0589 11.1147 14.9981C11.0173 14.9079 10.8972 14.846 10.7673 14.8191C10.6374 14.7921 10.5026 14.8011 10.3774 14.8451C10.4289 14.799 10.4702 14.7426 10.4986 14.6796C10.5271 14.6166 10.542 14.5483 10.5424 14.4792C10.5429 14.4101 10.5289 14.3416 10.5013 14.2782C10.4737 14.2149 10.4332 14.1579 10.3823 14.1111C10.2755 14.0302 10.1451 13.9865 10.0111 13.9866C9.87712 13.9868 9.74685 14.0308 9.64021 14.112C9.69413 14.0605 9.73575 13.9975 9.76199 13.9277C9.78822 13.8579 9.7984 13.7831 9.79175 13.7088C9.78511 13.6345 9.76181 13.5627 9.7236 13.4987C9.6854 13.4346 9.63325 13.38 9.57104 13.3389C9.42537 13.2474 9.25444 13.2044 9.0828 13.2161C8.91116 13.2278 8.74764 13.2936 8.61574 13.404C8.7039 13.2972 8.74736 13.1604 8.73705 13.0222C8.72674 12.8841 8.66345 12.7553 8.5604 12.6627C8.43234 12.5435 8.26913 12.469 8.09518 12.4502C7.92124 12.4314 7.74588 12.4694 7.59533 12.5586L7.05421 11.6448C6.67989 11.0507 6.24049 10.4323 6.24049 10.4323L8.09577 8.1783C8.09577 8.1783 8.75488 8.58516 9.30008 8.89438C9.5686 9.04899 10.0324 9.25242 10.3823 9.41516C9.82899 9.83016 9.36517 10.2289 9.50351 10.5055C9.75002 10.6825 10.0446 10.7801 10.348 10.7854C10.6515 10.7906 10.9493 10.7032 11.2017 10.5348C11.5255 10.3196 11.9058 10.2055 12.2946 10.2069C12.5769 10.2069 12.8455 10.2655 13.0888 10.3721C13.5396 10.6764 14.3696 11.425 15.1263 11.897C16.0784 12.5887 16.2655 13.0362 16.0377 13.2641V13.2649Z" fill="#FDFEFF"/>
</svg>
