<svg width="24" height="24" viewBox="0 0 24 24" fill="none" xmlns="http://www.w3.org/2000/svg">
<circle cx="12" cy="12" r="12" fill="#419958"/>
<path d="M12.525 9.9C12.525 10.457 12.3037 10.9911 11.9099 11.3849C11.5161 11.7788 10.9819 12 10.425 12C9.86802 12 9.33388 11.7788 8.94005 11.3849C8.54622 10.9911 8.32498 10.457 8.32498 9.9C8.32498 9.34305 8.54622 8.80891 8.94005 8.41508C9.33388 8.02125 9.86802 7.8 10.425 7.8C10.9819 7.8 11.5161 8.02125 11.9099 8.41508C12.3037 8.80891 12.525 9.34305 12.525 9.9ZM14.625 15.15V16.2H6.22498V15.15C6.22498 13.9898 8.10448 13.05 10.425 13.05C12.7455 13.05 14.625 13.9898 14.625 15.15ZM16.4625 13.3125V14.1H15.675V13.3125H16.4625ZM15.4125 10.6875H14.625V10.425C14.625 10.0073 14.7909 9.60668 15.0863 9.31131C15.3817 9.01594 15.7823 8.85 16.2 8.85C16.6177 8.85 17.0183 9.01594 17.3137 9.31131C17.609 9.60668 17.775 10.0073 17.775 10.425C17.775 10.9343 17.5125 11.412 17.0977 11.6903L16.9402 11.79C16.641 12 16.4625 12.3203 16.4625 12.6825V12.7875H15.675V12.6825C15.675 12.0578 15.99 11.475 16.5097 11.1338L16.662 11.034C16.8667 10.8975 16.9875 10.6718 16.9875 10.425C16.9875 10.2161 16.9045 10.0158 16.7568 9.86816C16.6091 9.72047 16.4088 9.6375 16.2 9.6375C15.9911 9.6375 15.7908 9.72047 15.6431 9.86816C15.4954 10.0158 15.4125 10.2161 15.4125 10.425V10.6875Z" fill="#FDFEFF"/>
</svg>
