<svg width="24" height="24" viewBox="0 0 24 24" fill="none" xmlns="http://www.w3.org/2000/svg">
<circle cx="12" cy="12" r="12" fill="#419958"/>
<path d="M7.59001 11.19C8.28498 11.19 8.85001 10.625 8.85001 9.93C8.85001 9.23504 8.28498 8.67 7.59001 8.67C6.89504 8.67 6.33001 9.23504 6.33001 9.93C6.33001 10.625 6.89504 11.19 7.59001 11.19ZM16.41 11.19C17.105 11.19 17.67 10.625 17.67 9.93C17.67 9.23504 17.105 8.67 16.41 8.67C15.715 8.67 15.15 9.23504 15.15 9.93C15.15 10.625 15.715 11.19 16.41 11.19ZM17.04 11.82H15.78C15.4335 11.82 15.1205 11.9598 14.8921 12.1862C15.6855 12.6213 16.2486 13.4068 16.3706 14.34H17.67C18.0185 14.34 18.3 14.0585 18.3 13.71V13.08C18.3 12.385 17.735 11.82 17.04 11.82ZM12 11.82C13.2187 11.82 14.205 10.8337 14.205 9.615C14.205 8.39635 13.2187 7.41 12 7.41C10.7814 7.41 9.79501 8.39635 9.79501 9.615C9.79501 10.8337 10.7814 11.82 12 11.82ZM13.512 12.45H13.3486C12.9391 12.6469 12.4843 12.765 12 12.765C11.5157 12.765 11.0629 12.6469 10.6514 12.45H10.488C9.23589 12.45 8.22001 13.4659 8.22001 14.718V15.285C8.22001 15.8067 8.64329 16.23 9.16501 16.23H14.835C15.3567 16.23 15.78 15.8067 15.78 15.285V14.718C15.78 13.4659 14.7641 12.45 13.512 12.45ZM9.10792 12.1862C8.87954 11.9598 8.56651 11.82 8.22001 11.82H6.96001C6.26504 11.82 5.70001 12.385 5.70001 13.08V13.71C5.70001 14.0585 5.98154 14.34 6.33001 14.34H7.62742C7.75145 13.4068 8.31451 12.6213 9.10792 12.1862Z" fill="#FDFEFF"/>
</svg>
