<svg width="40" height="40" viewBox="0 0 40 40" fill="none" xmlns="http://www.w3.org/2000/svg">
<circle cx="20" cy="20" r="20" fill="#F7B6B6"/>
<path d="M19.9955 22.1C21.7561 22.1 23.183 20.69 23.183 18.95V14.75C23.183 13.01 21.7561 11.6 19.9955 11.6C18.2349 11.6 16.808 13.01 16.808 14.75V18.95C16.808 20.69 18.2349 22.1 19.9955 22.1ZM26.183 18.9125C26.183 18.83 26.1155 18.7625 26.033 18.7625H24.908C24.8255 18.7625 24.758 18.83 24.758 18.9125C24.758 21.5431 22.6261 23.675 19.9955 23.675C17.3649 23.675 15.233 21.5431 15.233 18.9125C15.233 18.83 15.1655 18.7625 15.083 18.7625H13.958C13.8755 18.7625 13.808 18.83 13.808 18.9125C13.808 22.0756 16.1817 24.6856 19.2455 25.055V26.975H16.5211C16.2642 26.975 16.058 27.2431 16.058 27.575V28.25C16.058 28.3325 16.1105 28.4 16.1742 28.4H23.8167C23.8805 28.4 23.933 28.3325 23.933 28.25V27.575C23.933 27.2431 23.7267 26.975 23.4699 26.975H20.6705V25.0644C23.7699 24.7269 26.183 22.1019 26.183 18.9125Z" fill="#FDFEFF"/>
</svg>
