<svg width="15" height="15" viewBox="0 0 15 15" fill="none" xmlns="http://www.w3.org/2000/svg">
<path d="M11.5 7.00098C11.3674 7.00098 11.2402 7.05366 11.1464 7.14742C11.0527 7.24119 11 7.36837 11 7.50098V10.501C11 10.6336 10.9473 10.7608 10.8536 10.8545C10.7598 10.9483 10.6326 11.001 10.5 11.001H4.5C4.36739 11.001 4.24021 10.9483 4.14645 10.8545C4.05268 10.7608 4 10.6336 4 10.501V4.50098C4 4.36837 4.05268 4.24119 4.14645 4.14742C4.24021 4.05366 4.36739 4.00098 4.5 4.00098H7.5C7.63261 4.00098 7.75979 3.9483 7.85355 3.85453C7.94732 3.76076 8 3.63358 8 3.50098C8 3.36837 7.94732 3.24119 7.85355 3.14742C7.75979 3.05365 7.63261 3.00098 7.5 3.00098H4.5C4.10218 3.00098 3.72064 3.15901 3.43934 3.44032C3.15804 3.72162 3 4.10315 3 4.50098V10.501C3 10.8988 3.15804 11.2803 3.43934 11.5616C3.72064 11.8429 4.10218 12.001 4.5 12.001H10.5C10.8978 12.001 11.2794 11.8429 11.5607 11.5616C11.842 11.2803 12 10.8988 12 10.501V7.50098C12 7.36837 11.9473 7.24119 11.8536 7.14742C11.7598 7.05366 11.6326 7.00098 11.5 7.00098Z" fill="#419958"/>
<path d="M9.50095 4.00098H10.2909L7.14595 7.14098C7.09908 7.18746 7.06188 7.24276 7.0365 7.30369C7.01112 7.36462 6.99805 7.42997 6.99805 7.49598C6.99805 7.56198 7.01112 7.62734 7.0365 7.68827C7.06188 7.7492 7.09908 7.8045 7.14595 7.85098C7.19243 7.89784 7.24773 7.93504 7.30866 7.96042C7.36959 7.98581 7.43494 7.99888 7.50095 7.99888C7.56695 7.99888 7.6323 7.98581 7.69323 7.96042C7.75416 7.93504 7.80946 7.89784 7.85595 7.85098L11.0009 4.71098V5.50098C11.0009 5.63359 11.0536 5.76076 11.1474 5.85453C11.2412 5.9483 11.3683 6.00098 11.5009 6.00098C11.6336 6.00098 11.7607 5.9483 11.8545 5.85453C11.9483 5.76076 12.0009 5.63359 12.0009 5.50098V3.50098C12.0009 3.36837 11.9483 3.24119 11.8545 3.14742C11.7607 3.05365 11.6336 3.00098 11.5009 3.00098H9.50095C9.36834 3.00098 9.24116 3.05365 9.14739 3.14742C9.05362 3.24119 9.00095 3.36837 9.00095 3.50098C9.00095 3.63358 9.05362 3.76076 9.14739 3.85453C9.24116 3.9483 9.36834 4.00098 9.50095 4.00098Z" fill="#419958"/>
</svg>
