<svg width="40" height="40" viewBox="0 0 24 24" fill="none" xmlns="http://www.w3.org/2000/svg">
<circle cx="12" cy="12" r="12" fill="#69C1D5"/>
<path d="M7.79961 17.3996H16.1996C16.5179 17.3996 16.8231 17.2732 17.0481 17.0481C17.2732 16.8231 17.3996 16.5179 17.3996 16.1996V7.79961C17.3996 7.48135 17.2732 7.17612 17.0481 6.95108C16.8231 6.72604 16.5179 6.59961 16.1996 6.59961H7.79961C7.48135 6.59961 7.17612 6.72604 6.95108 6.95108C6.72604 7.17612 6.59961 7.48135 6.59961 7.79961V16.1996C6.59961 16.5179 6.72604 16.8231 6.95108 17.0481C7.17612 17.2732 7.48135 17.3996 7.79961 17.3996ZM9.59961 13.1996L11.0174 14.6174L13.1996 11.3996L16.1996 15.5996H7.79961L9.59961 13.1996Z" fill="#FDFEFF"/>
</svg>
