<svg width="40" height="40" viewBox="0 0 40 40" fill="none" xmlns="http://www.w3.org/2000/svg">
<circle cx="20" cy="20" r="20" fill="#0047A3"/>
<path d="M12.424 27.576C12.8758 28.0284 13.4126 28.3872 14.0035 28.6315C14.5944 28.8759 15.2277 29.0011 15.8672 29C16.5067 29.0011 17.1402 28.8759 17.7313 28.6315C18.3223 28.3871 18.8593 28.0284 19.3113 27.576L22.0659 24.8204L20.6886 23.4432L17.9341 26.1987C17.3852 26.7451 16.6422 27.0519 15.8677 27.0519C15.0931 27.0519 14.3502 26.7451 13.8013 26.1987C13.2543 25.65 12.9472 24.907 12.9472 24.1323C12.9472 23.3576 13.2543 22.6145 13.8013 22.0659L16.5568 19.3113L15.1795 17.9341L12.424 20.6886C11.5121 21.6027 11 22.8411 11 24.1323C11 25.4234 11.5121 26.6619 12.424 27.576ZM27.576 19.3113C28.4874 18.397 28.9991 17.1587 28.9991 15.8677C28.9991 14.5767 28.4874 13.3383 27.576 12.424C26.6619 11.5121 25.4234 11 24.1323 11C22.8411 11 21.6027 11.5121 20.6886 12.424L17.9341 15.1795L19.3113 16.5568L22.0659 13.8013C22.6148 13.2548 23.3578 12.948 24.1323 12.948C24.9068 12.948 25.6498 13.2548 26.1987 13.8013C26.7456 14.3499 27.0527 15.093 27.0527 15.8677C27.0527 16.6423 26.7456 17.3854 26.1987 17.9341L23.4432 20.6886L24.8204 22.0659L27.576 19.3113Z" fill="#FDFEFF"/>
<path d="M16.5558 24.8214L15.1776 23.4441L23.4441 15.1785L24.8214 16.5568L16.5558 24.8214Z" fill="#FDFEFF"/>
</svg>
