<svg width="40" height="40" viewBox="0 0 40 40" fill="none" xmlns="http://www.w3.org/2000/svg">
<circle cx="20" cy="20" r="20" fill="#9167F4"/>
<path d="M12.8 14.6C12.8 14.3613 12.8949 14.1324 13.0637 13.9636C13.2324 13.7948 13.4614 13.7 13.7 13.7H15.5C15.7387 13.7 15.9677 13.7948 16.1364 13.9636C16.3052 14.1324 16.4 14.3613 16.4 14.6V25.4C16.4 25.6387 16.3052 25.8676 16.1364 26.0364C15.9677 26.2052 15.7387 26.3 15.5 26.3H13.7C13.4614 26.3 13.2324 26.2052 13.0637 26.0364C12.8949 25.8676 12.8 25.6387 12.8 25.4V14.6Z" fill="#FDFEFF"/>
<path d="M18.2001 14.6C18.2001 14.3613 18.2949 14.1324 18.4637 13.9636C18.6325 13.7948 18.8614 13.7 19.1001 13.7H20.9001C21.1388 13.7 21.3677 13.7948 21.5365 13.9636C21.7053 14.1324 21.8001 14.3613 21.8001 14.6V25.4C21.8001 25.6387 21.7053 25.8676 21.5365 26.0364C21.3677 26.2052 21.1388 26.3 20.9001 26.3H19.1001C18.8614 26.3 18.6325 26.2052 18.4637 26.0364C18.2949 25.8676 18.2001 25.6387 18.2001 25.4V14.6Z" fill="#FDFEFF"/>
<path d="M24.5001 13.7C24.2614 13.7 24.0325 13.7948 23.8637 13.9636C23.6949 14.1324 23.6001 14.3613 23.6001 14.6V25.4C23.6001 25.6387 23.6949 25.8676 23.8637 26.0364C24.0325 26.2052 24.2614 26.3 24.5001 26.3H26.3001C26.5388 26.3 26.7677 26.2052 26.9365 26.0364C27.1053 25.8676 27.2001 25.6387 27.2001 25.4V14.6C27.2001 14.3613 27.1053 14.1324 26.9365 13.9636C26.7677 13.7948 26.5388 13.7 26.3001 13.7H24.5001Z" fill="#FDFEFF"/>
</svg>
