<svg width="40" height="40" viewBox="0 0 40 40" fill="none" xmlns="http://www.w3.org/2000/svg">
<circle cx="20" cy="20" r="20" fill="#2684FF"/>
<path d="M15.5592 26.1853C15.4587 26.2727 15.3353 26.3296 15.2036 26.3493C15.0719 26.3691 14.9373 26.3508 14.8156 26.2967C14.6939 26.2426 14.5901 26.155 14.5165 26.044C14.4429 25.933 14.4025 25.8033 14.4 25.6701V24.1C14.0287 24.1 13.6726 23.9525 13.4101 23.6899C13.1475 23.4274 13 23.0713 13 22.7V17.8C13 17.4287 13.1475 17.0726 13.4101 16.8101C13.6726 16.5475 14.0287 16.4 14.4 16.4H22.1C22.4713 16.4 22.8274 16.5475 23.0899 16.8101C23.3525 17.0726 23.5 17.4287 23.5 17.8V22.7C23.5 23.0713 23.3525 23.4274 23.0899 23.6899C22.8274 23.9525 22.4713 24.1 22.1 24.1H18.6021L15.5592 26.1853ZM24.2 20.6119C24.1978 20.698 24.1978 20.7841 24.2 20.8702V20.6112C24.2035 20.5363 24.2042 19.5983 24.2028 17.7979C24.2022 17.2413 23.9807 16.7077 23.587 16.3143C23.1932 15.921 22.6594 15.7 22.1028 15.7H16.5V15C16.5 14.6287 16.6475 14.2726 16.9101 14.0101C17.1726 13.7475 17.5287 13.6 17.9 13.6H25.6C25.9713 13.6 26.3274 13.7475 26.5899 14.0101C26.8525 14.2726 27 14.6287 27 15V19.9C27 20.2713 26.8525 20.6274 26.5899 20.89C26.3274 21.1525 25.9713 21.3 25.6 21.3V22.8701C25.5975 23.0033 25.5571 23.133 25.4835 23.244C25.4099 23.355 25.3061 23.4426 25.1844 23.4967C25.0627 23.5508 24.9281 23.5691 24.7964 23.5493C24.6647 23.5296 24.5413 23.4727 24.4408 23.3853L24.2 23.2201V20.6119Z" fill="#FDFEFF"/>
</svg>
