<svg width="40" height="40" viewBox="0 0 40 40" fill="none" xmlns="http://www.w3.org/2000/svg">
<circle cx="20" cy="20" r="20" fill="#23804D"/>
<path d="M26.375 19.5H22C21.6022 19.5 21.2206 19.342 20.9393 19.0607C20.658 18.7794 20.5 18.3978 20.5 18V13.625C20.5 13.5918 20.4868 13.5601 20.4634 13.5366C20.4399 13.5132 20.4082 13.5 20.375 13.5H18.7109C18.6526 13.3919 18.5846 13.2893 18.5078 13.1934C18.1475 12.7462 17.6122 12.5 17 12.5C15.8225 12.5 15 13.4253 15 14.75V19.25C15 20.0312 15.6356 20.5 16.25 20.5C16.4147 20.5018 16.578 20.4707 16.7305 20.4085C16.8829 20.3463 17.0215 20.2543 17.1379 20.1379C17.2543 20.0215 17.3463 19.8829 17.4085 19.7305C17.4707 19.578 17.5018 19.4147 17.5 19.25V14.5C17.5 14.3674 17.4473 14.2402 17.3536 14.1464C17.2598 14.0527 17.1326 14 17 14C16.8674 14 16.7402 14.0527 16.6464 14.1464C16.5527 14.2402 16.5 14.3674 16.5 14.5V19.25C16.5011 19.2831 16.4954 19.3161 16.4832 19.3469C16.471 19.3778 16.4526 19.4058 16.4292 19.4292C16.4058 19.4526 16.3778 19.471 16.3469 19.4832C16.3161 19.4954 16.2831 19.5011 16.25 19.5C16.1803 19.5 16 19.455 16 19.25V14.75C16 14.1456 16.2628 13.5 17 13.5C17.9278 13.5 18 14.4422 18 14.7306V19.0666C18 19.6119 17.8291 20.105 17.5184 20.4559C17.2031 20.8125 16.7647 21 16.25 21C15.7353 21 15.2969 20.8125 14.9816 20.4559C14.6709 20.105 14.5 19.6119 14.5 19.0666V16.5C14.5 16.3674 14.4473 16.2402 14.3536 16.1464C14.2598 16.0527 14.1326 16 14 16C13.8674 16 13.7402 16.0527 13.6464 16.1464C13.5527 16.2402 13.5 16.3674 13.5 16.5V19.0666C13.5 20.6763 14.5372 21.8675 16 21.9894V25.5C16 26.0304 16.2107 26.5391 16.5858 26.9142C16.9609 27.2893 17.4696 27.5 18 27.5H24.5C25.0304 27.5 25.5391 27.2893 25.9142 26.9142C26.2893 26.5391 26.5 26.0304 26.5 25.5V19.625C26.5 19.5918 26.4868 19.5601 26.4634 19.5366C26.4399 19.5132 26.4082 19.5 26.375 19.5Z" fill="#FDFEFF"/>
<path d="M22 18.5H26.0566C26.0689 18.4999 26.0809 18.4963 26.0911 18.4894C26.1014 18.4825 26.1093 18.4728 26.1141 18.4614C26.1188 18.45 26.12 18.4375 26.1176 18.4254C26.1152 18.4133 26.1093 18.4022 26.1006 18.3934L21.6066 13.8994C21.5978 13.8907 21.5867 13.8848 21.5746 13.8824C21.5625 13.88 21.55 13.8812 21.5386 13.8859C21.5272 13.8907 21.5175 13.8986 21.5106 13.9089C21.5037 13.9191 21.5001 13.9311 21.5 13.9434V18C21.5 18.1326 21.5527 18.2598 21.6464 18.3536C21.7402 18.4473 21.8674 18.5 22 18.5Z" fill="#FDFEFF"/>
</svg>
