<svg width="40" height="40" viewBox="0 0 40 40" fill="none" xmlns="http://www.w3.org/2000/svg">
<circle cx="20" cy="20" r="20" fill="#ED6060"/>
<path d="M27.2683 17.8936L20.3291 12.6128C20.2335 12.5395 20.1181 12.5 19.9996 12.5C19.8812 12.5 19.7658 12.5395 19.6702 12.6128L12.7309 17.8936C12.6351 17.9665 12.5638 18.0693 12.5273 18.1873C12.4908 18.3052 12.4909 18.4322 12.5277 18.5501L15.179 27.0948C15.2156 27.2125 15.2868 27.3151 15.3825 27.3878C15.4781 27.4606 15.5934 27.4999 15.7117 27.5H24.2894C24.5329 27.5 24.7467 27.3368 24.8221 27.0948L27.4734 18.5501C27.547 18.308 27.4646 18.044 27.2683 17.8936ZM25.7228 18.2585L23.9967 18.8453L20.492 16.192V14.2777L25.7228 18.2585ZM19.1936 21.0126L17.6322 23.2551L16.6649 20.1526L19.1936 21.0126ZM17.1556 19.2377L19.509 17.4572V20.039L17.1556 19.2377ZM19.9996 21.5994L21.6451 23.9629H18.3542L19.9996 21.5994ZM20.492 17.4572L22.8437 19.2377L20.492 20.0371V17.4572ZM20.8057 21.0126L23.3343 20.1526L22.3671 23.2551L20.8057 21.0126ZM19.509 14.2777V16.192L16.0026 18.8453L14.2765 18.2585L19.509 14.2777ZM13.9944 19.245L15.5101 19.7603L16.919 24.2783L15.9763 25.6334L13.9944 19.245ZM16.7596 26.2531L17.641 24.9879H22.36L23.2415 26.2531H16.7596ZM24.023 25.6334L23.0803 24.2783L24.4891 19.7603L26.0049 19.245L24.023 25.6334Z" fill="#FDFEFF"/>
</svg>
