<svg width="40" height="40" viewBox="0 0 40 40" fill="none" xmlns="http://www.w3.org/2000/svg">
<circle cx="20" cy="20" r="20" fill="#69C1D5"/>
<path d="M26.4 13.6H13.6C12.7176 13.6 12 14.3176 12 15.2V24.8C12 25.6824 12.7176 26.4 13.6 26.4H26.4C27.2824 26.4 28 25.6824 28 24.8V15.2C28 14.3176 27.2824 13.6 26.4 13.6ZM17.372 16.8C18.2928 16.8 18.972 17.4792 18.972 18.4C18.972 19.3208 18.2928 20 17.372 20C16.4512 20 15.772 19.3208 15.772 18.4C15.772 17.4792 16.4504 16.8 17.372 16.8ZM20.344 23.2H14.4V22.828C14.4 21.7296 15.7408 20.6 17.372 20.6C19.0032 20.6 20.344 21.7296 20.344 22.828V23.2ZM25.6 22.4H22.4V20.8H25.6V22.4ZM25.6 19.2H21.6V17.6H25.6V19.2Z" fill="#FDFEFF"/>
</svg>
