<svg width="40" height="40" viewBox="0 0 40 40" fill="none" xmlns="http://www.w3.org/2000/svg">
<circle cx="20" cy="20" r="20" fill="#69C1D5"/>
<path fill-rule="evenodd" clip-rule="evenodd" d="M19.9929 21.5241H20.5344L24.4357 17.6227L23.3757 16.5637L20.7412 19.1713V13H19.2446V19.1713L16.61 16.5637L15.55 17.6227L19.4514 21.5241H19.9929ZM21.947 25.0019C21.947 25.5318 21.7365 26.04 21.3618 26.4148C20.9871 26.7895 20.4788 27 19.9489 27C19.419 27 18.9107 26.7895 18.536 26.4148C18.1613 26.04 17.9508 25.5318 17.9508 25.0019C17.9508 24.4719 18.1613 23.9637 18.536 23.589C18.9107 23.2142 19.419 23.0037 19.9489 23.0037C20.4788 23.0037 20.9871 23.2142 21.3618 23.589C21.7365 23.9637 21.947 24.4719 21.947 25.0019Z" fill="#FDFEFF"/>
</svg>
