<svg width="40" height="40" viewBox="0 0 40 40" fill="none" xmlns="http://www.w3.org/2000/svg">
<circle cx="20" cy="20" r="20" fill="#419958"/>
<path d="M29.596 20.2996C29.5736 19.0491 29.3045 17.8153 28.8041 16.6691C28.3036 15.5228 27.5817 14.4868 26.6797 13.6203C25.3514 12.3367 23.6719 11.4763 21.8541 11.1483C20.0363 10.8202 18.162 11.0393 16.4688 11.7777C15.3616 12.2635 14.3599 12.9677 13.531 13.8314C12.7021 14.6951 12.0471 15.7196 11.6152 16.8268C10.7496 19.0509 10.7991 21.5272 11.7532 23.7149C12.2234 24.7849 12.906 25.7542 13.7421 26.5555C14.5782 27.3568 15.5691 27.989 16.6403 28.4065C17.7099 28.8221 18.8508 29.0231 19.998 28.9979C21.6961 28.965 23.3463 28.4292 24.7398 27.4583C26.1333 26.4873 27.2075 25.1249 27.8266 23.5433C28.07 22.9171 28.2371 22.2638 28.3244 21.5976L28.3952 21.6C28.561 21.5999 28.7251 21.5654 28.8769 21.4987C29.0288 21.432 29.1652 21.3345 29.2775 21.2124C29.3897 21.0903 29.4755 20.9463 29.5293 20.7894C29.5831 20.6325 29.6037 20.4661 29.59 20.3008H29.5948L29.596 20.2996ZM27.6898 23.4846C27.2495 24.4814 26.6126 25.3847 25.8304 26.1309C25.0483 26.877 24.1246 27.4648 23.1265 27.8511C22.1298 28.2371 21.0665 28.4221 19.998 28.3957C18.9443 28.3729 17.9055 28.1424 16.941 27.7173C15.9766 27.2922 15.1056 26.6809 14.3779 25.9185C13.6603 25.1668 13.0977 24.281 12.7224 23.3118C11.9769 21.3821 12.0269 19.2355 12.8616 17.3426C13.2719 16.4189 13.8645 15.5816 14.5902 14.8907C15.316 14.1997 16.1749 13.6563 17.0998 13.3C18.0247 12.9425 19.0143 12.7746 19.998 12.801C20.9817 12.8273 21.9521 13.0433 22.8386 13.4391C23.7263 13.8338 24.5301 14.4048 25.1934 15.103C25.8568 15.8011 26.3786 16.6265 26.7193 17.5154C27.0596 18.4027 27.2215 19.3484 27.1956 20.2984H27.2004C27.1744 20.6102 27.2713 20.9197 27.4703 21.161C27.6693 21.4024 27.9547 21.5564 28.2656 21.5904C28.15 22.2423 27.9562 22.8778 27.6886 23.4834L27.6898 23.4846Z" fill="#FDFEFF"/>
</svg>
