<svg width="40" height="40" viewBox="0 0 40 40" fill="none" xmlns="http://www.w3.org/2000/svg">
<circle cx="20" cy="20" r="20" fill="#23804D"/>
<path d="M20 9C17.8244 9 15.6977 9.64514 13.8887 10.8538C12.0798 12.0625 10.6699 13.7805 9.83733 15.7905C9.00477 17.8005 8.78693 20.0122 9.21137 22.146C9.6358 24.2798 10.6835 26.2398 12.2218 27.7782C13.7602 29.3165 15.7202 30.3642 17.854 30.7886C19.9878 31.2131 22.1995 30.9952 24.2095 30.1627C26.2195 29.3301 27.9375 27.9202 29.1462 26.1113C30.3549 24.3023 31 22.1756 31 20C31 17.0826 29.8411 14.2847 27.7782 12.2218C25.7153 10.1589 22.9174 9 20 9ZM20 29.625C18.0964 29.625 16.2355 29.0605 14.6526 28.0029C13.0698 26.9453 11.8362 25.4421 11.1077 23.6833C10.3792 21.9246 10.1886 19.9893 10.5599 18.1223C10.9313 16.2552 11.848 14.5402 13.1941 13.1941C14.5402 11.848 16.2552 10.9313 18.1223 10.5599C19.9893 10.1886 21.9246 10.3792 23.6833 11.1077C25.4421 11.8362 26.9453 13.0698 28.0029 14.6526C29.0605 16.2355 29.625 18.0964 29.625 20C29.625 22.5527 28.6109 25.0009 26.8059 26.8059C25.0009 28.6109 22.5527 29.625 20 29.625Z" fill="#FDFEFF"/>
<path d="M15.1118 18.5493C15.8712 18.5493 16.4868 17.9337 16.4868 17.1743C16.4868 16.4149 15.8712 15.7993 15.1118 15.7993C14.3524 15.7993 13.7368 16.4149 13.7368 17.1743C13.7368 17.9337 14.3524 18.5493 15.1118 18.5493Z" fill="#FDFEFF"/>
<path d="M24.8469 18.5493C25.6063 18.5493 26.2219 17.9337 26.2219 17.1743C26.2219 16.4149 25.6063 15.7993 24.8469 15.7993C24.0875 15.7993 23.4719 16.4149 23.4719 17.1743C23.4719 17.9337 24.0875 18.5493 24.8469 18.5493Z" fill="#FDFEFF"/>
<path d="M20.0894 27.0194C21.3506 27.0211 22.5799 26.6226 23.6003 25.8814C24.6207 25.1401 25.3797 24.0943 25.7681 22.8944H14.4106C14.799 24.0943 15.5581 25.1401 16.5785 25.8814C17.5989 26.6226 18.8282 27.0211 20.0894 27.0194Z" fill="#FDFEFF"/>
</svg>
