<svg width="40" height="40" viewBox="0 0 40 40" fill="none" xmlns="http://www.w3.org/2000/svg">
<circle cx="20" cy="20" r="20" fill="#FF6D70"/>
<path d="M20 9C17.8244 9 15.6977 9.64514 13.8887 10.8538C12.0798 12.0625 10.6699 13.7805 9.83733 15.7905C9.00477 17.8005 8.78693 20.0122 9.21137 22.146C9.6358 24.2798 10.6835 26.2398 12.2218 27.7782C13.7602 29.3165 15.7202 30.3642 17.854 30.7886C19.9878 31.2131 22.1995 30.9952 24.2095 30.1627C26.2195 29.3301 27.9375 27.9202 29.1462 26.1113C30.3549 24.3023 31 22.1756 31 20C31 17.0826 29.8411 14.2847 27.7782 12.2218C25.7153 10.1589 22.9174 9 20 9ZM20 29.625C18.0964 29.625 16.2355 29.0605 14.6526 28.0029C13.0698 26.9453 11.8362 25.4421 11.1077 23.6833C10.3792 21.9246 10.1886 19.9893 10.5599 18.1223C10.9313 16.2552 11.848 14.5402 13.1941 13.1941C14.5402 11.848 16.2552 10.9313 18.1223 10.5599C19.9893 10.1886 21.9246 10.3792 23.6833 11.1077C25.4421 11.8362 26.9453 13.0698 28.0029 14.6526C29.0605 16.2355 29.625 18.0964 29.625 20C29.625 22.5527 28.6109 25.0009 26.8059 26.8059C25.0009 28.6109 22.5527 29.625 20 29.625Z" fill="#FDFEFF"/>
<path d="M24.9224 18.68C25.6059 18.68 26.1599 18.1259 26.1599 17.4425C26.1599 16.759 25.6059 16.205 24.9224 16.205C24.239 16.205 23.6849 16.759 23.6849 17.4425C23.6849 18.1259 24.239 18.68 24.9224 18.68Z" fill="#FDFEFF"/>
<path d="M15.4693 18.68C16.1528 18.68 16.7068 18.1259 16.7068 17.4425C16.7068 16.759 16.1528 16.205 15.4693 16.205C14.7859 16.205 14.2318 16.759 14.2318 17.4425C14.2318 18.1259 14.7859 18.68 15.4693 18.68Z" fill="#FDFEFF"/>
<path d="M20.11 21.375C19.1237 21.3752 18.1517 21.6111 17.2751 22.0632C16.3985 22.5152 15.6427 23.1703 15.0706 23.9737C14.9649 24.1224 14.9225 24.3069 14.9528 24.4867C14.9831 24.6666 15.0836 24.8271 15.2322 24.9328C15.3808 25.0386 15.5653 25.081 15.7452 25.0507C15.9251 25.0204 16.0855 24.9199 16.1913 24.7712C16.6309 24.1538 17.2101 23.6489 17.8817 23.2977C18.5534 22.9465 19.2985 22.7589 20.0564 22.7502C20.8142 22.7415 21.5635 22.9119 22.243 23.2476C22.9226 23.5833 23.5132 24.0747 23.9669 24.6819C24.0763 24.8277 24.2392 24.9242 24.4197 24.95C24.6002 24.9758 24.7835 24.9288 24.9294 24.8194C25.0753 24.71 25.1717 24.5471 25.1975 24.3666C25.2233 24.1861 25.1763 24.0027 25.0669 23.8569C24.4906 23.0862 23.7424 22.4606 22.8819 22.0298C22.0215 21.5989 21.0723 21.3747 20.11 21.375Z" fill="#FDFEFF"/>
</svg>
