<svg width="12" height="12" viewBox="0 0 12 12" fill="none" xmlns="http://www.w3.org/2000/svg">
<path d="M10.5343 0.199219V3.54047C9.99434 3.11156 9.31091 2.85534 8.56784 2.85534C7.51681 2.85534 6.58559 3.36806 6.01016 4.15669C5.61498 4.69749 5.40248 5.35017 5.4035 6.01997C5.4035 6.02363 5.40209 6.02137 5.39928 6.01575C5.39759 7.10053 4.51784 7.97944 3.43278 7.97944C2.34912 7.97944 1.4705 7.10306 1.46628 6.02025V6.00534C1.47022 4.92253 2.34941 4.04616 3.43278 4.04616C4.16966 4.04616 4.81203 4.452 5.14841 5.05219C5.18834 4.91719 5.28144 4.62694 5.41194 4.37156C5.52528 4.14994 5.67125 3.95812 5.75141 3.85969C5.45559 3.54021 5.09686 3.2854 4.69778 3.11129C4.2987 2.93719 3.8679 2.84756 3.4325 2.84803C1.70562 2.84803 0.301625 4.23178 0.268437 5.95106H0.265625V11.8326H1.46572V8.49187C2.00572 8.92078 2.68916 9.177 3.43166 9.177C4.48719 9.177 5.42178 8.66006 5.99666 7.86581C6.37184 7.34944 6.59178 6.71269 6.59178 6.02475C6.59178 6.01912 6.59516 6.02587 6.60078 6.04106C6.60078 6.03375 6.60022 6.027 6.60022 6.01941C6.60022 4.93322 7.48053 4.05291 8.56672 4.05291C9.65009 4.05291 10.5287 4.929 10.5332 6.01125V6.02756C10.5287 7.10981 9.65009 7.98591 8.56672 7.98591C7.82928 7.98591 7.18691 7.57978 6.85025 6.97903C6.81256 7.10784 6.71806 7.40878 6.58306 7.67287C6.47338 7.88803 6.33275 8.07506 6.25119 8.17547C6.54692 8.49401 6.90528 8.74801 7.30378 8.92157C7.70228 9.09512 8.13234 9.18447 8.567 9.18403C10.2939 9.18403 11.6979 7.80028 11.7311 6.081H11.7339V0.199219H10.5343Z" fill="white"/>
</svg>
