<svg width="40" height="40" viewBox="0 0 40 40" fill="none" xmlns="http://www.w3.org/2000/svg">
<circle cx="20" cy="20" r="20" fill="#55B76F"/>
<path d="M27.5576 10.3297V15.8984C26.6576 15.1836 25.5186 14.7566 24.2801 14.7566C22.5284 14.7566 20.9764 15.6111 20.0173 16.9255C19.3587 17.8268 19.0045 18.9146 19.0062 20.0309C19.0062 20.037 19.0039 20.0333 18.9992 20.0239C18.9964 21.8319 17.5301 23.2967 15.7217 23.2967C13.9156 23.2967 12.4512 21.8361 12.4442 20.0314V20.0066C12.4508 18.2019 13.9161 16.7412 15.7217 16.7412C16.9498 16.7412 18.0205 17.4177 18.5811 18.418C18.6476 18.193 18.8028 17.7092 19.0203 17.2836C19.2092 16.9142 19.4525 16.5945 19.5861 16.4305C19.0931 15.898 18.4952 15.4733 17.83 15.1831C17.1649 14.893 16.4469 14.7436 15.7212 14.7444C12.8431 14.7444 10.5031 17.0506 10.4478 19.9161H10.4431V29.7186H12.4433V24.1508C13.3433 24.8656 14.4823 25.2927 15.7198 25.2927C17.4791 25.2927 19.0367 24.4311 19.9948 23.1073C20.6201 22.2467 20.9867 21.1855 20.9867 20.0389C20.9867 20.0295 20.9923 20.0408 21.0017 20.0661C21.0017 20.0539 21.0008 20.0427 21.0008 20.03C21.0008 18.2197 22.468 16.7525 24.2783 16.7525C26.0839 16.7525 27.5483 18.2127 27.5558 20.0164V20.0436C27.5483 21.8473 26.0839 23.3075 24.2783 23.3075C23.0492 23.3075 21.9786 22.6306 21.4175 21.6294C21.3547 21.8441 21.1972 22.3456 20.9722 22.7858C20.7894 23.1444 20.555 23.4561 20.4191 23.6234C20.9119 24.1543 21.5092 24.5777 22.1734 24.8669C22.8375 25.1562 23.5543 25.3051 24.2787 25.3044C27.1569 25.3044 29.4969 22.9981 29.5522 20.1327H29.5569V10.3297H27.5576Z" fill="white"/>
</svg>
