<svg width="40" height="40" viewBox="0 0 40 40" fill="none" xmlns="http://www.w3.org/2000/svg">
<circle cx="20" cy="20" r="20" fill="#2684FF"/>
<path d="M20.825 16.7C20.825 17.5752 20.4773 18.4146 19.8584 19.0335C19.2396 19.6523 18.4002 20 17.525 20C16.6498 20 15.8104 19.6523 15.1915 19.0335C14.5727 18.4146 14.225 17.5752 14.225 16.7C14.225 15.8248 14.5727 14.9854 15.1915 14.3665C15.8104 13.7477 16.6498 13.4 17.525 13.4C18.4002 13.4 19.2396 13.7477 19.8584 14.3665C20.4773 14.9854 20.825 15.8248 20.825 16.7ZM24.125 24.95V26.6H10.925V24.95C10.925 23.1267 13.8785 21.65 17.525 21.65C21.1715 21.65 24.125 23.1267 24.125 24.95ZM27.0125 22.0625V23.3H25.775V22.0625H27.0125ZM25.3625 17.9375H24.125V17.525C24.125 16.8686 24.3857 16.2391 24.8499 15.7749C25.314 15.3108 25.9436 15.05 26.6 15.05C27.2564 15.05 27.8859 15.3108 28.3501 15.7749C28.8142 16.2391 29.075 16.8686 29.075 17.525C29.075 18.3253 28.6625 19.076 28.0107 19.5132L27.7632 19.67C27.293 20 27.0125 20.5033 27.0125 21.0725V21.2375H25.775V21.0725C25.775 20.0908 26.27 19.175 27.0867 18.6388L27.326 18.482C27.6477 18.2675 27.8375 17.9127 27.8375 17.525C27.8375 17.1968 27.7071 16.882 27.475 16.65C27.243 16.4179 26.9282 16.2875 26.6 16.2875C26.2718 16.2875 25.957 16.4179 25.7249 16.65C25.4929 16.882 25.3625 17.1968 25.3625 17.525V17.9375Z" fill="#FDFEFF"/>
</svg>
