<svg width="40" height="40" viewBox="0 0 40 40" fill="none" xmlns="http://www.w3.org/2000/svg">
<circle cx="20" cy="20" r="20" fill="#9167F4"/>
<path d="M15.32 13.76V16.88H24.68V13.76H26.2454C26.6729 13.76 27.02 14.1071 27.02 14.5345V27.0255C27.0198 27.2308 26.9381 27.4277 26.7929 27.5729C26.6477 27.7181 26.4508 27.7998 26.2454 27.8H13.7545C13.5492 27.7998 13.3523 27.7181 13.2071 27.5729C13.0619 27.4277 12.9802 27.2308 12.98 27.0255V14.5345C12.98 14.1071 13.3271 13.76 13.7545 13.76H15.32ZM17.66 23.9H16.1V25.46H17.66V23.9ZM17.66 21.56H16.1V23.12H17.66V21.56ZM17.66 19.22H16.1V20.78H17.66V19.22ZM23.12 12.2V15.32H16.88V12.2H23.12Z" fill="#FDFEFF"/>
</svg>
