<svg width="40" height="40" viewBox="0 0 40 40" fill="none" xmlns="http://www.w3.org/2000/svg">
<circle cx="20" cy="20" r="20" fill="#FFB133"/>
<path fill-rule="evenodd" clip-rule="evenodd" d="M26.125 15.65H13.875C13.6429 15.65 13.4204 15.5578 13.2563 15.3937C13.0922 15.2296 13 15.0071 13 14.775C13 14.5429 13.0922 14.3204 13.2563 14.1563C13.4204 13.9922 13.6429 13.9 13.875 13.9H26.125C26.3571 13.9 26.5796 13.9922 26.7437 14.1563C26.9078 14.3204 27 14.5429 27 14.775C27 15.0071 26.9078 15.2296 26.7437 15.3937C26.5796 15.5578 26.3571 15.65 26.125 15.65ZM26.125 19.15H13.875C13.6429 19.15 13.4204 19.0578 13.2563 18.8937C13.0922 18.7296 13 18.5071 13 18.275C13 18.0429 13.0922 17.8204 13.2563 17.6563C13.4204 17.4922 13.6429 17.4 13.875 17.4H26.125C26.3571 17.4 26.5796 17.4922 26.7437 17.6563C26.9078 17.8204 27 18.0429 27 18.275C27 18.5071 26.9078 18.7296 26.7437 18.8937C26.5796 19.0578 26.3571 19.15 26.125 19.15ZM26.125 22.65H13.875C13.6429 22.65 13.4204 22.5578 13.2563 22.3937C13.0922 22.2296 13 22.0071 13 21.775C13 21.5429 13.0922 21.3204 13.2563 21.1563C13.4204 20.9922 13.6429 20.9 13.875 20.9H26.125C26.3571 20.9 26.5796 20.9922 26.7437 21.1563C26.9078 21.3204 27 21.5429 27 21.775C27 22.0071 26.9078 22.2296 26.7437 22.3937C26.5796 22.5578 26.3571 22.65 26.125 22.65ZM26.125 26.15H13.875C13.6429 26.15 13.4204 26.0578 13.2563 25.8937C13.0922 25.7296 13 25.5071 13 25.275C13 25.0429 13.0922 24.8204 13.2563 24.6563C13.4204 24.4922 13.6429 24.4 13.875 24.4H26.125C26.3571 24.4 26.5796 24.4922 26.7437 24.6563C26.9078 24.8204 27 25.0429 27 25.275C27 25.5071 26.9078 25.7296 26.7437 25.8937C26.5796 26.0578 26.3571 26.15 26.125 26.15Z" fill="#FDFEFF"/>
</svg>
