<svg width="40" height="40" viewBox="0 0 40 40" fill="none" xmlns="http://www.w3.org/2000/svg">
<circle cx="20" cy="20" r="20" fill="#23804D"/>
<path d="M25.76 15.68H20L18.9848 14.6648C18.7112 14.3912 18.344 14.24 17.9624 14.24H14.24C13.448 14.24 12.8072 14.888 12.8072 15.68L12.8 24.32C12.8 25.112 13.448 25.76 14.24 25.76H25.76C26.552 25.76 27.2 25.112 27.2 24.32V17.12C27.2 16.328 26.552 15.68 25.76 15.68ZM20.72 22.88H16.4C16.004 22.88 15.68 22.556 15.68 22.16C15.68 21.764 16.004 21.44 16.4 21.44H20.72C21.116 21.44 21.44 21.764 21.44 22.16C21.44 22.556 21.116 22.88 20.72 22.88ZM23.6 20H16.4C16.004 20 15.68 19.676 15.68 19.28C15.68 18.884 16.004 18.56 16.4 18.56H23.6C23.996 18.56 24.32 18.884 24.32 19.28C24.32 19.676 23.996 20 23.6 20Z" fill="#FDFEFF"/>
</svg>
