<svg width="40" height="40" viewBox="0 0 40 40" fill="none" xmlns="http://www.w3.org/2000/svg">
<circle cx="20" cy="20" r="20" fill="#FF6D70"/>
<path d="M17.9447 24.3742H22.0205C22.2907 24.3742 22.5499 24.2669 22.741 24.0758C22.9321 23.8847 23.0394 23.6255 23.0394 23.3553V18.2606H24.6555C24.857 18.2605 25.0539 18.2007 25.2215 18.0888C25.389 17.9768 25.5195 17.8177 25.5966 17.6315C25.6737 17.4453 25.6939 17.2405 25.6546 17.0429C25.6153 16.8453 25.5183 16.6637 25.3759 16.5212L20.703 11.8483C20.5119 11.6573 20.2528 11.55 19.9826 11.55C19.7124 11.55 19.4533 11.6573 19.2622 11.8483L14.5893 16.5212C14.4469 16.6637 14.3498 16.8453 14.3105 17.0429C14.2712 17.2405 14.2914 17.4453 14.3685 17.6315C14.4456 17.8177 14.5762 17.9768 14.7437 18.0888C14.9113 18.2007 15.1082 18.2605 15.3097 18.2606H16.9258V23.3553C16.9258 23.6255 17.0331 23.8847 17.2242 24.0758C17.4153 24.2669 17.6745 24.3742 17.9447 24.3742ZM13.8689 26.4121H26.0963C26.3665 26.4121 26.6257 26.5195 26.8168 26.7106C27.0078 26.9016 27.1152 27.1608 27.1152 27.4311C27.1152 27.7013 27.0078 27.9605 26.8168 28.1516C26.6257 28.3426 26.3665 28.45 26.0963 28.45H13.8689C13.5987 28.45 13.3395 28.3426 13.1484 28.1516C12.9573 27.9605 12.85 27.7013 12.85 27.4311C12.85 27.1608 12.9573 26.9016 13.1484 26.7106C13.3395 26.5195 13.5987 26.4121 13.8689 26.4121Z" fill="#FDFEFF"/>
</svg>
