<svg width="40" height="40" viewBox="0 0 40 40" fill="none" xmlns="http://www.w3.org/2000/svg">
<circle cx="20" cy="20" r="20" fill="#ED6060"/>
<path d="M26.2934 16.6042C26.0808 16.5085 25.8448 16.4774 25.6146 16.5147C25.3845 16.552 25.1704 16.6562 24.999 16.8141L23.4948 18.2134V17.199C23.4948 16.6423 23.2736 16.1084 22.88 15.7148C22.4864 15.3211 21.9525 15.1 21.3958 15.1H15.099C14.5423 15.1 14.0084 15.3211 13.6148 15.7148C13.2211 16.1084 13 16.6423 13 17.199V22.7962C13 23.3528 13.2211 23.8867 13.6148 24.2803C14.0084 24.674 14.5423 24.8951 15.099 24.8951H21.3958C21.9525 24.8951 22.4864 24.674 22.88 24.2803C23.2736 23.8867 23.4948 23.3528 23.4948 22.7962V21.7817L25.006 23.181C25.2285 23.3824 25.5175 23.4945 25.8176 23.4958C25.9841 23.4954 26.1487 23.4596 26.3004 23.3909C26.5067 23.3074 26.6835 23.1643 26.8081 22.9798C26.9327 22.7954 26.9995 22.578 27 22.3554V17.6397C26.999 17.4163 26.9312 17.1983 26.8052 17.0138C26.6793 16.8293 26.501 16.6866 26.2934 16.6042Z" fill="#FDFEFF"/>
</svg>
