<svg width="24" height="24" viewBox="0 0 24 24" fill="none" xmlns="http://www.w3.org/2000/svg">
<circle cx="12" cy="12" r="12" fill="#419958"/>
<path d="M7.1 11.1C7.87219 11.1 8.5 10.4722 8.5 9.7C8.5 8.92781 7.87219 8.3 7.1 8.3C6.32781 8.3 5.7 8.92781 5.7 9.7C5.7 10.4722 6.32781 11.1 7.1 11.1ZM16.9 11.1C17.6722 11.1 18.3 10.4722 18.3 9.7C18.3 8.92781 17.6722 8.3 16.9 8.3C16.1278 8.3 15.5 8.92781 15.5 9.7C15.5 10.4722 16.1278 11.1 16.9 11.1ZM17.6 11.8H16.2C15.815 11.8 15.4672 11.9553 15.2134 12.2069C16.095 12.6903 16.7206 13.5631 16.8562 14.6H18.3C18.6872 14.6 19 14.2872 19 13.9V13.2C19 12.4278 18.3722 11.8 17.6 11.8ZM12 11.8C13.3541 11.8 14.45 10.7041 14.45 9.35C14.45 7.99594 13.3541 6.9 12 6.9C10.6459 6.9 9.55 7.99594 9.55 9.35C9.55 10.7041 10.6459 11.8 12 11.8ZM13.68 12.5H13.4984C13.0434 12.7188 12.5381 12.85 12 12.85C11.4619 12.85 10.9587 12.7188 10.5016 12.5H10.32C8.92875 12.5 7.8 13.6288 7.8 15.02V15.65C7.8 16.2297 8.27031 16.7 8.85 16.7H15.15C15.7297 16.7 16.2 16.2297 16.2 15.65V15.02C16.2 13.6288 15.0712 12.5 13.68 12.5ZM8.78656 12.2069C8.53281 11.9553 8.185 11.8 7.8 11.8H6.4C5.62781 11.8 5 12.4278 5 13.2V13.9C5 14.2872 5.31281 14.6 5.7 14.6H7.14156C7.27938 13.5631 7.905 12.6903 8.78656 12.2069Z" fill="#FDFEFF"/>
</svg>
