<svg width="12" height="12" viewBox="0 0 12 12" fill="none" xmlns="http://www.w3.org/2000/svg">
<circle cx="6" cy="6" r="6" fill="#23804D"/>
<path fill-rule="evenodd" clip-rule="evenodd" d="M7.71717 4.14486C7.8029 4.05988 7.91862 4.01205 8.03933 4.01172C8.16003 4.01139 8.27602 4.05857 8.36221 4.14308C8.4484 4.22758 8.49788 4.34261 8.49993 4.4633C8.50199 4.58398 8.45647 4.70063 8.3732 4.78802L5.92794 7.84461C5.88591 7.88987 5.83519 7.9262 5.7788 7.95141C5.72242 7.97663 5.66153 7.99021 5.59977 7.99136C5.53801 7.9925 5.47666 7.98118 5.41938 7.95807C5.3621 7.93496 5.31006 7.90054 5.26639 7.85686L3.64622 6.23607C3.60108 6.19401 3.56488 6.1433 3.53977 6.08694C3.51466 6.03059 3.50116 5.96976 3.50007 5.90807C3.49898 5.84639 3.51033 5.78511 3.53344 5.72791C3.55654 5.67071 3.59093 5.61874 3.63456 5.57512C3.67818 5.53149 3.73015 5.4971 3.78735 5.474C3.84455 5.45089 3.90583 5.43954 3.96751 5.44063C4.0292 5.44172 4.09003 5.45522 4.14638 5.48033C4.20274 5.50544 4.25345 5.54164 4.29551 5.58678L5.57818 6.86883L7.70553 4.15833C7.70933 4.15359 7.71342 4.14909 7.71778 4.14486H7.71717Z" fill="#FDFEFF"/>
</svg>
