<svg width="24" height="24" viewBox="0 0 24 24" fill="none" xmlns="http://www.w3.org/2000/svg">
<circle cx="12" cy="12" r="12" fill="#419958"/>
<path d="M6.02399 9.01333C6.02399 8.61727 6.18132 8.23744 6.46137 7.95738C6.74143 7.67733 7.12126 7.52 7.51732 7.52H16.4773C16.8734 7.52 17.2532 7.67733 17.5333 7.95738C17.8133 8.23744 17.9707 8.61727 17.9707 9.01333V9.76H6.02399V9.01333Z" fill="#FDFEFF"/>
<path fill-rule="evenodd" clip-rule="evenodd" d="M6.02399 11.2533V14.9867C6.02399 15.3827 6.18132 15.7626 6.46137 16.0426C6.74143 16.3227 7.12126 16.48 7.51732 16.48H16.4773C16.8734 16.48 17.2532 16.3227 17.5333 16.0426C17.8133 15.7626 17.9707 15.3827 17.9707 14.9867V11.2533H6.02399ZM8.26399 12.7467C8.06596 12.7467 7.87604 12.8253 7.73601 12.9654C7.59599 13.1054 7.51732 13.2953 7.51732 13.4933V14.24C7.51732 14.438 7.59599 14.6279 7.73601 14.768C7.87604 14.908 8.06596 14.9867 8.26399 14.9867H9.01065C9.20868 14.9867 9.3986 14.908 9.53863 14.768C9.67865 14.6279 9.75732 14.438 9.75732 14.24V13.4933C9.75732 13.2953 9.67865 13.1054 9.53863 12.9654C9.3986 12.8253 9.20868 12.7467 9.01065 12.7467H8.26399Z" fill="#FDFEFF"/>
</svg>
