<svg width="24" height="24" viewBox="0 0 24 24" fill="none" xmlns="http://www.w3.org/2000/svg">
<circle cx="12" cy="12" r="12" fill="#419958"/>
<path d="M16.48 7.52H7.52002C6.90402 7.52 6.40562 8.024 6.40562 8.64L6.40002 15.36C6.40002 15.976 6.90402 16.48 7.52002 16.48H16.48C17.096 16.48 17.6 15.976 17.6 15.36V8.64C17.6 8.024 17.096 7.52 16.48 7.52ZM16.256 9.9L12.2968 12.3752C12.1176 12.4872 11.8824 12.4872 11.7032 12.3752L7.74402 9.9C7.68787 9.86847 7.6387 9.82589 7.59948 9.77481C7.56027 9.72373 7.53182 9.66523 7.51587 9.60284C7.49991 9.54046 7.49679 9.47548 7.50667 9.41185C7.51656 9.34822 7.53925 9.28725 7.57338 9.23265C7.60751 9.17804 7.65237 9.13092 7.70523 9.09415C7.7581 9.05738 7.81787 9.03172 7.88094 9.01872C7.94401 9.00572 8.00906 9.00566 8.07216 9.01853C8.13526 9.0314 8.19508 9.05694 8.24802 9.0936L12 11.44L15.752 9.0936C15.805 9.05694 15.8648 9.0314 15.9279 9.01853C15.991 9.00566 16.056 9.00572 16.1191 9.01872C16.1822 9.03172 16.242 9.05738 16.2948 9.09415C16.3477 9.13092 16.3925 9.17804 16.4267 9.23265C16.4608 9.28725 16.4835 9.34822 16.4934 9.41185C16.5033 9.47548 16.5001 9.54046 16.4842 9.60284C16.4682 9.66523 16.4398 9.72373 16.4006 9.77481C16.3614 9.82589 16.3122 9.86847 16.256 9.9Z" fill="#FDFEFF"/>
</svg>
