<svg width="24" height="24" viewBox="0 0 24 24" fill="none" xmlns="http://www.w3.org/2000/svg">
<circle cx="12" cy="12" r="12" fill="#419958"/>
<path d="M12 12C13.4729 12 14.6666 10.7466 14.6666 9.2C14.6666 7.65344 13.4729 6.4 12 6.4C10.5271 6.4 9.33331 7.65344 9.33331 9.2C9.33331 10.7466 10.5271 12 12 12ZM13.8666 12.7H13.5187C13.0562 12.9231 12.5416 13.05 12 13.05C11.4583 13.05 10.9458 12.9231 10.4812 12.7H10.1333C8.58748 12.7 7.33331 14.0169 7.33331 15.64V16.55C7.33331 17.1297 7.78123 17.6 8.33331 17.6H15.6666C16.2187 17.6 16.6666 17.1297 16.6666 16.55V15.64C16.6666 14.0169 15.4125 12.7 13.8666 12.7Z" fill="#FDFEFF"/>
</svg>
