<svg width="24" height="24" viewBox="0 0 24 24" fill="none" xmlns="http://www.w3.org/2000/svg">
<circle cx="12" cy="12" r="12" fill="#419958"/>
<path fill-rule="evenodd" clip-rule="evenodd" d="M9.64197 6.141C10.5181 5.90916 11.448 5.7 12.0049 5.7C12.561 5.7 13.4917 5.90916 14.3678 6.141C15.1493 6.35081 15.9256 6.57907 16.6963 6.8256C17.1398 6.96672 17.4741 7.34892 17.5388 7.82016C18.0201 11.3456 16.9038 13.958 15.5505 15.6868C14.9739 16.4287 14.2892 17.0799 13.5194 17.6188C13.2517 17.8063 12.9688 17.9709 12.6735 18.111C12.4467 18.2152 12.2048 18.3 12.0049 18.3C11.805 18.3 11.563 18.2152 11.3362 18.111C11.0409 17.971 10.758 17.8064 10.4904 17.6188C9.72088 17.0798 9.03651 16.4286 8.46009 15.6868C7.10517 13.958 5.98965 11.3456 6.47097 7.82016C6.50315 7.59174 6.59936 7.3771 6.74846 7.20109C6.89756 7.02508 7.09346 6.89489 7.31349 6.8256C8.08414 6.57908 8.86052 6.35081 9.64197 6.141ZM12.4375 11.9236C12.7144 11.8222 12.9471 11.6269 13.0949 11.3717C13.2427 11.1165 13.2963 10.8175 13.2463 10.5269C13.1964 10.2362 13.046 9.97228 12.8215 9.78105C12.597 9.58982 12.3125 9.48341 12.0176 9.48035C11.7227 9.47729 11.4361 9.57777 11.2076 9.7643C10.9792 9.95083 10.8234 10.2116 10.7674 10.5011C10.7114 10.7907 10.7588 11.0907 10.9013 11.349C11.0438 11.6072 11.2723 11.8072 11.5471 11.9143C11.5294 11.9504 11.5169 11.9889 11.5101 12.0286L11.2304 13.7086C11.2204 13.7687 11.2236 13.8303 11.2398 13.8891C11.256 13.9478 11.2848 14.0024 11.3242 14.0489C11.3636 14.0954 11.4127 14.1328 11.468 14.1585C11.5233 14.1841 11.5836 14.1974 11.6445 14.1974H12.3459C12.4071 14.1975 12.4676 14.1841 12.5231 14.1583C12.5787 14.1325 12.6279 14.0949 12.6673 14.0481C12.7068 14.0013 12.7355 13.9464 12.7515 13.8873C12.7675 13.8282 12.7705 13.7664 12.76 13.706L12.4686 12.026C12.4626 11.9907 12.4522 11.9563 12.4375 11.9236Z" fill="#FDFEFF"/>
</svg>
