<svg width="40" height="40" viewBox="0 0 40 40" fill="none" xmlns="http://www.w3.org/2000/svg">
<circle cx="20" cy="20" r="20" fill="#419958"/>
<path d="M28.0438 14.15H24.875V12.9312C24.875 12.526 24.549 12.2 24.1438 12.2H15.8563C15.451 12.2 15.125 12.526 15.125 12.9312V14.15H11.9563C11.551 14.15 11.225 14.476 11.225 14.8812V16.5875C11.225 17.6752 11.9106 18.7934 13.111 19.6557C14.0708 20.3473 15.2377 20.7861 16.4626 20.9262C17.4193 22.5137 18.5375 23.1687 18.5375 23.1687V25.3625H17.075C15.9995 25.3625 15.125 25.9932 15.125 27.0687V27.4344C15.125 27.6355 15.2895 27.8 15.4906 27.8H24.5094C24.7105 27.8 24.875 27.6355 24.875 27.4344V27.0687C24.875 25.9932 24.0006 25.3625 22.925 25.3625H21.4625V23.1687C21.4625 23.1687 22.5807 22.5137 23.5374 20.9262C24.7653 20.7861 25.9323 20.3473 26.889 19.6557C28.0864 18.7934 28.775 17.6752 28.775 16.5875V14.8812C28.775 14.476 28.449 14.15 28.0438 14.15ZM14.2506 18.0744C13.5071 17.5381 13.175 16.9409 13.175 16.5875V16.1H15.1311C15.1616 17.0933 15.3078 17.9647 15.5211 18.7264C15.061 18.568 14.6314 18.3486 14.2506 18.0744ZM26.825 16.5875C26.825 17.078 26.2857 17.6874 25.7495 18.0744C25.3686 18.3486 24.9359 18.568 24.4759 18.7264C24.6891 17.9647 24.8354 17.0933 24.8659 16.1H26.825V16.5875Z" fill="#FDFEFF"/>
</svg>
