<svg width="40" height="40" viewBox="0 0 40 40" fill="none" xmlns="http://www.w3.org/2000/svg">
<circle cx="20" cy="20" r="20" fill="#419958"/>
<path d="M23.7658 15.589C22.4718 14.8442 22.4718 12.9722 23.7658 12.2274C25.0599 11.4826 26.6862 12.4186 26.6862 13.9082C26.6862 15.3978 25.0598 16.3338 23.7658 15.589ZM21.8696 13.0691H13.2V13.6074H21.8696V13.0691ZM17.1119 15.1906H13.2V15.6656H17.1119V15.1906H17.1119ZM17.4291 20.7004H13.2V21.207H17.4291V20.7004L17.4291 20.7004ZM16.0969 22.632H13.2V23.1386H16.0969V22.632L16.0969 22.632ZM15.582 27.7959C16.004 27.2039 19.4253 22.2625 19.9113 22.1439C20.4042 22.28 21.4106 22.5758 21.3306 22.7207C21.229 22.905 20.2294 24.217 20.1595 24.566C20.0895 24.9151 20.6139 25.8749 21.4338 25.2787C22.2536 24.6824 24.0433 22.4545 23.851 21.9309C23.6588 21.4074 22.5183 20.6501 21.2432 20.1334C21.2083 20.0462 22.1697 19.1038 22.6766 18.2313C22.7715 18.068 24.5121 20.308 25.0714 20.2032C25.9196 20.0445 28.5882 17.795 28.7455 17.3587C28.9029 16.9224 28.7248 16.4163 28.1418 16.017C27.5587 15.6177 26.0853 18.0917 25.1763 17.9869C24.5685 17.9169 24.1699 16.4691 22.7291 15.5787C21.465 14.7975 19.5009 14.5133 19.0203 14.5732C18.4781 14.6408 17.1703 15.8579 15.3873 17.7426C14.8079 18.355 16.0543 19.4653 16.576 19.0864C18.1548 17.9397 19.1366 16.5145 19.4983 16.5274C19.86 16.5403 20.7201 17.0144 20.7201 17.0144C20.7201 17.0144 14.8594 25.2611 14.2336 26.5032C13.5482 27.8637 15.1601 28.3879 15.582 27.7959Z" fill="#FDFEFF"/>
</svg>
