<svg width="40" height="40" viewBox="0 0 40 40" fill="none" xmlns="http://www.w3.org/2000/svg">
<circle cx="20" cy="20" r="20" fill="#419958"/>
<path d="M20 11C15.0374 11 11 15.0374 11 20C11 24.9626 15.0374 29 20 29C24.9626 29 29 24.9626 29 20C29 15.0374 24.9626 11 20 11ZM12.8 20C12.8 19.1909 12.9404 18.4142 13.1879 17.6879L14.6 19.1L16.4 20.9V22.7L18.2 24.5L19.1 25.4V27.1379C15.5549 26.6924 12.8 23.6648 12.8 20ZM25.697 24.3857C25.1093 23.9123 24.2183 23.6 23.6 23.6V22.7C23.6 22.2226 23.4104 21.7648 23.0728 21.4272C22.7352 21.0896 22.2774 20.9 21.8 20.9H18.2V18.2C18.6774 18.2 19.1352 18.0104 19.4728 17.6728C19.8104 17.3352 20 16.8774 20 16.4V15.5H20.9C21.3774 15.5 21.8352 15.3104 22.1728 14.9728C22.5104 14.6352 22.7 14.1774 22.7 13.7V13.3301C25.3352 14.4002 27.2 16.985 27.2 20C27.1998 21.5882 26.671 23.1312 25.697 24.3857Z" fill="#FDFEFF"/>
</svg>
