<svg width="40" height="40" viewBox="0 0 40 40" fill="none" xmlns="http://www.w3.org/2000/svg">
<circle cx="20" cy="20" r="20" fill="#419958"/>
<path d="M22.6807 17.075C22.4073 17.0648 22.134 16.9887 21.8606 16.8465C21.8403 16.8363 21.8201 16.8211 21.7998 16.8008C21.7796 16.7805 21.7644 16.7703 21.7542 16.7703C21.2986 17.0852 20.891 17.4508 20.5316 17.8672C20.1721 18.2836 19.9924 18.6695 19.9924 19.025C19.9924 19.2383 20.0987 19.5633 20.3113 20H24.3667C24.4983 20 24.6122 20.0482 24.7084 20.1447C24.8046 20.2412 24.8527 20.3555 24.8527 20.4875V21.4625C24.8527 21.5945 24.8046 21.7088 24.7084 21.8053C24.6122 21.9018 24.4983 21.95 24.3667 21.95H23.8806L22.7111 27.3887C22.6807 27.5004 22.62 27.5969 22.5289 27.6781C22.4377 27.7594 22.3365 27.8 22.2251 27.8H17.7749C17.6534 27.8 17.5471 27.7594 17.4559 27.6781C17.3648 27.5969 17.304 27.5004 17.2737 27.3887L16.1042 21.95H15.6181C15.4865 21.95 15.3726 21.9018 15.2764 21.8053C15.1802 21.7088 15.1321 21.5945 15.1321 21.4625V20.4875C15.1321 20.3555 15.1802 20.2412 15.2764 20.1447C15.3726 20.0482 15.4865 20 15.6181 20H18.8988C18.9798 19.6547 19.0203 19.3297 19.0203 19.025C19.0203 18.6391 18.9495 18.2227 18.8077 17.7758C18.3824 17.2781 17.866 16.8922 17.2585 16.618C16.6003 17.1562 15.9016 17.2172 15.1625 16.8008C14.9195 16.6687 14.7018 16.5316 14.5094 16.3895C14.317 16.2473 14.1525 16.0873 14.0158 15.9096C13.8791 15.7318 13.7626 15.5719 13.6664 15.4297C13.5702 15.2875 13.4918 15.1021 13.431 14.8736C13.3702 14.6451 13.3222 14.4547 13.2867 14.3023C13.2513 14.15 13.2285 13.9316 13.2184 13.6473C13.2082 13.3629 13.2006 13.1369 13.1956 12.9693C13.1905 12.8018 13.188 12.5453 13.188 12.2C13.4108 12.4539 13.6943 12.6367 14.0385 12.7484C14.3828 12.8602 14.7271 12.9262 15.0714 12.9465C15.4156 12.9668 15.7599 12.9998 16.1042 13.0455C16.4484 13.0912 16.7775 13.2156 17.0914 13.4187C17.4053 13.6219 17.6584 13.9164 17.8508 14.3023C17.9825 14.5562 18.0483 14.8406 18.0483 15.1555C18.0483 15.4094 17.9976 15.648 17.8964 15.8715C18.3723 16.1457 18.7469 16.3844 19.0203 16.5875C19.2228 16.7398 19.4254 16.9734 19.6279 17.2883C19.8911 16.7297 20.367 16.2422 21.0556 15.8258V15.8105C20.8024 14.8863 21.0758 14.1957 21.8758 13.7387C22.1896 13.566 22.4858 13.4314 22.7643 13.335C23.0427 13.2385 23.3262 13.1902 23.6148 13.1902C23.9034 13.1902 24.154 13.2029 24.3667 13.2283C24.5793 13.2537 24.8426 13.335 25.1564 13.4721C25.4703 13.6092 25.7235 13.726 25.9159 13.8225C26.1083 13.9189 26.4019 14.0738 26.7968 14.2871C26.4627 14.348 26.1639 14.4928 25.9007 14.7213C25.6374 14.9498 25.4121 15.1961 25.2248 15.4602C25.0375 15.7242 24.8375 15.9857 24.6249 16.2447C24.4122 16.5037 24.1439 16.7119 23.8199 16.8693C23.4959 17.0268 23.1161 17.0953 22.6807 17.075Z" fill="#FDFEFF"/>
</svg>
