<svg width="40" height="40" viewBox="0 0 40 40" fill="none" xmlns="http://www.w3.org/2000/svg">
<circle cx="20" cy="20" r="20" fill="#419958"/>
<path d="M20 21.0111C20.5584 21.0111 21.0111 20.5584 21.0111 20C21.0111 19.4416 20.5584 18.9889 20 18.9889C19.4416 18.9889 18.9889 19.4416 18.9889 20C18.9889 20.5584 19.4416 21.0111 20 21.0111Z" stroke="#FDFEFF" stroke-width="2" stroke-linecap="round" stroke-linejoin="round"/>
<path d="M20 25.0556C22.7921 25.0556 25.0555 22.7921 25.0555 20C25.0555 17.2079 22.7921 14.9444 20 14.9444C17.2079 14.9444 14.9444 17.2079 14.9444 20C14.9444 22.7921 17.2079 25.0556 20 25.0556Z" stroke="#FDFEFF" stroke-width="2" stroke-linecap="round" stroke-linejoin="round"/>
<path d="M20 29.1C25.0258 29.1 29.1 25.0258 29.1 20C29.1 14.9742 25.0258 10.9 20 10.9C14.9742 10.9 10.9 14.9742 10.9 20C10.9 25.0258 14.9742 29.1 20 29.1Z" stroke="#FDFEFF" stroke-width="2" stroke-linecap="round" stroke-linejoin="round"/>
</svg>
