<svg width="40" height="40" viewBox="0 0 40 40" fill="none" xmlns="http://www.w3.org/2000/svg">
<circle cx="20" cy="20" r="20" fill="#419958"/>
<path d="M14.6155 14.7579L15.1402 16.9927L14.6155 19.2178L16.5685 20.4227L17.7636 22.3757L19.9985 21.851L22.2333 22.3757L23.4284 20.4227L25.3815 19.2178L24.8568 16.9927L25.3815 14.7579L23.4381 13.553L22.2333 11.6L19.9985 12.1344L17.7734 11.6097L16.5588 13.553L14.6155 14.7579ZM20.0082 20.9182C18.9774 20.9182 17.9888 20.5087 17.2599 19.7799C16.531 19.051 16.1215 18.0624 16.1215 17.0316C16.1215 16.0008 16.531 15.0122 17.2599 14.2833C17.9888 13.5544 18.9774 13.1449 20.0082 13.1449C22.1458 13.1449 23.8851 14.8842 23.8851 17.0219C23.8851 19.179 22.1458 20.9182 20.0082 20.9182ZM19.9887 19.9466C18.3758 19.9466 17.0835 18.6445 17.0835 17.0316C17.0835 15.4283 18.3758 14.1166 19.9887 14.1166C21.6017 14.1166 22.9134 15.4283 22.9134 17.0316C22.9134 18.6445 21.6017 19.9466 19.9887 19.9466ZM23.7199 21.0154L22.4762 23.1919L20.4551 22.7352L22.9134 28.4L24.2738 26.2624H26.7029L23.7199 21.0154ZM16.2381 21.0834L17.4527 23.2696L19.5223 22.7741L17.0835 28.4L15.7232 26.2624H13.294L16.2381 21.0834Z" fill="#FDFEFF"/>
</svg>
