<svg width="40" height="40" viewBox="0 0 40 40" fill="none" xmlns="http://www.w3.org/2000/svg">
<circle cx="20" cy="20" r="20" fill="#419958"/>
<path d="M16.1115 15.0343L17.8686 16.7837L16.7838 17.8686L15.0343 16.1115L13.2848 17.8686L12.2 16.7837L13.9571 15.0343L12.2 13.2848L13.2848 12.2L15.0343 13.9571L16.7838 12.2L17.8686 13.2848L16.1115 15.0343ZM27.8 23.2163L26.7152 22.1314L24.9657 23.8885L23.2163 22.1314L22.1315 23.2163L23.8886 24.9657L22.1315 26.7152L23.2163 27.8L24.9657 26.0429L26.7152 27.8L27.8 26.7152L26.0429 24.9657L27.8 23.2163ZM26.4173 16.0503L23.9573 19.236L22.7503 18.2658L23.6441 17.1199C22.504 17.3515 21.4405 17.8661 20.5514 18.6163C19.6623 19.3666 18.9762 20.3284 18.5561 21.4133C19.2211 21.8928 19.6928 22.5942 19.8861 23.3908C20.0795 24.1875 19.9818 25.0271 19.6107 25.758C19.2395 26.489 18.6194 27.0633 17.8621 27.3773C17.1048 27.6914 16.2603 27.7244 15.4808 27.4705C14.7013 27.2167 14.0381 26.6926 13.611 25.9929C13.1839 25.2931 13.0209 24.4638 13.1514 23.6544C13.2819 22.8451 13.6973 22.109 14.3227 21.579C14.9482 21.049 15.7424 20.7599 16.5622 20.764C16.7624 20.7648 16.9619 20.7852 17.1581 20.8251C17.6874 19.5115 18.5325 18.3489 19.6186 17.44C20.7046 16.5312 21.9981 15.9043 23.3843 15.6149L22.2919 14.7898L23.2621 13.5828L26.4173 16.0503ZM18.4721 24.2018C18.4721 23.824 18.3601 23.4548 18.1502 23.1407C17.9404 22.8266 17.6421 22.5818 17.2931 22.4373C16.9441 22.2927 16.5601 22.2549 16.1896 22.3286C15.8191 22.4023 15.4788 22.5842 15.2117 22.8513C14.9446 23.1184 14.7627 23.4587 14.689 23.8292C14.6153 24.1996 14.6531 24.5837 14.7977 24.9326C14.9423 25.2816 15.187 25.5799 15.5011 25.7898C15.8152 25.9996 16.1845 26.1117 16.5622 26.1117C17.0687 26.1117 17.5545 25.9104 17.9127 25.5523C18.2709 25.1941 18.4721 24.7083 18.4721 24.2018Z" fill="#FDFEFF"/>
</svg>
