<svg width="40" height="40" viewBox="0 0 40 40" fill="none" xmlns="http://www.w3.org/2000/svg">
<circle cx="20" cy="20" r="20" fill="#419958"/>
<path fill-rule="evenodd" clip-rule="evenodd" d="M28.4 20C28.4 22.2278 27.515 24.3644 25.9397 25.9397C24.3644 27.515 22.2278 28.4 20 28.4C17.7722 28.4 15.6356 27.515 14.0603 25.9397C12.485 24.3644 11.6 22.2278 11.6 20C11.6 17.7722 12.485 15.6356 14.0603 14.0603C15.6356 12.485 17.7722 11.6 20 11.6C22.2278 11.6 24.3644 12.485 25.9397 14.0603C27.515 15.6356 28.4 17.7722 28.4 20ZM26.3 20C26.3 21.0426 26.047 22.0254 25.5986 22.8917L23.9984 21.2904C24.238 20.5488 24.2664 19.7551 24.0803 18.9983L25.7204 17.3582C26.0921 18.1614 26.3 19.055 26.3 20ZM20.8768 24.1086L22.5358 25.7676C21.7367 26.1195 20.8731 26.3008 20 26.3C19.0877 26.3011 18.1862 26.1033 17.3582 25.7204L18.9983 24.0803C19.6143 24.2312 20.2565 24.2409 20.8768 24.1086ZM15.9659 21.1728C15.7593 20.4614 15.7444 19.7079 15.9229 18.9888L15.8389 19.0728L14.2324 17.4632C13.8804 18.2626 13.6991 19.1266 13.7 20C13.7 21.0017 13.9342 21.9488 14.35 22.7898L15.967 21.1728H15.9659ZM17.1083 14.4003C18.0021 13.9384 18.9939 13.6982 20 13.7C21.0017 13.7 21.9488 13.9341 22.7899 14.3499L21.1729 15.9669C20.3667 15.7321 19.5088 15.7442 18.7096 16.0016L17.1083 14.4014V14.4003ZM22.1 20C22.1 20.557 21.8788 21.0911 21.4849 21.4849C21.0911 21.8787 20.557 22.1 20 22.1C19.4431 22.1 18.9089 21.8787 18.5151 21.4849C18.1213 21.0911 17.9 20.557 17.9 20C17.9 19.443 18.1213 18.9089 18.5151 18.5151C18.9089 18.1212 19.4431 17.9 20 17.9C20.557 17.9 21.0911 18.1212 21.4849 18.5151C21.8788 18.9089 22.1 19.443 22.1 20Z" fill="#FDFEFF"/>
</svg>
