<svg width="20" height="20" viewBox="0 0 20 20" fill="none" xmlns="http://www.w3.org/2000/svg">
<path d="M12.0586 10L13.0886 11.0293L15.1472 8.97071C15.6932 8.42465 16 7.68403 16 6.91178C16 6.13953 15.6932 5.3989 15.1472 4.85284C14.8768 4.58246 14.5558 4.36798 14.2025 4.22165C13.8492 4.07532 13.4706 4 13.0882 4C12.316 4 11.5753 4.30678 11.0293 4.85284L8.97071 6.91141L10 7.94143L12.0586 5.88213C12.3317 5.60905 12.702 5.45563 13.0882 5.45563C13.4744 5.45563 13.8448 5.60905 14.1179 5.88213C14.391 6.15521 14.5444 6.52558 14.5444 6.91178C14.5444 7.29797 14.391 7.66835 14.1179 7.94143L12.0586 10Z" fill="#419958"/>
<path d="M10 12.0593L11.0293 13.0886L8.97071 15.1471C8.42465 15.6932 7.68403 16 6.91178 16C6.13953 16 5.3989 15.6932 4.85284 15.1471C4.30678 14.6011 4 13.8605 4 13.0882C4 12.316 4.30678 11.5753 4.85284 11.0293L6.91141 8.9707L7.94143 9.99999L5.88213 12.0593C5.60914 12.3324 5.45582 12.7027 5.45589 13.0888C5.45596 13.475 5.60941 13.8452 5.88249 14.1182C6.15557 14.3912 6.52591 14.5445 6.91203 14.5445C7.29816 14.5444 7.66844 14.3909 7.94143 14.1179L10 12.0586V12.0593Z" fill="#419958"/>
<path d="M12.0593 8.97071C12.1959 8.83412 12.2726 8.64887 12.2726 8.4557C12.2726 8.26254 12.1959 8.07728 12.0593 7.94069C11.9227 7.80411 11.7375 7.72737 11.5443 7.72737C11.3511 7.72737 11.1659 7.80411 11.0293 7.94069L7.94143 11.0293C7.8719 11.0964 7.81645 11.1768 7.7783 11.2656C7.74015 11.3544 7.72007 11.4499 7.71923 11.5465C7.71839 11.6432 7.73681 11.7391 7.77341 11.8285C7.81001 11.918 7.86406 11.9992 7.9324 12.0676C8.00075 12.1359 8.08203 12.19 8.17148 12.2266C8.26094 12.2632 8.3568 12.2816 8.45345 12.2808C8.5501 12.2799 8.64562 12.2598 8.73443 12.2217C8.82324 12.1835 8.90357 12.1281 8.97071 12.0586L12.0586 8.97071H12.0593Z" fill="#419958"/>
</svg>
