<svg width="20" height="20" viewBox="0 0 20 20" fill="none" xmlns="http://www.w3.org/2000/svg">
<path d="M13.8488 9.776C14.3327 9.15358 14.5969 8.38841 14.6 7.6C14.6 5.6152 12.9848 4 11 4H5V16H11.4C13.3848 16 15 14.3848 15 12.4C14.9989 11.907 14.8961 11.4194 14.698 10.9679C14.5 10.5164 14.2109 10.1107 13.8488 9.776ZM11 6.4C11.6616 6.4 12.2 6.9384 12.2 7.6C12.2 8.2616 11.6616 8.8 11 8.8H7.4V6.4H11ZM11.4 13.6H7.4V11.2H11.4C12.0616 11.2 12.6 11.7384 12.6 12.4C12.6 13.0616 12.0616 13.6 11.4 13.6Z" fill="#419958"/>
</svg>
