<svg width="100" height="100" viewBox="0 0 100 100" fill="none" xmlns="http://www.w3.org/2000/svg">
<rect width="100" height="100" fill="white"/>
<path fill-rule="evenodd" clip-rule="evenodd" d="M40.0897 76.0902C54.0569 80.018 60.8532 64.9448 72.8205 66.0916C79.3715 66.7194 92.4292 69.901 92.4 46.7243C92.327 31.7615 78.5355 28.0146 64.3135 35.6881C60.1286 37.3248 56.8245 36.8175 53.2371 35.1914C49.6498 33.5653 45.036 26.3057 36.3405 24.8123C10.1726 20.3179 -12.2174 61.3806 40.0897 76.0902Z" fill="#AFE9C9"/>
<path fill-rule="evenodd" clip-rule="evenodd" d="M73.2812 38.4461C73.5432 38.3187 74.0134 38.5657 73.7406 38.9634C73.1367 39.8439 75.4723 41.6027 74.7226 40.0528C74.6425 39.8871 74.2313 38.7411 74.813 39.3328C75.3947 39.9244 76.2056 42.5389 75.6811 43.4397C75.2208 44.2303 74.0027 44.6063 72.3398 44.6509L72.2649 44.6526L72.2296 44.6547C71.2493 44.7003 70.506 44.0936 70.0262 42.9122L70.0031 42.8546C69.5174 41.6178 69.6506 40.6265 70.4361 39.9581C70.4504 39.946 70.4656 39.9351 70.4817 39.9255L70.5064 39.9122L73.2812 38.4461Z" fill="white"/>
<path fill-rule="evenodd" clip-rule="evenodd" d="M20.3234 15.302C20.209 15.1397 20.0238 15.0463 19.8259 15.0705C19.6232 15.0951 19.4538 15.236 19.3921 15.4304L19.3757 15.4824C19.3632 15.5208 19.3484 15.5647 19.331 15.6141C19.2812 15.7552 19.221 15.9119 19.1497 16.0803C18.9473 16.5592 18.6981 17.0372 18.4007 17.4818C17.759 18.4412 16.9857 19.109 16.0793 19.3663C15.9376 19.4065 15.8554 19.5539 15.8956 19.6956C15.916 19.7675 17.2398 20.4291 18.5912 20.2623C19.902 20.1005 21.2418 19.1123 21.2526 19.0451L21.2691 18.905L21.2738 18.8581C21.3677 17.8399 21.1895 16.6898 20.5038 15.5757C20.4469 15.4831 20.3868 15.3919 20.3234 15.302Z" fill="#E7EAEE"/>
<path fill-rule="evenodd" clip-rule="evenodd" d="M23.0512 15.5981L23.0443 15.652C22.9493 16.3413 22.6832 17.3012 22.202 18.0253C21.6095 18.9167 20.7733 19.5985 19.9331 20.0379C18.7209 20.6717 17.4015 20.7877 16.1023 19.9643L16.045 19.9274C15.3623 19.4809 14.8442 19.2659 14.1334 19.4433C13.4225 19.6207 13.0772 20.1385 12.7704 20.6188L12.7563 20.6391C12.7071 20.7049 12.6352 20.7504 12.5541 20.7664L11.2063 20.9799L11.6971 21.5896C11.8448 21.7744 11.9498 21.9077 12.0121 21.9893L12.5516 22.7C14.1594 24.8087 15.8897 26.8221 19.2638 26.1251L19.3781 26.1006C20.2721 25.9019 21.0215 26.4355 21.9618 27.2221L22.1627 27.3913C22.4114 27.6018 23.1633 28.2647 23.4711 28.5838L23.5717 28.6893L23.6645 28.7891C23.6838 28.8102 23.7022 28.8304 23.7197 28.8498L23.8156 28.958L23.8745 28.8884C24.511 28.1222 24.9096 26.9552 25.116 25.9925C25.194 25.6288 25.2387 25.2805 25.2573 24.9591L25.2596 24.9173C25.2645 24.8233 25.2666 24.7413 25.267 24.6728V24.622L25.1708 24.6502C24.058 24.9658 22.8059 24.9971 21.5842 24.8562C21.2891 24.8221 24.5266 22.2 23.862 18.8041C23.7106 18.0302 23.6144 16.9954 23.3499 16.293C23.2665 16.0715 23.18 15.8689 23.0944 15.6878L23.0512 15.5981Z" fill="white"/>
<path fill-rule="evenodd" clip-rule="evenodd" d="M73.422 38.8655L70.6521 40.212C69.9882 40.7769 69.8753 41.6172 70.3134 42.7327C70.4671 43.1241 70.8517 44.0564 70.8517 43.6902C70.8517 43.5758 73.422 41.8958 73.9152 42.0601C74.3711 42.2121 73.5521 40.842 73.3224 40.212L73.422 38.8311L73.4982 38.6935" fill="#E7EAEE"/>
<path fill-rule="evenodd" clip-rule="evenodd" d="M69.7265 39.876C69.9106 39.876 68.8674 40.3666 68.9212 41.2714C68.9749 42.1762 69.682 43.8437 69.51 43.9094C69.338 43.9752 69.012 43.489 68.9463 43.317C68.5375 42.2471 68.46 41.8105 68.4747 41.1864C68.4938 40.3694 68.9234 39.876 69.7265 39.876Z" fill="#E7EAEE"/>
<ellipse cx="74.3682" cy="40.7722" rx="0.720032" ry="1.62656" fill="#E7EAEE"/>
<path fill-rule="evenodd" clip-rule="evenodd" d="M24.0756 57.9221C24.0756 55.0998 24.3891 53.8727 27.7564 52.3324C34.6577 49.5429 34.6577 49.4354 47.8791 44.3237C51.3756 42.9789 58.747 46.2005 61.9524 44.8503C64.0894 43.9502 66.0877 43.2819 67.8532 42.3892C68.0242 43.5056 69.1294 45.3958 69.5186 45.7207C67.4512 46.1546 65.4513 46.8255 63.519 47.7336C59.3418 49.6966 61.8171 49.1616 55.2007 55.4012C54.64 55.9299 52.5795 57.1355 49.6002 58.3913C49.6002 58.3913 43.6002 57.5856 41.1938 56.5847C38.7448 55.566 35.0339 52.3324 35.0339 52.3324C35.0339 52.3324 30.7058 55.156 28.2177 56.4252C27.053 57.0192 24.0756 57.9221 24.0756 57.9221Z" fill="white"/>
<path fill-rule="evenodd" clip-rule="evenodd" d="M24.0755 56.4554C24.0755 55.793 24.0056 55.3305 24.0755 54.8192C24.3037 53.152 25.1979 52.299 27.7748 51.1203C34.6762 48.3308 34.6577 47.9687 47.8791 42.857C51.3756 41.5122 58.747 44.7338 61.9524 43.3837C64.0894 42.4836 66.0877 41.8152 67.8532 40.9225C67.8583 40.9545 67.6745 42.4802 67.6745 42.4802C67.6745 42.4802 63.3161 44.7817 60.433 45.2697C57.3698 45.7883 53.1623 43.3837 48.961 44.5663C42.5631 46.3673 27.8195 52.0281 26.0753 53.4468C24.7048 54.5614 24.0755 56.4554 24.0755 56.4554Z" fill="#E7EAEE"/>
<path fill-rule="evenodd" clip-rule="evenodd" d="M20.3234 15.302C20.209 15.1397 20.0238 15.0463 19.8259 15.0705C19.6232 15.0951 19.4538 15.236 19.3921 15.4304L19.3757 15.4824C19.3632 15.5208 19.3484 15.5647 19.331 15.6141C19.2812 15.7552 19.221 15.9119 19.1497 16.0803C18.9473 16.5592 18.6981 17.0372 18.4007 17.4818C17.759 18.4412 16.9857 19.109 16.0793 19.3663C15.9376 19.4065 15.8554 19.5539 15.8956 19.6956C15.9358 19.8373 18.1381 18.8337 18.844 17.7784C19.1618 17.3033 19.4262 16.796 19.641 16.288C19.7058 16.1347 19.7622 15.9903 19.8105 15.8571L19.834 15.7914C19.8529 15.7377 19.8691 15.6896 19.8829 15.6471C19.8864 15.6168 19.8897 15.6067 19.8927 15.6167C21.4203 16.6618 20.8198 19.2556 20.9665 19.2682C21.1066 19.2802 21.2307 19.1817 21.2526 19.0451L21.2691 18.905L21.2738 18.8581C21.3677 17.8399 21.1895 16.6898 20.5038 15.5757C20.4469 15.4831 20.3868 15.3919 20.3234 15.302Z" fill="#E7EAEE"/>
<path fill-rule="evenodd" clip-rule="evenodd" d="M23.5043 15.2941L23.538 15.3542L23.579 15.4313C23.6038 15.4788 23.6316 15.5339 23.6618 15.5961C23.7666 15.8117 23.8724 16.0556 23.9737 16.3247C24.259 17.0821 24.4584 17.8994 24.5265 18.751C24.6189 19.9066 24.4521 20.9972 24.0296 21.9893L23.9934 22.0726C23.6502 22.8477 23.1502 23.5578 22.5011 24.1949L22.4367 24.2572L22.4915 24.2598C23.4262 24.2991 24.3506 24.2154 25.1632 23.9563C25.3374 23.9008 25.5274 23.9295 25.6776 24.0339C25.8274 24.1381 25.9205 24.3058 25.9298 24.4881L25.932 24.5447L25.9333 24.6194V24.6482C25.9333 24.7525 25.9302 24.8695 25.9228 24.9977C25.9023 25.3517 25.8532 25.7336 25.7678 26.1322C25.5264 27.2585 25.0437 28.3133 24.2547 29.2021C24.15 29.3201 24.0027 29.3908 23.8461 29.3992L23.8099 29.4C23.6427 29.3968 23.49 29.3277 23.3815 29.2097L23.302 29.1173L23.263 29.0731L23.1802 28.9811L23.0895 28.8832C23.058 28.8496 23.0252 28.8152 22.9912 28.7799C22.7015 28.4796 22.3818 28.1818 22.0423 27.9078C21.1011 27.1483 20.1933 26.7196 19.418 26.766C18.1498 26.8422 17.0995 26.783 16.1251 26.5096C14.8655 26.1562 13.8764 25.4627 13.2218 24.3588L13.1851 24.2959C12.8462 23.7049 12.3457 23.0241 11.7553 22.3155C11.5729 22.0965 11.3929 21.8883 11.2214 21.6957L11.1484 21.6141C11.0316 21.4841 10.9358 21.3805 10.8957 21.3384C10.7475 21.1822 10.696 20.9582 10.7608 20.7534L10.7703 20.7257C10.8414 20.5343 11.0067 20.3925 11.2083 20.3527L12.2891 20.1391L12.3017 20.1209C12.6885 19.5711 13.2407 19.1055 13.9742 18.918C14.7392 18.7223 15.5443 18.8924 16.3551 19.4069L16.4117 19.4433C17.5067 20.1595 18.5921 20.12 19.6241 19.5804C20.3612 19.195 21.0638 18.5405 21.5961 17.7395C22.0911 16.9948 22.3853 16.1987 22.4063 15.5703C22.415 15.3077 22.5962 15.0822 22.8509 15.0179C23.1059 14.9535 23.3725 15.0664 23.5043 15.2941ZM23.0511 15.5981L23.0442 15.652C22.9492 16.3413 22.6831 17.3012 22.2019 18.0253C21.6094 18.9168 20.7732 19.5985 19.933 20.0379C18.7208 20.6717 17.4014 20.7877 16.1022 19.9643L16.0449 19.9274C15.3622 19.4809 14.8441 19.2659 14.1333 19.4433C13.4224 19.6208 13.0772 20.1385 12.7703 20.6188L12.7562 20.6391C12.7071 20.7049 12.6351 20.7504 12.554 20.7664L11.2062 20.9799L11.697 21.5896C11.8448 21.7744 11.9498 21.9077 12.012 21.9893L12.5515 22.7C14.1593 24.8087 15.8896 26.8221 19.2637 26.1251L19.378 26.1006C20.272 25.9019 21.0215 26.4355 21.9617 27.2221L22.1626 27.3913C22.4113 27.6018 23.1632 28.2647 23.471 28.5838L23.5716 28.6893L23.6644 28.7891C23.6837 28.8102 23.7021 28.8304 23.7196 28.8498L23.8155 28.958L23.8744 28.8884C24.5109 28.1222 24.9095 26.9552 25.1159 25.9925C25.1939 25.6288 25.2386 25.2805 25.2572 24.9591L25.2595 24.9173C25.2644 24.8233 25.2665 24.7413 25.2669 24.6728V24.622L25.1707 24.6502C24.0579 24.9658 22.8058 24.9971 21.5841 24.8562C21.289 24.8222 24.5265 22.2 23.8619 18.8041C23.7105 18.0302 23.6144 16.9954 23.3499 16.293C23.2664 16.0715 23.1799 15.8689 23.0943 15.6878L23.0511 15.5981Z" fill="#E7EAEE"/>
<path fill-rule="evenodd" clip-rule="evenodd" d="M14.6 21.6C14.8573 21.6 15.0667 21.3907 15.0667 21.1333C15.0667 20.876 14.8573 20.6667 14.6 20.6667C14.3427 20.6667 14.1333 20.876 14.1333 21.1333C14.1333 21.3906 14.3427 21.6 14.6 21.6Z" fill="#00160A"/>
<ellipse cx="14.9999" cy="22.8667" rx="0.733333" ry="0.599999" fill="#FFB61D"/>
<ellipse cx="15.0001" cy="22.8667" rx="0.733333" ry="0.599999" fill="#FFB61D"/>
<path fill-rule="evenodd" clip-rule="evenodd" d="M23.5044 15.2941L23.538 15.3542L23.5791 15.4313C23.6038 15.4788 23.6316 15.5339 23.6618 15.5961C23.7666 15.8117 23.8725 16.0556 23.9738 16.3247C24.259 17.0821 24.4585 17.8994 24.5265 18.751C24.6189 19.9066 24.4521 20.9972 24.0297 21.9893L23.9935 22.0726C23.6503 22.8477 23.1502 23.5578 22.5011 24.1949L22.4368 24.2572L22.4915 24.2598C23.4262 24.2991 24.3506 24.2154 25.1632 23.9563C25.3375 23.9008 25.5275 23.9295 25.6776 24.0339C25.8274 24.1381 25.9205 24.3058 25.9299 24.4881L25.932 24.5447L25.9333 24.6194V24.6482C25.9333 24.7525 25.9303 24.8695 25.9228 24.9977C25.9023 25.3517 25.8533 25.7336 25.7678 26.1322C25.5264 27.2585 25.0437 28.3133 24.2548 29.2021C24.1501 29.3201 24.0027 29.3908 23.8462 29.3992L23.81 29.4C23.6427 29.3968 23.49 29.3277 23.3815 29.2097L23.302 29.1173L23.2631 29.0731L23.1802 28.9811L23.0895 28.8832C23.058 28.8496 23.0252 28.8152 22.9912 28.7799C22.7015 28.4796 22.3819 28.1818 22.0423 27.9078C21.1011 27.1483 20.1933 26.7196 19.418 26.766C18.1498 26.8422 17.0996 26.783 16.1252 26.5096C14.8655 26.1562 13.8764 25.4627 13.2219 24.3588L13.1852 24.2959C12.8463 23.7049 12.3458 23.0241 11.7554 22.3155C11.5729 22.0965 11.393 21.8883 11.2214 21.6957L11.1485 21.6141C11.0316 21.4841 10.9359 21.3805 10.8957 21.3384C10.7476 21.1822 10.6961 20.9582 10.7608 20.7534L10.7703 20.7257C10.8414 20.5343 11.0068 20.3925 11.2084 20.3527L12.2892 20.1391L12.3018 20.1209C12.6885 19.5711 13.2407 19.1055 13.9742 18.918C14.6962 18.7333 15.4538 18.8744 16.2183 19.3232C17.065 19.0395 17.792 18.3918 18.4007 17.4818C18.6981 17.0372 18.9473 16.5592 19.1497 16.0803C19.2209 15.9119 19.2812 15.7552 19.3309 15.6141C19.3483 15.5647 19.3632 15.5208 19.3756 15.4824L19.3921 15.4304C19.4537 15.236 19.6232 15.0951 19.8258 15.0705C20.0237 15.0463 20.209 15.1397 20.3233 15.302C20.3867 15.3919 20.4468 15.4831 20.5038 15.5757C21.036 16.4405 21.2625 17.3271 21.2932 18.1567C21.3992 18.0229 21.5004 17.8836 21.5962 17.7395C22.0911 16.9948 22.3854 16.1987 22.4063 15.5703C22.4151 15.3077 22.5962 15.0822 22.851 15.0179C23.1059 14.9535 23.3725 15.0664 23.5044 15.2941ZM19.6241 19.5804C18.6217 20.1045 17.5689 20.1568 16.5058 19.503C17.2216 19.1721 18.37 18.4869 18.8439 17.7784C19.1617 17.3033 19.4262 16.796 19.6409 16.288C19.7057 16.1347 19.7621 15.9903 19.8104 15.8571L19.8339 15.7914C19.8528 15.7377 19.8691 15.6896 19.8829 15.6471C19.8864 15.6168 19.8896 15.6066 19.8926 15.6167C20.9081 16.3114 20.9832 17.6904 20.9625 18.5407C20.5543 18.9762 20.0963 19.3335 19.6241 19.5804ZM19.933 20.0379C20.3398 19.8252 20.7457 19.5556 21.1234 19.233C21.1523 19.2161 21.1779 19.1939 21.1987 19.1676C21.572 18.8383 21.9155 18.4563 22.2019 18.0253C22.6832 17.3012 22.9493 16.3413 23.0442 15.652L23.0512 15.5981L23.0943 15.6878C23.18 15.8689 23.2665 16.0715 23.3499 16.293C23.534 16.7818 23.6365 17.4316 23.7329 18.0424L23.7329 18.0425C23.775 18.3093 23.8159 18.5688 23.862 18.8041C24.3713 21.4069 22.5884 23.5552 21.8607 24.432C21.639 24.6991 21.5152 24.8482 21.5841 24.8562C22.8059 24.9971 24.0579 24.9658 25.1708 24.6502L25.2669 24.622V24.6728C25.2666 24.7413 25.2644 24.8233 25.2596 24.9173L25.2573 24.9591C25.2387 25.2805 25.1939 25.6288 25.116 25.9925C24.9096 26.9552 24.511 28.1222 23.8745 28.8884L23.8156 28.958L23.7197 28.8498C23.7022 28.8304 23.6838 28.8102 23.6644 28.7891L23.5716 28.6893L23.4711 28.5838C23.1633 28.2647 22.4114 27.6018 22.1626 27.3913L21.9617 27.2221C21.0215 26.4355 20.272 25.9019 19.3781 26.1006L19.2637 26.1251C15.8896 26.8221 14.1594 24.8087 12.5516 22.7L12.0121 21.9893C11.9498 21.9077 11.8448 21.7744 11.6971 21.5896L11.2063 20.9799L12.554 20.7664C12.6351 20.7504 12.7071 20.7049 12.7563 20.6391L12.7704 20.6188C13.0772 20.1385 13.4225 19.6208 14.1333 19.4433C14.8442 19.2659 15.3623 19.4809 16.045 19.9274L16.1023 19.9643C17.4014 20.7877 18.7209 20.6717 19.933 20.0379ZM73.2812 38.4461C73.5433 38.3187 74.0134 38.5657 73.7407 38.9634C73.3278 39.5654 73.7865 40.9632 74.0659 41.8146C74.1952 42.2085 74.286 42.4855 74.2344 42.5124C74.0713 42.5977 73.8699 42.5346 73.7846 42.3714C73.3228 41.4879 73.0577 40.7863 72.9916 40.253C72.9587 39.9877 72.9514 39.731 72.97 39.4833L72.9724 39.4547L70.8378 40.4923L70.8108 40.5171C70.3289 40.9692 70.1169 41.4939 70.4695 42.4236L70.4904 42.4775C70.8732 43.4522 71.5212 44.1513 72.1954 44.1222L72.2481 44.1195C73.7464 44.0894 74.6418 43.6385 74.9614 43.0896C75.3633 42.3993 75.4724 41.6027 74.7227 40.0528C74.6425 39.8871 74.2313 38.7411 74.813 39.3328C75.3947 39.9244 76.2057 42.5389 75.6812 43.4397C75.2433 44.1917 74.1197 44.5687 72.5798 44.642C72.5888 44.6812 72.5908 44.7227 72.5845 44.7649C72.4387 45.7547 71.9869 46.3774 71.2314 46.5576C70.6536 46.6953 70.0327 46.5128 69.4639 46.0731C67.4656 46.5023 65.5314 47.1562 63.6608 48.0353L63.3837 48.1665C62.4294 48.6224 61.8822 48.9279 61.4825 49.225C61.2481 49.3992 61.0545 49.5776 60.8464 49.8073L60.8128 49.8455C60.7118 49.9627 60.4915 50.2317 60.2409 50.5378L60.2409 50.5379L60.2405 50.5384L60.2401 50.5388C59.9068 50.946 59.5201 51.4183 59.2892 51.6855L59.1777 51.8139C58.2389 52.8895 57.0557 54.11 55.4294 55.6436L55.3839 55.6854C54.7742 56.2303 53.1539 57.1515 51.1333 58.0804C56.7095 57.8822 60.7304 55.7539 63.2344 51.6917C63.3446 51.513 63.5906 51.4794 63.7446 51.6221C68.0504 55.6099 73.0394 57.4553 78.7308 57.1671C84.4374 56.8781 88.6251 55.3949 91.3068 52.7321C91.4374 52.6024 91.6485 52.6031 91.7782 52.7338C91.9079 52.8644 91.9071 53.0754 91.7765 53.2052C88.9633 55.9986 82.9907 58.0947 77.1335 58.3913C71.4374 58.6797 68.0386 56.3327 63.6929 52.4751L63.5867 52.3802L63.5486 52.4386C60.7963 56.6097 54.8167 59.6519 48.8493 59.695L48.6623 59.6956C42.5587 59.6956 39.0385 56.7402 34.9206 52.7008L34.8886 52.6691L34.8739 52.6817L34.5142 52.9843C30.6556 56.2314 27.7765 58.6543 23.4457 59.2733L23.3075 59.2926C18.4244 60.2806 11.0185 57.6489 9.88043 56.3589C8.83765 55.177 10.054 55.9117 10.3879 56.1134L10.3884 56.1137C10.4187 56.132 10.4416 56.1458 10.4549 56.1534C13.6869 58.0038 17.4133 58.7085 21.8841 58.0987C22.5011 58.0145 23.1143 57.9031 23.7235 57.7644L23.7164 57.6988C23.5212 55.8447 23.5201 55.0344 23.8014 54.1043C24.184 52.8391 25.1128 51.8778 26.7838 51.1135L27.2439 50.9101C29.3079 50.0004 30.9471 49.3175 32.6473 48.654L32.7718 48.6055C32.9625 48.5313 33.1557 48.4567 33.3529 48.381L33.5461 48.3073C33.6158 48.2826 34.523 47.923 35.9028 47.376L35.9042 47.3754L35.9093 47.3734L35.9115 47.3725C39.1052 46.1064 44.8193 43.8411 48.547 42.3999C49.3534 42.0897 50.3298 41.9866 51.5274 42.0485L51.6306 42.0542C52.5277 42.107 53.4101 42.2288 54.8568 42.4791L56.1277 42.7017C57.547 42.9473 58.2347 43.0442 59.0376 43.1014C59.2901 43.1194 59.53 43.1417 59.7579 43.1629C60.6022 43.2413 61.2817 43.3045 61.8231 43.0765C62.3047 42.8736 62.7768 42.6778 63.2394 42.4859L63.2396 42.4858C64.7524 41.8583 66.1636 41.2729 67.4731 40.622C67.563 40.0395 67.7924 39.6096 68.1521 39.3264C68.7068 38.8896 69.492 38.8822 70.173 39.147C70.3445 39.2138 70.4295 39.407 70.3628 39.5785C70.3412 39.634 70.2025 39.6085 70.0063 39.5723C69.5959 39.4966 68.9339 39.3745 68.5645 39.8501C68.1535 40.3792 68.017 41.1898 68.381 42.7858C68.6447 43.9424 70.3546 45.9091 71.0767 45.9091C71.8819 45.9091 72.0702 45.1274 72.177 44.6841L72.1837 44.6564C71.2261 44.6811 70.4985 44.0751 70.0262 42.9122L70.0032 42.8546C69.5175 41.6178 69.6507 40.6265 70.4361 39.9581C70.4504 39.946 70.4656 39.9351 70.4817 39.9255L70.5064 39.9122L73.2812 38.4461ZM68.8489 45.4705C68.8152 45.4297 68.7819 45.3879 68.7489 45.3452C68.7363 45.3317 68.7243 45.3183 68.7139 45.3057C68.6837 45.2689 68.6526 45.2316 68.621 45.1936L68.6206 45.1932C68.3623 44.8829 68.063 44.5233 67.8285 44.0048L67.7946 43.9293C67.4185 43.087 67.3737 42.1409 67.3968 41.3608L67.4003 41.2702L67.3804 41.2802C65.8269 42.0491 64.1371 42.8203 62.3109 43.5941L62.0819 43.6908C61.3 44.0202 60.3234 44.2528 59.086 44.1729L58.9903 44.1664C58.1449 44.1061 57.4338 44.0051 55.9427 43.7462L54.8295 43.551C51.6913 43.0077 50.1209 42.9229 48.8268 43.4068C48.8268 43.4068 29.5291 50.666 27.0576 51.7213C25.5544 52.4089 25.0444 53.0559 24.4228 54.1043C24.1013 54.6465 24.1338 56.1423 24.1564 57.1813C24.1602 57.3556 24.1637 57.517 24.1652 57.6589C27.8141 56.7463 31.3216 54.8491 34.6899 51.9634C34.8227 51.8497 35.0208 51.8578 35.1437 51.9821C35.4163 52.2576 35.6933 52.5238 35.975 52.7807L49.8715 46.9748C49.9096 46.9589 49.9489 46.9506 49.9879 46.9492C50.0926 46.8998 50.2054 46.859 50.3266 46.8268C51.5383 46.5046 52.506 47.0287 53.1746 48.3189L54.3859 47.4353C54.5645 47.305 54.8182 47.3815 54.8949 47.5889C56.0003 50.5763 55.6783 52.6232 53.8581 53.6108C52.0226 54.6068 50.4263 53.7855 49.1818 51.2961C49.1187 51.1698 49.1435 51.0239 49.2308 50.9255C48.9341 49.7203 48.8791 48.76 49.0809 48.0646L36.9058 53.5822C38.7263 55.0602 40.7254 56.175 42.9045 56.9269C42.9544 56.8792 43.0083 56.8382 43.0614 56.8091C44.8969 55.8037 49.4189 54.6293 50.536 54.3392C50.6327 54.3141 50.7038 54.2956 50.7456 54.2844C51.2696 54.144 50.7327 54.6337 50.5745 54.7067L50.5543 54.7153L43.954 57.257C45.9175 57.8162 48.0199 58.0956 50.2623 58.0956C50.3898 58.0956 50.5166 58.0947 50.6426 58.0928L50.7902 57.9968L50.7903 57.9967L50.791 57.9963L50.7912 57.9962C52.2028 57.0787 54.5623 55.545 54.9721 55.1586L55.1633 54.9778C56.5222 53.6592 57.5336 52.3942 58.4164 51.2899C59.385 50.0784 60.1989 49.0604 61.1472 48.3776C61.8846 47.8466 62.1518 47.7253 62.7799 47.4402L62.7801 47.4401C62.948 47.3639 63.1418 47.2759 63.3773 47.1652C65.0431 46.3824 66.9349 45.9291 68.7108 45.5036L68.8489 45.4705ZM50.4979 47.4711C51.4581 47.2158 52.1772 47.6667 52.7253 48.926L51.7241 50.1967C51.6739 50.1062 51.5871 50.0474 51.4915 50.0302C51.4325 50.0195 51.37 50.0246 51.3101 50.0482L51.3077 50.0492L49.8443 50.6266L49.8077 50.4659C49.4069 48.6494 49.668 47.6917 50.4979 47.4711ZM52.7253 48.926L51.7249 50.1982C52.0595 50.8014 52.318 50.9452 52.5805 50.798C52.8582 50.6423 52.9453 50.0572 52.7426 49.0117L52.7253 48.926ZM34.3652 62.6125C34.52 62.5129 35.5886 61.9916 34.637 62.9715C33.6854 63.9514 26.2742 68.1088 22.2736 68.339C18.4178 68.5609 14.9943 66.9505 12.0157 64.843L11.917 64.7725L11.8973 64.798C11.7655 64.9651 11.63 65.1168 11.4908 65.253L11.4309 65.3104C11.1786 65.5473 10.7419 65.8153 10.111 66.127C9.94597 66.2085 9.36275 66.2835 9.66454 65.9757C9.96634 65.668 10.6269 65.2248 11.0116 64.9708C11.263 64.8047 11.3424 64.6105 11.4211 64.4179C11.4629 64.3158 11.5045 64.214 11.5714 64.1172C11.679 63.9616 11.8942 63.9266 12.0455 64.04C14.9819 66.2407 18.412 67.4139 22.2736 67.1916C26.1512 66.9685 30.1558 65.321 34.3652 62.6125ZM57.1715 64.7378C57.3068 64.613 57.3068 63.7224 57.1715 63.8472C55.6738 65.2292 52.5382 66.4447 48.669 66.6674C44.7949 66.8903 41.749 66.2812 39.5255 64.8514C39.3706 64.7518 38.6042 64.4885 39.0648 64.9515C39.5255 65.4145 44.7033 67.83 48.7073 67.5996L48.8272 67.5925C52.7725 67.3517 55.5539 66.2304 57.1715 64.7378ZM54.4368 48.2977L54.4167 48.2378L53.4131 48.97L53.4316 49.0736C53.6334 50.2539 53.4957 51.0254 52.936 51.3624L52.9066 51.3795C52.3232 51.7067 51.7741 51.4756 51.3149 50.8033L51.2947 50.7734L49.9453 51.3184L49.9764 51.3751C51.0079 53.2365 52.1512 53.7542 53.4967 53.0481L53.5402 53.0249C54.8914 52.2917 55.2242 50.7952 54.4835 48.4428L54.4368 48.2977ZM15.0667 21.1333C15.0667 21.3907 14.8573 21.6 14.6 21.6C14.3427 21.6 14.1333 21.3906 14.1333 21.1333C14.1333 20.876 14.3427 20.6667 14.6 20.6667C14.8573 20.6667 15.0667 20.876 15.0667 21.1333Z" fill="#00160A"/>
</svg>
