<svg width="100" height="100" viewBox="0 0 100 100" fill="none" xmlns="http://www.w3.org/2000/svg">
<rect width="100" height="100" fill="white"/>
<path fill-rule="evenodd" clip-rule="evenodd" d="M96.3901 41.7801C95.238 50.3702 93.9375 54.9076 86.347 63.9034C78.7564 72.8992 44.0215 78.8171 31.18 78.8171C18.3385 78.8171 2.51288 68.915 3.51168 57.4418C4.51048 45.9685 9.72139 36.5911 22.1939 35.4368C34.9402 34.257 46.1367 39.7201 58.6505 36.7901C69.4693 34.257 72.7795 24.6017 80.2101 21.5555C95.238 15.3948 97.1739 35.9363 96.3901 41.7801Z" fill="#8FCEF5"/>
<path d="M88.6587 45.9755C88.2342 46.6951 82.8595 50.3365 79.5993 50.8754C78.9684 50.9797 78.2795 51.0155 77.7315 50.6861C77.4078 50.4915 77.1665 50.188 76.9374 49.8878C76.4134 49.2013 75.9136 48.4964 75.4391 47.7748C75.1898 47.3956 74.9425 46.9998 74.8578 46.554C74.6335 45.3733 75.5851 44.3129 76.5256 43.5649C78.6876 41.8453 81.2191 40.5926 83.8976 39.9168C84.3717 39.7972 84.8745 39.6959 85.3442 39.8317C86.1066 40.0523 86.5624 40.8237 86.8533 41.5621C87.1442 42.3006 87.3711 43.1082 87.9525 43.6484C88.0853 43.7718 89.0832 45.2558 88.6587 45.9755Z" fill="white"/>
<path fill-rule="evenodd" clip-rule="evenodd" d="M59.7789 77.3472C54.5627 78.2393 57.0488 74.4481 57.7682 69.7029C58.9502 61.9057 60.4078 50.0566 60.4078 50.0566C60.4078 50.0566 61.3583 68.1118 61.3583 72.5082C61.3583 76.9045 60.4076 77.2397 59.7789 77.3472Z" fill="white"/>
<path d="M54.2053 73.0515C54.3385 74.3071 54.4788 75.5892 55.0124 76.7335C54.7213 74.1423 54.4302 71.551 54.1391 68.9597C54.1031 68.6397 54.1138 68.2324 54.4081 68.1019C54.6572 71.0279 55.0286 73.9435 55.5209 76.8386C55.5794 77.1823 55.0631 77.3787 54.7732 77.1851C54.4832 76.9915 54.3905 76.6146 54.3246 76.2722C53.8441 73.7775 53.5799 71.2412 53.536 68.701C52.9243 68.8215 52.4954 69.4145 52.3716 70.0256C52.2479 70.6366 52.3672 71.2676 52.4863 71.8796C52.87 73.8493 53.2536 75.819 53.6372 77.7888C53.8166 78.7101 53.996 79.6621 53.798 80.5796C53.0367 77.1035 52.4246 73.5948 51.964 70.0662C46.1222 73.6385 38.5948 74.3028 32.2176 71.8089C30.8248 71.2642 29.4416 70.5424 28.5217 69.3633C27.797 68.4344 27.4103 67.2812 27.2077 66.1207C26.4882 61.999 27.9626 57.7947 29.9638 54.1203C30.7231 52.7261 31.5879 51.2739 31.5266 49.6875C31.5055 49.1414 31.3877 48.5366 31.7067 48.0927C31.7518 48.1749 29.6187 32.9162 30.4744 29.5411C32.5345 21.4156 39.2267 20.3152 43.5115 20.4154C46.3864 20.4827 64.6097 24.1042 67.2426 29.0291C70.703 35.5019 69.9684 40.9438 69.3538 44.5321C69.1708 45.6006 60.4101 49.9779 60.4077 50C59.9069 54.6561 56.5458 64.8014 53.7269 68.5409C53.8864 70.0445 54.0459 71.548 54.2053 73.0515Z" fill="white"/>
<path fill-rule="evenodd" clip-rule="evenodd" d="M12.1416 54.1063C10.4986 53.4505 8.54073 53.645 7.05951 54.6112C6.91611 54.7047 6.70994 54.6005 6.63895 54.4449C6.56796 54.2892 6.59451 54.1082 6.63083 53.9411C7.1039 51.764 8.98848 50.0983 11.0843 49.3328C13.1801 48.5672 15.4726 48.5651 17.7005 48.696C17.9216 48.7089 18.1526 48.7262 18.3412 48.8421C18.5297 48.958 18.6566 49.2058 18.5626 49.4059C17.6862 51.2721 17.026 53.2394 16.5994 55.256C16.5303 55.583 16.1914 55.7999 15.8577 55.8272C15.524 55.8545 15.197 55.7313 14.8942 55.5888C13.9504 55.1446 13.1104 54.4931 12.1416 54.1063Z" fill="white"/>
<path fill-rule="evenodd" clip-rule="evenodd" d="M62.641 21.2417C62.7226 19.9929 62.6284 18.7327 62.3622 17.5098L62.3565 17.4837C62.3113 17.277 62.2648 17.0643 62.3065 16.8573C62.3986 16.3997 62.9069 16.1242 63.3736 16.1338C63.8403 16.1434 64.2727 16.3662 64.6857 16.5838C66.6665 17.6273 68.683 18.697 70.2425 20.3033C70.2914 21.6037 69.985 22.887 69.6824 24.1538L69.654 24.2728C68.391 29.5676 67.3568 34.917 66.5552 40.301C66.4784 40.8171 66.3327 41.4258 65.8432 41.6065C65.4921 41.7362 65.0839 41.5705 64.8345 41.2915C64.585 41.0124 64.4658 40.6419 64.3826 40.277C64.1774 39.3767 64.1527 38.4356 64.3104 37.5257C64.4068 36.9693 64.5699 36.4281 64.7329 35.8867C64.8793 35.4007 65.0257 34.9146 65.1241 34.4172C65.2224 33.9199 65.2719 33.4144 65.32 32.9097C65.5756 30.2261 65.7925 27.5388 65.9704 24.849C65.9956 24.4689 66.0184 24.0768 65.8939 23.7168C65.6725 23.0765 65.0274 22.6717 64.3757 22.4862C64.2634 22.4542 64.1493 22.427 64.0353 22.3998C63.7698 22.3365 63.5044 22.2732 63.2622 22.1498C62.916 21.9734 62.6156 21.6295 62.641 21.2417ZM63.8513 21.1391C64.7724 21.3335 65.6726 21.627 66.5313 22.0129C66.7041 22.0906 66.8859 22.1816 66.9794 22.3465C67.0556 22.4812 67.06 22.6434 67.0623 22.7982C67.0893 24.6163 67.095 26.4391 66.9025 28.2471C66.7872 29.3298 66.6012 30.403 66.4153 31.4762L66.4152 31.4769L66.415 31.4778L66.4149 31.4786L66.4147 31.4794L66.4146 31.4801L66.4145 31.4808L66.4144 31.4816C66.3558 31.8194 66.2973 32.1572 66.241 32.4953C65.9608 34.1775 65.7354 35.8688 65.565 37.5656C65.4414 38.7967 65.3509 40.0692 65.7339 41.2458C65.9304 41.2099 66.006 40.9733 66.0432 40.7771L69.5824 22.1227C69.6681 21.6707 69.7538 21.2034 69.6528 20.7546C69.4759 19.9689 68.7785 19.4225 68.106 18.9792C66.8116 18.1258 65.4337 17.399 63.9985 16.8125C63.8791 18.2511 63.83 19.6956 63.8513 21.1391ZM65.6713 33.3904C66.3193 30.0636 66.6121 26.6678 66.543 23.2792C66.5378 23.0233 66.524 22.7483 66.3675 22.5457C66.2528 22.3973 66.0775 22.3104 65.9063 22.2337C65.2634 21.9457 64.5875 21.7315 63.8962 21.5964C63.696 21.5573 63.4018 21.5997 63.4106 21.8034L65.8957 22.8303C66.0414 22.8905 66.1967 22.9586 66.2791 23.0931C66.3599 23.225 66.352 23.3907 66.3415 23.5451L65.6713 33.3904ZM63.3588 16.4834C63.1539 16.3476 62.8579 16.4876 62.7438 16.7053C62.6297 16.923 62.6471 17.1836 62.6729 17.428C62.7108 17.7867 62.7608 18.1455 62.8108 18.5043C62.9494 19.5 63.0881 20.496 62.9703 21.4896C63.1582 21.5541 63.368 21.4216 63.4591 21.2451C63.5503 21.0685 63.5527 20.8611 63.553 20.6624L63.5593 17.0795C63.5597 16.8605 63.5413 16.6044 63.3588 16.4834ZM65.1989 41.165C65.0861 40.2796 65.0565 39.3835 65.1107 38.4926C65.1397 38.0163 65.1926 37.5417 65.2454 37.0672V37.0671V37.0671V37.067V37.067V37.0669V37.0669V37.0668C65.3153 36.4391 65.3852 35.8116 65.3998 35.1805C64.8837 36.7167 64.6888 38.36 64.8313 39.9744C64.8684 40.3943 64.9371 40.8346 65.1989 41.165ZM65.4829 34.2731C65.5659 34.2358 65.6008 34.1192 65.5518 34.0425C65.4675 34.084 65.4316 34.2018 65.4785 34.2833L65.4829 34.2731ZM64.7112 26.5792C60.6037 24.0461 55.9593 22.5284 51.3146 21.2188C49.8299 20.8001 48.3327 20.399 46.7997 20.2272C42.2572 19.7183 37.6521 21.2856 33.8751 23.8599C32.3603 24.8923 30.8987 26.1623 30.2443 27.8747C29.7587 29.1452 29.762 30.5439 29.8088 31.9032C29.9704 36.5915 30.5719 41.2521 31.1728 45.9045C31.6426 45.8197 31.689 45.17 31.6209 44.6976C30.9961 40.3589 30.6458 35.9807 30.5728 31.5979C30.5523 30.3689 30.5587 29.1089 30.984 27.9557C31.7539 25.868 33.7397 24.5027 35.6881 23.4283C38.1423 22.075 40.81 20.9374 43.6119 20.877C47.0059 20.8038 50.2229 22.3093 53.1877 23.9628C54.8406 24.8846 56.5166 25.9139 57.5681 27.4875C58.5229 28.9163 58.8698 30.6577 59.1203 32.3578C59.9155 37.7538 59.9446 43.2296 59.9722 48.6838C59.9733 48.9044 59.9598 49.1572 59.787 49.2944C59.6688 49.3882 59.5074 49.3999 59.3568 49.4077L53.8197 49.6959C56.3999 50.4378 59.2621 50.1452 61.6388 48.8966L67.7912 45.6645C68.3654 45.3629 68.9581 45.046 69.3539 44.5321C69.8986 43.8249 69.9766 42.8735 70.0023 41.9812C70.0972 38.6856 69.7677 35.3781 69.0244 32.1661C69.2821 35.6407 69.3178 39.1318 69.1314 42.611C69.0995 43.2052 69.0519 43.8285 68.7288 44.3282C68.3837 44.8618 67.7838 45.1641 67.2122 45.4419L60.5724 48.669C60.8472 43.5101 60.6341 38.3252 59.9368 33.2062C59.7022 31.4845 59.403 29.7387 58.6151 28.19C56.7531 24.53 52.6317 22.7195 48.8226 21.1854C54.5174 22.8515 60.2773 24.5451 65.4006 27.5381C65.4671 27.1246 65.0677 26.7991 64.7112 26.5792ZM85.9306 42.327C86.2257 43.0879 86.6408 43.8989 87.4036 44.1889C87.5843 44.2029 87.6923 43.9632 87.633 43.792C87.5835 43.6489 87.467 43.5447 87.3526 43.4424C87.33 43.4222 87.3075 43.4021 87.2857 43.3818C86.8002 42.9308 86.5619 42.2933 86.3272 41.6654C86.2808 41.5412 86.2345 41.4174 86.1865 41.2955C85.8956 40.5571 85.4397 39.7856 84.6773 39.5651C84.2076 39.4292 83.7048 39.5305 83.2307 39.6501C80.5522 40.3259 78.0207 41.5786 75.8587 43.2982C74.9182 44.0463 73.9665 45.1067 74.1909 46.2873C74.2756 46.7332 74.5229 47.129 74.7722 47.5082C75.2467 48.2298 75.7465 48.9347 76.2705 49.6212C76.4996 49.9214 76.7409 50.2249 77.0646 50.4195C77.6126 50.7489 78.3016 50.7131 78.9324 50.6088C82.1927 50.0699 84.9831 48.0438 87.6383 46.0767C87.7765 45.9743 87.9203 45.8652 87.9919 45.7089C88.0634 45.5525 88.0329 45.335 87.881 45.2542C87.707 45.1617 87.5016 45.2895 87.3463 45.411C84.8754 47.3455 82.2361 49.2359 79.1724 49.9155C78.5916 50.0443 77.9515 50.1202 77.429 49.8358C77.038 49.623 76.774 49.2405 76.5248 48.8717L74.9792 46.585C74.8491 46.3924 74.7141 46.1853 74.7093 45.9529C74.7044 45.7205 74.8923 45.4691 75.1228 45.4991C77.2892 45.7808 79.4659 45.9834 81.6471 46.1061C81.8207 46.1159 82.0023 46.1237 82.1605 46.0515C82.3643 45.9584 82.4886 45.7523 82.5972 45.5564C83.5207 43.8917 84.226 42.1063 84.6896 40.26C85.306 40.7019 85.5936 41.4505 85.868 42.1648L85.868 42.1648C85.8889 42.2191 85.9097 42.2733 85.9306 42.327ZM84.0239 40.1139C83.6112 41.6579 83.0006 43.149 82.2118 44.5391C82.0796 44.7721 81.9328 45.0121 81.7016 45.1475C81.4074 45.3197 81.0414 45.2873 80.7026 45.2495L75.3063 44.6473C76.2016 43.4642 77.5316 42.6964 78.8606 42.0366C80.1185 41.4121 81.4099 40.855 82.7273 40.3685C83.1444 40.2145 83.5819 40.0653 84.0239 40.1139ZM54.2054 73.0515C54.3385 74.3071 54.4789 75.5892 55.0124 76.7335L54.1391 68.9597C54.1031 68.6397 54.1138 68.2324 54.4082 68.1019C54.6572 71.0279 55.0286 73.9435 55.521 76.8386C55.5794 77.1823 55.0632 77.3787 54.7732 77.1851C54.4833 76.9915 54.3905 76.6146 54.3246 76.2722C53.8441 73.7775 53.58 71.2412 53.5361 68.701C52.9244 68.8215 52.4954 69.4145 52.3717 70.0256C52.2479 70.6366 52.3672 71.2676 52.4864 71.8796L53.6372 77.7888C53.8166 78.7101 53.9961 79.6621 53.7981 80.5796C53.0367 77.1035 52.4246 73.5948 51.9641 70.0662C46.1222 73.6385 38.5948 74.3028 32.2176 71.8089C30.8248 71.2642 29.4416 70.5424 28.5217 69.3633C27.797 68.4344 27.4103 67.2812 27.2077 66.1207C26.4882 61.999 27.9626 57.7947 29.9638 54.1203C30.0159 54.0246 30.0686 53.9286 30.1213 53.8323L30.1214 53.8323C30.8375 52.526 31.5837 51.165 31.5266 49.6876C31.5229 49.59 31.516 49.4906 31.5091 49.3906L31.5091 49.3905L31.5091 49.3905L31.5091 49.3905L31.5091 49.3904L31.5091 49.3904L31.5091 49.3904L31.5091 49.3903L31.5091 49.3903C31.4774 48.9303 31.4448 48.4573 31.7067 48.0927C32.058 48.7319 32.1918 49.4881 32.0811 50.209C38.129 49.9487 44.1858 49.8963 50.2373 50.0519C50.3079 50.3301 49.9048 50.4594 49.6178 50.4551C43.9704 50.3708 38.3204 50.467 32.6792 50.7435C32.5006 50.7523 32.313 50.7639 32.1616 50.859C32.0022 50.9591 31.9094 51.1346 31.8238 51.3022C30.2227 54.4348 28.6164 57.6131 27.8426 61.045C27.4446 62.8099 27.2922 64.7414 28.1078 66.3563C28.4173 66.9689 28.8549 67.51 29.3435 67.9919C31.9668 70.5794 35.8949 71.3727 39.579 71.3107C41.9303 71.2712 44.2764 70.9332 46.5433 70.3074C48.9464 69.644 51.3432 68.5982 52.9835 66.7208C53.9468 65.6183 54.6015 64.2831 55.1749 62.936C56.2697 60.3638 57.1094 57.6832 57.6777 54.9461C58.0337 55.021 58.0386 55.5242 57.9565 55.8785C56.9404 60.262 55.7594 64.9343 52.4127 67.9421C49.3901 70.6587 45.1308 71.5011 41.0731 71.7284C38.7293 71.8596 36.3485 71.8186 34.0783 71.2211C31.808 70.6236 29.6404 69.4283 28.1991 67.5753C28.6195 69.1781 30.0434 70.3219 31.5258 71.0622C35.418 73.0057 40.0142 72.903 44.312 72.2274C47.1748 71.7774 50.1134 71.0388 52.3414 69.1855C54.2458 67.6013 55.4595 65.3389 56.3731 63.0363C57.3843 60.4875 58.0858 57.816 58.4572 55.0993C58.6884 54.9531 58.8598 55.3619 58.8305 55.6339C58.3297 60.2899 56.5458 64.8014 53.727 68.5409L54.2054 73.0515ZM51.4986 81.0134C51.2502 80.594 51.0904 80.1226 51.0324 79.6387L50.6755 80.8478L49.7751 77.4136C49.7052 77.1472 49.5352 76.8138 49.2658 76.871C49.0039 76.9267 48.9745 77.2861 49.0135 77.551C49.2097 78.8833 49.5838 80.1892 50.1229 81.4232L49.1653 80.5829C49.1187 80.983 49.224 81.3989 49.4553 81.7285C48.9565 81.3612 48.2875 81.2359 47.6896 81.3981C48.1168 81.9917 48.6969 82.4744 49.3583 82.7866L48.5491 81.6571C49.2032 82.0347 49.8884 82.3582 50.5956 82.6233L49.91 81.7636L50.7571 81.9984C50.1089 80.5237 49.4485 78.9928 49.4642 77.3821C49.7096 78.6924 50.0688 79.9814 50.5364 81.2298C50.6156 81.4414 50.7036 81.6601 50.8725 81.8102C51.0413 81.9604 51.3156 82.0169 51.4925 81.8764C51.63 81.7671 51.6701 81.5787 51.7013 81.4058L52.0828 79.2899L52.5019 81.914C52.8197 81.1114 53.853 80.9102 54.7162 80.9049C55.8561 80.8978 57.0045 81.0233 58.15 81.1486C60.2147 81.3743 62.2698 81.599 64.2481 81.0437C64.19 81.3496 64.0884 81.6471 63.9473 81.9246C65.5436 81.6923 67.1589 81.5903 68.7717 81.62C69.4531 81.6326 70.1364 81.6684 70.8198 81.7043C72.626 81.7991 74.4323 81.8939 76.2019 81.5585L64.4566 81.4553C64.6772 81.4425 64.8463 81.186 64.7711 80.9782C64.6959 80.7704 64.4019 80.6815 64.2242 80.8128C64.1086 80.4456 63.5894 80.2823 63.2845 80.5173C63.4612 79.9722 63.8108 79.4847 64.2703 79.1424C63.7517 79.1145 63.225 79.2733 62.8082 79.5831L64.0715 73.7363C63.9647 73.6444 63.7866 73.7062 63.7076 73.8229C63.6295 73.9384 63.6208 74.0854 63.6126 74.2248L63.6123 74.2292C63.494 76.2257 62.79 78.1839 61.61 79.7987L61.1466 78.4581L60.4825 80.0595C60.1815 79.8263 59.7545 79.7675 59.4017 79.9106C59.4918 80.253 59.7658 80.541 60.1032 80.6483L60.2603 80.2272L61.2979 80.9221C60.9013 80.5066 60.8154 79.8267 61.0961 79.3256L61.7239 80.3787L62.9408 77.9719C62.9477 78.9382 62.5335 79.8517 62.1275 80.7287C62.5688 80.3831 62.9481 79.9586 63.2421 79.4814C63.5258 79.9839 63.2159 80.6577 62.7224 80.9568C62.2289 81.256 61.6185 81.2722 61.0419 81.2478C60.1622 81.2106 59.2757 81.1001 58.3903 80.9898C56.4021 80.7419 54.4194 80.4948 52.5307 81.0802L52.2584 78.5691C51.8424 79.3208 51.5821 80.1583 51.4986 81.0134ZM63.3485 81.0804C63.3059 81.0294 63.3061 80.9476 63.3491 80.8969L63.3834 80.9098C63.4411 80.7718 63.6836 80.7831 63.7282 80.9259C63.6163 81.0066 63.4849 81.0601 63.3485 81.0804ZM69.7652 54.4003C68.3974 53.7089 66.7695 53.8955 65.251 54.1036C64.822 54.1625 64.3845 54.2242 63.9959 54.4152C63.6073 54.6063 63.2688 54.9522 63.2017 55.3801C59.4933 54.9171 55.9395 53.2848 53.172 50.7732C52.5714 50.2281 51.9584 49.4519 52.2286 48.6871C52.3135 48.4467 52.4787 48.2438 52.6505 48.0554C53.9408 46.6408 55.7198 45.79 57.4516 44.9733C55.4888 45.1455 53.6055 46.1001 52.3064 47.5815C52.0087 47.921 51.7342 48.3004 51.6317 48.7401C51.3785 49.826 52.2219 50.8447 53.066 51.5732C55.7592 53.8976 59.1468 55.4071 62.6761 55.8554C62.8878 55.8823 62.8987 56.1798 62.8793 56.3923C62.7934 57.3374 63.3085 58.2597 64.0225 58.8847C64.7365 59.5098 65.6308 59.8852 66.5183 60.2213C69.2666 61.2623 72.1187 62.029 75.0185 62.5063C75.21 62.5378 75.4732 62.5229 75.5135 62.333C74.8443 61.8903 74.0389 61.7216 73.2514 61.5567L73.1239 61.53C71.1272 61.1097 69.1573 60.5622 67.23 59.892C66.4394 59.617 65.6468 59.3168 64.9574 58.842C64.268 58.3671 63.6825 57.6963 63.4621 56.8887C63.3532 56.49 63.5009 55.8947 63.9112 55.9449C65.5819 56.1492 67.2986 56.351 68.9299 55.9365C69.2991 55.8427 69.6839 55.7013 69.9089 55.394C70.134 55.0867 70.1052 54.5722 69.7652 54.4003ZM65.5512 55.5043C64.9777 55.4056 64.3918 55.3792 63.8117 55.4258C64.0936 54.8904 64.782 54.7495 65.3816 54.6679C66.6845 54.4904 68.0415 54.3174 69.2899 54.7305C69.3724 54.7578 69.4604 54.7926 69.505 54.8672C69.5637 54.9653 69.5209 55.0989 69.4374 55.1771C69.354 55.2553 69.2402 55.2907 69.1301 55.3215C67.9702 55.6457 66.7381 55.7086 65.5512 55.5043ZM46.5736 82.5145C47.5334 82.4876 48.4989 82.6998 49.359 83.1265C49.1291 83.4569 48.667 83.5032 48.2648 83.5185L37.7515 83.9175C37.6551 83.9055 37.637 83.7567 37.7052 83.6877C37.7735 83.6186 37.8802 83.6098 37.9771 83.605L48.2402 83.1045C47.6472 83.0501 47.0687 82.8453 46.5736 82.5145ZM26.341 47.7446C26.1911 48.4611 26.7973 49.2255 27.5273 49.2797C26.3336 51.0787 24.1833 51.9665 22.1172 52.5933C20.8278 52.9844 19.3974 53.3056 18.1681 52.7537C18.0156 52.8469 18.1783 53.0765 18.3393 53.1541C19.5356 53.7305 20.9539 53.4093 22.2263 53.0296C24.0924 52.4727 26.0159 51.7529 27.2857 50.2764C27.3377 50.216 27.3894 50.1537 27.4416 50.0911L27.4416 50.091L27.4416 50.091L27.4416 50.091L27.4417 50.091C27.7685 49.6982 28.1093 49.2886 28.6006 49.1977C30.1826 48.9051 31.5002 47.9143 32.8021 46.9352L32.8022 46.9352L32.8023 46.9351L32.8025 46.935L32.8026 46.9349C33.0977 46.7129 33.3921 46.4916 33.6885 46.2791C35.4911 44.9872 37.4904 43.9701 39.5961 43.274C39.7821 43.2126 40.0083 43.0984 39.9917 42.9033C37.381 43.1429 35.0991 44.6997 32.9949 46.2636L32.9247 46.3158C31.4947 47.3789 30.0004 48.4898 28.2408 48.7533C28.8155 48.3 28.6942 47.2525 28.0457 46.9129C27.3973 46.5733 26.4908 47.0281 26.341 47.7446ZM26.8282 48.1825C26.7108 47.8349 26.892 47.4214 27.2138 47.2454C27.3052 47.1954 27.4074 47.1621 27.5116 47.162C27.8553 47.1617 28.1063 47.5293 28.1086 47.873C28.1108 48.2167 27.9366 48.5337 27.7672 48.8328C27.3711 48.7722 26.9564 48.5621 26.8282 48.1825ZM65.8936 40.5236C65.7963 40.4152 65.8262 40.2693 65.8572 40.1181C65.8791 40.0113 65.9015 39.9019 65.8799 39.8013C65.8612 39.714 65.8104 39.6397 65.7593 39.5651C65.7142 39.4992 65.6689 39.4331 65.6456 39.3576C65.6509 39.2579 65.7843 39.2067 65.8752 39.2481C65.9661 39.2894 66.017 39.387 66.0487 39.4817C66.1644 39.8273 66.105 40.2267 65.8936 40.5236ZM57.0928 32.9404C57.3361 32.3637 57.8183 31.8522 58.4332 31.7352C58.6322 31.6973 58.626 31.3692 58.4517 31.2661C58.2773 31.163 58.0534 31.2239 57.8705 31.311C57.0186 31.7165 56.4807 32.6091 56.27 33.5287C56.0593 34.4484 56.129 35.4061 56.1998 36.347L56.5765 41.3478C56.5893 41.5179 56.6049 41.6964 56.6996 41.8382C56.8924 42.1271 57.306 42.1361 57.6526 42.1141L59.4069 42.0027C59.017 41.6971 58.4937 41.5685 58.0066 41.6585C57.7221 41.711 57.4364 41.5234 57.2856 41.2764C57.1349 41.0295 57.0908 40.734 57.0534 40.4472C56.8088 38.5704 56.7191 36.6734 56.7855 34.7819C56.8074 34.1563 56.8495 33.5171 57.0928 32.9404ZM61.5724 77.3295C61.4727 77.4018 61.3728 77.2372 61.3583 77.1149C60.6804 71.4159 60.5781 65.666 60.4766 59.9277L60.4082 56.0592C60.4063 55.9491 60.4078 55.8283 60.4787 55.7439C60.6006 55.5986 60.857 55.6652 60.9635 55.8222C61.07 55.9792 61.0701 56.1826 61.0666 56.3722C60.9622 62.019 61.0307 67.6768 61.5714 73.2986L61.5913 73.5039C61.7152 74.781 61.841 76.0773 61.5724 77.3295ZM55.9356 41.4063C55.7871 41.3248 55.6039 41.3709 55.4415 41.419C47.9251 43.642 40.426 45.9342 33.0374 48.5505C32.8991 48.5995 32.7409 48.67 32.7092 48.8133C32.6756 48.965 32.8184 49.1099 32.9712 49.138C33.124 49.1662 33.2786 49.1115 33.4244 49.0579C40.829 46.3339 48.3451 43.913 55.9475 41.8031C56.1108 41.7578 56.0841 41.4879 55.9356 41.4063Z" fill="#00160A"/>
<path fill-rule="evenodd" clip-rule="evenodd" d="M82.7154 75.4116C82.5404 75.4885 82.3509 75.5601 82.1625 75.5277C81.9742 75.4953 81.798 75.3184 81.8358 75.1311C82.1817 73.4181 81.7474 71.5632 80.6769 70.1819C80.3018 69.6978 79.8552 69.2719 79.4896 68.7805C79.2593 68.4708 79.0544 68.0815 79.1712 67.7137C79.3374 67.1903 80.0069 67.063 80.5547 67.0256C81.8284 66.9388 83.102 66.852 84.3757 66.7652C84.9625 66.7252 85.6384 66.7193 86.0302 67.158C87.1207 68.3795 89.2462 68.4616 90.4276 67.3277C90.6104 67.1523 90.8406 67.5016 90.8334 67.7549C90.8105 68.5513 90.4823 69.3351 89.9309 69.9101C89.8008 70.0458 89.6344 70.1787 89.4474 70.1592C89.2605 70.1398 89.1226 69.8713 89.2716 69.7568C89.5915 69.5112 89.9172 69.2593 90.1414 68.9242C90.3656 68.589 90.4744 68.1496 90.3215 67.7764C89.4987 68.8173 88.6681 69.8519 87.8298 70.8801C86.3761 72.663 84.8215 74.4865 82.7154 75.4116ZM85.0127 70.1655C84.8035 70.2233 84.5803 70.1789 84.3714 70.1198C82.8681 69.6951 81.4832 68.5206 79.9455 68.7954C81.7385 70.2395 82.6905 72.6607 82.3611 74.9392C83.5425 74.6862 84.4754 73.8043 85.3122 72.9328C86.5506 71.6428 87.7266 70.2928 88.8345 68.8892C88.0381 68.8826 87.2448 68.6529 86.5682 68.2329C85.7323 68.4398 85.8426 69.9359 85.0127 70.1655ZM86.1044 67.7938C85.6064 67.2067 84.7115 67.2249 83.9446 67.2922C82.9444 67.3801 81.9441 67.4679 80.9439 67.5558C80.5377 67.5915 80.0714 67.6627 79.8596 68.0111C81.5908 68.3735 83.2787 68.9428 84.8758 69.7029C85.0812 69.0577 85.4929 68.4799 86.0357 68.0751C86.0967 68.0296 86.1666 67.9711 86.1585 67.8954C86.1543 67.8567 86.1296 67.8235 86.1044 67.7938V67.7938Z" fill="#FFB61D"/>
<path fill-rule="evenodd" clip-rule="evenodd" d="M11.9477 53.7943C10.4411 53.1918 8.64577 53.3705 7.2875 54.2581C7.156 54.3441 6.96695 54.2483 6.90185 54.1053C6.83675 53.9624 6.8611 53.796 6.8944 53.6425C7.3282 51.6426 9.05635 50.1123 10.9782 49.409C12.9 48.7058 15.0022 48.7038 17.0452 48.824C17.2479 48.8359 17.4598 48.8518 17.6327 48.9583C17.8056 49.0647 17.9219 49.2924 17.8357 49.4762C17.0321 51.1906 16.4267 52.9979 16.0355 54.8505C15.9721 55.1509 15.6614 55.3502 15.3554 55.3752C15.0494 55.4003 14.7495 55.2872 14.4718 55.1562C13.6064 54.7481 12.8361 54.1496 11.9477 53.7943ZM12.12 51.7707C11.9857 51.8798 11.7758 51.8222 11.6495 51.704C11.5231 51.5858 11.4512 51.4223 11.3518 51.2806C10.8192 50.5207 9.59675 50.5838 8.87217 51.1636C8.14759 51.7433 7.79696 52.6594 7.47767 53.5307C9.60343 52.6074 12.2217 52.9387 14.0504 54.3626C14.3 54.557 14.5478 54.776 14.8552 54.8508C15.1627 54.9257 15.55 54.7912 15.6279 54.4845C16.0439 52.846 16.5566 51.2321 17.1624 49.6539C16.0001 51.0986 13.5591 50.6015 12.12 51.7707ZM11.6574 50.8976C11.7768 51.0476 11.9935 51.0874 12.1822 51.0535C12.3708 51.0197 12.5423 50.9257 12.7181 50.8493C13.3233 50.5862 13.9937 50.5275 14.6426 50.4072C15.2915 50.2869 15.9608 50.0833 16.4176 49.607C15.3869 49.6039 14.3562 49.6008 13.3256 49.5977C12.2898 49.5946 11.1737 49.6165 10.3416 50.2333C10.8481 50.2518 11.3417 50.501 11.6574 50.8976Z" fill="#FFB61D"/>
<path fill-rule="evenodd" clip-rule="evenodd" d="M60.3502 53.6562C60.3478 52.7496 60.3454 51.8431 60.3429 50.9365C60.3422 50.6761 60.3415 50.4158 60.3408 50.1555C60.3403 49.9759 60.3704 49.7513 60.5411 49.6954C60.6701 49.6532 60.8122 49.746 60.8725 49.8676C60.9329 49.9892 60.9321 50.131 60.9301 50.2668C60.9113 51.5319 60.8925 52.797 60.8736 54.0621C60.8709 54.244 60.8405 54.4679 60.6701 54.5317C60.3859 54.3708 60.3511 53.9827 60.3502 53.6562H60.3502Z" fill="#00160A"/>
<path fill-rule="evenodd" clip-rule="evenodd" d="M58.5402 52.8171C58.409 52.8747 58.3413 52.6585 58.3616 52.5166C58.4341 52.009 58.5069 51.5003 58.6304 51.0025C58.7073 50.6927 58.818 50.3666 59.074 50.1758C59.3299 49.9849 59.7694 50.0183 59.8946 50.312C59.9552 50.4542 59.93 50.6168 59.9022 50.7689C59.7299 51.7107 59.4978 52.6415 59.2078 53.554C59.1955 53.5927 59.1821 53.6331 59.1527 53.6612C59.0814 53.7296 58.9526 53.6836 58.9032 53.598C58.8538 53.5124 58.8602 53.4068 58.8681 53.3083C58.9859 53.2997 59.0409 53.1611 59.0692 53.0464C59.1847 52.5779 59.3003 52.1094 59.4159 51.6409C59.5058 51.2763 59.5878 50.8612 59.3785 50.5494C59.1636 50.6818 59.0828 50.9496 59.0188 51.1938C58.8901 51.6851 58.7614 52.1764 58.6327 52.6678C58.6173 52.7265 58.5958 52.7927 58.5402 52.8171L58.5402 52.8171Z" fill="#00160A"/>
</svg>
