<svg width="150" height="199" viewBox="0 0 150 199" fill="none" xmlns="http://www.w3.org/2000/svg">
<path fill-rule="evenodd" clip-rule="evenodd" d="M40.684 171.569C58.4362 165.485 75.7874 182.494 106.296 187.432C136.804 192.37 158.73 152.814 146.598 132.361C134.466 111.908 136.804 85.2254 144.81 59.864C152.817 34.5026 142.58 19.406 131.701 13.2256C120.822 7.04523 110.146 5.10823 93.1184 6.27083C76.0909 7.43344 58.3487 12.4902 41.7506 20.8678C25.1526 29.2453 6.49278 47.8103 4.57028 59.7149C2.64779 71.6194 10.3292 72.7835 11.7035 91.613C13.0778 110.443 -5.84866 135.619 1.84731 152.696C9.54328 169.774 22.9318 177.653 40.684 171.569Z" fill="#57bb71" fill-opacity="0.2"/>
<path fill-rule="evenodd" clip-rule="evenodd" d="M34.8312 171.09L34.7346 171.863C34.7346 171.863 36.1282 172.02 36.7248 171.933C37.3215 171.845 38.4138 170.64 38.4138 170.64C38.4138 170.64 37.2739 170.774 36.7248 170.842" fill="#E7EAEE"/>
<path fill-rule="evenodd" clip-rule="evenodd" d="M39.2671 196.366L41.4614 198.459L77.0167 68.4819L74.8453 65.662L39.2671 196.366Z" fill="white"/>
<path fill-rule="evenodd" clip-rule="evenodd" d="M22.1525 197.775C22.1525 197.775 24.751 198.459 27.0429 190.591C29.3347 182.724 59.7295 70.7564 59.7295 70.7564L58.7252 68.2998L22.1525 197.775Z" fill="white"/>
<path fill-rule="evenodd" clip-rule="evenodd" d="M82.4585 2.26463C82.6746 1.70494 83.8327 2.3842 84.4206 2.26463C84.3985 3.14964 65.6823 51.6497 63.9517 55.1458C63.6434 54.9137 62.2468 54.2358 61.9385 54.0037C62.5983 53.8224 76.1091 18.7079 82.4585 2.26463Z" fill="white"/>
<path fill-rule="evenodd" clip-rule="evenodd" d="M100.813 1.17637C97.6635 10.061 83.2634 47.9594 81.7222 51.0728C81.5565 50.9481 80.6338 51.8386 79.9712 51.8999C79.4009 51.9527 79.0805 51.1802 78.9379 51.0728C79.587 50.8944 92.6744 16.9048 99.1439 0.146838C99.2504 -0.12895 101.2 0.0842919 100.813 1.17637Z" fill="white"/>
<path fill-rule="evenodd" clip-rule="evenodd" d="M42.969 149.512L46.2573 151.127C46.2573 151.127 54.9169 138.745 54.9169 132.555C54.9169 130.088 47.7864 128.434 43.7138 125.628C41.3942 124.03 40.4318 121.151 39.1383 120.043C38.1261 119.175 35.8582 118.722 32.6848 118.934C31.9242 118.985 30.2566 120.043 30.2566 120.043C30.2566 120.043 23.3242 126.157 27.0769 131.147C28.2009 132.642 32.8909 140.311 33.923 145.384C35.2851 152.08 34.4832 170.726 34.4832 170.726C34.4832 170.726 35.9308 170.711 36.8242 170.51C37.7176 170.308 39.5756 169.577 39.5756 169.577C39.5756 169.577 39.3661 163.241 39.5756 160.421C40.1191 153.102 40.9465 147.251 40.2483 142.713C38.7976 133.282 33.3394 129.039 33.3394 129.039L49.2635 136.639L42.969 149.512Z" fill="white"/>
<path fill-rule="evenodd" clip-rule="evenodd" d="M45.9651 152.769C45.9901 153.279 45.8224 153.795 45.503 154.193C45.3765 153.751 45.342 153.283 45.4024 152.828C44.2418 152.677 43.1092 152.313 42.0777 151.76C41.6898 152.729 41.3814 153.731 41.1564 154.75C41.0551 155.21 40.9925 155.753 41.3183 156.092C41.6017 156.387 42.0615 156.4 42.4706 156.393C43.7506 156.371 45.049 156.346 46.2771 155.984C47.5052 155.623 48.6757 154.876 49.2634 153.739C48.6777 153.151 47.8121 152.856 46.9894 152.963C47.2034 153.351 47.1497 153.87 46.8607 154.206C46.5931 153.817 46.5047 153.31 46.625 152.853C46.4218 152.755 46.1863 152.725 45.9651 152.769Z" fill="white"/>
<path fill-rule="evenodd" clip-rule="evenodd" d="M36.4714 172.218C35.828 172.36 35.0608 172.518 34.5865 172.06C34.4821 172.916 34.4567 173.781 34.5107 174.641C34.635 174.729 34.7988 174.758 34.9457 174.719C35.0265 174.906 35.0552 175.115 35.0276 175.317C35.5092 175.895 36.4271 175.71 37.1345 175.453C38.2586 175.046 39.3832 174.577 40.3033 173.813C40.7381 173.452 41.1498 172.949 41.0793 172.388C41.0088 171.828 40.1657 171.457 39.8597 171.932C40.1294 172.2 40.255 172.605 40.1842 172.978C39.6326 172.58 39.0809 172.183 38.5293 171.785C38.74 172.328 38.9507 172.87 39.1614 173.413C39.0298 173.622 38.6822 173.519 38.5461 173.312C38.41 173.105 38.388 172.842 38.2657 172.627C37.9399 172.054 37.1149 172.075 36.4714 172.218Z" fill="white"/>
<path fill-rule="evenodd" clip-rule="evenodd" d="M42.2987 98.2786C43.6272 97.449 45.2429 98.7275 46.2797 99.9016C47.5524 101.343 48.8252 102.784 50.098 104.226C50.7126 100.341 53.0931 96.9998 55.4054 93.8184C56.0694 92.9049 56.7531 91.972 57.6903 91.3417C58.6274 90.7115 60.4317 91.1661 60.8979 90.9353C60.8341 90.2536 60.2475 89.6576 59.5669 89.5828C59.6568 88.7907 60.0321 88.034 60.6084 87.4833C60.6126 87.0098 59.8665 87.0843 59.4652 87.3356C55.3875 89.8887 51.7383 93.1244 48.7154 96.8672C47.9788 97.7793 46.8481 98.8299 45.8143 98.2768C44.7454 97.705 45.0554 96.131 45.3588 94.9573C45.7746 93.3486 45.8799 91.6602 45.6673 90.0123C45.4408 88.2572 44.8588 86.4808 45.2526 84.7554C45.6463 83.0301 47.6192 81.502 49.1516 82.3871C50.3306 83.0681 51.9676 82.4328 52.65 81.2547C53.3324 80.0766 53.1936 78.5584 52.6066 77.33C52.0196 76.1015 51.0415 75.1087 50.0481 74.1776C49.3693 73.5414 48.633 72.8997 47.7265 72.6904C46.3951 72.3829 44.8989 73.2185 44.4622 74.5133C44.0255 75.808 44.7101 77.3791 45.9557 77.9408C45.1745 78.1761 44.2957 78.0647 43.5978 77.642C44.6515 78.123 45.1038 79.4631 44.8689 80.5973C44.6339 81.7315 43.8615 82.6793 43.016 83.471C42.1159 84.3139 41.1042 85.0374 40.0156 85.6167C34.4098 88.5995 31.6987 95.1241 30.3957 101.339C29.0926 107.554 28.7203 114.09 25.9099 119.784C26.4584 120.337 27.3699 119.882 28.0678 119.537C31.3617 117.906 35.2919 119.464 38.9593 119.221C39.8859 119.159 40.8918 118.928 41.4531 118.188C41.7845 117.752 41.9119 117.198 42.031 116.663C42.3161 115.381 42.6012 114.099 42.8863 112.818C42.955 112.509 43.0241 112.189 42.965 111.878C42.8917 111.492 42.6321 111.171 42.3816 110.868C40.9802 109.173 39.5786 107.445 38.6321 105.46C37.6855 103.475 37.2233 101.179 37.7916 99.0541C38.3977 102.309 39.7311 105.427 41.6664 108.113C42.799 109.685 44.2436 111.178 46.1202 111.661C48.2567 112.21 50.4856 111.347 52.4663 110.376C57.2254 108.043 61.6268 104.981 65.4703 101.332C65.1146 101.445 64.7589 101.557 64.4031 101.67C64.6888 101.113 65.0778 100.609 65.5444 100.191C65.0452 100.443 64.5461 100.695 64.0469 100.948C64.451 100.365 64.855 99.7821 65.2591 99.1993C64.4238 99.5124 63.6678 100.035 63.0796 100.706C63.2445 100.066 63.208 99.3764 62.9765 98.758C62.6138 100.604 60.7019 101.65 58.9966 102.445C57.2491 103.259 55.5015 104.073 53.754 104.887C52.4216 105.508 50.5856 106.022 49.6939 104.854C47.6805 102.215 45.1545 99.9694 42.2987 98.2786Z" fill="white"/>
<path fill-rule="evenodd" clip-rule="evenodd" d="M48.9866 80.0142C49.39 80.0142 49.5402 79.6862 49.3263 79.2815C49.117 78.8768 48.7073 78.5488 48.4071 78.5488C48.1068 78.5488 47.9461 78.8768 48.0523 79.2815C48.1631 79.6862 48.5833 80.0142 48.9866 80.0142Z" fill="#FFB61D"/>
<path fill-rule="evenodd" clip-rule="evenodd" d="M52.1012 77.6694C52.4111 77.6694 52.5283 77.3414 52.363 76.9367C52.1977 76.532 51.8125 76.204 51.5026 76.204C51.1927 76.204 51.0754 76.532 51.2407 76.9367C51.406 77.3414 51.7912 77.6694 52.1012 77.6694Z" fill="#FFB61D"/>
<path fill-rule="evenodd" clip-rule="evenodd" d="M83.6483 77.2157L83.1877 111.837L122.801 114.383L125.507 113.026L125.966 41.9707C125.98 39.8299 124.743 37.8779 122.801 36.9764V36.9764L93.7305 39.4803L83.6483 77.2157Z" fill="white"/>
<path fill-rule="evenodd" clip-rule="evenodd" d="M42.284 155.268C42.0976 155.191 41.8954 155.151 41.6936 155.154C41.4548 155.072 41.5951 154.683 41.8282 154.587C42.0613 154.49 42.3534 154.501 42.524 154.315C42.6671 154.159 42.6673 153.924 42.7386 153.724C42.81 153.525 43.0406 153.472 43.2021 153.609C43.2348 154.163 43.9257 153.773 44.4281 154.077C44.7083 154.246 44.2414 154.473 44.2746 154.746C44.3166 155.093 45.109 155.875 44.734 155.738C44.325 155.588 43.752 155.358 43.3224 155.428C42.9376 155.491 42.6927 155.833 42.3755 156.06C42.2736 155.811 42.2416 155.534 42.284 155.268Z" fill="#FFB61D"/>
<path fill-rule="evenodd" clip-rule="evenodd" d="M36.7411 174.641C36.9189 174.748 37.0514 174.928 37.101 175.13C36.9008 175.182 36.5397 174.76 36.2629 174.84C35.9824 174.921 35.7862 175.503 35.5766 175.494C35.3574 175.484 35.7755 175.012 35.6701 174.731C35.5755 174.477 34.9461 174.42 34.9472 174.285C34.948 174.182 35.3986 174.194 35.5766 174.031C35.6902 173.926 35.5522 173.632 35.5766 173.581C35.6701 173.383 36.0241 173.581 36.2629 173.856C36.5197 173.788 36.7765 173.721 37.0334 173.653C37.1442 174 36.5116 174.17 36.6287 174.497L36.7411 174.641Z" fill="#FFB61D"/>
<path fill-rule="evenodd" clip-rule="evenodd" d="M64.2645 52.9111C64.0179 53.5495 63.6866 54.2682 63.0267 54.4495L63.9518 55.1458C65.6824 51.6497 67.1834 48.0401 68.4421 44.3477C72.6706 44.4979 76.9061 44.4524 81.1304 44.2114L78.924 50.6319C78.7751 51.0652 78.9056 51.8008 79.3337 51.6376C86.0583 34.4572 92.7002 17.2444 99.2591 0C98.14 0.0515013 97.7108 1.25559 97.2845 2.45173C96.8542 3.65876 96.4268 4.85769 95.2964 4.85601L83.8407 4.83892C84.2002 4.02992 84.3985 3.14966 84.4206 2.26464C83.8327 2.38422 83.5288 3.02176 83.3127 3.58144L64.2645 52.9111ZM90.0162 21.137C89.0152 23.9565 87.9865 26.7662 86.9304 29.5656C86.7622 30.0115 86.5798 30.4768 86.2179 30.7868C85.6746 31.2521 84.8852 31.2463 84.1703 31.2262C80.6408 31.1269 77.1043 31.2773 73.596 31.6757C73.7151 32.3926 74.6685 32.5415 75.3949 32.5173L84.6349 32.2089C84.8959 32.2001 85.1836 32.2002 85.3824 32.3695C85.7178 32.6552 85.5815 33.1928 85.4175 33.6018L82.0441 42.0131C81.9277 42.3031 81.8011 42.6072 81.5542 42.7987C81.2585 43.0282 80.8562 43.0474 80.4821 43.057L68.9279 43.3544C68.9906 42.9308 69.2054 42.5313 69.5243 42.2454C73.6572 42.527 77.8235 42.3168 81.9071 41.6207C77.8563 40.6776 73.5898 40.6742 69.5374 41.6106L82.9715 6.99074C83.0836 6.70183 83.2534 6.36695 83.562 6.3383C87.6918 5.95484 91.8423 5.79418 95.9893 5.85723C95.778 7.24949 93.946 7.58202 92.5378 7.57624L84.5328 7.5434C83.9619 7.54106 83.1692 7.78708 83.2848 8.3462C83.3752 8.78395 83.9547 8.87063 84.4015 8.8592L94.7455 8.59461C94.0748 10.9169 93.2229 13.1869 92.2002 15.377C92.0607 15.6758 91.9116 15.9817 91.6634 16.1988C91.2331 16.5751 90.6092 16.6037 90.0377 16.6131L81.1331 16.7607C80.7412 16.7672 80.3208 16.7829 80.0059 17.0164C79.6911 17.2498 79.5796 17.7882 79.8942 18.022C80.0686 18.1515 80.3051 18.1463 80.522 18.1355L91.3091 17.598C91.451 18.566 90.7054 19.4876 89.8083 19.8779C88.9111 20.2683 87.8968 20.2506 86.9187 20.2262L80.2925 20.0609C79.3812 20.0381 78.0953 20.4455 78.3233 21.3281C82.2217 21.3868 86.1219 21.323 90.0162 21.137ZM83.5113 1.06245C76.7024 18.4692 69.8838 35.8722 63.0553 53.2712C62.8784 53.7219 62.3366 54.2504 62.0277 53.8776C61.869 53.686 61.9527 53.4001 62.0436 53.1686L82.1722 1.94018C82.4027 1.35342 83.0362 0.648045 83.5113 1.06245ZM101.139 2.69445L83.1532 49.3483C82.838 50.1659 82.3778 51.1057 81.511 51.2344L100.857 1.09634C101.448 1.25894 101.36 2.1218 101.139 2.69445ZM74.8815 30.133C74.7726 29.8978 74.9235 29.608 75.1454 29.474C75.3673 29.3401 75.638 29.3224 75.8968 29.309C79.2219 29.1364 82.5537 29.0927 85.8822 29.1781C86.1821 29.1858 86.2648 29.652 86.0566 29.8681C85.8485 30.0842 85.5163 30.1079 85.2164 30.1179L75.707 30.4362C75.3955 30.4467 75.0125 30.4159 74.8815 30.133ZM51.8915 91.1169C52.6799 91.0849 53.0771 90.1721 53.2916 89.4128L58.5861 70.6631C58.787 69.9515 58.9898 69.2096 58.8586 68.4818C58.0767 69.1801 57.7554 70.245 57.469 71.2534C55.5899 77.8689 53.7308 84.4901 51.8915 91.1169ZM59.8353 98.9554C59.9193 99.2052 60.0694 99.4324 60.2662 99.6077C59.1078 99.6059 57.9812 99.8956 56.8533 100.186C55.8387 100.447 54.8232 100.708 53.7825 100.757C53.3068 100.78 52.6365 100.474 52.8452 100.046C52.9368 99.8583 53.1643 99.7878 53.3677 99.7388C55.4835 99.2281 57.6588 98.9647 59.8353 98.9554ZM42.0033 86.289C42.4882 87.787 43.5129 89.1038 44.8459 89.9419C44.9757 89.2752 44.4108 88.7501 43.8892 88.2652C43.8017 88.1838 43.7153 88.1036 43.6337 88.024C42.8652 87.2745 42.3905 86.2313 42.3303 85.1596C42.0105 85.4257 41.8751 85.8932 42.0033 86.289ZM46.3166 76.4279C46.9247 76.4279 47.9432 77.236 47.4472 77.6225C46.9513 78.009 45.8081 76.4279 46.3166 76.4279ZM53.2802 102.862L56.6509 101.765C56.8979 101.684 57.1946 101.537 57.1856 101.278C55.5172 101.394 53.8602 101.673 52.246 102.111C51.9135 102.201 51.9718 102.753 52.2769 102.913C52.582 103.073 52.9526 102.969 53.2802 102.862ZM48.4824 74.7821C48.7445 74.5265 50.2163 75.4724 49.7035 76.0193C49.4405 76.2997 48.1927 75.0647 48.4824 74.7821ZM45.7189 76.0032C45.7669 75.9046 45.8155 75.8048 45.8936 75.7156C45.9913 75.6039 46.1452 75.4708 46.3 75.337C46.6041 75.0741 46.9114 74.8084 46.802 74.697C46.1503 74.8667 45.5773 75.3188 45.2605 75.9131C44.994 76.4279 45.4084 76.4656 45.4935 76.3369C45.6027 76.2421 45.6604 76.1236 45.7189 76.0032ZM50.4242 76.5538L50.4244 76.5539C50.9 76.7859 51.4326 77.0458 51.3885 77.5337C51.3363 78.1111 50.6505 78.5268 50.4232 77.9935C50.4671 77.8989 50.5605 77.8655 50.6571 77.831C50.8038 77.7785 50.958 77.7234 50.958 77.4472C50.958 77.2572 50.7786 77.1197 50.5912 76.976C50.3923 76.8235 50.1844 76.6641 50.1725 76.4279C50.2519 76.4697 50.3371 76.5113 50.4242 76.5538ZM48.5123 73.8234C47.8906 73.8873 47.3657 74.5073 47.4257 75.1294C47.5153 75.2006 47.6484 75.003 47.7969 74.7825C47.9028 74.6252 48.0166 74.4563 48.1281 74.3649C48.2468 74.2676 48.4589 74.1698 48.655 74.0793L48.6551 74.0793C48.9328 73.9512 49.1783 73.8379 49.0805 73.7622C48.9831 73.7722 48.8898 73.7825 48.7964 73.7928H48.7963C48.703 73.8031 48.6097 73.8134 48.5123 73.8234ZM61.2641 111.47C61.4604 111.807 60.9482 112.102 60.5625 112.161C57.0199 112.702 53.4655 113.167 49.9027 113.554C49.8041 113.123 50.0894 112.679 50.4677 112.451C50.8461 112.223 51.2989 112.164 51.7372 112.109L53.9596 111.833C56.2003 111.554 58.4476 111.274 60.7056 111.268C60.9135 111.267 61.1596 111.29 61.2641 111.47ZM46.2797 99.9016C45.243 98.7275 43.6273 97.449 42.2987 98.2786C45.1546 99.9694 47.6805 102.215 49.6939 104.854C50.5857 106.022 52.4217 105.508 53.7541 104.887L58.9966 102.445C60.702 101.65 62.6138 100.604 62.9765 98.758C63.2081 99.3764 63.2446 100.066 63.0796 100.706C63.6679 100.035 64.4238 99.5124 65.2592 99.1993L64.0469 100.948L65.5445 100.191C65.0778 100.609 64.6889 101.113 64.4032 101.67L65.4703 101.332C61.6268 104.981 57.2255 108.043 52.4664 110.376C50.4856 111.347 48.2567 112.21 46.1202 111.661C44.2436 111.178 42.7991 109.685 41.6665 108.113C39.7312 105.427 38.3978 102.309 37.7917 99.0541C37.2234 101.179 37.6856 103.475 38.6321 105.46C39.5786 107.445 40.9803 109.173 42.3817 110.868C42.6322 111.171 42.8918 111.492 42.9651 111.878C43.0241 112.189 42.9551 112.509 42.8863 112.818L42.031 116.663C41.912 117.198 41.7846 117.752 41.4532 118.188C40.8919 118.928 39.8859 119.159 38.9593 119.221C37.6306 119.309 36.2673 119.16 34.9123 119.013C32.5275 118.753 30.1683 118.497 28.0679 119.537L28.0588 119.541C27.362 119.886 26.4561 120.335 25.91 119.784C27.9439 115.663 28.7008 111.101 29.4577 106.539C29.7467 104.798 30.0357 103.056 30.3957 101.339C31.6988 95.1241 34.4099 88.5995 40.0156 85.6167C41.1042 85.0374 42.116 84.3139 43.0161 83.471C43.8615 82.6793 44.634 81.7315 44.8689 80.5973C45.0855 79.5515 44.7179 78.3306 43.8332 77.7696C44.487 78.085 45.2601 78.1503 45.9558 77.9408C44.7102 77.3791 44.0256 75.808 44.4623 74.5133C44.8989 73.2185 46.3952 72.3829 47.7266 72.6904C48.633 72.8997 49.3694 73.5415 50.0482 74.1776C51.0416 75.1087 52.0197 76.1015 52.6067 77.3299C53.1936 78.5584 53.3325 80.0766 52.65 81.2547C51.9676 82.4328 50.3307 83.0681 49.1517 82.3871C47.6193 81.502 45.6464 83.0301 45.2526 84.7554C44.9639 86.0205 45.1998 87.313 45.4355 88.6045C45.5212 89.0743 45.6069 89.5441 45.6673 90.0123C45.88 91.6602 45.7747 93.3486 45.3589 94.9573C45.0555 96.131 44.7454 97.705 45.8144 98.2768C46.8481 98.8299 47.9788 97.7793 48.7155 96.8672C51.7383 93.1244 55.3875 89.8887 59.4652 87.3356C59.8666 87.0843 60.6127 87.0098 60.6085 87.4833C60.0322 88.034 59.6568 88.7907 59.567 89.5828C60.2476 89.6575 60.8341 90.2536 60.898 90.9353C60.7214 91.0227 60.3528 91.0118 59.9122 90.9988H59.9121C59.1893 90.9774 58.2725 90.9502 57.6903 91.3417C56.7531 91.972 56.0694 92.9049 55.4054 93.8184C53.0932 96.9998 50.7126 100.341 50.098 104.226L46.2797 99.9016ZM43.5979 77.642C43.6743 77.6883 43.7529 77.7309 43.8332 77.7696C43.7585 77.7222 43.68 77.6795 43.5979 77.642ZM55.8229 94.307C57.115 92.4938 59.3202 90.457 61.2257 91.6088C61.5801 91.0603 60.9798 90.4053 60.5239 89.9079C60.2495 89.6085 60.0274 89.3661 60.0973 89.2384C60.1238 89.1899 60.1518 89.1391 60.1808 89.0865C60.94 87.7076 62.404 85.0484 57.9969 87.4795C54.9919 89.1372 50.3789 93.7788 47.9995 96.173L47.9994 96.1732L47.9993 96.1733L47.9991 96.1734L47.999 96.1735L47.9989 96.1736L47.9986 96.174C47.0582 97.1202 46.4669 97.7151 46.4621 97.6355C46.3684 96.0833 46.326 94.3571 46.2836 92.631L46.2836 92.6308L46.2836 92.6306C46.2412 90.9045 46.1988 89.1783 46.1051 87.6261C46.04 86.5478 45.9855 85.4131 46.4621 84.4436C46.9387 83.4742 48.1434 82.7726 49.1218 83.2306C51.6122 84.3964 54.3098 81.1464 53.7677 78.4506C53.2256 75.7548 50.8526 73.8751 48.6416 72.2403C49.7674 70.876 50.0219 68.8511 49.2686 67.2506C48.5153 65.6501 46.7927 64.5558 45.0238 64.5538C45.2942 65.6946 45.062 66.9451 44.4002 67.9127C43.7531 68.8589 42.7766 69.4789 41.7971 70.1009C41.3423 70.3896 40.8869 70.6788 40.4635 71.0013C39.128 72.0182 38.0346 73.8499 38.8452 75.3197C39.3124 76.1669 40.2212 76.5633 41.1386 76.9635C41.9563 77.3202 42.7807 77.6799 43.3052 78.3642C44.3982 79.79 43.628 81.9548 42.2907 83.1545C41.4678 83.8927 40.4838 84.4023 39.4974 84.913L39.4973 84.9131C38.8809 85.2323 38.2635 85.552 37.684 85.9282C33.5362 88.6214 31.8442 93.7675 30.5481 98.5401C28.5212 106.004 26.7575 113.539 25.2616 121.127L27.3411 121.117C25.3729 123.513 25.2829 127.001 26.1709 129.972C26.8214 132.149 27.9202 134.146 29.0187 136.142L29.0188 136.142C29.4198 136.871 29.8207 137.6 30.1998 138.337C32.8561 143.504 34.4812 149.328 33.9816 155.116C33.7074 158.293 32.8069 161.378 31.9111 164.438L22.1525 197.775C24.1211 191.769 26.1796 185.129 28.238 178.489C30.2964 171.849 32.3549 165.209 34.3235 159.203C34.4057 158.952 34.3646 160.06 34.3235 161.168C34.2824 162.275 34.2413 163.383 34.3235 163.132C33.8327 164.982 33.2512 166.888 32.6972 168.703C32.2756 170.084 31.8699 171.414 31.5322 172.627C30.9021 174.89 30.311 177.033 29.7171 179.187L29.7171 179.187C28.2243 184.6 26.7135 190.078 24.52 197.695C27.715 190.725 29.4273 183.185 31.1188 175.707C31.4823 175.706 31.919 175.705 32.3557 175.704C32.7925 175.702 33.2292 175.701 33.5927 175.7C33.1608 175.18 31.5322 174.834 31.5322 174.834L31.71 173.93C31.71 173.93 33.887 174.301 33.7758 173.823C33.5536 173.663 31.9111 173.413 31.9111 173.413C31.9111 173.413 33.6937 166.935 34.3235 164.834L33.887 175.064C33.8701 175.461 33.8718 175.907 34.1532 176.187C34.4424 176.474 34.9057 176.464 35.3104 176.416C36.5198 176.275 37.7102 175.972 38.8402 175.518C39.7708 175.144 40.7401 174.548 41.2185 173.717L44.4623 173.813C44.4623 173.813 44.2957 174.527 44.2155 174.869C44.2035 174.92 43.3136 174.944 42.4275 174.968C41.5488 174.991 40.6739 175.014 40.6621 175.064C40.6468 175.129 41.5118 175.222 42.372 175.314C43.2226 175.405 44.0685 175.496 44.0538 175.559C43.6422 177.311 43.2902 178.946 42.9977 180.304C42.7201 181.593 42.4961 182.633 42.3257 183.289C42.1599 183.927 41.9675 184.609 41.4603 185.03C41.1482 185.29 39.1839 185.523 37.9889 185.664C37.5853 185.712 37.2694 185.75 37.1346 185.774C35.4247 186.086 33.9555 186.107 32.5739 186.127C31.4496 186.144 30.3833 186.159 29.2928 186.33C28.7766 186.41 28.5041 186.89 28.6687 187.052C30.8371 186.985 32.9153 186.838 34.9936 186.691C37.0718 186.543 39.15 186.396 41.3184 186.33C41.2714 186.539 41.2483 186.713 41.2294 186.856C41.1829 187.206 41.1611 187.371 40.8741 187.415C38.9718 187.711 36.9676 187.864 34.9634 188.017L34.9628 188.017C32.9584 188.17 30.954 188.323 29.0516 188.619C28.4246 188.716 27.6873 189.557 28.2907 189.754L40.7284 188.35C39.8152 190.937 38.8881 193.648 39.2671 196.366C45.7144 173.727 51.9558 151.03 57.9901 128.277C55.1033 127.925 52.1407 128.206 49.3722 129.097C51.661 129.747 54.3742 130.867 54.6609 133.229C54.8098 134.455 54.2122 135.635 53.6325 136.726L46.0707 150.958L43.1492 149.368L48.7388 139.034C49.1883 138.203 49.6352 137.163 49.1237 136.368C48.8499 135.943 48.3647 135.713 47.9045 135.503L32.5157 128.498C34.7147 129.772 36.3328 132.009 36.8556 134.496C37.1345 135.823 37.7685 137.027 38.4042 138.234C38.8543 139.088 39.3053 139.945 39.6319 140.848C40.7762 144.013 40.3197 147.47 39.8757 150.833L39.8755 150.834C39.8291 151.186 39.7827 151.537 39.7384 151.887C38.9972 157.728 38.8537 163.645 39.3108 169.515L34.7834 170.553C35.658 160.329 36.4382 149.543 32.0371 140.274C31.4903 139.122 30.8682 138.007 30.2464 136.892C29.3866 135.351 28.5274 133.811 27.8683 132.176C26.7324 129.359 26.24 126.09 27.486 123.32C28.732 120.55 32.1425 118.647 34.9357 119.841C36.2123 120.386 37.6728 120.49 39.0139 120.131C42.1912 126.919 51.5008 129.976 58.0841 126.395C58.7916 126.01 59.0656 125.15 59.2772 124.373L64.825 104.001C63.3665 105.016 63.0206 106.925 62.6961 108.716L62.6959 108.717C62.6551 108.942 62.6146 109.166 62.5722 109.385C62.1933 111.35 61.0508 113.624 59.0498 113.646C55.4149 113.686 51.7842 114.103 48.2349 114.888L48.8061 112.565C54.052 110.802 58.9635 108.05 63.2056 104.496C65.0258 102.971 66.8662 100.513 65.6902 98.4507L63.5574 99.2781C63.8161 98.9294 63.5728 98.3405 63.1433 98.2761C59.9708 101.703 55.6058 104.005 50.9857 104.686C51.2511 100.827 53.5777 97.4578 55.8229 94.307ZM41.3751 173.391C41.3314 173.503 41.2789 173.612 41.2185 173.717L40.8741 173.706C40.8741 173.706 40.9791 173.527 41.3751 173.391ZM40.3329 154.534C40.5522 155.817 41.8563 156.98 43.2377 157.159C45.0552 157.395 46.8083 156.503 48.4244 155.639C48.7567 155.461 49.0992 155.275 49.3306 154.977C49.9828 154.139 49.3872 152.815 48.4374 152.34C47.4877 151.865 46.3619 151.987 45.3082 152.12C47.011 151.829 47.7419 149.932 48.3809 148.274L48.3812 148.273C48.4319 148.142 48.4821 148.012 48.5321 147.884C49.2121 146.148 51.0816 144.289 52.6563 145.287C51.4393 149.1 50.3824 152.964 49.4894 156.866L42.2554 157.722C41.3886 157.825 40.2222 158.415 40.5973 159.203L49.1787 158.016L46.1702 168.977C45.9479 169.787 45.0238 172.978 45.0238 172.978C45.0238 172.978 42.31 173.181 41.6692 173.312C41.5568 173.335 41.4593 173.362 41.3751 173.391C41.4561 173.182 41.5066 172.961 41.5198 172.727C41.5959 171.365 39.3793 170.385 38.8586 171.646C38.1879 171.028 38.925 169.659 39.8097 169.879C39.6068 164.76 39.7825 159.627 40.3329 154.534ZM40.3329 154.534C40.376 154.135 40.4214 153.736 40.4691 153.338C40.3008 153.731 40.2652 154.138 40.3329 154.534ZM40.4691 153.338C40.7491 150.999 41.1081 148.67 41.5459 146.356L43.6116 146.276L40.4814 153.309L40.4691 153.338ZM50.6413 126.792C48.8387 127.035 46.7543 127.191 45.4561 125.917C45.3281 125.791 45.207 125.646 45.1725 125.47C45.1408 125.308 45.186 125.142 45.2308 124.984L47.8584 115.698C49.5107 115.929 51.189 115.709 52.8429 115.489L61.0491 114.398C60.1884 117.882 59.2662 121.351 58.283 124.803C58.1836 125.152 58.0628 125.53 57.76 125.73C57.5677 125.857 57.3307 125.89 57.1023 125.921L50.6413 126.792ZM71.275 75.9383C71.1506 78.1132 71.0073 80.3605 70.0161 82.3003C69.0248 84.2401 68.7371 86.0007 68.7371 86.0007L67.9615 88.6056C65.738 88.4449 63.4828 88.7363 61.3732 89.4569C63.4215 90.3511 65.8356 90.3686 67.8966 89.5042C66.8568 92.2525 66.2535 95.1654 66.1161 98.1006C69.5982 87.6705 72.6183 77.0861 75.1646 66.3889C76.5545 66.6481 76.5418 68.6361 76.1715 70.0006L41.9417 196.144C41.4602 197.775 40.504 202.782 44.1706 189.754C48.3738 174.819 54.9789 150.931 61.472 127.447C67.3869 106.055 73.2089 84.9995 77.0377 71.3532C77.3353 70.2926 77.6354 68.8933 77.4349 67.8102C77.2343 66.7271 76.3704 65.6815 75.269 65.662C73.9247 67.6249 72.9728 69.8553 72.4855 72.184L59.6356 73.366C60.2132 72.3825 60.1579 71.0631 59.5001 70.1314L54.3355 89.5607C56.5688 84.8721 58.1772 79.8862 59.1048 74.7764L72.3456 72.9834C72.387 74.9567 69.6169 75.359 67.6431 75.3497C64.7538 75.3363 61.863 75.9246 59.2088 77.0664C63.2571 77.2236 67.326 76.8433 71.275 75.9383ZM41.5818 142.639C41.5773 143.09 41.7209 143.542 41.9853 143.907C43.045 143.663 44.1397 143.571 45.2254 143.635C44.6315 144.36 44.1355 145.165 43.7551 146.021L43.5813 145.311L41.6345 145.404L41.2483 143.705C41.0371 142.776 40.8246 141.831 40.8902 140.881C40.9443 140.098 41.1851 139.343 41.4242 138.596L42.8402 134.172L47.4224 136.02C47.798 136.171 48.1874 136.332 48.4582 136.633C48.7291 136.935 48.8414 137.42 48.6021 137.747C47.3816 139.413 46.3382 141.21 45.4951 143.096C45.3636 142.817 45.3601 142.481 45.4856 142.199C44.176 142.252 42.8702 142.399 41.5818 142.639ZM43.6581 112.605C43.6975 112.311 44.054 112.149 44.3452 112.206C44.6365 112.264 44.8711 112.473 45.0903 112.673L45.4813 112.313C45.7054 112.339 45.7163 112.66 45.6626 112.879C44.7676 116.531 43.7398 120.15 42.582 123.727L40.2482 119.939C41.154 120.062 42.0304 119.441 42.4898 118.651C42.9491 117.861 43.0793 116.928 43.2006 116.022L43.6581 112.605ZM45.503 154.193C45.8224 153.795 45.9901 153.279 45.9651 152.77C46.1863 152.725 46.4218 152.755 46.625 152.853C46.5047 153.31 46.5931 153.817 46.8607 154.206C47.1497 153.87 47.2034 153.351 46.9894 152.963C47.8121 152.856 48.6777 153.151 49.2634 153.739C48.6757 154.876 47.5052 155.623 46.2771 155.985C45.049 156.346 43.7506 156.371 42.4706 156.393C42.0615 156.4 41.6017 156.387 41.3183 156.092C40.9925 155.753 41.0551 155.21 41.1564 154.75C41.3814 153.731 41.6898 152.729 42.0777 151.76C43.1092 152.313 44.2418 152.677 45.4024 152.828C45.342 153.283 45.3765 153.751 45.503 154.193ZM34.5865 172.06C35.0608 172.518 35.828 172.36 36.4714 172.218C37.1149 172.075 37.9399 172.054 38.2657 172.627C38.3228 172.727 38.358 172.838 38.3932 172.949C38.4334 173.075 38.4736 173.202 38.5461 173.312C38.6822 173.519 39.0298 173.622 39.1614 173.413L38.5293 171.785L40.1842 172.978C40.255 172.605 40.1294 172.2 39.8597 171.932C40.1657 171.457 41.0088 171.828 41.0793 172.388C41.1498 172.949 40.7381 173.452 40.3033 173.813C39.3832 174.577 38.2586 175.046 37.1345 175.453C36.4271 175.71 35.5092 175.895 35.0276 175.317C35.0552 175.115 35.0265 174.906 34.9457 174.719C34.7988 174.758 34.635 174.729 34.5107 174.641C34.4567 173.781 34.4821 172.916 34.5865 172.06ZM44.368 125.244C43.7946 125.085 43.4201 124.415 43.5861 123.843L46.8405 112.639C47.1684 112.604 47.5028 112.632 47.8204 112.721L44.368 125.244ZM52.7125 140.572C52.8175 140.338 52.9225 140.104 53.0295 139.872C53.6944 138.427 54.4453 137.022 55.277 135.667C55.537 136.481 55.1366 137.328 54.7659 138.111L54.7237 138.201L54.6854 138.282C54.0569 139.623 53.6376 141.063 53.4472 142.532C53.3029 143.645 51.9119 144.39 50.9052 143.893C51.6723 142.889 52.1933 141.728 52.7125 140.572ZM40.1037 133.125C40.2087 133.292 40.1862 133.507 40.1554 133.702C39.9458 135.03 39.519 136.323 38.897 137.515L36.9307 132.081C37.8716 132.228 38.7956 132.483 39.6797 132.837C39.8411 132.901 40.0113 132.977 40.1037 133.125ZM52.7142 129.681C54.0706 129.026 55.6589 128.864 57.1195 129.233C56.6145 130.515 56.2822 131.864 56.1344 133.234C55.8132 133.359 55.6082 132.898 55.5339 132.562C55.2288 131.179 54.09 130.016 52.7142 129.681ZM41.8515 133.984C41.9144 134.2 41.8516 134.431 41.789 134.647L40.3215 139.724C39.8505 139.04 40.0014 138.122 40.1839 137.312C40.4665 136.058 40.7792 134.811 41.1217 133.572C41.4205 133.493 41.7652 133.687 41.8515 133.984ZM44.4384 152.022C43.8965 151.999 43.312 151.959 42.8947 151.613C42.4774 151.266 42.3918 150.493 42.8677 150.232L44.8824 151.283L44.4384 152.022ZM36.5881 171.821C36.0093 171.931 35.4149 171.805 34.8393 171.68L34.914 171.11C35.8999 171.117 36.8868 170.987 37.8373 170.726C37.7316 171.305 37.1669 171.712 36.5881 171.821ZM52.0786 78.5635C52.1759 78.5223 52.287 78.5704 52.3268 78.6709C52.3666 78.7714 52.32 78.8861 52.2228 78.9273C51.7466 79.1287 51.4535 79.3955 51.2069 79.765C51.1003 79.9248 50.9527 80.2606 50.8066 80.5931C50.6057 81.0501 50.4076 81.5007 50.3227 81.4789C50.176 81.4414 50.5441 79.9855 50.8278 79.5603C51.1181 79.1253 51.5366 78.7928 52.0786 78.5635ZM95.8544 40.3189L119.106 38.0476C119.653 37.9941 120.384 37.7026 120.252 37.1687C112.21 37.775 104.177 38.4848 96.1537 39.2978C95.6229 39.3516 94.913 39.871 95.3133 40.2237C95.4549 40.3484 95.6666 40.3373 95.8544 40.3189ZM99.4231 59.9033C99.4291 60.0739 99.4408 60.2586 99.5516 60.3884C99.7039 60.5666 99.9741 60.5677 100.208 60.5544L106.661 60.1866C106.893 60.1734 107.131 60.1588 107.342 60.0641C108.05 59.7479 108.109 58.785 108.071 58.0113C107.921 54.952 107.944 51.8842 108.14 48.8274C108.166 48.4136 108.367 47.8579 108.774 47.9403L108.675 59.9843C108.673 60.2477 108.66 60.5393 108.476 60.7277C108.301 60.9067 108.028 60.9348 107.778 60.9522C106.362 61.0513 104.945 61.1465 103.528 61.2417L99.2243 61.5309C99.0636 61.5417 98.888 61.5484 98.7578 61.4537C98.5813 61.3252 98.5652 61.0727 98.5655 60.8544L98.5819 50.197C98.5825 49.8084 98.613 49.3583 98.9291 49.1323C99.404 49.7016 99.4027 50.5163 99.3834 51.2575C99.3081 54.1389 99.3213 57.0227 99.4231 59.9033ZM124.855 93.0654C124.873 92.5857 124.876 92.1047 124.877 91.6281L125.005 50.787C125.008 49.6954 124.977 48.5034 124.275 47.6673C124.01 63.1566 123.971 78.6497 124.156 94.1401C124.092 94.5348 124.084 94.9514 124.086 95.3446C124.097 97.2341 124.065 100.058 124.033 102.881C124.001 105.705 123.969 108.528 123.979 110.418C123.984 111.215 123.323 111.892 122.575 112.166C121.827 112.441 121.005 112.399 120.209 112.354L82.128 110.184L82.343 96.5819C86.8701 96.1251 91.4528 96.2226 95.9563 96.8716C95.7009 99.6016 95.5382 102.34 95.4688 105.081C95.0541 105.313 92.7142 105.303 90.1056 105.292C87.586 105.281 84.8156 105.269 83.2872 105.473C89.3412 106.67 95.5222 106.502 101.714 106.334C106.33 106.209 110.953 106.084 115.533 106.524C115.734 106.582 115.873 106.273 115.76 106.098C115.646 105.923 115.418 105.87 115.213 105.831L110.92 105.027L111.113 98.3907C111.123 98.0461 111.14 97.6796 111.337 97.3967C111.725 96.8397 112.454 96.9411 113.194 97.044C113.906 97.1429 114.628 97.2434 115.069 96.7624C114.575 99.7919 114.827 102.94 115.795 105.853C116.573 85.5707 116.861 65.2698 116.659 44.9737C116.655 44.5196 116.628 44.0129 116.3 43.699C115.961 43.3749 115.434 43.3829 114.966 43.4113L100.102 44.312C97.0754 44.4955 93.9366 44.7098 91.2741 46.1613L115.838 44.1033C115.796 45.5225 113.923 45.9673 112.504 46.018C105.006 46.2859 97.5339 47.2534 90.2151 48.9037C91.7491 49.4845 93.4932 49.4904 95.031 48.9199C95.531 48.7344 95.8184 49.4843 95.8217 50.0176L95.8831 59.9843C95.8852 60.3231 95.7745 60.7809 95.4359 60.7703C92.1296 60.6677 88.8107 60.9751 85.5796 61.6834C85.6725 62.2044 86.3754 62.2915 86.9032 62.2523L95.7922 61.5927C96.2512 61.5586 96.8473 61.3879 96.8496 60.9276L96.9063 49.5578C96.908 49.2208 96.9197 48.8545 97.1335 48.594C97.3811 48.2924 97.8123 48.2342 98.2009 48.1977L115.409 46.5824L116.161 57.6954C116.22 58.5556 115.52 59.3209 114.714 59.627C113.908 59.9332 113.017 59.884 112.157 59.8305C111.853 59.8116 111.513 59.7758 111.317 59.5426C111.147 59.3405 111.139 59.0522 111.14 58.7881L111.16 48.2017C111.16 47.9374 110.746 47.8603 110.558 48.0455C110.369 48.2308 110.354 48.5246 110.351 48.7889L110.235 58.8933C110.233 59.0643 110.227 59.2267 110.221 59.3798C110.184 60.2819 110.161 60.8581 111.166 60.9276C112.342 61.0089 114.909 60.6234 115.978 60.1264L115.523 80.1983L111.807 80.3036C111.388 80.3155 110.927 80.3441 110.626 80.6354C110.304 80.9464 110.278 81.4448 110.273 81.8923L110.155 92.0411C110.153 92.1953 110.147 92.3424 110.14 92.4812C110.106 93.2401 110.083 93.754 110.92 93.8526C111.91 93.9693 114.09 93.6806 115.019 93.319C115.265 94.2471 115.296 95.2318 115.108 96.1734L110.946 95.8645C110.616 95.84 110.16 95.9228 110.157 96.2537L110.096 104.037C110.091 104.676 109.83 105.552 109.198 105.455C108.666 105.374 108.549 104.669 108.561 104.131L108.741 96.6333C108.751 96.2285 108.213 96.0858 107.808 96.0731L99.4882 95.8121C99.2673 95.8052 99.0315 95.802 98.8441 95.9192C98.5273 96.1174 98.4879 96.555 98.4826 96.9286L98.3998 102.764C98.3832 103.939 97.9694 105.517 96.7957 105.461L96.7488 96.8371C96.7474 96.5806 96.7362 96.298 96.5616 96.1101C96.4119 95.9491 96.1799 95.9004 95.9635 95.8618C91.6059 95.0841 87.1262 94.9946 82.741 95.5974C82.1484 94.7206 81.9375 93.595 82.1726 92.5631C83.2209 93.0608 84.4288 93.053 85.5892 93.0354L95.6948 92.882C95.9617 92.8779 96.2501 92.8666 96.4592 92.7007C96.7472 92.4723 96.7707 92.0513 96.7699 91.6838L96.7493 82.4301C96.7481 81.8608 96.7202 81.2254 96.3118 80.8288C95.8929 80.4218 95.237 80.4239 94.6535 80.4518L83.0951 81.0038C82.747 79.1453 82.5845 77.2522 82.6107 75.3616C82.6797 75.1082 82.272 74.9531 82.0677 75.1181C81.8634 75.2832 81.8337 75.5781 81.8202 75.8404C81.2388 87.0895 81.0782 98.3603 81.3389 109.621C81.365 110.75 82.8343 111.142 83.9617 111.206L120.1 113.239C121.135 113.297 122.206 113.35 123.178 112.989C124.15 112.627 125.005 111.735 124.982 110.698C124.932 108.331 124.924 105.03 124.916 101.73C124.908 98.5679 124.9 95.4062 124.855 93.0654ZM107.04 93.8513L99.0314 93.6159C98.9058 93.6123 98.772 93.6059 98.6694 93.5332C98.5029 93.4152 98.4868 93.1785 98.4867 92.9743L98.4805 81.3429C98.4804 81.048 98.4961 80.7155 98.7155 80.5185C98.9091 80.3447 99.1958 80.3376 99.4559 80.3399L108.157 80.4197C108.296 80.4209 108.447 80.4268 108.552 80.5175C108.679 80.6277 108.689 80.8185 108.689 80.987L108.697 92.9633C108.697 93.6669 107.743 93.8719 107.04 93.8513ZM99.5083 81.3316C99.2116 81.474 99.1708 81.8725 99.1711 82.2016L99.179 92.3755C99.1791 92.498 99.1872 92.638 99.2831 92.7142C99.3448 92.7633 99.4282 92.7725 99.5067 92.7796C101.816 92.99 104.141 93.0299 106.456 92.8989C107.166 92.8587 108.102 92.5561 108.04 91.8476C107.762 88.6798 107.736 85.49 107.963 82.3181C108.014 81.6063 107.049 81.3478 106.336 81.3405L99.9027 81.2751C99.7687 81.2738 99.6291 81.2736 99.5083 81.3316ZM99.6742 63.5536C99.3181 63.5009 98.8715 63.4798 98.6884 63.7896C98.6133 63.9167 98.6056 64.0711 98.6001 64.2186C98.4299 68.7418 98.4181 73.271 98.5648 77.795C99.1997 77.5783 99.2823 76.729 99.2612 76.0584C99.1408 72.2381 99.3706 68.4164 99.6003 64.6011C102.252 64.8745 104.941 64.7759 107.566 64.3092C107.937 64.2431 108.083 64.773 108.069 65.1503C107.939 68.7188 107.932 72.2918 108.048 75.8609C108.097 76.0557 107.822 76.1545 107.621 76.1624L99.9666 76.4642C99.673 76.4758 99.6056 76.9387 99.8193 77.1404C100.033 77.3421 100.36 77.3468 100.654 77.3394L108.197 77.1493C108.341 77.1456 108.503 77.1343 108.599 77.0265C108.684 76.9308 108.689 76.7901 108.689 76.662L108.692 64.0339C108.692 63.8922 108.69 63.744 108.624 63.6185C108.447 63.282 107.964 63.3141 107.59 63.3857C104.986 63.8851 102.297 63.9422 99.6742 63.5536ZM125.265 42.4429C125.207 44.2111 125.136 46.0349 124.39 47.639L124.041 40.5691C123.988 39.4962 123.405 38.0223 122.384 38.3564L122.245 108.106C122.242 109.491 122.236 110.9 121.826 112.223C121.385 111.973 121.334 111.368 121.335 110.861L121.591 38.2954C121.592 38.112 121.594 37.9226 121.667 37.7546C121.846 37.3469 122.377 37.2203 122.817 37.2858C123.852 37.4398 124.65 38.3432 124.99 39.3331C125.33 40.3231 125.3 41.3967 125.265 42.4429ZM95.7603 65.6205L95.8023 75.7212C95.803 75.9089 95.7921 76.1231 95.6473 76.2425C95.547 76.3252 95.4082 76.3387 95.2786 76.3486L83.4521 77.2532C83.0836 77.2814 83.0228 77.8682 83.3036 78.1085C83.5844 78.3488 83.9965 78.3319 84.3645 78.2984C85.2992 78.2132 86.235 78.1052 87.1712 77.9972H87.1712H87.1713C90.1339 77.6554 93.1001 77.3131 96.0461 77.6915C96.6113 77.7641 96.8343 76.9852 96.8374 76.4154L96.9038 64.0993C96.9046 63.9568 96.8963 63.794 96.7857 63.7041C96.6903 63.6264 96.5538 63.6333 96.4311 63.6442L86.3307 64.5413C86.0664 64.5648 85.7871 64.5938 85.5743 64.7523C85.3616 64.9109 85.2584 65.2473 85.4343 65.4459L94.8259 64.9425C95.1526 64.9249 95.5541 64.9482 95.7003 65.241C95.758 65.3566 95.7598 65.4912 95.7603 65.6205ZM110.245 75.7927L110.302 64.0372C110.303 63.8516 110.309 63.6501 110.426 63.5062C110.534 63.3738 110.711 63.3226 110.876 63.2784L114.351 62.3485C114.669 62.2636 115.026 62.1833 115.31 62.3484C115.594 62.5135 115.634 63.0372 115.315 63.1186L111.924 63.986C111.691 64.0455 111.44 64.1163 111.293 64.3065C111.148 64.494 111.14 64.75 111.139 64.987L111.08 75.6347C111.078 75.9108 111.197 76.2946 111.468 76.2383C112.794 75.9616 114.188 76.0161 115.489 76.3955C115.385 76.9518 114.651 77.0719 114.086 77.0637L110.921 77.0182C110.4 77.0107 110.242 76.3135 110.245 75.7927ZM95.5481 81.783C95.7068 81.915 95.7195 82.1498 95.7195 82.3562L95.7222 91.2345C95.7224 91.6067 95.6496 92.0793 95.2891 92.1718C91.3714 91.8984 87.4387 91.8403 83.5146 91.9979C83.1488 92.0125 82.8319 91.708 82.709 91.3631C82.5862 91.0183 82.6133 90.6407 82.6396 90.2755C82.8143 87.8543 82.8863 85.4257 82.8552 82.9984C82.8515 82.7069 82.8786 82.3566 83.1346 82.2173C83.2244 82.1684 83.3288 82.1557 83.4303 82.1441C87.3039 81.7002 91.21 81.5412 95.1069 81.6688C95.2617 81.6739 95.429 81.6839 95.5481 81.783ZM107.97 98.7959C107.788 100.489 107.755 102.199 107.873 103.898C107.88 103.995 107.871 104.126 107.863 104.268C107.842 104.603 107.818 105.003 107.97 105.171C107.701 105.462 102.021 105.419 99.8109 105.211C99.608 105.192 99.3795 105.156 99.2629 104.989C99.1803 104.871 99.1771 104.716 99.177 104.572L99.1711 97.6886C99.1709 97.4391 99.1813 97.1621 99.3559 96.9839C99.5419 96.7941 99.8409 96.7897 100.107 96.798L106.28 96.9909C106.85 97.0087 107.511 97.0739 107.826 97.5498C108.062 97.906 108.016 98.3711 107.97 98.7959ZM111.058 81.8009C111.058 81.63 111.277 81.5627 111.447 81.5455L115.598 81.1259L115.38 91.9416C115.375 92.1888 115.345 92.481 115.129 92.6024C115.029 92.6587 114.91 92.6637 114.795 92.6673L111.807 92.7613C111.577 92.7685 111.311 92.7606 111.166 92.5815C111.059 92.4492 111.054 92.2642 111.054 92.0941L111.058 81.8009Z" fill="#00160A"/>
</svg>
