<svg width="100" height="100" viewBox="0 0 100 100" fill="none" xmlns="http://www.w3.org/2000/svg">
<rect width="100" height="100" fill="white"/>
<path fill-rule="evenodd" clip-rule="evenodd" d="M18.7015 73.1917C24.7375 79.762 48.0791 75.9879 63.4483 75.9879C70.0788 75.9879 92.3295 79.311 83.1412 56.489C53.0144 -18.3404 -0.423583 52.3734 18.7015 73.1917Z" fill="#D6C5FB"/>
<path fill-rule="evenodd" clip-rule="evenodd" d="M45.4082 73.7202C45.4375 73.6977 45.4683 73.6733 45.4811 73.6386C45.522 73.5273 45.3613 73.4533 45.2428 73.456C45.0707 73.4599 44.8501 73.5758 44.9027 73.7396C44.9332 73.8344 45.05 73.8783 45.148 73.8609C45.2461 73.8434 45.3292 73.7809 45.4082 73.7202H45.4082ZM45.9197 71.7691C46.0496 71.8099 46.1779 71.8603 46.291 71.936C46.5035 72.0783 46.648 72.2991 46.7867 72.5139C46.8862 72.6679 46.987 72.8249 47.0366 73.0013C47.0904 73.1925 47.0808 73.3964 47.0448 73.5917C46.9326 74.1998 46.5573 74.7548 46.0346 75.0852C45.512 75.4157 44.8497 75.5169 44.2522 75.3574C44.1359 75.3264 44.0188 75.2841 43.9293 75.2035C43.8541 75.1359 43.8035 75.0457 43.7571 74.9558C43.5137 74.484 43.3497 73.9598 43.3684 73.4291C43.3871 72.8985 43.6053 72.3616 44.0184 72.0281C44.5369 71.6096 45.2839 71.5697 45.9197 71.7691" fill="white"/>
<path fill-rule="evenodd" clip-rule="evenodd" d="M73.3595 42.9039C73.0747 42.9003 72.8075 43.1392 72.7793 43.4227C72.7678 43.5385 72.8169 43.6825 72.9322 43.6985C73.0186 43.7105 73.0945 43.6437 73.1526 43.5786C73.2754 43.4409 73.381 43.2877 73.4659 43.1239C73.4944 43.0689 73.5195 42.9983 73.4821 42.949C73.4548 42.9131 73.4046 42.9044 73.3595 42.9039ZM73.2362 41.6326C73.6408 41.7738 74.0074 42.022 74.2887 42.3453C74.5304 42.623 74.7145 42.9836 74.6637 43.3483C74.6451 43.4822 74.5957 43.6099 74.5394 43.7328C74.326 44.1982 73.959 44.6442 73.455 44.7344C73.1906 44.7816 72.918 44.725 72.6638 44.6385C72.3697 44.5384 72.0893 44.3981 71.833 44.2227C71.697 44.1296 71.562 44.0192 71.5024 43.8655C71.4613 43.7597 71.46 43.6431 71.4616 43.5295C71.4654 43.2487 71.484 42.9631 71.5819 42.6999C71.7058 42.3668 71.9482 42.0919 72.2052 41.8466C72.3086 41.7479 72.4182 41.6507 72.5509 41.5978C72.7681 41.5112 73.0155 41.5556 73.2362 41.6326Z" fill="white"/>
<path fill-rule="evenodd" clip-rule="evenodd" d="M73.36 21.3717C75.0339 23.0979 76.355 25.162 77.2199 27.4021C77.2793 27.556 77.3369 27.7269 77.2802 27.8817C76.8439 29.0742 76.0019 30.0684 75.1763 31.035C74.6487 31.6527 74.1212 32.2704 73.5936 32.8881C73.09 33.4778 72.5863 34.0675 72.0657 34.6424C69.4148 37.5692 66.2825 40.1285 62.6548 41.7032C62.5179 41.7627 62.3711 41.8219 62.2237 41.7982C62.0762 41.7744 61.9381 41.6318 61.9766 41.4881C62.4252 39.8179 62.8765 38.0717 62.5166 36.3803C62.4298 35.9723 62.333 35.4587 62.6715 35.2132C65.4113 33.2256 67.3839 30.3846 69.2744 27.5823C69.7497 26.8776 70.2238 26.171 70.6445 25.4327C71.3913 24.1217 71.9665 22.7138 72.3509 21.2559C72.4036 21.0559 72.6572 20.9658 72.858 21.0182C73.0589 21.0706 73.2158 21.2229 73.36 21.3717" fill="white"/>
<path fill-rule="evenodd" clip-rule="evenodd" d="M21.1592 28.0778C21.4314 30.538 22.1888 32.9436 23.3752 35.1159C24.1098 36.4609 25.0034 37.7115 25.8945 38.9584C26.5147 39.826 27.1778 40.7302 28.1454 41.1785C28.4027 41.2978 28.3668 41.6687 28.2977 41.9437C27.9993 43.1325 27.86 44.3611 27.8848 45.5865C27.8872 45.7022 27.8902 45.8222 27.8447 45.9287C27.6903 46.2902 27.1613 46.23 26.7971 46.0821C24.5436 45.1673 22.8134 43.3276 21.1972 41.5102C19.0988 39.1506 17.0316 36.6873 15.792 33.783C15.7077 33.5856 15.6259 33.3778 15.64 33.1636C15.6544 32.9453 15.7665 32.7469 15.8803 32.5601C17.004 30.7144 18.5674 29.1383 20.404 27.9996C20.5333 27.9194 20.6714 27.839 20.8235 27.8338C20.9757 27.8285 21.1425 27.9265 21.1592 28.0778Z" fill="white"/>
<path fill-rule="evenodd" clip-rule="evenodd" d="M73.0315 71.2366C73.2258 70.9076 73.4665 70.5452 73.8434 70.4828C73.992 70.4582 74.0704 70.2967 74.121 70.1548C74.7441 68.4069 74.8042 66.4631 74.2902 64.68C74.1434 64.1711 74.3241 63.6315 74.5028 63.1329C74.9641 61.8462 75.4253 60.5594 75.8866 59.2727C75.6223 58.8155 74.9255 58.8291 74.5685 58.44C74.1092 57.9394 74.4557 57.1433 74.8155 56.567C76.918 53.2 79.0205 49.8329 81.1229 46.4659C81.3805 46.0534 81.9457 45.9241 82.4195 46.034C82.8932 46.1439 83.2978 46.4421 83.6875 46.7331C85.2209 47.8784 86.7542 49.0237 88.2876 50.169C89.1106 50.7837 90.0191 51.5689 89.9717 52.595C89.9455 53.1628 89.6206 53.6675 89.3063 54.1411C88.091 55.9723 86.8758 57.8035 85.6606 59.6347C84.9759 60.6664 85.165 62.0213 84.9581 63.242C84.6312 65.1708 83.3085 66.7549 82.0837 68.2804C80.8589 69.8058 79.6334 71.5092 79.5645 73.4644C79.4825 75.7946 78.3755 78.0705 76.5929 79.5735C77.1099 78.3191 73.8434 78.8195 70.1068 77.3328C70.7217 75.1576 71.8826 73.1834 73.0315 71.2366Z" fill="white"/>
<path fill-rule="evenodd" clip-rule="evenodd" d="M32.0013 76.6919C31.7683 76.5013 31.694 76.1796 31.6529 75.8806C31.177 72.4206 33.2207 69.0056 32.8567 65.532C32.6691 63.7419 31.8466 62.0716 30.8115 60.6026C30.0968 59.5882 30.0567 58.2291 30.3234 57.0153C30.59 55.8016 31.1279 54.6666 31.4908 53.4783C33.1042 48.1938 31.141 42.5483 29.2 37.3763C33.0677 35.506 37.5811 35.8682 41.866 36.1216C46.1508 36.375 50.7591 36.393 54.3303 34C54.8198 39.1767 53.7405 44.359 52.6673 49.4459C58.1128 48.9154 63.5583 48.3849 69.0038 47.8544C69.16 47.8392 69.3307 47.8274 69.4605 47.9161C69.6336 48.0344 69.6602 48.2757 69.6701 48.4858C69.9247 53.8693 70.079 59.2577 70.133 64.647C70.1343 64.7822 70.1297 64.9329 70.0349 65.0288C69.9537 65.1108 69.8298 65.128 69.7153 65.1408C62.086 65.991 54.4567 66.8412 46.8273 67.6914C46.1676 67.7649 45.2278 67.5931 45.2664 66.9271C45.4387 63.9576 45.3381 60.9721 44.9664 58.0211C42.9389 57.9444 40.8975 58.2535 38.9825 58.9274C38.5481 59.0803 38.0257 59.4913 38.26 59.8895C39.8102 62.5239 37.8861 66.4836 39.9915 68.6949C40.7155 69.4553 40.6654 70.6514 40.522 71.6939C40.2144 73.9283 39.692 76.1328 38.9642 78.2667C39.316 75.8106 32.2163 78.009 32.0013 76.6919Z" fill="white"/>
<path fill-rule="evenodd" clip-rule="evenodd" d="M10.1794 20.9369C10.1859 20.9893 10.1576 21.0444 10.1111 21.0695C10.0741 21.0325 10.037 20.9955 10 20.9584C10.0555 20.9341 10.1185 20.9272 10.1779 20.9388L10.1794 20.9369Z" fill="#00160A"/>
<path fill-rule="evenodd" clip-rule="evenodd" d="M45.7863 71.7691C45.9162 71.8099 46.0445 71.8603 46.1576 71.936C46.3701 72.0783 46.5146 72.2991 46.6533 72.5139C46.7528 72.6679 46.8536 72.8249 46.9033 73.0013C46.957 73.1925 46.9474 73.3964 46.9114 73.5917C46.7993 74.1998 46.4239 74.7548 45.9012 75.0852C45.3786 75.4157 44.7163 75.5169 44.1188 75.3574C44.0025 75.3264 43.8853 75.2841 43.7959 75.2035C43.7207 75.1359 43.6701 75.0457 43.6237 74.9558C43.3803 74.484 43.2162 73.9598 43.235 73.4291C43.2537 72.8985 43.4718 72.3616 43.885 72.0281C44.4034 71.6096 45.1505 71.5697 45.7863 71.7691M45.0576 74.9283C45.3826 74.8789 45.6687 74.6667 45.8554 74.3962C46.0422 74.1257 46.1381 73.8013 46.1841 73.4758C46.2104 73.2899 46.2128 73.0769 46.0816 72.9427C46.003 72.8623 45.8908 72.8264 45.7832 72.7942C45.3791 72.6734 44.9178 72.5706 44.5559 72.7871C44.2924 72.9448 44.1454 73.237 44.0122 73.5138C43.8562 73.8379 43.8948 74.2469 44.1085 74.5362C44.3223 74.8254 44.702 74.9823 45.0576 74.9283V74.9283Z" fill="#00160A"/>
<path fill-rule="evenodd" clip-rule="evenodd" d="M60.6319 57.1717C60.6376 57.1028 60.6459 57.0288 60.6915 56.9768C60.7361 56.9259 60.8064 56.9077 60.8722 56.8923C62.5701 56.497 64.3238 56.3424 66.0646 56.4344C66.2863 56.4462 66.5715 56.5212 66.5862 56.7427C66.6703 58.0128 66.7543 59.2829 66.8384 60.553C66.8427 60.6173 66.8448 60.6886 66.8037 60.7381C66.7702 60.7786 66.7161 60.7942 66.6653 60.8074C64.8547 61.2794 62.9462 61.3725 61.0982 61.0788C61.0506 61.0713 61.0005 61.0624 60.9636 61.0314C60.9189 60.994 60.9033 60.9332 60.8905 60.8763C60.6181 59.6639 60.5306 58.4102 60.6319 57.1717ZM61.0324 59.2786C61.0657 59.7583 61.1663 60.2332 61.3303 60.6851C61.4939 60.7087 61.6558 60.7427 61.8187 60.7702C63.223 61.008 64.6593 60.7688 66.0635 60.5299C66.1631 60.5129 66.2724 60.4904 66.3339 60.4102C66.3967 60.3283 66.3883 60.2141 66.377 60.1115C66.3286 59.6739 66.2803 59.2362 66.2319 58.7986C66.228 58.7633 66.223 58.7255 66.1991 58.6992C66.1701 58.6673 66.1227 58.6622 66.0797 58.6593C65.0819 58.5936 64.0807 58.6681 63.0835 58.7425C62.5323 58.7836 61.9811 58.8248 61.4299 58.8659C61.3004 58.8756 61.1533 58.8948 61.0788 59.0012C61.0239 59.0796 61.0257 59.1832 61.0324 59.2786ZM61.0478 57.4481C60.9606 57.7278 60.945 58.0296 61.0027 58.3168C61.0131 58.3684 61.0277 58.4229 61.0669 58.458C61.125 58.5102 61.2136 58.5016 61.2907 58.4902C62.2299 58.3527 63.1791 58.2843 64.1282 58.2859C64.2621 58.2862 64.3032 58.1059 64.3017 57.9721C64.2996 57.7759 64.2974 57.5797 64.2953 57.3835C64.294 57.27 64.2884 57.145 64.2107 57.0622C64.1173 56.9628 63.9612 56.9659 63.8252 56.9763C63.5108 57.0003 63.1963 57.0243 62.8819 57.0483C62.7315 57.0598 62.3325 57.162 62.1492 57.1741C61.83 57.225 61.5107 57.2759 61.1915 57.3269C61.1575 57.3323 61.1215 57.3386 61.0953 57.3609C61.0698 57.3827 61.0578 57.4161 61.0478 57.4481ZM65.258 58.3015C65.5076 58.3047 65.7574 58.2798 66.0014 58.2273C66.0595 58.2147 66.1205 58.1989 66.162 58.1563C66.2228 58.0938 66.2222 57.9957 66.2178 57.9086C66.2049 57.6557 66.192 57.4028 66.1791 57.1498C66.1745 57.0596 66.1643 56.958 66.0938 56.9015C66.0318 56.8519 65.9442 56.8548 65.8649 56.8602C65.5874 56.8791 65.3099 56.898 65.0325 56.9169C64.9885 56.9199 64.9424 56.9236 64.9056 56.9478C64.8384 56.9923 64.8284 57.0853 64.8265 57.1658C64.8203 57.4339 64.8313 57.7024 64.8593 57.9691C64.8674 58.0463 64.8786 58.1276 64.9264 58.1888C65.0008 58.2841 65.1371 58.3 65.258 58.3015Z" fill="#FFB61D"/>
<path fill-rule="evenodd" clip-rule="evenodd" d="M64.9773 51.6213C65.3482 51.4607 65.8033 51.5145 66.1266 51.757C66.4499 51.9996 66.6288 52.4215 66.5785 52.8225C66.8057 52.6996 67.094 52.5786 67.3061 52.7262C67.5456 52.8928 67.4908 53.2516 67.4549 53.5411C67.392 54.0469 67.4735 54.5698 67.6874 55.0325C67.7757 55.2237 67.8515 55.5136 67.6556 55.5907C67.6225 55.6037 67.5865 55.6067 67.5511 55.6096C65.2538 55.7947 62.9565 55.9799 60.6592 56.165C60.5961 56.1701 60.5256 56.1728 60.4779 56.1313C60.4293 56.089 60.4232 56.0169 60.4206 55.9524C60.3986 55.4121 60.3765 54.8717 60.3545 54.3314C60.3486 54.1864 60.3458 54.0301 60.4276 53.9104C60.5631 53.7122 60.8469 53.7128 61.084 53.6748C61.3211 53.6368 61.5969 53.4368 61.5056 53.2147C61.4039 52.9672 61.7506 52.7863 62.0152 52.746C62.2798 52.7057 62.6308 52.548 62.5506 52.2927C62.463 52.0137 62.8469 51.8406 63.1367 51.8021C63.3412 51.7749 63.5551 51.7487 63.7491 51.8188C63.9431 51.889 64.1071 52.0887 64.0634 52.2903C64.0134 52.5211 64.2945 52.7362 64.5162 52.6547C64.7378 52.5731 64.8276 52.2702 64.7154 52.0624C64.6238 51.8926 64.8003 51.6979 64.9773 51.6213ZM66.1636 55.1821C66.0776 55.0229 66.077 54.8332 66.0762 54.6522C66.0726 53.8023 66.0204 52.9526 65.9199 52.1087C65.9148 52.0661 65.9068 52.0185 65.8719 51.9935C65.8418 51.972 65.8014 51.9745 65.7646 51.978C65.5851 51.9947 65.3725 52.0344 65.3015 52.2001C65.2713 52.2708 65.2749 52.3507 65.279 52.4275C65.3245 53.2793 65.37 54.1311 65.4155 54.9829C65.4197 55.0623 65.4303 55.1533 65.4962 55.1977C65.5321 55.2218 65.5774 55.2263 65.6206 55.2287C65.8026 55.2386 65.9859 55.2229 66.1636 55.1821ZM63.0737 53.8725C63.0514 54.0144 63.0201 54.1553 63.0118 54.2987C62.9979 54.5383 63.0484 54.7765 63.0986 55.0113C63.1307 55.1618 63.3253 55.2359 63.4679 55.1779C63.6104 55.1198 63.6966 54.9677 63.7203 54.8156C63.744 54.6635 63.7162 54.5088 63.6919 54.3568C63.5967 53.7596 63.5555 53.1538 63.5689 52.5493C63.5723 52.3963 63.4232 52.2581 63.2709 52.2732C63.1186 52.2883 62.9994 52.4531 63.0328 52.6025C63.1258 53.0183 63.1397 53.4516 63.0737 53.8725ZM64.5845 53.0567C64.495 52.9394 64.2897 53.0019 64.2198 53.1319C64.1499 53.2619 64.1713 53.4195 64.1886 53.5661C64.2339 53.9489 64.2382 54.3365 64.2015 54.7202C64.1906 54.8333 64.1786 54.9568 64.2411 55.0517C64.3372 55.1978 64.5479 55.1965 64.7218 55.1788C64.7763 55.1732 64.839 55.1627 64.8664 55.1152C64.8855 55.0822 64.881 55.0412 64.8759 55.0034C64.7957 54.4081 64.7155 53.8128 64.6353 53.2175C64.6278 53.1611 64.619 53.1019 64.5845 53.0567ZM66.5744 53.3125C66.5069 53.4045 66.4927 53.5243 66.4868 53.6382C66.4667 54.029 66.5185 54.4195 66.5702 54.8073C66.5905 54.9601 66.6604 55.1566 66.8142 55.1461C66.9701 55.1356 67.0108 54.9271 67.0072 54.7709C66.9976 54.3572 66.988 53.9435 66.9784 53.5298C66.9759 53.421 66.9644 53.295 66.8742 53.2343C66.7795 53.1706 66.6419 53.2205 66.5744 53.3125ZM61.8655 53.2147C61.8655 53.2147 61.934 53.7546 61.9579 54.0298C61.9879 54.3751 62.026 54.7197 62.0724 55.0633C62.0791 55.1132 62.0881 55.1672 62.1249 55.2015C62.1887 55.2611 62.4349 55.2215 62.4802 55.147C62.5256 55.0724 62.5231 54.9793 62.5191 54.8921C62.5066 54.6164 62.4941 54.3406 62.4816 54.0649C62.4682 53.7693 62.3979 53.1318 62.3979 53.1318M60.9728 55.1697C60.9924 55.2315 61.0157 55.2962 61.0657 55.3376C61.1633 55.4184 61.3215 55.3684 61.3985 55.2678C61.4754 55.1671 61.4927 55.0346 61.5074 54.9088C61.5255 54.7544 61.5429 54.594 61.493 54.4469C61.443 54.2997 61.3046 54.1702 61.1498 54.1839C61.0074 54.1965 60.8971 54.3266 60.8639 54.4656C60.8306 54.6046 60.8586 54.7504 60.8932 54.8891C60.9167 54.9835 60.9433 55.077 60.9728 55.1697Z" fill="#E7EAEE"/>
<path fill-rule="evenodd" clip-rule="evenodd" d="M70.2853 33.0615C70.0999 33.3399 69.8988 33.622 69.6118 33.7939C69.3248 33.9658 68.9286 33.9993 68.6707 33.7862C68.3862 33.551 68.3686 33.1272 68.3911 32.7588C68.3998 32.6169 68.4111 32.474 68.4518 32.3378C68.5223 32.1016 68.6762 31.9001 68.8369 31.7132C69.0318 31.4865 69.2477 31.2678 69.5181 31.1402C69.7885 31.0126 70.1245 30.9902 70.3779 31.149C70.6811 31.339 70.7934 31.7432 70.7359 32.0964C70.6785 32.4497 70.4838 32.7637 70.2853 33.0615M69.6964 33.3561C69.9303 33.107 70.1309 32.8267 70.2912 32.5249C70.3967 32.3263 70.4864 32.1105 70.4822 31.8856C70.478 31.6608 70.3594 31.4258 70.1506 31.3424C69.8786 31.2337 69.5801 31.4076 69.3528 31.5922C69.1909 31.7237 69.0343 31.868 68.9305 32.0488C68.8648 32.1631 68.8222 32.2889 68.7799 32.4138C68.7 32.6501 68.619 32.8963 68.6494 33.1438C68.6798 33.3914 68.857 33.6399 69.1051 33.6656C69.3347 33.6893 69.5384 33.5244 69.6964 33.3561Z" fill="#FFB61D"/>
<path fill-rule="evenodd" clip-rule="evenodd" d="M22.5066 36.2083C22.7972 36.5026 23.037 36.8469 23.2125 37.2214C23.3888 37.5978 23.211 38.0815 22.865 38.3118C22.5189 38.5421 22.0511 38.539 21.6716 38.3693C21.2922 38.1996 20.994 37.8829 20.7744 37.53C20.6088 37.264 20.4804 36.9658 20.4667 36.6527C20.4529 36.3397 20.5682 36.0102 20.8158 35.8182C21.0663 35.624 21.4186 35.5963 21.7215 35.6895C22.0244 35.7826 22.284 35.9828 22.5066 36.2083M21.3729 36.0293C21.1215 36.0034 20.8981 36.2342 20.855 36.4832C20.8119 36.7323 20.9068 36.9849 21.0297 37.2058C21.296 37.6848 21.7713 38.1102 22.3188 38.0837C22.6002 38.0701 22.9086 37.8752 22.9036 37.5935C22.9014 37.4717 22.8414 37.3593 22.7813 37.2533C22.6219 36.9716 22.4497 36.6929 22.2197 36.4651C21.9897 36.2374 21.6948 36.0625 21.3729 36.0293Z" fill="#FFB61D"/>
<path fill-rule="evenodd" clip-rule="evenodd" d="M44.4764 73.2604C44.6782 73.1071 44.9293 73.0078 45.1822 73.0241C45.4352 73.0404 45.6855 73.1856 45.7913 73.4159C45.9049 73.6631 45.8341 73.9702 45.6569 74.1767C45.4798 74.3831 45.2128 74.4971 44.9434 74.5348C44.7595 74.5605 44.5403 74.5374 44.4396 74.3814C44.3911 74.3061 44.38 74.2134 44.3703 74.1243C44.3527 73.9645 44.3352 73.8046 44.3177 73.6448C44.3102 73.577 44.3031 73.5068 44.3249 73.4422C44.3505 73.3663 44.4126 73.3089 44.4764 73.2604M45.2748 73.7202C45.3042 73.6977 45.3349 73.6733 45.3477 73.6386C45.3887 73.5273 45.2279 73.4533 45.1094 73.456C44.9373 73.4599 44.7167 73.5758 44.7694 73.7396C44.7998 73.8344 44.9166 73.8783 45.0146 73.8609C45.1127 73.8434 45.1958 73.7809 45.2748 73.7202H45.2748Z" fill="#00160A"/>
<path fill-rule="evenodd" clip-rule="evenodd" d="M73.0654 22.1507C74.6379 23.7786 75.8791 25.7252 76.6916 27.8377C76.7475 27.9828 76.8016 28.144 76.7483 28.2901C76.3384 29.4146 75.5474 30.3522 74.7718 31.2638L73.2849 33.0113C72.8117 33.5674 72.3385 34.1236 71.8493 34.6657C69.3589 37.4259 66.4162 39.8395 63.008 41.3245C62.8794 41.3805 62.7414 41.4364 62.6029 41.414C62.4644 41.3916 62.3346 41.2572 62.3709 41.1216C62.7923 39.5465 63.2163 37.8997 62.8782 36.3047C62.7966 35.9199 62.7057 35.4355 63.0236 35.204C65.5977 33.3296 67.4509 30.6504 69.227 28.0076C69.6735 27.3431 70.119 26.6768 70.5142 25.9804C71.2158 24.7442 71.7562 23.4165 72.1173 22.0416C72.1669 21.8529 72.4051 21.7679 72.5938 21.8174C72.7825 21.8668 72.9299 22.0104 73.0654 22.1507ZM71.9649 24.1723C71.8051 24.1062 71.6577 24.285 71.5763 24.4375C71.4896 24.6 71.403 24.7627 71.3163 24.9256L71.312 24.9336C69.6827 27.9941 68.0284 31.1015 65.5455 33.512C65.3109 33.7397 65.0487 34.0149 65.0919 34.339C65.2305 35.3778 64.6759 36.4749 63.7571 36.9793C63.34 37.2083 63.345 37.7991 63.4061 38.271C63.4305 38.4599 63.5019 38.6967 63.6917 38.7127C64.2485 38.7596 64.7828 39.0337 65.1458 39.4586C65.2603 39.5926 65.4773 39.5088 65.6265 39.415C69.3827 37.0536 72.2688 33.5657 75.0867 30.1387C75.1839 30.0205 75.2874 29.8715 75.2367 29.7271C74.8102 28.5124 74.8786 27.1319 75.4229 25.9653C75.1017 25.3262 74.719 24.7181 74.2816 24.1522C73.5539 24.4681 72.698 24.4755 71.9649 24.1723ZM63.0557 40.7007C63.2038 40.7783 63.3831 40.7045 63.5313 40.6271C63.9209 40.4237 64.2962 40.1929 64.6534 39.9369C64.7478 39.8693 64.7759 39.7342 64.7425 39.6229C64.7091 39.5117 64.6256 39.422 64.5331 39.3518C64.2443 39.1326 63.8406 39.075 63.502 39.2046C63.4394 39.2285 63.3772 39.2598 63.3341 39.311C63.2836 39.3711 63.2652 39.451 63.249 39.5277C63.1672 39.9156 63.1026 40.3071 63.0557 40.7007ZM73.6039 23.3634C73.3486 22.8644 72.955 22.4371 72.4786 22.1417C72.3129 22.2878 72.2807 22.5098 72.2479 22.7361V22.7361C72.2253 22.8914 72.2025 23.0487 72.136 23.1849C72.1144 23.2293 72.0879 23.2717 72.0615 23.3141C72.0112 23.3947 71.9611 23.475 71.945 23.5676C71.9203 23.7088 72.0399 23.8859 72.1754 23.8392C72.2856 23.8012 72.4011 23.8256 72.5176 23.8502C72.579 23.8632 72.6408 23.8763 72.7022 23.8802C73.0599 23.9033 73.3567 23.6231 73.6039 23.3634ZM75.6267 26.3545C75.3533 26.8983 75.3965 27.5406 75.4462 28.1473L75.5175 29.0173C75.5254 29.113 75.5774 29.2421 75.6697 29.2156C75.7269 29.0554 75.836 28.9232 75.9454 28.7906C76.041 28.6746 76.1369 28.5584 76.1985 28.4229C76.4072 27.9641 76.1756 27.4352 75.9473 26.9858L75.6267 26.3545ZM63.3878 36.0109C63.3993 36.1811 63.576 36.3085 63.7465 36.3037C63.917 36.2989 64.0705 36.1885 64.1701 36.0501C64.2698 35.9117 64.3244 35.7468 64.3776 35.5847L64.5534 35.0496C64.6024 34.9004 64.6055 34.6723 64.4494 34.6548C64.3931 34.6485 64.3393 34.6783 64.2931 34.7111C64.1182 34.8354 63.9909 35.014 63.8669 35.1892L63.5292 35.6663C63.4559 35.7697 63.3793 35.8844 63.3878 36.0109ZM23.1086 34.5826C21.9222 32.4102 21.1647 30.0047 20.8926 27.5444C20.8759 27.3932 20.709 27.2952 20.5569 27.3004C20.4048 27.3057 20.2667 27.3861 20.1373 27.4663C18.3008 28.6049 16.7374 30.181 15.6137 32.0268C15.4999 32.2136 15.3878 32.412 15.3734 32.6303C15.3593 32.8445 15.4411 33.0523 15.5254 33.2497C16.765 36.1539 18.8322 38.6172 20.9306 40.9769C22.5468 42.7943 24.2769 44.634 26.5305 45.5488C26.8947 45.6967 27.4237 45.7569 27.5781 45.3954C27.623 45.2902 27.6206 45.1719 27.6183 45.0575L27.6182 45.0531C27.5934 43.8277 27.7326 42.5991 28.0311 41.4104C28.1002 41.1354 28.136 40.7644 27.8788 40.6452C26.9112 40.1968 26.248 39.2926 25.6279 38.425C24.7368 37.1782 23.8432 35.9276 23.1086 34.5826ZM25.2031 44.0782C25.0698 44.1138 24.9367 44.0297 24.8254 43.9482C22.7744 42.4455 21.185 40.4116 19.6234 38.4051L16.8675 34.8641C17.3326 34.5678 17.3917 33.9241 17.4019 33.3727C17.415 32.656 17.4247 31.918 17.1657 31.2495C17.1082 31.1009 17.1831 30.9363 17.2633 30.7986C17.6074 30.2082 18.0846 29.6958 18.6492 29.3107C18.7038 29.2734 18.7617 29.2364 18.8272 29.2271C19.0001 29.2027 19.1327 29.3708 19.2251 29.519C19.5899 30.1041 20.0914 30.7658 20.7793 30.7176C21.0412 30.6993 21.1864 31.0078 21.2628 31.259C22.213 34.3827 23.997 37.2002 26.0891 39.7069C26.3609 40.0326 26.4292 40.4723 26.4967 40.9079C26.5721 41.3937 26.6467 41.8745 27.0021 42.1869C27.3055 42.4536 27.2492 42.9325 27.1673 43.3281C27.1506 43.4091 27.1306 43.4958 27.0691 43.551C27.0235 43.5921 26.9618 43.6091 26.9024 43.625L25.2031 44.0782ZM20.3409 29.994C19.9646 29.7311 19.6396 29.3952 19.3894 29.0105C19.3352 28.9272 19.2826 28.834 19.2921 28.7351C19.3025 28.6277 19.3833 28.5417 19.4638 28.4697C19.6624 28.2919 19.8869 28.1431 20.128 28.0293C20.2163 27.9877 20.3303 27.9538 20.4037 28.0183C20.4468 28.0562 20.4605 28.1168 20.4717 28.1732L20.8193 29.9112C20.8398 30.0139 20.732 30.1065 20.6273 30.1094C20.5225 30.1124 20.4268 30.054 20.3409 29.994ZM16.9019 33.3556C16.8946 33.6826 16.8696 34.0494 16.6246 34.266C16.5733 34.2721 16.5393 34.2158 16.5192 34.1683C16.3426 33.7504 16.1637 33.3225 16.1359 32.8697C16.1081 32.417 16.2598 31.9267 16.6298 31.6642C16.6799 31.6287 16.7533 31.5994 16.7975 31.642C16.8153 31.6591 16.8228 31.684 16.8293 31.7078C16.9299 32.0773 16.922 32.4665 16.9133 32.8494L16.9019 33.3556ZM26.886 44.2297C26.9454 44.2783 26.9517 44.3653 26.9533 44.442L26.971 45.2823C26.6263 45.0912 26.296 44.874 25.984 44.6333C25.9249 44.5876 25.8598 44.5137 25.8961 44.4483C25.9141 44.4159 25.9514 44.4003 25.9862 44.3875C26.2092 44.3052 26.4398 44.2435 26.6742 44.2034C26.7466 44.191 26.8291 44.1831 26.886 44.2297ZM26.9058 40.9197C26.9026 40.8818 26.9026 40.8404 26.9252 40.8098C26.9847 40.7289 27.1139 40.8021 27.1685 40.8864C27.3 41.0895 27.3291 41.3555 27.2445 41.5822C27.0513 41.4166 26.9269 41.1733 26.9058 40.9197ZM78.2494 34.5393C78.593 34.1066 79.2193 34.0444 79.7716 34.0579C79.9006 34.061 80.0334 34.0673 80.1509 34.1208C80.4776 34.2697 80.547 34.6967 80.5581 35.0556C80.5681 35.3822 80.5662 35.7131 80.4869 36.03C80.4075 36.347 80.2433 36.6523 79.9808 36.8468C79.8628 36.9343 79.7259 36.998 79.5811 37.0222C79.3572 37.0597 79.1282 37.0022 78.9155 36.9231C78.632 36.8176 78.3632 36.6727 78.1192 36.4939C78 36.4066 77.8769 36.2923 77.8731 36.1445C77.8642 35.8039 77.9024 35.4621 77.9861 35.1318C78.0396 34.9207 78.114 34.7099 78.2494 34.5393ZM79.1403 36.6942C79.5814 36.8209 80.0506 36.4796 80.2178 36.0522C80.3849 35.6248 80.3231 35.1447 80.2312 34.6951C80.1959 34.5225 80.0115 34.426 79.8414 34.3799C79.5782 34.3084 79.2983 34.2989 79.0308 34.3524C78.8979 34.379 78.7621 34.4245 78.6688 34.5229C78.618 34.5765 78.5829 34.6426 78.5483 34.7079L78.2899 35.1963C78.2445 35.2822 78.1987 35.3689 78.172 35.4624C78.092 35.7418 78.1977 36.0521 78.3928 36.2676C78.588 36.483 78.8609 36.614 79.1403 36.6942ZM73.2364 41.6326C73.6409 41.7738 74.0075 42.022 74.2888 42.3452C74.5306 42.623 74.7147 42.9836 74.6639 43.3483C74.6452 43.4822 74.5958 43.6099 74.5395 43.7328C74.3261 44.1982 73.9591 44.6442 73.4551 44.7344C73.1907 44.7816 72.9181 44.725 72.6639 44.6385C72.3698 44.5384 72.0895 44.3981 71.8331 44.2227C71.6971 44.1296 71.5621 44.0191 71.5025 43.8655C71.4614 43.7597 71.4601 43.6431 71.4617 43.5295C71.4655 43.2487 71.4841 42.9631 71.582 42.6999C71.7059 42.3668 71.9483 42.0919 72.2053 41.8465C72.3087 41.7479 72.4183 41.6507 72.551 41.5978C72.7682 41.5112 73.0156 41.5556 73.2364 41.6326ZM73.6499 44.0804C73.9422 43.7912 74.1123 43.3718 74.066 42.9632C74.0197 42.5546 73.7431 42.1711 73.3563 42.0316C73.1955 41.9736 73.0172 41.9574 72.8526 42.003C72.7637 42.0276 72.6804 42.0694 72.6026 42.1189C72.2696 42.3307 72.0358 42.692 71.9791 43.0825C71.9223 43.473 72.0436 43.8859 72.3025 44.1837C72.4683 44.3744 72.7388 44.4561 72.9895 44.4245C73.2402 44.3928 73.4703 44.2582 73.6499 44.0804ZM36.7314 39.2237C36.7178 39.031 36.4602 38.9805 36.2671 38.9862C35.2535 39.016 34.2412 39.0919 33.2344 39.2137C33.069 39.2337 33.0557 39.5003 33.1884 39.601C33.3211 39.7017 33.506 39.683 33.6709 39.6595L36.7314 39.2237ZM33.491 40.5266C33.4997 40.4274 33.6244 40.3915 33.7234 40.3803L39.6938 39.7041C39.8018 39.6919 39.9168 39.6808 40.014 39.7295C40.1111 39.7781 40.1738 39.9111 40.1103 39.9993C40.0636 40.0644 39.9738 40.0776 39.8941 40.0853L33.7875 40.6779C33.6605 40.6902 33.4799 40.6537 33.491 40.5266ZM46.8757 41.5322C46.5417 41.6056 46.1989 41.4851 45.8785 41.3654C44.8427 40.9782 43.8109 40.5804 42.7833 40.172C42.3684 40.0071 41.9132 40.254 41.5402 40.4991C40.4605 41.2084 39.4209 41.9788 38.4282 42.8055C38.1732 43.0178 37.7808 42.8688 37.5237 42.6591C37.4693 42.6148 37.4158 42.5675 37.3621 42.52C37.1618 42.343 36.9589 42.1637 36.6998 42.1269C36.3016 42.0704 35.9512 42.3723 35.6627 42.6526L33.8017 44.4599C33.5514 44.703 33.288 45.0922 33.5107 45.3607C33.6577 45.5379 33.9275 45.5289 34.1562 45.5024C35.3501 45.364 36.5381 45.1699 37.7256 44.9759L37.7257 44.9759C39.6884 44.6553 41.6501 44.3349 43.6352 44.2662C44.0752 44.251 44.5154 44.2482 44.9556 44.2454C45.2313 44.2436 45.5069 44.2419 45.7825 44.2371C47.0255 44.2154 48.2675 44.1317 49.5022 43.9862C49.5619 43.9792 49.6299 43.9669 49.6609 43.9154C49.6843 43.8764 49.6784 43.8273 49.6718 43.7824L49.1488 40.2239C49.1222 40.0431 49.0758 39.8341 48.9106 39.756C48.7436 39.6771 48.547 39.7789 48.41 39.9026C48.1955 40.0963 48.0303 40.3536 47.8674 40.6073C47.6001 41.0236 47.3388 41.4305 46.8757 41.5322ZM38.3826 43.4794C39.4995 42.561 40.6642 41.7006 41.8703 40.9029C42.118 40.739 42.419 40.5713 42.6958 40.6789L45.6203 41.8153C46.1084 42.005 46.6423 42.1971 47.1434 42.0451C47.7259 41.8683 48.0741 41.2887 48.3674 40.7553C48.4245 40.6516 48.5905 40.6635 48.6726 40.7487C48.7548 40.834 48.7756 40.9594 48.7925 41.0766L49.0066 42.5606C49.0394 42.7884 49.0718 43.0249 49.0059 43.2455C48.9401 43.4661 48.7466 43.6665 48.5164 43.662C44.7518 43.5893 40.98 43.8998 37.2779 44.587C37.1633 44.6082 37.0486 44.6299 36.9338 44.6516L36.9338 44.6516C36.0494 44.8185 35.1618 44.9861 34.263 44.9891C34.697 44.3744 35.2469 43.8523 35.793 43.3346C36.0929 43.0503 36.4678 42.7437 36.8703 42.8367C37.0877 42.8869 37.2544 43.0431 37.4203 43.1985C37.4735 43.2484 37.5266 43.2981 37.5813 43.3442C37.8064 43.5343 38.155 43.6665 38.3826 43.4794ZM86.6792 53.8312C86.5794 53.8684 86.468 53.8429 86.3663 53.811C85.6779 53.5946 85.1188 53.1106 84.5694 52.6349L84.568 52.6337C84.494 52.5697 84.4203 52.5059 84.3464 52.4429C83.436 51.6663 82.448 50.9807 81.4019 50.3997C81.2954 50.3406 81.1838 50.2784 81.1186 50.1756C81.0534 50.0728 81.0554 49.9162 81.1559 49.8476C81.625 49.5273 81.9292 48.9777 81.9516 48.4101C81.9575 48.2589 82.1284 48.158 82.2793 48.1701C82.4302 48.1822 82.5617 48.2729 82.6852 48.3605L87.4653 51.7538C87.5584 51.8198 87.6585 51.8964 87.6814 52.0082C87.7 52.0995 87.6617 52.1918 87.6233 52.2766C87.4171 52.7315 87.18 53.1724 86.9142 53.5952C86.854 53.691 86.7852 53.7917 86.6792 53.8312ZM81.897 49.8058C81.8408 49.9049 81.7922 50.0483 81.8832 50.1168L85.7839 53.0538C85.9976 53.2147 86.3295 53.3654 86.4978 53.1576C86.6909 52.9189 86.8713 52.6699 87.0379 52.4119C87.0835 52.3414 87.13 52.2608 87.1136 52.1783C87.0986 52.1031 87.0353 52.0485 86.9758 52.0002C85.5442 50.8395 84.0285 49.7825 82.4444 48.8404L81.897 49.8058ZM79.9557 51.6019C80.0186 51.4939 80.0951 51.3756 80.2173 51.3491C80.3108 51.3288 80.406 51.3689 80.4921 51.4107C80.9618 51.6388 81.392 51.9479 81.7579 52.3204C81.846 52.41 81.8569 52.5542 81.8177 52.6736C81.7785 52.793 81.6977 52.8934 81.6185 52.991C81.4913 53.1477 81.3556 53.3108 81.1679 53.3852C80.9653 53.4655 80.7295 53.4268 80.5376 53.3235C80.3456 53.2201 80.1917 53.0585 80.0559 52.8879C79.8788 52.6655 79.7203 52.3987 79.7478 52.1157C79.7658 51.9303 79.8618 51.7628 79.9557 51.6019ZM80.7771 52.8472C81.0725 52.9621 81.2615 52.871 81.2692 52.6773C81.2741 52.5551 81.1675 52.4609 81.0705 52.3863L80.7771 52.1607C80.6801 52.0861 80.5732 52.0079 80.4509 52.0087C80.3285 52.0095 80.204 52.1357 80.2541 52.2473C80.2465 52.3012 80.4817 52.7324 80.7771 52.8472ZM79.6113 55.232C79.6833 55.2715 79.7597 55.3101 79.8418 55.3118C79.9239 55.3135 80.0129 55.267 80.0331 55.1874C80.0804 55.0005 80.2041 54.8456 80.3251 54.6939L80.3646 54.6443C80.4971 54.4766 80.625 54.2865 80.6286 54.0727C80.6321 53.8589 80.4551 53.631 80.2432 53.6602C80.0763 53.6832 79.9211 53.5738 79.7999 53.4568L79.7755 53.4329L79.7421 53.3998C79.6407 53.2986 79.5376 53.1958 79.4029 53.1519C79.2427 53.0997 79.0245 53.1827 79.0119 53.3507C78.9863 53.6891 78.7051 53.9438 78.4442 54.1608C78.3662 54.2258 78.4367 54.3504 78.5097 54.421C78.8385 54.7388 79.2101 55.0124 79.6113 55.232ZM79.6634 54.5873L79.1496 54.2398C79.0189 54.1514 79.0294 53.9349 79.1459 53.8286C79.2623 53.7222 79.4434 53.7141 79.5919 53.7673C79.7403 53.8205 79.8639 53.925 79.9838 54.0274C80.0632 54.0952 80.0742 54.2185 80.0378 54.3164C80.0015 54.4142 79.9276 54.4927 79.8555 54.5682C79.8308 54.594 79.8032 54.6214 79.7678 54.626C79.7301 54.6309 79.6948 54.6086 79.6634 54.5873ZM83.7364 54.6102L83.9876 54.0764C84.0645 53.913 84.139 53.7107 84.0352 53.5629C83.9991 53.5116 83.9459 53.4754 83.894 53.4404L82.98 52.8245C82.8814 52.758 82.7745 52.689 82.6557 52.6909C82.5149 52.6931 82.3969 52.7937 82.2968 52.8928C82.147 53.0413 82.007 53.1997 81.8779 53.3665C81.7796 53.4935 81.6989 53.7024 81.8332 53.7905L83.2318 54.7081C83.3421 54.7805 83.4822 54.8549 83.5982 54.7919C83.6662 54.7549 83.7034 54.6803 83.7364 54.6102ZM83.4265 54.2323C83.3678 54.2458 83.3065 54.2309 83.2488 54.2135C82.8957 54.1071 82.5725 53.9033 82.3242 53.6307C82.2416 53.5399 82.2883 53.3798 82.3932 53.3162C82.4982 53.2526 82.6345 53.2672 82.7476 53.3147C82.8207 53.3454 82.8875 53.3881 82.9544 53.4309C82.9911 53.4543 83.0278 53.4778 83.0656 53.4993C83.1062 53.5224 83.1485 53.5436 83.1909 53.5649C83.3111 53.6251 83.4314 53.6854 83.5134 53.7896C83.6242 53.9306 83.6013 54.1921 83.4265 54.2323ZM83.8987 54.8286C84.0599 54.7902 84.1091 54.6259 84.1603 54.4551C84.2026 54.3139 84.2463 54.1683 84.3555 54.0857C84.5435 53.9436 84.8099 54.0624 85.0124 54.1829L85.6567 54.5662C85.7594 54.6273 85.8645 54.6905 85.9381 54.7846C86.0118 54.8786 86.0479 55.0119 85.9964 55.1197C85.9621 55.1916 85.897 55.2393 85.8316 55.2874C85.7779 55.3268 85.7239 55.3664 85.6862 55.4199C85.6377 55.4885 85.6197 55.5745 85.6019 55.6595C85.5796 55.7662 85.5576 55.8712 85.4762 55.9383C85.3279 56.0605 85.1073 55.9626 84.9434 55.8624L84.0357 55.3077C83.9441 55.2517 83.8476 55.1903 83.8026 55.0929C83.7577 54.9955 83.7943 54.8534 83.8987 54.8286ZM85.0887 55.3793C85.2186 55.335 85.3231 55.2386 85.4234 55.1447C85.4961 55.0768 85.3988 54.9648 85.3121 54.916L84.756 54.6029C84.698 54.5702 84.6173 54.5404 84.5723 54.5895C84.4275 54.7476 84.4064 55.0055 84.5237 55.185C84.641 55.3644 84.8858 55.4486 85.0887 55.3793ZM78.7083 55.3599C78.5838 55.3248 78.4571 55.289 78.3553 55.2197C78.1975 55.112 77.9776 55.1381 77.8119 55.2333C77.6462 55.3285 77.5226 55.481 77.4031 55.6301C77.3367 55.7128 77.2685 55.7991 77.2432 55.9021C77.2178 56.0051 77.2481 56.1299 77.3407 56.1815L78.3105 56.722C78.3839 56.763 78.4659 56.8053 78.5479 56.7871C78.6297 56.769 78.6861 56.6964 78.7353 56.6286L78.9848 56.2853C79.1237 56.0942 79.2688 55.8507 79.1672 55.6373C79.0858 55.4664 78.8997 55.4139 78.7083 55.3599ZM78.4013 56.2492C78.3506 56.2626 78.2984 56.2382 78.2517 56.2144L77.591 55.8781C77.7181 55.6984 77.9597 55.6294 78.1787 55.6512C78.3978 55.6729 78.6011 55.7703 78.7993 55.8662L78.4956 56.1815C78.4684 56.2097 78.4392 56.2392 78.4013 56.2492ZM73.8245 42.8048C73.9268 42.9608 73.8947 43.1692 73.8269 43.3429C73.7374 43.5719 73.5863 43.7841 73.3728 43.9059C73.1592 44.0277 72.8788 44.0455 72.6708 43.9146C72.4627 43.7837 72.3582 43.4925 72.4697 43.2734C72.4955 43.2228 72.5307 43.1779 72.5658 43.133L72.5659 43.133C72.5995 43.09 72.6332 43.047 72.6587 42.999C72.6754 42.9673 72.6885 42.9338 72.7015 42.9003C72.7203 42.8519 72.7391 42.8037 72.7689 42.7615C72.8748 42.6115 73.0834 42.582 73.267 42.5846C73.4752 42.5876 73.7103 42.6306 73.8245 42.8048ZM73.3596 42.9039C73.0748 42.9003 72.8076 43.1392 72.7794 43.4227C72.7679 43.5385 72.817 43.6825 72.9324 43.6985C73.0188 43.7105 73.0946 43.6437 73.1527 43.5786C73.2755 43.4409 73.3811 43.2877 73.466 43.1239C73.4945 43.0689 73.5196 42.9983 73.4822 42.949C73.4549 42.9131 73.4048 42.9044 73.3596 42.9039ZM80.173 35.4741C80.151 35.2132 79.9765 34.9566 79.723 34.8913C79.401 34.8083 79.089 35.035 78.8334 35.2477C78.7577 35.3106 78.6788 35.3782 78.6468 35.4712C78.5924 35.6291 78.6902 35.7953 78.7865 35.9317C78.8967 36.0878 79.0145 36.2448 79.1754 36.348C79.3363 36.4511 79.5508 36.4912 79.7196 36.4015C79.8056 36.3558 79.8726 36.2812 79.9307 36.203C80.087 35.993 80.1949 35.7349 80.173 35.4741ZM79.4589 36.1428C79.3498 36.1591 79.2365 36.1151 79.1562 36.0394C79.0359 35.9261 78.9881 35.7439 79.0302 35.584C79.0744 35.4157 79.2158 35.2767 79.3848 35.2352C79.5538 35.1937 79.7434 35.2514 79.8607 35.38C79.8563 35.4151 79.8526 35.4504 79.8489 35.4857C79.8365 35.6057 79.824 35.7258 79.7825 35.8385C79.7287 35.9843 79.6126 36.1197 79.4589 36.1428ZM70.7917 76.8312C71.3854 74.7309 72.5063 72.8248 73.6156 70.9452C73.8031 70.6275 74.0355 70.2776 74.3995 70.2173C74.543 70.1936 74.6187 70.0376 74.6675 69.9007C75.2692 68.213 75.3272 66.3362 74.8309 64.6147C74.6892 64.1232 74.8636 63.6023 75.0362 63.1209L76.3723 59.3937C76.2333 59.1534 75.9706 59.0478 75.7044 58.9408C75.4817 58.8513 75.2566 58.7609 75.0996 58.5898C74.6561 58.1064 74.9907 57.3378 75.3381 56.7814L81.428 47.0285C81.6767 46.6302 82.2225 46.5054 82.6799 46.6115C83.1373 46.7176 83.528 47.0055 83.9042 47.2865L88.3457 50.6039C89.1403 51.1974 90.0175 51.9556 89.9717 52.9463C89.9464 53.4945 89.6327 53.9818 89.3292 54.4391L85.8092 59.7433C85.3541 60.4292 85.2989 61.263 85.2434 62.1007C85.2183 62.4795 85.1932 62.8591 85.131 63.2262C84.8274 65.0171 83.6348 66.5001 82.4921 67.9211L82.3557 68.0909C81.1731 69.5638 79.9899 71.2084 79.9234 73.0961C79.8442 75.346 78.7753 77.5434 77.0542 78.9947L78.5519 75.3613C78.9081 74.4972 79.2379 73.4222 78.6418 72.7024C78.3721 72.3766 77.9645 72.2044 77.5733 72.0438L75.2472 71.0895C75.0868 71.0237 74.9215 70.9568 74.7481 70.9558C74.2077 70.9525 73.8863 71.5385 73.6672 72.0325C72.9092 73.7414 71.9411 75.3569 70.7917 76.8312ZM78.4402 71.8968C78.839 72.0445 79.4006 72.1342 79.5895 71.7532C80.5043 69.9094 81.4441 68.03 82.9 66.5751C83.7392 65.7366 84.2537 64.6177 84.5447 63.4676C84.8358 62.3175 84.9182 61.1264 84.9994 59.9428C84.6461 60.0715 84.6154 60.5483 84.6169 60.9243C84.6202 61.7532 84.4753 62.5824 84.191 63.3611C84.1316 63.524 84.0517 63.7001 83.8924 63.7689C83.7331 63.8376 83.4985 63.6996 83.552 63.5345C83.9629 62.268 84.116 60.9184 83.9994 59.592C83.9632 59.1807 83.8866 58.7408 83.5942 58.4493C83.6259 59.0987 83.6576 59.7509 83.5918 60.3977C83.478 61.5168 83.0767 62.5837 82.679 63.6359C82.6274 63.7725 82.565 63.9214 82.4338 63.9856C82.3026 64.0498 82.099 63.9481 82.1333 63.8061L82.7289 61.3442C83.0563 59.9906 83.3783 58.5345 82.8714 57.2374C82.6161 57.2203 82.556 57.5853 82.5788 57.8402C82.7349 59.5858 82.2523 61.3185 81.7745 63.0047C81.7187 63.2016 81.5213 63.4478 81.3679 63.3123C81.3018 63.2539 81.2988 63.1533 81.3041 63.0653C81.3343 62.5694 81.4702 62.0893 81.606 61.6098L81.6062 61.609C81.6482 61.4604 81.6903 61.3119 81.7292 61.163C82.0882 59.7878 82.1798 58.3433 81.9973 56.9337C81.6827 57.3369 81.5492 57.8484 81.4233 58.3441L80.6758 61.2864C80.3379 62.6165 79.9061 64.0788 78.7344 64.7933C78.6411 64.8502 78.5328 64.9031 78.4265 64.8779C78.2943 64.8466 78.2194 64.71 78.1643 64.5859C77.4165 62.9015 77.3231 60.9364 77.9077 59.1887C77.9432 59.0826 77.8353 58.9718 77.7238 58.963C77.6123 58.9542 77.5079 59.015 77.4165 59.0795C76.4572 59.7564 76.0897 60.9827 75.7845 62.1164L75.3787 63.624C75.3195 63.8442 75.2599 64.0664 75.2475 64.2941C75.2287 64.6401 75.3191 64.9788 75.409 65.3156C75.4298 65.3936 75.4506 65.4716 75.47 65.5495C75.8603 67.1158 75.684 68.8169 74.9808 70.2698C74.8771 70.484 75.1508 70.6789 75.374 70.7615L78.4402 71.8968ZM79.9558 57.509C79.7958 57.3988 79.6244 57.273 79.575 57.0852C79.4991 56.7971 79.7734 56.5077 80.0688 56.469C80.3641 56.4302 80.653 56.5728 80.8978 56.7426C81.2426 56.9817 81.679 56.6171 81.9371 56.2863C81.5888 56.0779 81.2567 55.7546 81.2429 55.349C81.2292 54.9435 81.7223 54.5572 82.0504 54.7959C82.1778 54.8885 82.3318 54.9452 82.4842 55.0012C82.7124 55.0852 82.9368 55.1677 83.062 55.3676C83.2044 55.5949 83.1537 55.9023 83.0088 56.128C82.8639 56.3538 82.6408 56.5158 82.4229 56.6723C82.7356 56.7033 83.04 56.8148 83.2987 56.9931L83.5807 56.1715C83.6025 56.1077 83.6263 56.0411 83.6764 55.9961C83.773 55.9094 83.9235 55.9362 84.0472 55.9755C84.3719 56.0785 84.6903 56.2394 84.9045 56.5041C85.1188 56.7689 85.2081 57.1535 85.0584 57.4595C84.9087 57.7654 84.4861 57.9286 84.1997 57.7441C84.1403 57.7058 84.0807 57.6547 84.021 57.6036L84.0209 57.6035C83.8613 57.4668 83.7017 57.33 83.5477 57.4395C84.0181 57.8058 84.3412 58.3562 84.4319 58.9455C85.913 56.6895 87.3781 54.4231 88.8272 52.1465C88.9656 51.9292 89.0771 51.5866 88.8519 51.4617C87.8895 50.9278 87.0389 50.2128 86.1903 49.4995C85.1192 48.5991 84.0513 47.7014 82.766 47.1743C82.6844 47.1409 82.5952 47.1085 82.5099 47.131C82.4206 47.1545 82.3577 47.2323 82.3015 47.3056C79.9081 50.4295 77.76 53.7414 75.8836 57.2007C75.6219 57.6833 75.9722 58.2586 76.3074 58.6934C76.4748 58.9107 76.7981 59.1402 76.9807 58.9355C77.2109 58.6775 77.5883 58.5301 77.9143 58.6453C78.2402 58.7605 78.4431 59.1844 78.2658 59.4812C78.1376 59.6959 78.3886 59.9345 78.6079 60.0547C79.0461 60.2947 79.4956 60.5141 79.9544 60.7119C80.0182 60.7394 80.0924 60.7664 80.1545 60.7353C80.2136 60.7056 80.2376 60.6352 80.2561 60.5717L80.7643 58.8228C80.8479 58.5352 80.9039 58.162 80.6572 57.9921L79.9558 57.509ZM89.0481 52.6066C88.9806 52.5834 88.9189 52.6509 88.8793 52.7103L85.0736 58.407C84.9713 58.5602 84.8664 58.7196 84.8365 58.9015C84.8067 59.0833 84.8735 59.2948 85.039 59.3758C85.3131 59.5098 85.5998 59.2281 85.7757 58.9788L89.3116 53.9674C89.5742 53.5953 89.3519 53.0866 89.1273 52.6905C89.1078 52.6562 89.0853 52.6193 89.0481 52.6066ZM78.3333 60.2137C78.2663 60.1649 78.1661 60.194 78.11 60.255C78.0539 60.316 78.031 60.3996 78.0099 60.4797C77.9579 60.6769 77.9056 60.8762 77.8979 61.08C77.8901 61.2839 77.9272 61.4865 77.9641 61.6871L78.3285 63.6681C78.3438 63.7511 78.3617 63.8394 78.4206 63.8999C78.4795 63.9604 78.5942 63.9736 78.6419 63.9039C79.1813 63.115 79.7283 62.3107 80.0105 61.3977C80.0456 61.2841 80.0557 61.1246 79.9445 61.0827C79.3717 60.8672 78.8281 60.574 78.3333 60.2137ZM82.5417 55.326C82.3591 55.152 82.1176 55.0408 81.8667 55.0152C81.6379 54.9919 81.5059 55.3133 81.6103 55.5182C81.7148 55.7231 81.9455 55.8246 82.1589 55.9102C82.3096 55.9706 82.4924 56.0275 82.6238 55.9321C82.8126 55.795 82.7107 55.4869 82.5417 55.326ZM81.0394 57.6215C81.1139 57.5685 81.1236 57.4602 81.1027 57.3712C81.0241 57.0359 80.6565 56.8646 80.3264 56.7664C80.1987 56.7284 80.0399 56.7019 79.9498 56.8001C79.8747 56.8821 79.8907 57.018 79.9555 57.1084C80.0203 57.1988 80.1217 57.2545 80.2197 57.3072L80.7295 57.5819C80.8264 57.6341 80.9497 57.6853 81.0394 57.6215ZM83.9404 56.413C83.8325 56.5575 83.8435 56.7677 83.9336 56.924C84.0237 57.0803 84.1796 57.1888 84.3442 57.2627C84.4006 57.2881 84.4625 57.3104 84.5232 57.2983C84.5753 57.2879 84.62 57.2527 84.6519 57.2101C84.7697 57.0528 84.7125 56.8157 84.5775 56.6727C84.4426 56.5298 84.2506 56.4582 84.0658 56.3912C84.0339 56.3796 83.9967 56.3684 83.9677 56.3859C83.9566 56.3925 83.9482 56.4026 83.9404 56.413ZM32.8061 69.5151C32.8767 68.9934 32.9756 68.4193 33.3855 68.0889C33.7124 67.8254 34.1611 67.7834 34.5808 67.7753C35.9558 67.7489 37.3352 67.9722 38.6316 68.431C39.0417 68.5762 39.471 68.7674 39.6952 69.1402C39.938 69.5438 39.8788 70.0528 39.8117 70.519L38.7704 77.7526C39.4884 75.6578 40.0039 73.4935 40.3073 71.2999C40.4488 70.2765 40.4982 69.1022 39.7839 68.3558C38.669 67.1905 38.6994 65.5308 38.7303 63.8431C38.757 62.3866 38.7841 60.9093 38.0756 59.7113C37.8444 59.3204 38.3598 58.9168 38.7884 58.7667C40.6778 58.1052 42.6918 57.8017 44.6922 57.877C45.059 60.7741 45.1582 63.705 44.9882 66.6202C44.9501 67.2741 45.8773 67.4428 46.5283 67.3706L69.11 64.8666C69.2229 64.854 69.3452 64.8372 69.4253 64.7566C69.5188 64.6625 69.5234 64.5145 69.5221 64.3818C69.4688 59.091 69.3166 53.8011 69.0654 48.5159C69.0556 48.3096 69.0294 48.0728 68.8586 47.9567C68.7306 47.8696 68.5621 47.8811 68.408 47.8961L52.2901 49.4585C53.3489 44.4646 54.4138 39.3769 53.9308 34.2949C50.4074 36.6441 45.8608 36.6265 41.6333 36.3777C41.4576 36.3673 41.2815 36.3568 41.1051 36.3463C37.0368 36.1031 32.7942 35.8496 29.1368 37.6095C31.0518 42.687 32.9888 48.2293 31.3969 53.4172C31.2561 53.8762 31.0885 54.327 30.921 54.7777C30.6628 55.4725 30.4047 56.1668 30.2451 56.8896C29.982 58.0812 30.0216 59.4154 30.7268 60.4113C31.7479 61.8535 32.5594 63.4933 32.7445 65.2506C32.9202 66.9183 32.5277 68.5722 32.1357 70.2243C31.7261 71.9504 31.317 73.6745 31.5569 75.4101C31.5975 75.7037 31.6708 76.0195 31.9007 76.2067L32.8061 69.5151ZM34.4038 48.559C34.8308 48.5741 35.0006 49.1102 35.0552 49.534L35.4875 52.8899C34.6433 52.4522 33.4557 53.1951 33.48 54.1457C32.7686 52.7727 32.6605 51.1991 32.5536 49.6415C32.5303 49.3026 32.5071 48.9645 32.4777 48.6294C32.1636 45.0457 31.0836 41.5795 30.0102 38.146C29.8572 37.6564 30.5183 37.3389 31.0258 37.2645C34.3564 36.7762 37.7272 36.8436 41.0996 36.911C42.6283 36.9416 44.1572 36.9722 45.6829 36.951C48.3938 36.9134 51.2622 36.6569 53.4612 35.071C53.9554 38.3659 53.2837 41.6903 52.6204 44.9728C52.5306 45.4168 52.4411 45.86 52.3546 46.3024C51.6285 50.0145 51.1344 53.9714 52.5235 57.4896C52.582 57.6378 52.3824 57.7496 52.2264 57.7821C51.0839 58.0204 49.9026 58.0718 48.7438 57.9335C48.2467 57.8741 47.7548 57.7804 47.2628 57.6866C46.8923 57.6159 46.5218 57.5453 46.1489 57.4894C43.3419 57.0682 40.412 57.5053 37.8502 58.7276C37.7475 58.7766 37.6254 58.7537 37.5179 58.7164C36.9991 58.5368 36.629 58.0575 36.4443 57.5404C36.2596 57.0234 36.2332 56.4653 36.2085 55.9168L36.1052 53.6165C36.1015 53.5338 36.1232 53.4216 36.2059 53.419C40.6935 53.2788 45.176 52.9763 49.6418 52.5122C49.453 51.4556 49.4342 50.3687 49.5866 49.3063C49.6827 48.6355 49.0519 48.024 48.3803 47.9342C47.7087 47.8445 47.0445 48.1487 46.4869 48.5336C46.2782 48.6776 46.0779 48.834 45.8777 48.9903C45.5427 49.2518 45.2081 49.5131 44.8355 49.7156C44.5916 49.8481 44.2983 49.955 44.0422 49.848C43.7288 49.717 43.6237 49.3441 43.5299 49.0113C43.524 48.9903 43.5182 48.9696 43.5123 48.949C43.3901 48.5204 43.1883 48.0938 42.8333 47.8242C42.4783 47.5546 41.9427 47.4874 41.5923 47.763C41.2927 47.9986 41.198 48.4065 41.1478 48.7843C41.1433 48.8179 41.139 48.8517 41.1347 48.8856C41.0902 49.2329 41.0442 49.5919 40.8369 49.8705C40.6093 50.1762 40.1016 50.3072 39.8521 50.0192C39.3586 49.4496 38.4925 49.3301 37.7658 49.53C37.0392 49.7299 36.4173 50.1916 35.8144 50.6439C35.4507 50.0747 35.4206 49.3083 35.7386 48.7123L35.7439 48.7024C35.8037 48.5905 35.8724 48.462 35.8195 48.3481C35.7868 48.2775 35.7146 48.2342 35.6431 48.2035C35.2155 48.0202 34.6692 48.1769 34.4038 48.559ZM47.2532 58.1786C47.4923 58.2263 47.7862 58.3329 47.8009 58.5762C47.9419 60.897 49.7863 62.9825 52.0539 63.4962C54.3215 64.0099 56.8347 62.9712 58.1568 61.0587C59.479 59.1461 59.5826 56.4893 58.4984 54.4325C57.3357 52.2267 54.51 51.0553 52.1277 51.7914C52.0171 51.304 52.0296 50.7892 52.1635 50.3076C52.1884 50.2182 52.2209 50.1247 52.293 50.0664C52.3635 50.0093 52.4588 49.9964 52.5488 49.9855L59.2598 49.1772C59.8498 49.1062 60.4413 49.035 61.0356 49.0301C63.591 49.009 66.1445 48.7542 68.6537 48.2699C69.0436 53.5053 69.227 58.7561 69.2035 64.006C69.2024 64.255 69.1265 64.586 68.8776 64.5932C64.6541 64.7163 60.4637 65.2719 56.2718 65.8277C53.4554 66.2011 50.6383 66.5746 47.8098 66.8171C47.1794 66.8711 46.5447 66.9187 45.9148 66.8586C45.8006 66.8477 45.6718 66.8244 45.6098 66.728C45.5723 66.6698 45.5681 66.597 45.565 66.5279L45.1884 58.1308C45.1835 58.0223 45.1901 57.8915 45.2841 57.837C45.3463 57.8009 45.4243 57.8139 45.4949 57.828L47.2532 58.1786ZM35.698 56.2345C35.6313 56.6707 35.5562 57.1613 35.8419 57.4913C36.9077 58.7221 38.0148 60.0371 38.2981 61.6404C38.4304 62.389 38.3735 63.1595 38.3169 63.9269C38.2457 64.8936 38.1747 65.8553 38.4826 66.7621C38.4906 66.7857 38.4989 66.8094 38.5072 66.8332C38.5638 66.9948 38.6214 67.1596 38.6031 67.3284C38.5821 67.522 38.414 67.7168 38.2221 67.6837L35.9941 67.2994C35.2563 67.1722 34.4768 67.0484 33.776 67.3117C33.6405 67.3627 33.4845 67.2733 33.4119 67.1481C33.3393 67.0229 33.3297 66.8721 33.3234 66.7275C33.3158 66.5529 33.3101 66.3771 33.3044 66.2007C33.2684 65.0916 33.2318 63.9617 32.7184 62.9899L31.0804 59.8892C30.8386 59.4315 30.5911 58.9533 30.5745 58.4359C30.5633 58.0904 30.6566 57.751 30.7491 57.4179L31.5662 54.4745C31.7382 53.8548 31.9202 53.2154 32.3276 52.7178C33.3174 54.3969 33.4151 56.5692 32.58 58.3304C32.5027 58.4934 32.7387 58.6611 32.9069 58.5962C33.0752 58.5312 33.1606 58.3469 33.2199 58.1767C33.4574 57.4946 33.5407 56.7756 33.6241 56.0555C33.6916 55.4729 33.7592 54.8896 33.9086 54.3247C34.0001 53.9786 34.1321 53.6253 34.3994 53.3871C34.6666 53.1489 35.1025 53.0674 35.3825 53.2904C35.5968 53.461 35.6665 53.7527 35.7072 54.0236C35.8148 54.7383 35.8143 55.4692 35.7058 56.1838C35.7032 56.2007 35.7006 56.2176 35.698 56.2345ZM39.5423 50.4236C39.8707 50.6749 40.1923 50.9211 40.5864 50.8755C41.0872 50.8176 41.3993 50.302 41.5448 49.8192C41.5766 49.7136 41.6049 49.6054 41.6333 49.4971C41.7346 49.1103 41.8368 48.7205 42.1021 48.4295C42.1793 48.3449 42.2903 48.2662 42.3999 48.2993C42.4886 48.3262 42.5403 48.4161 42.5815 48.4991C42.6399 48.6168 42.6952 48.7365 42.7505 48.8562C42.9063 49.1938 43.0623 49.5316 43.2887 49.825C43.5953 50.2224 44.0724 50.535 44.5713 50.4803C45.0175 50.4314 45.3661 50.1154 45.7059 49.8075C45.7756 49.7444 45.8448 49.6816 45.9145 49.6215C46.7329 48.9157 47.7988 48.5028 48.8791 48.4731C48.7334 48.8372 48.8305 49.2344 48.9259 49.6242C48.9488 49.7181 48.9717 49.8115 48.991 49.9039C49.1435 50.633 49.0664 51.4083 48.7733 52.0931L41.5581 52.6486C39.8737 52.7783 38.1851 52.908 36.4968 52.8486C36.3901 52.8449 36.2808 52.8398 36.1827 52.7978C35.9974 52.7185 35.8873 52.5207 35.8474 52.3232C35.758 51.8801 35.9622 51.4188 36.2716 51.0893C36.5809 50.7598 36.9849 50.5379 37.3817 50.3215C37.7947 50.0964 38.2531 49.8637 38.7135 49.9598C39.0199 50.0238 39.2832 50.2253 39.5423 50.4236ZM53.2051 60.9339C52.1121 60.9114 51.165 60.0196 50.8405 58.9756C50.7742 58.7624 50.912 58.5286 51.1021 58.4115C51.2922 58.2945 51.5222 58.2668 51.744 58.2419L53.3456 58.062C52.8585 57.1153 52.5116 56.0967 52.3197 55.0495C52.3023 54.9545 52.2864 54.8547 52.3164 54.7629C52.3691 54.6018 52.5428 54.517 52.7035 54.4629C54.0048 54.0256 55.5672 54.5565 56.3324 55.6963C57.0976 56.836 56.9973 58.4834 56.0992 59.5217C55.7104 59.9712 55.2009 60.3029 54.6641 60.5582C54.2065 60.7759 53.7118 60.9443 53.2051 60.9339ZM58.3921 55.307C58.5866 55.9493 58.6427 56.6248 58.6695 57.2954C58.2327 57.2292 57.7916 57.1917 57.35 57.1831C57.2636 56.0553 56.513 55.0363 55.5261 54.4835C54.5393 53.9307 53.3481 53.8113 52.233 54.0005C52.2235 53.8415 52.1945 53.6757 52.1656 53.5098C52.0891 53.072 52.0126 52.6342 52.2956 52.3235C52.4666 52.1358 52.7271 52.0607 52.9767 52.0142C54.1136 51.8024 55.3259 52.0243 56.314 52.6252C57.3021 53.226 58.057 54.2002 58.3921 55.307ZM50.3755 58.8618C50.3736 58.8826 50.3719 58.9031 50.3709 58.9226C50.3636 59.0785 50.4362 59.2214 50.5081 59.3629C50.5274 59.4009 50.5466 59.4387 50.5642 59.4766C50.6475 59.6561 50.6879 59.8925 50.5486 60.0331C50.2117 60.3732 49.9139 60.752 49.6631 61.1598C49.6011 61.2607 49.4485 61.2689 49.3465 61.2088C49.2445 61.1487 49.1812 61.0414 49.1223 60.9387C48.7495 60.2887 48.3674 59.6088 48.3209 58.861C48.3151 58.768 48.3253 58.6554 48.4078 58.6121C48.4441 58.593 48.487 58.5924 48.5281 58.5923L50.1953 58.5872C50.2352 58.5871 50.2771 58.5875 50.3117 58.6072C50.3935 58.6537 50.3842 58.7616 50.3755 58.8618Z" fill="#00160A"/>
</svg>
