<svg width="100" height="100" viewBox="0 0 100 100" fill="none" xmlns="http://www.w3.org/2000/svg">
<rect width="100" height="100" fill="white"/>
<path d="M85.1317 71.7733C84.5761 82.6085 75.8946 92.4274 65.2527 94.5394C54.6108 96.6514 42.964 91.0338 37.7786 81.5037C37.2063 80.452 36.6967 79.349 36.1872 78.246C34.8717 75.3986 33.5567 72.5521 31.1654 70.5934C28.4351 68.3571 24.9236 67.7589 21.3768 67.1548C19.1245 66.7712 16.858 66.3851 14.7682 65.5756C9.73029 63.6241 5.81864 59.001 4.72822 53.7096C2.96119 45.1347 8.5583 36.3801 16.0222 31.8041C23.4862 27.2281 32.4551 25.9537 41.1549 24.9716C44.4829 24.596 47.1862 22.0881 49.117 19.3515C49.8644 18.2921 50.5369 17.1789 51.2089 16.0665C52.2728 14.3055 53.3354 12.5465 54.6922 11.0063C60.4373 4.48461 71.1358 3.3841 78.4534 8.07359C85.7711 12.7631 89.2736 22.406 87.3276 30.8767C86.9925 32.3357 86.5167 33.7563 86.0409 35.177L86.0408 35.1772C85.5854 36.5371 85.1299 37.8972 84.7977 39.2911C84.0876 42.2704 83.9521 45.3536 83.8712 48.4153C83.7748 52.0658 83.7521 55.7258 84.094 59.3615C84.2129 60.6262 84.3759 61.8894 84.5389 63.1523C84.9093 66.022 85.2795 68.8904 85.1317 71.7733Z" fill="#F7B6B6"/>
<path d="M41.1428 22.3837C45.1219 20.4042 48.2888 16.9664 50.2832 12.9947C50.5447 12.474 50.7925 11.9207 50.7833 11.338C50.7741 10.7554 50.4351 10.1382 49.8715 9.99027C49.0638 9.77821 48.3692 10.5526 47.8655 11.2187C44.4054 15.7944 39.3693 19.3865 33.6865 20.1699C31.5039 20.4707 29.2879 20.3577 27.0876 20.2441L23.6508 20.0667C20.8828 19.9238 18.0763 19.7837 15.3668 20.3678C12.6574 20.9519 10.0099 22.3567 8.52172 24.695C8.04805 25.4393 7.69325 26.3165 7.82431 27.1889C7.95862 28.083 8.59413 28.8418 9.35965 29.3228C10.1252 29.8038 11.0145 30.0444 11.8959 30.2458C12.5412 30.3932 13.2003 30.5238 13.8606 30.4773C14.9402 30.4013 15.9198 29.8645 16.873 29.3421C16.9365 29.3074 16.9999 29.2726 17.0632 29.2381C18.7292 28.3292 20.4555 27.522 22.256 26.9223C24.8817 26.0477 27.6426 25.6197 30.3967 25.1928C34.1069 24.6176 37.8047 24.0444 41.1428 22.3837Z" fill="#F7B6B6"/>
<path d="M20.4503 75.1193L20.4526 75.1194C20.6148 75.1259 20.7769 75.1324 20.9386 75.1408C23.4954 75.2738 26.0257 75.9006 28.349 76.9767C29.2348 77.3869 30.132 77.9004 30.6295 78.7403C31.245 79.7796 31.984 80.7457 32.8258 81.6119C33.1524 81.9479 33.5061 82.2766 33.9421 82.4482C34.3781 82.6199 34.9165 82.6042 35.2703 82.2969C35.7001 81.9235 35.7279 81.2607 35.5955 80.707C35.3784 79.7998 34.8371 79.0091 34.3014 78.2453C32.5434 75.7392 30.6925 73.2334 28.246 71.3933C25.7995 69.5531 22.6422 68.4389 19.6476 69.0745C18.6136 69.294 17.5888 69.7414 16.9033 70.546C16.2178 71.3505 15.9469 72.5614 16.4406 73.496C16.8323 74.2375 17.6263 74.6938 18.4393 74.8993C19.0945 75.065 19.7731 75.0922 20.4502 75.1193H20.4503Z" fill="#F7B6B6"/>
<path d="M89.6114 37.4248C88.9279 37.167 88.1538 37.4783 87.5752 37.9243C86.4326 38.8052 85.7566 40.1832 85.449 41.5928C85.1414 43.0024 85.1662 44.4606 85.1925 45.9032L85.4185 58.298C85.435 59.2035 85.4752 60.1795 86.0321 60.8937C86.2063 61.1172 86.4449 61.3134 86.7268 61.3422C87.0686 61.3771 87.3847 61.1613 87.6315 60.9223C88.9811 59.6156 89.1583 57.5572 89.3199 55.681L89.3258 55.6129C89.5631 52.8588 89.9742 50.1198 90.5556 47.4174C90.7191 46.6574 90.8988 45.8926 91.2408 45.1945C92.3131 43.0061 92.0567 40.2282 90.6019 38.2731C90.3387 37.9194 90.0239 37.5803 89.6114 37.4248Z" fill="#F7B6B6"/>
<path d="M65.1275 54.2021C65.8487 54.4007 66.4948 55.0013 66.5656 55.7461C66.7024 55.4498 67.0028 55.2357 67.3275 55.2032L66.8562 55.7041L67.4526 55.716L66.6319 56.1743C67.1407 57.1152 67.0583 58.2758 66.7322 59.2945C66.5326 59.9181 66.2439 60.5427 66.3002 61.195C66.3555 61.8366 66.9253 62.492 67.548 62.3607L67.5792 62.3535C68.3277 62.1643 69.1474 62.2738 69.8201 62.6528C70.7865 63.1972 71.3728 64.2083 72.037 65.0967C72.6234 65.881 73.3174 66.6103 74.1848 67.0646C75.0523 67.5189 76.116 67.6689 77.0197 67.2917C77.4681 67.1045 77.8695 66.7947 78.3453 66.6961C78.821 66.5975 79.3085 66.862 79.4833 67.3129C79.5606 67.5124 79.3944 68.2514 78.971 69.1145C79.0398 69.0948 79.1119 69.082 79.1873 69.0771C81.4129 68.9327 83.659 68.4488 85.5743 67.3061C86.1831 66.9429 86.7518 66.5173 87.3164 66.0882L87.6454 65.8374L87.8446 65.6841C89.0836 64.7243 90.3066 63.6544 90.816 62.1945L90.8426 62.116L90.8991 61.9435C91.0081 61.6169 91.1462 61.2792 91.4616 61.1777C91.898 61.0374 92.2954 61.4598 92.5606 61.8337L94.4723 64.5287C94.5214 64.598 94.5716 64.6696 94.5903 64.7524C94.6732 65.1186 94.1265 65.3036 93.7743 65.1736C93.1336 64.9371 92.6195 64.2325 91.9474 64.3534C91.4749 64.4384 91.1927 64.8959 90.9592 65.3267L90.9001 65.4367C89.4856 68.0852 87.1051 70.204 84.3105 71.3022C83.5902 71.5852 82.8459 71.8021 82.1028 72.0185L80.6014 72.4559L80.866 72.503C83.106 72.8958 85.4959 73.1356 87.5302 72.1429C88.8845 71.482 89.9279 70.3443 90.9122 69.1944L91.2693 68.7747L91.4166 68.5994C92.0206 67.8748 92.5946 67.099 92.7709 66.1807C92.8386 65.828 93.2837 65.6598 93.6299 65.7553C93.9761 65.8509 94.2396 66.1247 94.4848 66.3871L96.3431 68.3762C96.4895 68.5329 96.6436 68.7058 96.6651 68.9192C96.6865 69.1325 96.4952 69.374 96.2893 69.3142L94.2741 68.7289C94.0851 68.674 93.8758 68.6204 93.6978 68.7045C93.5615 68.7689 93.4734 68.9011 93.3954 69.0315L91.229 72.69C90.6189 73.7202 89.4883 74.3175 88.3775 74.7642C85.7136 75.8355 82.823 76.3388 79.9538 76.231C79.6422 76.2192 79.3302 76.2004 79.0222 76.1518C77.8648 75.9694 76.8195 75.381 75.8074 74.7857C75.9849 75.4347 75.8268 75.9821 74.7728 76.0237C73.8393 76.0606 71.5527 72.2168 70.8415 72.0174C66.96 70.9291 66.3227 68.7805 65.0757 67.3129C65.0757 67.3129 62.5557 67.6386 60.892 67.2917C56.992 66.4786 54.371 63.9774 53.4262 63.8182C52.4813 63.659 51.8582 64.2645 51.5664 63.8972L51.5664 63.631C51.6116 63.5579 52.0631 63.136 53.3511 63.41C55.1498 63.7927 58.025 65.2372 60.2208 65.507C62.5257 65.7903 64.4783 65.4154 64.4676 65.3525C64.4456 65.2241 65.025 64.6787 64.5621 64.4033C64.0992 64.1279 57.3788 61.4307 55.9181 59.1829L55.9006 59.1549C55.6495 58.738 55.4587 57.7021 55.964 58.1763L56.1055 57.9254C56.6497 58.4386 58.4362 59.6115 60.2921 60.7679C62.2542 61.9904 65.0251 62.7734 65.0757 62.7391C66.205 61.9753 65.2035 61.4224 65.0165 61.2601C64.5791 60.8801 63.9982 60.6729 63.6213 60.2329C62.7171 59.1772 63.3629 57.289 62.3293 56.3596C62.1729 56.219 61.9833 56.1083 61.87 55.9311C61.6758 55.6276 61.7713 55.2051 62.0064 54.932C62.2415 54.659 62.5854 54.5065 62.9256 54.3877C63.6319 54.1411 64.4063 54.0034 65.1275 54.2021Z" fill="white"/>
<ellipse cx="65.7333" cy="59.6" rx="0.266651" ry="0.266653" fill="#FFB61D"/>
<ellipse cx="64.1076" cy="59.6" rx="0.197771" ry="0.266653" fill="#FFB61D"/>
<path d="M54.4438 60.8923C51.9645 60.2512 49.3587 60.1032 46.8228 60.4596C47.0146 59.5118 47.2548 58.5738 47.5421 57.6505C46.717 57.9168 45.7428 57.1606 45.7962 56.2952C45.8495 55.4298 46.9092 54.799 47.6954 55.1646C47.9654 54.5414 47.9826 53.8129 47.7421 53.1777C47.6267 52.873 48.0866 52.6972 48.4124 52.6972L50.2127 52.6968C50.4643 52.6967 50.8152 52.5798 50.7527 52.3361C50.6044 51.758 51.0019 51.0976 51.5821 50.9579C52.1517 50.8208 52.793 51.2109 52.9401 51.7761L52.9478 51.8077C53.0844 52.4147 53.8535 52.6075 54.4756 52.5955L54.7853 52.5881C55.3234 52.5768 55.8842 52.5943 56.2444 52.9707C56.6751 53.4209 56.5789 54.1378 56.4369 54.7489L56.4274 54.7895C56.2262 55.6378 56.0117 56.4829 55.784 57.3245C56.2262 60.8835 55.1311 61.07 54.4438 60.8923Z" fill="white"/>
<path d="M33.7649 57.9208C33.502 56.2102 33.5024 54.4594 33.7659 52.7489L33.7793 52.6662C33.8447 52.278 33.9595 51.8682 34.2838 51.6543C34.5267 51.4942 34.8334 51.4822 35.1258 51.4821L37.3652 51.4883C37.4671 51.4886 37.5788 51.4924 37.6554 51.5596C37.7321 51.6268 37.73 51.7811 37.6318 51.8083C37.3972 51.8733 37.2624 52.1438 37.2909 52.3855C37.3193 52.6272 37.4765 52.8365 37.6611 52.9952C38.1013 53.3735 38.7854 53.508 39.2727 53.1925C39.7599 52.877 39.8745 52.0643 39.4128 51.7125C40.4588 51.6912 41.5053 51.6945 42.5512 51.7223L42.9433 51.7339C43.0701 51.738 43.2102 51.7481 43.2988 51.8389C43.3653 51.9071 43.3872 52.0061 43.4022 52.1002C43.518 52.8242 43.3913 53.5849 43.0472 54.2323C42.9924 54.3355 42.8654 54.4491 42.779 54.3706C42.4115 54.037 41.7934 54.0824 41.4174 54.4064C41.0414 54.7303 40.8961 55.2684 40.9625 55.7602C41.0265 56.2336 41.3715 56.7392 41.8486 56.7154C42.2244 56.6966 42.6422 56.3679 42.9262 56.6148L42.4478 58.7522C42.3628 59.1319 42.2103 59.5824 41.8298 59.6637C39.6332 60.1336 37.3301 60.0981 35.149 59.5607L35.0432 59.5339C34.7786 59.4647 34.5149 59.375 34.3084 59.1982C33.9489 58.8906 33.8367 58.3884 33.7649 57.9208Z" fill="white"/>
<path d="M50.9979 41.1477L56.306 41.2544L56.3927 41.2565C56.5521 41.2615 56.7127 41.2755 56.8563 41.3425C57.1808 41.4939 57.3295 41.8672 57.4282 42.2114C57.9549 44.0488 57.8898 46.0509 57.2451 47.8502L57.218 47.9239C57.134 48.1453 57.0243 48.366 56.8261 48.4906C56.663 48.5931 56.4642 48.6145 56.2707 48.6249L56.2294 48.6269C55.44 48.6644 54.648 48.6442 53.8616 48.5666C54.2712 48.3145 54.3746 47.7007 54.1145 47.2961C53.8545 46.8916 53.305 46.7226 52.8424 46.854C52.5604 46.9341 52.2978 47.1268 52.1957 47.4016C52.0937 47.6765 52.1923 48.0294 52.453 48.1636C52.6332 48.2564 52.6021 48.5487 52.4443 48.6759C52.2865 48.8032 52.0672 48.8122 51.8644 48.8155L49.2013 48.8587C49.0011 48.862 48.7906 48.8628 48.6149 48.7669C48.3656 48.6309 48.251 48.338 48.1808 48.0629C48.0114 47.3992 47.9885 46.6985 48.1142 46.0251C48.2656 46.5569 48.921 46.8798 49.4349 46.6759C49.9489 46.472 50.2046 45.7876 49.9502 45.2966C49.6958 44.8057 48.9892 44.6199 48.5262 44.9222L48.507 44.7506C48.4405 44.1492 48.3889 43.5399 48.5044 42.9476C48.6309 42.2988 48.9918 41.6616 49.5834 41.3668C50.0148 41.1518 50.5131 41.1399 50.9979 41.1477Z" fill="white"/>
<path d="M34.8989 47.1186C34.1514 47.1216 33.4038 47.0908 32.6591 47.0266L32.5867 47.0199C32.3201 46.9933 32.0404 46.9399 31.8657 46.7416C31.6298 46.4739 31.6874 46.0703 31.7582 45.7172L31.7654 45.6821C32.0819 44.1328 32.2062 42.5443 32.1348 40.9646L32.1215 40.6923C32.1017 40.2026 32.1329 39.6472 32.5398 39.3953C32.6636 39.3187 32.8072 39.2831 32.9505 39.2542L32.9982 39.2448C35.603 38.7374 38.3153 38.7888 40.899 39.3946C41.2392 39.4744 41.3339 39.9353 41.221 40.266C41.1082 40.5967 40.866 40.8747 40.7753 41.2122C40.6847 41.5497 40.8508 42.0065 41.2001 42.0175C41.9269 42.0402 42.5431 42.7787 42.4454 43.4994C42.3477 44.22 41.5688 44.7666 40.8557 44.6235C40.6884 44.5899 40.6292 44.8372 40.6476 45.0069L40.8511 46.8881C40.8843 47.1952 40.4485 47.2922 40.1406 47.2682L38.3442 47.1284C38.062 47.1064 37.6835 47.1551 37.64 47.4348C37.5317 48.1313 36.8176 48.6751 36.1175 48.5943C35.4173 48.5136 34.8457 47.8214 34.8989 47.1186Z" fill="white"/>
<path fill-rule="evenodd" clip-rule="evenodd" d="M30.0635 58.6963C30.2628 58.7448 30.5481 58.8309 30.5323 59.0193C30.2133 62.8181 28.8402 62.1191 27.6159 63.2083C27.2924 63.4961 27.099 64.1768 26.96 64.1925C27.4753 64.4304 28.2231 65.3851 29.51 65.4288C33.0956 65.5504 34.4007 62.934 34.4007 62.934C34.4851 62.0951 34.0596 60.5843 34.5907 61.0073C34.9572 61.2993 34.8848 59.8767 35.3855 60.0183C35.536 60.0609 35.2732 61.0068 35.3855 61.0634C35.4476 61.0947 35.5394 60.8367 35.6996 60.6316C35.8332 60.4606 36.0392 60.3338 36.0818 60.3712C36.1107 60.3966 36.083 60.6411 35.9627 60.8479C35.7937 61.1387 35.5111 61.4185 35.5506 61.4651C35.5941 61.5165 36.3395 60.8228 36.3849 60.8834C36.6865 61.2858 34.7763 65.9163 31.5529 66.7905L31.2976 66.8591C29.4186 67.3583 28.6295 67.4264 26.8885 66.7905C26.0631 66.489 25.5497 69.3052 25.0908 70.2425C24.8011 70.8343 23.3939 72.2849 22.7513 71.8462C21.9035 71.2675 21.2122 70.1903 20.4907 69.6454L20.4444 69.6113C19.9527 69.2588 18.8406 68.7238 17.1081 68.0064L17.1862 67.9703C17.5477 67.8061 18.4787 67.4043 19.1936 66.7905C20.2093 65.9184 20.7595 64.0451 21.4676 63.0349C22.1667 62.0374 23.1049 62.1843 22.5387 62.0078C22.5387 62.0078 21.1039 61.2477 20.4444 61.1781C18.2416 60.9456 15.3701 61.9867 14.4514 62.6575C13.191 63.578 14.4433 64.9327 12.7017 64.2687C12.1213 64.0474 13.677 61.1807 15.823 60.0183C18.8058 58.4027 21.6262 57.9583 24.4539 60.5302C25.6047 61.5769 25.7186 62.5086 26.0272 63.219L25.9641 63.0449C29.3753 62.82 24.2642 59.4049 28.5312 58.5502C28.9793 58.4604 29.4496 58.5539 29.8988 58.6577L30.0635 58.6963Z" fill="white"/>
<ellipse cx="27.8666" cy="61.0667" rx="0.266667" ry="0.266668" fill="#FFB61D"/>
<ellipse cx="29.3333" cy="61.6" rx="0.266666" ry="0.266665" fill="#FFB61D"/>
<path fill-rule="evenodd" clip-rule="evenodd" d="M13.8525 71.4084C16.743 73.4099 13.0447 70.6453 16.2029 73.9398C16.8407 74.6052 20.0697 70.8054 20.4029 73.0573C20.5244 73.8787 20.2594 74.7337 20.4209 75.5482C20.5717 76.3081 23.8771 75.8519 24.1324 75.5195C25.0579 74.3146 22.1776 71.2194 21.5736 70.7246C18.2034 67.9638 17.0912 68.1553 13.9421 71.0118L13.8525 71.4084Z" fill="white"/>
<path fill-rule="evenodd" clip-rule="evenodd" d="M89.045 21.3806C89.6119 21.4484 90.1391 21.5114 90.1391 20.8506C90.1391 20.6934 88.231 19.3123 87.6656 19.8442C86.9386 20.5281 86.3611 21.3124 85.8018 22.0721C84.6277 23.667 83.5334 25.1533 81.3022 25.3748L81.2752 25.3777C80.4104 25.4822 82.0217 26.2498 83.8313 25.3748C85.0755 24.7731 86.7309 22.8697 87.5171 21.9656C87.7229 21.729 87.8691 21.5609 87.9329 21.5024L87.9493 21.4883C88.2173 21.2817 88.6412 21.3323 89.045 21.3806ZM91.7366 23.169L93.6245 24.6675C93.9923 24.9595 93.5616 25.5886 93.093 25.6187C92.8211 25.6362 92.5604 25.5526 92.2983 25.4685C92.1086 25.4076 91.9183 25.3465 91.7225 25.3234C90.6138 25.1923 89.7686 26.2365 89.0808 27.1159C88.4523 27.9195 87.7642 28.6765 87.0238 29.3784L86.9237 29.4725L86.8193 29.5685C86.2238 30.1099 85.5559 30.6004 84.7702 30.7417C83.6134 30.9497 82.4643 30.3574 81.5194 29.6584C81.2888 29.4878 81.0624 29.3088 80.8358 29.1297C80.134 28.5751 79.431 28.0196 78.5989 27.7082C77.8776 28.1018 77.2027 28.5773 76.5863 29.1198L76.6138 29.0982C77.6486 30.1354 78.3722 31.4792 78.6685 32.9141L78.4706 32.8793L78.3399 32.857C77.1171 32.652 75.8075 32.5307 74.7742 33.185C74.41 33.4156 74.0852 33.7377 73.764 34.0561L73.764 34.0561C73.5404 34.2778 73.3186 34.4977 73.0865 34.6838C73.1455 34.7188 73.2058 34.7552 73.2675 34.793C74.411 35.2608 75.6231 35.5603 76.8528 35.6792C77.0408 35.6973 77.2308 35.7117 77.4213 35.7262C78.3034 35.7932 79.1967 35.861 79.9506 36.3039L80.215 36.4619C80.6392 36.7131 81.1115 36.9521 81.467 36.6613C81.5692 36.5777 81.6361 36.463 81.7032 36.3479L81.7033 36.3478L81.7033 36.3478L81.7033 36.3478L81.7033 36.3478L81.7033 36.3478C81.7442 36.2777 81.7851 36.2075 81.8342 36.1439C81.9641 35.9757 82.2218 35.8574 82.3832 35.9955L82.4487 36.5093C82.4962 36.1788 82.8152 35.9101 83.1489 35.9194C83.4827 35.9286 83.7862 36.2146 83.8153 36.5473C83.8681 37.1511 83.1835 37.5125 82.6024 37.7048L79.5906 38.6754C78.5144 39.0222 77.3214 38.8425 76.2839 38.393C75.318 37.9744 74.4658 37.3374 73.6515 36.6678L73.4711 36.5186C72.8561 36.0068 72.0248 35.4509 71.327 35.8423C72.5394 35.916 73.4237 36.9608 74.1468 37.949L74.2163 38.0444C74.3333 38.2058 74.4539 38.3756 74.4828 38.5729C74.5637 39.1251 73.9365 39.4916 73.4067 39.6672C73.8531 39.9063 73.6319 40.6007 73.286 40.9706C72.7827 41.5087 72.1236 41.8959 71.4127 42.0878L71.3477 42.3123C71.3436 42.3274 71.3417 42.3354 71.3422 42.3356C71.6775 42.3123 71.8843 42.7628 71.7477 43.0699C71.611 43.377 71.2738 43.5405 70.9504 43.632C69.8845 43.9334 68.6807 43.6956 67.8094 43.0117L67.64 43.1C66.9039 43.4809 66.1424 43.8352 65.3243 43.9553C64.4433 44.0847 63.4733 43.9031 62.8364 43.2807L62.8784 43.3724C62.9684 43.5721 63.0494 43.7789 63.0522 43.9965C63.0556 44.2476 62.9257 44.5188 62.6878 44.5994C62.2952 44.7323 61.9523 44.3128 61.7485 43.9518C61.6369 44.2297 61.752 44.5424 61.8639 44.8465C61.9916 45.1933 62.1151 45.5289 61.8932 45.7886C61.6621 46.0591 61.2237 45.9898 60.9057 45.8303C59.7145 45.2328 59.1548 43.7288 59.4129 42.4213C59.6709 41.1138 60.6111 40.0188 61.7306 39.2958C60.9705 38.7387 60.4145 37.9092 60.188 36.9945C60.2483 37.0723 60.5178 36.8219 60.9006 36.4661C61.6008 35.8152 62.6803 34.8119 63.5524 34.8213C63.7195 34.8231 63.9893 34.9524 64.2536 35.079L64.2536 35.079L64.2536 35.079C64.4449 35.1707 64.6334 35.261 64.7779 35.3005C64.7899 35.2851 64.8044 35.2711 64.8212 35.2589L64.6562 35.1403C64.3241 34.9046 63.9776 34.6828 63.5845 34.5851C63.126 34.4711 62.5831 34.5649 62.2909 34.9362C61.5766 35.8443 60.6715 36.6017 59.6517 37.1447L60.2562 38.2608C60.0064 38.3801 59.6951 38.3583 59.4632 38.2077L59.4347 38.1883L59.4526 38.2106C59.8008 38.6648 59.4948 39.4566 58.9249 39.5464C58.3464 39.7891 57.763 39.0642 57.82 38.4394C57.86 38.0016 58.0768 37.6136 58.2941 37.2249C58.3869 37.059 58.4797 36.8929 58.5589 36.7228C58.8263 36.1481 58.9439 35.5097 59.0608 34.8754C59.2209 34.0059 59.3797 33.1441 59.921 32.4645C60.3001 31.9885 60.8311 31.6576 61.3757 31.3861C63.537 30.3089 66.0948 30.0513 68.4276 30.6759C68.8249 29.2524 69.6126 27.9399 70.6819 26.9197L70.7456 26.8599C71.1547 26.483 71.6635 26.1463 72.2062 26.2081L72.2491 26.2138C72.7878 26.296 73.2562 25.8802 73.6478 25.4954L73.7685 25.3769L73.8631 25.2858C74.6403 24.5435 75.5424 23.8585 76.6041 23.7846C77.5487 23.7189 78.4528 24.1526 79.2681 24.634C80.1904 25.1788 81.0678 25.7997 81.8884 26.4883L82.0326 26.6105L82.1487 26.7101C82.9225 27.3748 83.7692 28.1021 84.7766 28.0418C85.8093 27.9801 86.5637 27.1228 87.259 26.3328L87.2594 26.3323L87.2604 26.3312C87.3161 26.2678 87.3715 26.2049 87.4266 26.1428C88.2842 25.1774 89.2608 24.3275 90.2492 23.495L90.6732 23.139C90.8015 23.0315 90.9395 22.9195 91.1056 22.8979C91.3392 22.8676 91.5521 23.0225 91.7366 23.169ZM73.0707 39.5331C72.8609 39.4913 72.5745 39.5096 72.2116 39.5879C72.4506 39.5888 72.6517 39.5845 72.815 39.5751C72.8941 39.5653 72.9728 39.553 73.0501 39.5375L73.0707 39.5331ZM65.2968 34.9107C65.3734 34.8322 65.4542 34.7493 65.5438 34.6785C65.7104 34.5906 65.8981 34.546 66.0872 34.5639C66.7267 34.6247 67.211 35.3049 67.1274 35.9418C66.7898 36.7784 65.9543 37.2558 65.1279 37.728C64.6189 38.0188 64.1133 38.3077 63.7297 38.6773C63.8261 38.5186 63.9314 38.3919 64.0382 38.3141C64.3717 38.0713 64.7205 37.8609 65.0492 37.6626L65.0493 37.6626C65.3255 37.4959 65.5876 37.3378 65.8146 37.1762C66.1718 36.9218 66.4117 36.6801 66.5976 36.4928C66.7397 36.3496 66.8503 36.2382 66.9576 36.1773C66.9663 36.1723 67.3694 35.3553 66.395 34.8213C65.6594 34.4181 65.3316 34.9282 65.1555 35.2023C65.0983 35.2912 65.0571 35.3553 65.0232 35.3553C65.0143 35.3553 65.002 35.354 64.9866 35.3513C65.011 35.2643 65.048 35.1803 65.0953 35.1017C65.1613 35.0497 65.2273 34.982 65.2968 34.9108L65.2968 34.9108L65.2968 34.9108L65.2968 34.9108L65.2968 34.9107ZM65.0954 35.1017L65.0953 35.1017L65.0711 35.12C65.0226 35.1553 64.9739 35.1812 64.9237 35.1931C64.8225 35.2169 64.5813 35.0319 64.3771 34.8753C64.255 34.7816 64.146 34.698 64.0881 34.6753C63.7062 34.5255 63.6614 34.5234 63.3966 34.5108L63.3965 34.5108C63.3518 34.5087 63.3008 34.5063 63.2409 34.5028L63.131 34.4959C63.107 34.4945 63.0804 34.4934 63.0521 34.4922C62.8326 34.483 62.5168 34.4697 62.5798 34.2991C63.708 31.2454 68.5287 30.5809 67.7316 34.0328C67.6657 34.3182 67.4927 34.568 67.3197 34.8178C67.2331 34.9428 67.1466 35.0677 67.0735 35.197C66.762 34.7544 66.4226 34.521 66.0553 34.497C65.8505 34.4836 65.6861 34.5659 65.5438 34.6784L65.5438 34.6785L65.5048 34.7C65.3375 34.797 65.1939 34.9377 65.0954 35.1017ZM74.2492 31.9606L74.2502 31.9588C73.9848 32.4631 73.7 33.0701 73.3955 33.7798C73.6244 33.1492 73.9112 32.5401 74.2492 31.9606ZM76.3985 32.4256L76.3616 32.427C76.0674 32.4394 75.8035 32.4834 75.5699 32.5591C75.3108 32.643 75.035 32.7834 74.7426 32.9803C75.2542 32.6969 75.8196 32.5074 76.3985 32.4256Z" fill="white"/>
<path fill-rule="evenodd" clip-rule="evenodd" d="M61.3569 45.215C61.1258 45.4855 60.7909 45.3982 60.4839 45.099C59.8417 44.473 59.5836 43.2649 59.8417 41.9574C60.0998 40.6499 61.1056 40.1112 62.2251 39.3881C61.7227 39.1813 60.8127 37.8694 60.7213 36.5945C61.031 36.994 61.0473 37.7111 61.3569 38.1107C61.6508 38.4898 62.2379 38.9514 62.5318 39.3306C62.5693 39.379 62.6016 39.4603 62.5484 39.4906C61.4752 40.1001 60.7797 40.3018 60.1467 41.9573C59.5137 43.6128 60.7989 45.1441 60.9697 45.099C61.18 45.0435 61.1055 44.7644 60.9846 44.5834C60.6438 44.073 60.968 43.3924 61.2459 42.8451C61.3944 43.0116 61.0373 43.4893 61.1125 43.986C61.186 44.471 61.5627 44.9742 61.3569 45.215Z" fill="#E7EAEE"/>
<ellipse cx="65.7333" cy="39.7333" rx="0.266651" ry="0.266666" fill="#FFB61D"/>
<circle cx="64.8" cy="38.6667" r="0.266666" fill="#FFB61D"/>
<path d="M24.9214 41.2856C25.0756 41.5733 24.8332 41.9847 24.5068 41.9894C24.2273 40.418 23.9259 38.792 23.0163 37.4806C21.2746 34.9694 17.6856 34.1446 16.1945 31.477C15.1792 32.1997 13.6267 32.0155 12.8087 31.0753C12.3 30.4906 11.4132 30.4188 10.6492 30.5493C9.88524 30.6797 9.13885 30.9681 8.36421 30.9436C8.02808 30.9329 7.66185 30.8426 7.46623 30.569C7.2706 30.2955 7.38362 29.814 7.71652 29.7664C9.16685 29.5588 10.6172 29.3512 12.0675 29.1436C12.1814 29.1273 12.3023 29.1079 12.3887 29.032C12.4866 28.9461 12.5173 28.8088 12.5426 28.6812C12.7526 27.6245 12.9039 26.3648 12.1258 25.6196C11.4809 25.002 10.4631 25.0234 9.58702 25.1956C8.71091 25.3679 7.80799 25.6514 6.94457 25.4239C6.08116 25.1964 5.35909 24.1707 5.82455 23.4088C6.1363 22.8984 5.78478 22.2178 5.3039 21.8623C4.82301 21.5068 4.22456 21.3317 3.75845 20.957C3.29235 20.5823 2.99654 19.8593 3.3678 19.3905C3.53108 19.1843 3.78675 19.0757 4.03758 18.9966C4.86773 18.7347 5.79339 18.7147 6.5936 19.0573C7.39381 19.4 8.04364 20.1344 8.17386 20.995C8.27995 21.6962 8.07837 22.512 8.5419 23.0487C9.14794 23.7504 10.268 23.3568 11.1952 23.3483C12.1434 23.3397 13.0811 23.8425 13.5987 24.6371C14.1163 25.4316 14.1972 26.4925 13.806 27.3564C14.9074 26.2357 16.391 25.376 17.9612 25.4345C19.4116 25.4886 20.7442 26.3229 21.7143 27.4025C22.6843 28.4821 23.346 29.7969 23.9949 31.0952C24.2366 31.5789 24.8498 31.841 25.3665 31.6816C25.8832 31.5221 26.242 30.96 26.1692 30.4242C26.6194 30.5224 26.6663 31.1311 26.6802 31.5917C26.7094 32.5596 27.0598 33.5151 27.6634 34.2722C27.8654 33.8998 28.0194 33.5014 28.1206 33.09C28.5612 33.5965 28.7256 34.3296 28.5435 34.9757C28.3614 35.6218 27.8383 36.1612 27.1981 36.3631C26.8574 36.4705 26.4409 36.5222 26.2718 36.8369C26.9106 37.9555 27.4601 39.1252 27.9133 40.3311C28.1563 40.9778 28.3316 41.8099 27.8201 42.2742C27.2288 41.8376 26.8927 41.145 26.579 40.4803C26.0895 39.4433 25.6001 38.4064 25.1107 37.3694" fill="white"/>
<path fill-rule="evenodd" clip-rule="evenodd" d="M26.5357 30.9058C26.4072 32.1614 26.8772 33.4652 27.7773 34.35C28.0982 34.1564 28.3035 33.7846 28.2964 33.4098C28.6337 33.9644 28.4447 34.7165 28.0253 35.212C27.6058 35.7074 27.0041 36.0044 26.4201 36.2879C26.0855 36.4503 25.7382 36.6161 25.3664 36.6272C24.7992 36.6441 24.291 36.303 23.8273 35.976L22.4666 35.0167C23.1696 36.3285 24.7697 37.0923 26.2317 36.8141C27.2485 38.2404 27.871 39.9447 28.013 41.6905L27.7397 41.1856C27.7372 41.1794 27.7339 41.1733 27.7297 41.1672L27.7397 41.1856C27.779 41.2824 27.6254 41.3895 27.522 41.3394C27.4119 41.2862 27.3704 41.1537 27.3379 41.0359C26.9377 39.5844 26.2203 38.2213 25.2506 37.0695L26.7189 40.1803C27.0327 40.8451 27.3687 41.5377 27.9601 41.9743C28.4716 41.51 28.2963 40.6779 28.0533 40.0312C27.6001 38.8253 27.0506 37.6556 26.4117 36.5369C26.549 36.2814 26.8496 36.1993 27.1401 36.12L27.1402 36.1199C27.2074 36.1016 27.2741 36.0834 27.3381 36.0632C27.9783 35.8613 28.5013 35.3219 28.6834 34.6758C28.8655 34.0297 28.7011 33.2966 28.2606 32.7901C28.1594 33.2015 28.0053 33.5998 27.8034 33.9723C27.1998 33.2152 26.8493 32.2597 26.8202 31.2918C26.8063 30.8312 26.7594 30.2225 26.3091 30.1243C26.382 30.6601 26.0231 31.2222 25.5065 31.3816C24.9898 31.5411 24.3766 31.2789 24.1349 30.7953C23.486 29.497 22.8243 28.1822 21.8542 27.1025C20.8842 26.0229 19.5516 25.1887 18.1012 25.1346C16.5309 25.0761 15.0474 25.9358 13.9459 27.0565C14.3371 26.1926 14.2563 25.1317 13.7387 24.3371C13.2211 23.5426 12.2834 23.0398 11.3351 23.0484C11.0946 23.0506 10.8411 23.0787 10.587 23.1069H10.587H10.5869H10.5869H10.5869H10.5869H10.5869C9.86142 23.1874 9.13068 23.2684 8.68187 22.7488C8.36488 22.3817 8.35893 21.8842 8.35293 21.3821V21.3821C8.35016 21.1499 8.34737 20.9168 8.31383 20.6951C8.18361 19.8344 7.53377 19.1001 6.73356 18.7574C5.93335 18.4148 5.0077 18.4348 4.17755 18.6966C3.92672 18.7758 3.67105 18.8844 3.50777 19.0906C3.1365 19.5594 3.43231 20.2824 3.89842 20.6571C4.14373 20.8543 4.4257 20.9962 4.7079 21.1382C4.96189 21.266 5.21607 21.394 5.44386 21.5624C5.92475 21.9179 6.27627 22.5985 5.96452 23.1089C5.49906 23.8708 6.22112 24.8965 7.08454 25.124C7.79828 25.312 8.53901 25.1509 9.26928 24.9921C9.42242 24.9588 9.57511 24.9256 9.72698 24.8957C10.6031 24.7234 11.6209 24.7021 12.2658 25.3197C13.0439 26.0648 12.8926 27.3245 12.6826 28.3812C12.6572 28.5089 12.6265 28.6462 12.5287 28.7321C12.4422 28.808 12.3214 28.8274 12.2075 28.8437L7.85649 29.4665C7.52358 29.5141 7.41056 29.9955 7.60619 30.2691C7.80182 30.5426 8.16804 30.633 8.50417 30.6437C9.01812 30.6599 9.51963 30.5385 10.0221 30.4168C10.277 30.355 10.5321 30.2933 10.7892 30.2494C11.5532 30.1189 12.4399 30.1907 12.9486 30.7754C13.7666 31.7156 15.3191 31.8998 16.3344 31.1771C17.1191 32.5808 18.4846 33.4743 19.8562 34.3717C21.0912 35.1797 22.331 35.9909 23.1562 37.1807C24.0658 38.4921 24.3672 40.1181 24.6468 41.6895C24.9732 41.6848 25.2155 41.2734 25.0614 40.9857L24.7547 41.3902C24.6414 38.9136 23.3765 36.5134 21.3976 35.0199C20.9075 34.6501 20.3701 34.3259 19.8338 34.0024L19.8338 34.0024C18.6554 33.2915 17.4827 32.5841 16.8302 31.4033C16.7714 31.2969 16.7167 31.1843 16.7072 31.0632C16.6952 30.9099 16.7562 30.7622 16.8152 30.6196L16.8236 30.5992C17.0588 30.0287 17.2231 29.4026 17.1076 28.7963C16.992 28.1901 16.5356 27.6168 15.9253 27.5256C16.9584 28.1864 17.1702 29.8265 16.3388 30.7281C15.5075 31.6297 13.8557 31.5514 13.1134 30.5751C12.5185 29.7927 11.3289 29.8885 10.3714 30.1104C9.41388 30.3323 8.2863 30.5645 7.54662 29.9172C9.12912 29.4821 10.7575 29.2142 12.396 29.1194C12.7863 29.0968 12.9394 28.6099 12.992 28.2225C13.0728 27.6269 13.1536 27.0217 13.0651 26.4273C12.9766 25.8328 12.694 25.2398 12.1896 24.913C11.5838 24.5207 10.8018 24.5815 10.0839 24.6566L8.17632 24.8562C7.76528 24.8992 7.34286 24.9414 6.94434 24.8319C6.54582 24.7225 6.17085 24.4253 6.09443 24.0192C6.04618 23.7626 6.11961 23.51 6.19365 23.2554C6.24695 23.072 6.30056 22.8876 6.3093 22.6999C6.33419 22.1655 5.98891 21.6757 5.56936 21.3437C5.31231 21.1402 5.02588 20.9801 4.73918 20.8199L4.73917 20.8199C4.55794 20.7186 4.3766 20.6173 4.2025 20.5049C3.8748 20.2933 3.53856 19.9514 3.62968 19.5721C3.68795 19.3296 3.90744 19.1615 4.12811 19.0451C4.87316 18.6524 5.80443 18.6347 6.56384 18.999C7.32324 19.3632 7.89243 20.1005 8.05254 20.9273C8.09204 21.1313 8.10999 21.3444 8.1279 21.557V21.557C8.16934 22.0488 8.21058 22.5383 8.51787 22.9078C8.88492 23.3492 9.5193 23.4604 10.0927 23.433C10.2893 23.4237 10.4859 23.4017 10.6823 23.3797C11.0588 23.3375 11.4347 23.2954 11.809 23.3425C13.0675 23.501 14.0591 24.8105 13.8705 26.0649C13.86 26.1343 13.8466 26.2042 13.8332 26.2744V26.2744V26.2744V26.2744V26.2744V26.2744L13.8331 26.2745C13.7851 26.5247 13.7366 26.7774 13.8221 27.0124C13.9315 27.3134 14.4103 27.4736 14.5619 27.1916C15.2416 25.9278 16.8004 25.2911 18.2256 25.458C19.6509 25.6249 20.9263 26.4831 21.862 27.571C22.7977 28.6589 23.4342 29.9681 24.0148 31.2804C24.2192 31.7426 24.828 31.91 25.3144 31.7725C25.8008 31.635 26.1867 31.2714 26.5357 30.9058ZM23.9816 33.1084C23.9955 33.1064 24.0275 33.1692 24.0759 33.2638C24.1948 33.4967 24.4124 33.9226 24.6992 34.0521C24.6865 34.1728 24.4967 34.1081 24.4178 34.016C24.1935 33.7539 23.9555 33.4524 23.9816 33.1084ZM24.6588 35.1769C24.8068 35.3939 23.9201 35.5019 23.6254 35.3126C23.6773 35.3026 23.7457 35.3079 23.8214 35.3138C23.9113 35.3208 24.0114 35.3286 24.1066 35.3126C24.2459 35.2892 24.3805 35.2464 24.4821 35.2141C24.5806 35.1827 24.6481 35.1613 24.6588 35.1769ZM24.4459 34.3706C24.0929 34.4311 23.6593 33.961 23.6593 33.5189C23.761 33.8458 24.1224 34.1051 24.3221 34.2484C24.4237 34.3213 24.4835 34.3642 24.4459 34.3706ZM25.7106 36.2195C25.2404 36.2195 25.0273 35.4268 25.2404 35.3759C25.2914 35.3528 25.2938 35.4238 25.2974 35.5286C25.3011 35.6389 25.3061 35.7865 25.3702 35.9015C25.4414 36.0293 25.5921 36.1147 25.6801 36.1645C25.7467 36.2022 25.7773 36.2195 25.7106 36.2195ZM26.2343 35.1401C26.3375 35.1969 26.4317 35.2851 26.4584 35.3999C26.4851 35.5146 26.421 35.6538 26.3056 35.6777C26.2695 35.6246 26.2891 35.5908 26.3097 35.5552C26.3401 35.5029 26.3727 35.4466 26.2343 35.3191C26.1761 35.2655 26.1082 35.2421 26.0607 35.2257C26.024 35.2131 25.9994 35.2047 26.0004 35.1897C26.0063 35.0943 26.1506 35.094 26.2343 35.1401ZM25.3543 34.1071C25.3311 34.1232 25.3151 34.1344 25.3288 34.1471C25.3713 34.1866 25.4213 34.2055 25.4712 34.1768C25.5093 34.1549 25.5286 34.1106 25.5376 34.0676C25.5878 33.8274 25.3341 33.5793 25.0951 33.6348C25.1163 33.6907 25.1569 33.7086 25.2062 33.7303C25.2631 33.7554 25.3316 33.7856 25.3951 33.885C25.4808 34.0192 25.4022 34.0738 25.3543 34.1071ZM25.2739 36.3712C24.9971 36.2906 24.7234 35.6368 24.8707 35.5873C24.9626 35.5564 24.9621 35.5614 24.9568 35.6131C24.9519 35.6605 24.9429 35.747 24.9971 35.8812C25.0643 36.0478 25.1586 36.183 25.2185 36.2691C25.2597 36.3281 25.2847 36.364 25.2739 36.3712ZM25.3833 41.5875C25.4333 41.6531 25.5474 41.6243 25.5913 41.5545C25.6352 41.4847 25.6297 41.3958 25.6218 41.3137C25.5068 40.1265 25.1987 38.9583 24.7133 37.8689C24.575 37.5586 24.4296 37.1717 24.6413 36.906C25.1307 38.1293 25.6243 39.3677 25.8025 40.6731C25.8512 41.0294 25.8686 41.4196 25.67 41.7193C25.4714 42.0191 24.9764 42.134 24.7557 41.8501C25.0952 41.7792 25.3549 41.4355 25.3304 41.0896C25.4872 41.1965 25.5142 41.45 25.3833 41.5875ZM29.3395 65.1592C31.1154 65.0618 33.1728 64.8054 34.1043 63.2902C34.3459 62.8973 34.2944 62.2797 34.2519 61.7707C34.2178 61.3617 34.1895 61.023 34.3238 60.9272C34.6252 60.7124 34.8663 61.2665 34.8663 61.2665C34.8752 61.2298 34.8853 61.1844 34.8967 61.1332C34.9809 60.7557 35.1359 60.0603 35.3794 60.191C35.4796 60.2447 35.4451 60.5827 35.4214 60.815V60.815V60.815C35.4159 60.8696 35.4109 60.9183 35.4084 60.9561C35.4027 60.992 35.4019 61.022 35.4062 61.0432C35.4081 61.0424 35.41 61.0415 35.412 61.0404L35.4168 61.0373C35.4194 61.0369 35.4225 61.0346 35.4262 61.0302C35.4655 60.997 35.5195 60.9148 35.5794 60.8235L35.5795 60.8234L35.5795 60.8234C35.7039 60.6341 35.8542 60.4051 35.955 60.4892C36.1133 60.6214 35.5506 61.4651 35.5506 61.4651C35.5506 61.4651 36.2189 60.7307 36.2753 61.0432C36.3317 61.3558 34.8097 64.1787 33.4358 65.2858C32.0619 66.393 30.1261 67.0128 28.3757 66.7908C28.4148 66.0966 28.6452 65.1973 29.3395 65.1592ZM35.5205 60.6556C35.579 60.5532 35.6585 60.4554 35.7569 60.3932C36.2861 60.0585 36.1083 60.5766 36.0259 60.8167L36.0259 60.8167C36.0049 60.8777 35.9902 60.9207 35.9947 60.9272C36.0022 60.9379 36.0352 60.9138 36.0793 60.8815C36.1608 60.8218 36.2805 60.7342 36.3477 60.787C36.5279 60.8731 36.3261 61.6506 36.1679 61.9837L36.1462 62.029C35.3373 63.7057 34.1365 65.2358 32.5323 66.1803C30.9281 67.1249 28.8929 67.4228 27.1698 66.7181C26.567 66.4716 26.0607 67.2224 25.8378 67.8343L25.1707 69.6657C24.83 70.6008 24.3918 71.6396 23.4633 71.9978C24.2961 74.1689 24.5639 76.5539 24.2335 78.8556C24.119 79.6533 23.9083 80.4883 23.33 81.0494C22.3499 82.0003 20.7552 81.7989 19.4473 81.4061L18.7855 81.2045C17.6713 80.869 16.5115 80.58 15.4564 81.0064C15.2673 81.0829 15.0873 81.181 14.9075 81.279C14.6541 81.4171 14.4012 81.5549 14.1241 81.6314C13.6503 81.7621 13.0406 81.6346 12.8565 81.179C13.367 80.1803 14.0755 79.2834 14.9288 78.5555C15.0595 78.444 15.2141 78.33 15.3848 78.3498C15.5823 78.3727 15.6914 78.5476 15.8027 78.7259C15.8568 78.8127 15.9115 78.9003 15.9771 78.9715C16.2326 79.2489 16.6545 79.2657 17.0346 79.2551L21.3992 79.1134C20.9505 78.0967 20.6522 77.0139 20.5168 75.9109L21.8445 79.2334C20.9244 79.4702 19.9661 79.5583 19.0182 79.4931L18.8822 79.483L18.8111 79.4773C18.4253 79.4466 18.0358 79.4155 17.6649 79.5174C17.2275 79.6375 16.8172 80.0068 16.8234 80.4604L20.5688 81.3352C21.1852 81.4764 21.837 81.5945 22.4223 81.367C23.3501 81.0065 23.7608 79.9249 23.9151 78.9415C24.0576 78.0341 24.073 77.1068 23.9609 76.1952L23.954 76.1439C23.9373 76.0322 23.9068 75.9183 23.8197 75.8498C23.7365 75.7844 23.6239 75.7784 23.5169 75.7794L20.5404 75.8321C20.0085 75.8415 19.8547 75.0759 20.0424 74.5782C20.0855 74.4639 20.1371 74.3488 20.189 74.2332C20.363 73.8452 20.5396 73.4516 20.4047 73.0646C20.1508 72.3363 19.0682 72.3785 18.4155 72.7893C18.2226 72.9107 18.0375 73.0527 17.8526 73.1946C17.428 73.5205 17.0047 73.8454 16.4907 73.9169L16.4321 73.9239C15.7372 73.9933 15.1632 74.4653 14.6416 74.9371L8.27256 80.7443C8.1718 80.8362 8.06149 80.9326 7.92601 80.9481C7.792 80.9635 7.66487 80.8962 7.5493 80.8243L7.52471 80.8088C6.57529 80.2066 5.70461 79.4804 4.94175 78.6545C4.59729 78.2815 5.10655 77.6642 5.61402 77.6497C5.91555 77.6411 6.20128 77.7423 6.48848 77.844C6.6846 77.9135 6.88141 77.9832 7.0844 78.0183C8.20697 78.2126 9.21388 77.3477 9.98932 76.5131C11.4156 74.978 12.7106 73.321 13.8556 71.5662L13.4948 71.1187L18.1975 68.3228C17.9418 68.2906 17.7183 68.0813 17.6695 67.8282C18.9523 67.5792 19.7185 66.2976 20.3035 65.1229L20.3838 64.9612C20.9632 63.8012 21.69 62.5454 22.9416 62.2484C22.0244 61.2743 20.6001 60.9033 19.2653 60.9971C17.9677 61.0883 16.7317 61.5676 15.5453 62.1044L15.4437 62.1506C14.9401 62.3803 14.3805 62.6945 14.2781 63.2385C14.2573 63.3495 14.2577 63.4635 14.2581 63.5772C14.2587 63.723 14.2592 63.8684 14.2148 64.0062C14.1359 64.2514 13.7931 64.4364 13.6254 64.2408C13.7331 64.5741 13.3047 64.899 12.9743 64.7828C12.6439 64.6666 12.4828 64.268 12.5277 63.9207C12.5727 63.5734 12.7747 63.2686 12.9811 62.9857C14.6359 60.7171 17.1623 58.8667 19.9703 58.8624C22.3955 58.8587 24.7615 60.3493 25.8054 62.5383C26.0184 62.985 26.7702 62.8462 26.9911 62.4034C27.2119 61.9606 27.0582 61.4259 26.851 60.9765L26.8023 60.8728C26.7841 60.8347 26.7658 60.7966 26.7474 60.7584C26.5654 60.3803 26.3806 59.9964 26.3856 59.5816C26.3866 59.5015 26.3948 59.4214 26.403 59.3415C26.4151 59.2232 26.4272 59.105 26.4158 58.987C26.4061 58.8856 26.3792 58.786 26.3524 58.6868C26.3142 58.5454 26.2761 58.4045 26.2881 58.2598C26.3086 58.0135 26.6024 57.7731 26.7917 57.9319C26.672 57.235 27.3656 56.527 28.0648 56.6323C28.4223 56.6862 28.7167 56.9014 29.0136 57.1184C29.2353 57.2805 29.4584 57.4436 29.7102 57.5413C30.3137 57.7752 31.0591 57.5694 31.457 57.0588C31.7138 57.4972 31.4624 58.0562 31.1565 58.4619L31.0965 58.5405C31.0723 58.5719 31.0479 58.6032 31.0233 58.6347C30.75 58.9853 30.4673 59.3481 30.4543 59.784C30.4101 61.2591 29.326 62.644 27.9046 63.0409C27.3447 63.1973 27.3442 64.0822 27.7901 64.4552C28.2229 64.8172 28.837 64.8302 29.404 64.8154L29.6358 64.8086C30.629 64.7778 31.6445 64.7182 32.5393 64.2936C33.4884 63.8432 34.2713 62.8672 34.1569 61.823C34.1497 61.7576 34.1393 61.6915 34.1289 61.6253C34.0944 61.4068 34.0596 61.1867 34.1413 60.9858C34.2478 60.7239 34.6873 60.6104 34.7929 60.8726C34.7269 60.5435 35.0989 59.924 35.4796 59.9734C35.704 60.0025 35.6117 60.3667 35.5205 60.6556ZM35.5205 60.6556C35.509 60.6923 35.4974 60.7278 35.4865 60.7612C35.4377 60.9108 35.4024 61.0191 35.4391 61.0107C35.4374 61.0136 35.4358 61.0163 35.4343 61.0187C35.4334 61.0201 35.4326 61.0214 35.4318 61.0226C35.4298 61.0256 35.4279 61.0281 35.4262 61.0302C35.4229 61.0329 35.4198 61.0353 35.4168 61.0373C35.4062 61.039 35.405 61.0077 35.4084 60.9561C35.4213 60.8744 35.4595 60.7625 35.5205 60.6556ZM24.3545 70.6736C24.1461 71.1423 23.8011 71.6939 23.292 71.6316C23.0194 71.5983 22.8134 71.3926 22.6282 71.1811L22.5289 71.0661C21.4529 69.8171 19.9911 68.9869 18.5219 68.2226L18.0324 67.9698C19.2292 67.7344 19.9675 66.5508 20.4946 65.4509L20.6626 65.1004C21.1447 64.1011 21.6932 63.0728 22.6874 62.6229C22.8249 62.5607 22.9825 62.5112 23.1242 62.5629C23.1457 62.5707 23.1689 62.5796 23.193 62.5889C23.368 62.6562 23.5933 62.7428 23.5898 62.577C23.2707 62.4484 23.2183 61.9832 23.4023 61.6925C23.5703 61.4272 23.8613 61.2741 24.1495 61.1421L24.2316 61.1049C24.0478 60.8515 23.6494 61.0646 23.4413 61.2985L23.4241 61.3176C23.2153 61.5467 22.8946 61.7976 22.6536 61.6113C21.6574 60.8416 20.3297 60.5945 19.0766 60.7154C17.8234 60.8362 16.6279 61.2944 15.4831 61.8182C15.0635 62.0102 14.6373 62.2195 14.3259 62.56C14.085 62.8234 14.0601 63.1741 14.035 63.5265C14.0276 63.6296 14.0203 63.7329 14.0075 63.8342C13.9766 64.0793 13.8418 64.0886 13.7231 64.0969C13.6595 64.1013 13.6005 64.1054 13.5645 64.1453C13.5616 64.1485 13.5524 64.1626 13.5386 64.1839L13.5383 64.1842L13.5383 64.1843C13.467 64.2938 13.2742 64.59 13.187 64.5604C13.0591 64.5171 13.1243 64.2408 13.1243 64.2408C13.1243 64.2408 12.7446 64.3494 12.7164 64.2408C12.6175 63.8611 13.187 63.0841 13.187 63.0841C14.1446 61.6754 15.5647 60.5065 17.126 59.827C18.7161 59.135 20.5718 59.0013 22.1973 59.6055C24.03 60.2866 25.4813 61.9139 25.9491 63.8122C26.0657 64.2855 26.6163 64.4944 27.0973 64.5731C27.1423 64.5804 27.1878 64.5875 27.2336 64.5947L27.2345 64.5948C27.6785 64.6642 28.1505 64.738 28.4335 65.077C28.5169 65.1769 28.4938 65.3247 28.4652 65.4517L28.4568 65.4882C28.3513 65.941 28.1672 66.4477 27.7273 66.585C27.3275 66.7099 26.8538 66.3876 26.8232 65.9699C26.8205 65.9331 26.8197 65.8942 26.8189 65.8548V65.8547C26.8155 65.6924 26.812 65.5214 26.6757 65.4544L24.3545 70.6736ZM20.5738 73.1494C20.4243 72.3812 19.9699 71.6902 19.3737 71.1831C19.397 71.4851 19.5247 71.778 19.7302 72.0005C18.7199 72.3217 17.7672 72.823 16.9304 73.4738C16.7064 73.6479 16.3259 73.8068 16.1948 73.5552C15.6787 72.5654 14.8571 71.7376 13.8712 71.2141L17.9243 68.885C18.1075 68.7797 18.3012 68.6714 18.5125 68.6693C18.6763 68.6678 18.8319 68.7305 18.9799 68.8035L19.0534 68.8406C20.5701 69.6218 21.9278 70.7102 23.0202 72.0206C23.2907 72.3451 23.4166 72.7606 23.5238 73.1716L24.0059 75.055C24.0378 75.1798 24.0612 75.3342 23.9635 75.418C23.9085 75.4652 23.831 75.4733 23.7588 75.4789L23.6742 75.4854L23.6742 75.4854C22.474 75.5778 21.5058 75.6523 20.3035 75.4789C20.124 75.1349 20.2596 74.7086 20.3996 74.2685C20.5196 73.8913 20.6428 73.5039 20.5738 73.1494ZM14.5442 71.9913C14.9939 72.3873 15.3993 72.8336 15.7505 73.3191C15.788 73.3711 15.8267 73.4291 15.8227 73.4931C15.818 73.5677 15.7575 73.6251 15.7012 73.6744L10.4628 78.2593C10.2443 78.4505 9.89588 78.417 9.65122 78.2608C9.43713 78.1241 9.28406 77.9145 9.14362 77.701L9.08406 77.6094C10.4493 76.8919 11.3251 75.6066 12.2086 74.3099C12.7628 73.4965 13.3201 72.6787 14.0031 71.9936C14.0695 71.9271 14.1444 71.8581 14.2378 71.8476C14.3534 71.8347 14.4569 71.9144 14.5442 71.9913ZM29.7993 59.2024L29.933 59.2435C30.1935 59.3241 30.2368 59.673 30.2036 59.9436C30.0663 61.0641 29.3699 62.1732 28.2961 62.5213L28.2577 62.5343C27.5579 62.7813 27.0577 63.5133 27.0875 64.2559C26.6179 64.3439 26.1143 63.9681 26.0649 63.4928C26.0551 63.398 26.0831 63.2749 26.1773 63.2605C26.604 63.1949 26.9965 62.933 27.2209 62.5641C27.4452 62.1953 27.4972 61.7263 27.3592 61.3172C27.331 61.2337 27.2951 61.15 27.2592 61.0662C27.1572 60.8281 27.0547 60.589 27.1264 60.3488C27.29 60.3639 27.321 60.5882 27.3038 60.7515L27.3019 60.7714C27.2886 60.9324 27.3171 61.1389 27.4733 61.1605C27.5763 60.924 27.5977 60.6593 27.6189 60.3966C27.6457 60.0649 27.6723 59.7364 27.8625 59.4721C28.08 59.17 28.4701 59.0311 28.8423 59.0268C29.1681 59.0229 29.4865 59.1075 29.7993 59.2024ZM6.26211 78.0939L6.29571 78.0551C6.48318 78.0141 6.66221 78.2542 6.56937 78.4221C6.50979 78.5299 6.69299 78.6366 6.79528 78.568C6.89757 78.4994 6.9182 78.3602 6.92945 78.2376C7.03236 78.2053 7.12138 78.3232 7.14081 78.4293C7.14594 78.4573 7.14913 78.4863 7.15232 78.5154C7.16119 78.5961 7.17008 78.6771 7.22106 78.7379C7.29036 78.8205 7.47393 78.7778 7.44382 78.6742C7.39891 78.5197 7.58139 78.3937 7.74064 78.3709C7.77893 78.3654 7.81847 78.3622 7.8581 78.3589C7.98334 78.3487 8.1096 78.3383 8.20077 78.2569L8.21451 78.2459C8.33021 78.1639 8.47346 78.3157 8.56079 78.4505L8.6014 78.5159C8.79342 78.8144 9.11979 79.0234 9.47166 79.0711C9.54061 79.0805 9.50554 79.188 9.45488 79.2357L8.26734 80.3541C8.20978 80.4083 8.11649 80.3697 8.04905 80.3284C7.34415 79.8968 6.69341 79.3769 6.11691 78.7846C5.93528 78.598 6.08931 78.3003 6.26211 78.0939ZM16.6473 80.1753C16.6131 80.3164 16.5157 80.4742 16.371 80.4635C16.0221 80.4378 15.6684 80.4798 15.3354 80.5867C15.3659 80.4446 15.3038 80.2871 15.1845 80.2041C15.0975 80.3286 15.1331 80.5215 15.2588 80.6067L14.9268 80.9348L14.7678 80.5695C14.6894 80.5904 14.6872 80.6866 14.6926 80.7747L14.6964 80.8295C14.7123 81.0607 14.5162 81.2856 14.2849 81.3012C14.0537 81.3168 13.8291 81.1203 13.8138 80.889C13.7972 80.6371 13.9901 80.4257 14.1695 80.2481L15.4434 78.9867C15.4704 78.961 15.5015 78.937 15.538 78.9376C15.5785 78.9384 15.6112 78.969 15.6397 78.9977L16.1367 79.4993C16.2331 79.5966 16.1722 79.7454 16.1128 79.8905C16.0517 80.0398 15.9923 80.1851 16.1077 80.266C16.22 80.2726 16.3136 80.1751 16.3568 80.0711C16.3788 80.0181 16.3922 79.9622 16.4056 79.9062C16.4185 79.8524 16.4313 79.7987 16.4518 79.7475C16.4937 79.643 16.5841 79.5436 16.6967 79.546C16.8092 79.5483 16.896 79.7092 16.809 79.7805C16.7162 79.8567 16.6897 79.9804 16.664 80.1007C16.6586 80.1259 16.6532 80.1509 16.6473 80.1753ZM7.93796 80.7331C6.79301 80.1206 5.78094 79.2613 4.99098 78.2308C5.09456 78.1326 5.25035 78.2369 5.35053 78.3482L5.37534 78.3772C6.12592 79.306 7.06856 80.0789 8.12645 80.6328C8.11788 80.7164 8.012 80.7727 7.93796 80.7331ZM13.429 80.4985C13.925 79.8499 14.4745 79.2423 15.0702 78.6838C15.1625 78.5972 15.3543 78.5388 15.3777 78.6632C14.6842 79.3251 14.021 80.0187 13.3907 80.741C13.3222 80.6816 13.374 80.5706 13.429 80.4985ZM9.61994 78.8768C9.27385 78.7537 8.9653 78.5271 8.74425 78.2337C8.66107 78.1233 8.60861 77.9316 8.73464 77.8748C8.83425 77.8299 8.92993 77.9241 8.99941 78.0154L9.0515 78.0863C9.27537 78.3817 9.59468 78.6038 9.94982 78.7101C9.95044 78.8049 9.872 78.8936 9.7779 78.9047C9.7243 78.911 9.67077 78.8949 9.61994 78.8768ZM26.6035 59.6818C26.7662 59.6856 26.904 59.8552 26.8744 60.0153L26.8783 60.0175C26.9008 60.1335 26.8859 60.2565 26.8365 60.3638C26.6586 60.1894 26.5695 59.9286 26.6035 59.6818ZM29.7032 59.6857C29.7238 59.6839 29.7454 59.682 29.7673 59.6818C29.7947 59.6814 29.8264 59.6863 29.8563 59.691C29.9368 59.7034 30.0042 59.7139 29.9405 59.6142C29.8533 59.4776 29.5979 59.4622 29.556 59.6188C29.5677 59.6977 29.6286 59.6923 29.7032 59.6857ZM29.9087 60.3613L29.9124 60.3472C29.9745 60.112 29.9386 59.9264 29.7672 59.9264C29.7011 59.9314 29.6002 60.2681 29.6098 60.3702C29.6194 60.4722 29.7345 60.5667 29.8236 60.516C29.8765 60.486 29.8934 60.4207 29.9087 60.3613ZM28.7785 60.2899C28.6591 60.124 28.6465 59.8878 28.7478 59.7102C28.7629 59.6837 28.7811 59.6576 28.8076 59.6424C28.8746 59.604 28.9643 59.656 28.9938 59.7274C29.0234 59.7988 29.0105 59.8798 28.9971 59.9558C28.9971 59.9558 28.898 60.4559 28.7785 60.2899ZM46.9561 60.3262C49.492 59.9699 52.0645 60.2411 54.5771 60.759C56.1174 61.0765 56.0915 60.6265 55.987 58.81C55.961 58.3581 55.9301 57.8215 55.9173 57.1912C55.8999 56.3384 56.0955 55.8787 56.2889 55.4241C56.3905 55.1854 56.4914 54.9482 56.5607 54.6561L56.5702 54.6155C56.7122 54.0044 56.8084 53.2875 56.3777 52.8374C56.0175 52.461 55.4567 52.4435 54.9186 52.4548L54.6089 52.4622C53.9867 52.4741 53.2177 52.2814 53.0811 51.6743L53.0734 51.6427C52.9263 51.0775 52.285 50.6874 51.7154 50.8246C51.1352 50.9642 50.7377 51.6247 50.886 52.2027C50.9485 52.4465 50.5976 52.5634 50.346 52.5634L48.5457 52.5638C48.2198 52.5639 47.76 52.7397 47.8754 53.0444C48.1159 53.6796 48.0987 54.4081 47.8287 55.0312C47.0425 54.6656 45.9828 55.2964 45.9294 56.1619C45.8761 57.0273 46.8503 57.7835 47.6754 57.5172C47.3881 58.4405 47.1479 59.3785 46.9561 60.3262ZM54.0831 60.2947C51.9009 59.7595 49.6212 59.6241 47.391 59.8978C47.7781 58.996 47.948 58.0018 47.8824 57.0227C47.3013 57.4299 46.3472 56.9522 46.3252 56.2429C46.3031 55.5335 47.2258 54.9975 47.8311 55.368C47.9915 55.4662 48.1679 55.2626 48.232 55.0857C48.4506 54.4833 48.4527 53.805 48.238 53.2012C48.1543 52.9661 48.5092 52.8385 48.7587 52.8435L50.8765 52.8854C51.0187 52.8882 51.1697 52.8888 51.2911 52.8147C51.4126 52.7407 51.4816 52.5626 51.3923 52.4519C51.0259 51.9971 51.447 51.1834 52.0299 51.22C52.6127 51.2566 52.9288 52.1167 52.5083 52.522C52.4299 52.5976 52.5823 52.6949 52.6912 52.6974L55.4602 52.7611C56.0109 52.7738 56.4001 53.3605 56.4226 53.9109C56.4416 54.3767 56.2762 54.8228 56.1128 55.2634C56.0986 55.3018 56.0843 55.3402 56.0703 55.3785L56.0251 55.5031C55.5346 56.8793 55.3768 58.3727 55.5687 59.821C55.6061 60.1035 55.346 60.3549 55.0676 60.4161C54.822 60.47 54.5691 60.4165 54.3232 60.355L54.0831 60.2947Z" fill="#00160A"/>
<path fill-rule="evenodd" clip-rule="evenodd" d="M24.5682 34.95C24.5884 34.8195 24.7623 34.7441 24.888 34.7889C25.0137 34.8337 25.126 35.014 25.0339 35.116C24.888 35.2774 24.5291 35.2033 24.5682 34.95Z" fill="#FFB61D"/>
<path fill-rule="evenodd" clip-rule="evenodd" d="M79.2893 68.7479C79.2072 68.8168 79.0423 68.8418 79.027 68.7356C79.3477 68.4092 79.5684 67.9858 79.6521 67.536C79.7568 67.508 79.7871 67.6747 79.7608 67.7799C79.6723 68.1343 79.5691 68.513 79.2893 68.7479Z" fill="#00160A"/>
<path d="M8.48352 29.87C8.48027 29.9752 8.3207 29.9691 8.22421 29.9271C8.25894 29.8332 8.39975 29.8018 8.47108 29.872L8.48352 29.87Z" fill="black"/>
<path fill-rule="evenodd" clip-rule="evenodd" d="M54.0181 58.7691C53.907 58.8681 53.7199 58.7168 53.7364 58.5689C53.753 58.421 53.884 58.3152 54.0097 58.2356C54.4602 57.9501 54.9819 57.7781 55.5138 57.7397C55.5281 57.9425 55.2652 58.0263 55.0656 58.0652C54.6421 58.1478 54.2387 58.3313 53.8981 58.5962C53.9597 58.6339 54.0044 58.6982 54.0181 58.7691V58.7691Z" fill="#00160A"/>
<path fill-rule="evenodd" clip-rule="evenodd" d="M55.5289 59.0279C55.2793 59.1483 55.0253 59.2596 54.7676 59.3615C54.7969 59.4702 54.9531 59.4666 55.059 59.4284C55.165 59.3901 55.3043 59.3499 55.373 59.4392C55.1987 59.7052 54.7669 59.7466 54.5452 59.5187C54.4488 59.4196 54.2743 59.4848 54.1498 59.4247C53.9717 59.3387 54.0048 59.0697 54.1097 58.9019C54.3287 58.5517 54.7463 58.3357 55.1587 58.3593C55.3157 58.3684 55.5033 58.4459 55.5138 58.6028C55.0213 58.5719 54.5191 58.775 54.1866 59.1396C54.3755 59.2858 54.6465 59.1767 54.8595 59.0687C55.0726 58.9608 55.3539 58.8654 55.5289 59.0279Z" fill="#00160A"/>
<path fill-rule="evenodd" clip-rule="evenodd" d="M29.3101 60.4249C29.4515 60.5664 29.5101 60.6311 29.5101 60.8392C29.5101 61.0472 29.3973 61.1807 29.2068 61.2418C29.119 61.27 28.9975 61.2484 28.9747 61.1591C29.6093 61.0294 29.376 60.7527 29.3101 60.4249Z" fill="#00160A"/>
<path fill-rule="evenodd" clip-rule="evenodd" d="M28.4634 59.54C28.5311 59.3155 28.8256 59.1942 29.0318 59.3058C29.1134 59.35 29.1812 59.4304 29.1854 59.5231C28.9448 59.5287 28.7466 59.3731 28.4634 59.54Z" fill="#00160A"/>
<path fill-rule="evenodd" clip-rule="evenodd" d="M29.0396 61.5453C27.6971 60.8 28.7481 61.7551 29.0396 61.5453V61.5453Z" fill="#00160A"/>
</svg>
