<svg width="20" height="20" viewBox="0 0 20 20" fill="none" xmlns="http://www.w3.org/2000/svg">
<path d="M10.3092 8.94563C10.2989 9.75535 11.0308 10.2072 11.5821 10.4758C12.1485 10.7515 12.3388 10.9282 12.3366 11.1747C12.3323 11.552 11.8847 11.7185 11.4659 11.7249C10.7351 11.7363 10.3102 11.5276 9.97244 11.3699L9.70919 12.6017C10.0481 12.7578 10.6756 12.894 11.3264 12.9C12.8539 12.9 13.8533 12.146 13.8587 10.9769C13.8647 9.49315 11.8064 9.41102 11.8205 8.74784C11.8253 8.54674 12.0172 8.33215 12.4377 8.27759C12.6458 8.25003 13.2203 8.22893 13.8717 8.52888L14.1273 7.33709C13.777 7.20954 13.3268 7.08741 12.7663 7.08741C11.3286 7.08741 10.3173 7.8517 10.3092 8.94563ZM16.5839 7.19006C16.305 7.19006 16.0699 7.35277 15.965 7.60245L13.783 12.8125H15.3094L15.6132 11.973H17.4784L17.6546 12.8125H19L17.826 7.19006H16.5839ZM16.7975 8.70888L17.238 10.8202H16.0315L16.7975 8.70888ZM8.45847 7.19013L7.25528 12.8124H8.70984L9.91246 7.18999H8.45847V7.19013ZM6.3067 7.18999L4.79273 11.0169L4.1803 7.76304C4.10845 7.39981 3.82466 7.19006 3.50952 7.19006H1.03466L1 7.35333C1.50808 7.46358 2.08534 7.6414 2.43508 7.83167C2.64911 7.94789 2.71014 8.04949 2.78045 8.32568L3.9404 12.8125H5.4775L7.83409 7.19006H6.3067" fill="url(#paint0_linear)"/>
<defs>
<linearGradient id="paint0_linear" x1="9.27532" y1="13.0166" x2="9.44357" y2="7.04698" gradientUnits="userSpaceOnUse">
<stop stop-color="#222357"/>
<stop offset="1" stop-color="#254AA5"/>
</linearGradient>
</defs>
</svg>
