<svg width="20" height="20" viewBox="0 0 20 20" fill="none" xmlns="http://www.w3.org/2000/svg">
<path d="M16.1875 5.5H13.75V4.5625C13.75 4.25078 13.4992 4 13.1875 4H6.8125C6.50078 4 6.25 4.25078 6.25 4.5625V5.5H3.8125C3.50078 5.5 3.25 5.75078 3.25 6.0625V7.375C3.25 8.21172 3.77734 9.07188 4.70078 9.73516C5.43906 10.2672 6.33672 10.6047 7.27891 10.7125C8.01484 11.9336 8.875 12.4375 8.875 12.4375V14.125H7.75C6.92266 14.125 6.25 14.6102 6.25 15.4375V15.7188C6.25 15.8734 6.37656 16 6.53125 16H13.4688C13.6234 16 13.75 15.8734 13.75 15.7188V15.4375C13.75 14.6102 13.0773 14.125 12.25 14.125H11.125V12.4375C11.125 12.4375 11.9852 11.9336 12.7211 10.7125C13.6656 10.6047 14.5633 10.2672 15.2992 9.73516C16.2203 9.07188 16.75 8.21172 16.75 7.375V6.0625C16.75 5.75078 16.4992 5.5 16.1875 5.5ZM5.57734 8.51875C5.00547 8.10625 4.75 7.64687 4.75 7.375V7H6.25469C6.27812 7.76406 6.39062 8.43437 6.55469 9.02031C6.20078 8.89844 5.87031 8.72969 5.57734 8.51875ZM15.25 7.375C15.25 7.75234 14.8352 8.22109 14.4227 8.51875C14.1297 8.72969 13.7969 8.89844 13.443 9.02031C13.607 8.43437 13.7195 7.76406 13.743 7H15.25V7.375Z" fill="#419958"/>
</svg>
