<svg width="20" height="20" viewBox="0 0 20 20" fill="none" xmlns="http://www.w3.org/2000/svg">
<path d="M12.1276 6.60695C11.1321 6.03404 11.1321 4.59399 12.1276 4.02107C13.123 3.44816 14.374 4.16819 14.374 5.31401C14.374 6.45983 13.123 7.17983 12.1276 6.60695ZM10.669 4.66852H4V5.08261H10.669V4.66852ZM7.00912 6.3005H4V6.66589H7.00915V6.3005H7.00912ZM7.25313 10.5388H4V10.9285H7.25315V10.5388L7.25313 10.5388ZM6.22838 12.0246H4V12.4143H6.2284V12.0246L6.22838 12.0246ZM5.83232 15.9969C6.15691 15.5415 8.78865 11.7404 9.16255 11.6492C9.54165 11.7538 10.3158 11.9814 10.2543 12.0929C10.1761 12.2346 9.40718 13.2439 9.35342 13.5124C9.29961 13.7808 9.70302 14.5192 10.3336 14.0605C10.9643 13.6019 12.341 11.888 12.1931 11.4853C12.0452 11.0826 11.1679 10.5001 10.1871 10.1027C10.1602 10.0355 10.8998 9.31065 11.2897 8.63944C11.3627 8.51384 12.7016 10.2369 13.1319 10.1563C13.7843 10.0342 15.8371 8.30383 15.9581 7.96824C16.0791 7.63262 15.9421 7.24334 15.4937 6.93616C15.0452 6.62899 13.9118 8.53205 13.2125 8.4515C12.745 8.39766 12.4384 7.28392 11.33 6.59898C10.3577 5.99809 8.84684 5.77945 8.47714 5.82552C8.06007 5.87751 7.05408 6.81377 5.68254 8.26356C5.23686 8.73465 6.19558 9.58868 6.59689 9.2972C7.81135 8.41514 8.5666 7.31886 8.84485 7.32878C9.1231 7.33868 9.78469 7.70339 9.78469 7.70339C9.78469 7.70339 5.27645 14.047 4.79504 15.0024C4.2678 16.049 5.50773 16.4522 5.83232 15.9969Z" fill="#419958"/>
</svg>
