<svg width="20" height="20" viewBox="0 0 20 20" fill="none" xmlns="http://www.w3.org/2000/svg">
<path d="M10 4C6.6916 4 4 6.6916 4 10C4 13.3084 6.6916 16 10 16C13.3084 16 16 13.3084 16 10C16 6.6916 13.3084 4 10 4ZM5.2 10C5.2 9.4606 5.2936 8.9428 5.4586 8.4586L6.4 9.4L7.6 10.6V11.8L8.8 13L9.4 13.6V14.7586C7.0366 14.4616 5.2 12.4432 5.2 10ZM13.798 12.9238C13.4062 12.6082 12.8122 12.4 12.4 12.4V11.8C12.4 11.4817 12.2736 11.1765 12.0485 10.9515C11.8235 10.7264 11.5183 10.6 11.2 10.6H8.8V8.8C9.11826 8.8 9.42348 8.67357 9.64853 8.44853C9.87357 8.22348 10 7.91826 10 7.6V7H10.6C10.9183 7 11.2235 6.87357 11.4485 6.64853C11.6736 6.42348 11.8 6.11826 11.8 5.8V5.5534C13.5568 6.2668 14.8 7.99 14.8 10C14.7999 11.0588 14.4474 12.0875 13.798 12.9238Z" fill="#419958"/>
</svg>
