<svg width="20" height="20" viewBox="0 0 20 20" fill="none" xmlns="http://www.w3.org/2000/svg">
<path d="M12.0621 7.75C11.8518 7.74219 11.6415 7.68359 11.4312 7.57422C11.4156 7.56641 11.4001 7.55469 11.3845 7.53906C11.3689 7.52344 11.3572 7.51562 11.3494 7.51562C10.9989 7.75781 10.6854 8.03906 10.4089 8.35938C10.1324 8.67969 9.99416 8.97656 9.99416 9.25C9.99416 9.41406 10.0759 9.66406 10.2395 10H13.359C13.4602 10 13.5479 10.0371 13.6218 10.1113C13.6958 10.1855 13.7328 10.2734 13.7328 10.375V11.125C13.7328 11.2266 13.6958 11.3145 13.6218 11.3887C13.5479 11.4629 13.4602 11.5 13.359 11.5H12.9851L12.0855 15.6836C12.0621 15.7695 12.0154 15.8438 11.9453 15.9062C11.8752 15.9688 11.7973 16 11.7116 16H8.28838C8.19492 16 8.11313 15.9688 8.04303 15.9062C7.97293 15.8438 7.9262 15.7695 7.90283 15.6836L7.00321 11.5H6.62934C6.52809 11.5 6.44046 11.4629 6.36647 11.3887C6.29247 11.3145 6.25547 11.2266 6.25547 11.125V10.375C6.25547 10.2734 6.29247 10.1855 6.36647 10.1113C6.44046 10.0371 6.52809 10 6.62934 10H9.15295C9.21527 9.73438 9.24642 9.48438 9.24642 9.25C9.24642 8.95312 9.1919 8.63281 9.08285 8.28906C8.75572 7.90625 8.35848 7.60938 7.89115 7.39844C7.38487 7.8125 6.84743 7.85938 6.27884 7.53906C6.09191 7.4375 5.92444 7.33203 5.77645 7.22266C5.62847 7.11328 5.5019 6.99023 5.39674 6.85352C5.29159 6.7168 5.20202 6.59375 5.12803 6.48438C5.05403 6.375 4.99367 6.23242 4.94693 6.05664C4.9002 5.88086 4.8632 5.73438 4.83594 5.61719C4.80868 5.5 4.79116 5.33203 4.78337 5.11328C4.77558 4.89453 4.76974 4.7207 4.76584 4.5918C4.76195 4.46289 4.76 4.26562 4.76 4C4.93136 4.19531 5.14945 4.33594 5.41427 4.42188C5.67909 4.50781 5.94392 4.55859 6.20874 4.57422C6.47356 4.58984 6.73839 4.61523 7.00321 4.65039C7.26803 4.68555 7.52117 4.78125 7.76263 4.9375C8.00409 5.09375 8.19881 5.32031 8.3468 5.61719C8.44806 5.8125 8.49868 6.03125 8.49868 6.27344C8.49868 6.46875 8.45974 6.65234 8.38185 6.82422C8.74793 7.03516 9.03612 7.21875 9.24642 7.375C9.4022 7.49219 9.55798 7.67188 9.71376 7.91406C9.91627 7.48438 10.2823 7.10938 10.812 6.78906V6.77734C10.6173 6.06641 10.8276 5.53516 11.4429 5.18359C11.6844 5.05078 11.9122 4.94727 12.1264 4.87305C12.3406 4.79883 12.5587 4.76172 12.7806 4.76172C13.0026 4.76172 13.1954 4.77148 13.359 4.79102C13.5225 4.81055 13.7251 4.87305 13.9665 4.97852C14.208 5.08398 14.4027 5.17383 14.5507 5.24805C14.6987 5.32227 14.9245 5.44141 15.2283 5.60547C14.9713 5.65234 14.7415 5.76367 14.539 5.93945C14.3365 6.11523 14.1632 6.30469 14.0191 6.50781C13.875 6.71094 13.7212 6.91211 13.5576 7.11133C13.394 7.31055 13.1876 7.4707 12.9384 7.5918C12.6891 7.71289 12.397 7.76562 12.0621 7.75Z" fill="#419958"/>
</svg>
