<svg width="20" height="20" viewBox="0 0 20 20" fill="none" xmlns="http://www.w3.org/2000/svg">
<path d="M10 10.7778C10.4296 10.7778 10.7778 10.4296 10.7778 10C10.7778 9.57045 10.4296 9.22223 10 9.22223C9.57045 9.22223 9.22223 9.57045 9.22223 10C9.22223 10.4296 9.57045 10.7778 10 10.7778Z" stroke="#419958" stroke-width="2" stroke-linecap="round" stroke-linejoin="round"/>
<path d="M10 13.8889C12.1478 13.8889 13.8889 12.1478 13.8889 10C13.8889 7.85223 12.1478 6.11111 10 6.11111C7.85223 6.11111 6.11111 7.85223 6.11111 10C6.11111 12.1478 7.85223 13.8889 10 13.8889Z" stroke="#419958" stroke-width="2" stroke-linecap="round" stroke-linejoin="round"/>
<path d="M10 17C13.866 17 17 13.866 17 10C17 6.13401 13.866 3 10 3C6.13401 3 3 6.13401 3 10C3 13.866 6.13401 17 10 17Z" stroke="#419958" stroke-width="2" stroke-linecap="round" stroke-linejoin="round"/>
</svg>
