<svg width="20" height="20" viewBox="0 0 20 20" fill="none" xmlns="http://www.w3.org/2000/svg">
<path d="M6.1539 6.25564L6.52868 7.85194L6.1539 9.4413L7.54892 10.3019L8.4026 11.6969L9.99889 11.3222L11.5952 11.6969L12.4489 10.3019L13.8439 9.4413L13.4691 7.85194L13.8439 6.25564L12.4558 5.39503L11.5952 4L9.99889 4.38172L8.40954 4.00694L7.54198 5.39503L6.1539 6.25564ZM10.0058 10.6559C9.26955 10.6559 8.56342 10.3634 8.04279 9.84275C7.52215 9.32212 7.22966 8.61599 7.22966 7.8797C7.22966 7.14341 7.52215 6.43728 8.04279 5.91665C8.56342 5.39602 9.26955 5.10353 10.0058 5.10353C11.5327 5.10353 12.7751 6.34586 12.7751 7.87276C12.7751 9.41353 11.5327 10.6559 10.0058 10.6559ZM9.99195 9.96183C8.83984 9.96183 7.91677 9.03181 7.91677 7.8797C7.91677 6.73453 8.83984 5.79757 9.99195 5.79757C11.1441 5.79757 12.081 6.73453 12.081 7.8797C12.081 9.03181 11.1441 9.96183 9.99195 9.96183ZM12.6571 10.7253L11.7687 12.2799L10.3251 11.9537L12.081 16L13.0527 14.4731H14.7878L12.6571 10.7253ZM7.31295 10.7739L8.1805 12.3355L9.65881 11.9815L7.91677 16L6.94511 14.4731H5.21L7.31295 10.7739Z" fill="#419958"/>
</svg>
