<svg width="20" height="20" viewBox="0 0 20 20" fill="none" xmlns="http://www.w3.org/2000/svg">
<path d="M7.00882 6.18022L8.36043 7.52596L7.52596 8.36043L6.18022 7.00882L4.83448 8.36043L4 7.52596L5.35162 6.18022L4 4.83448L4.83448 4L6.18022 5.35162L7.52596 4L8.36043 4.83448L7.00882 6.18022ZM16 12.474L15.1655 11.6396L13.8198 12.9912L12.474 11.6396L11.6396 12.474L12.9912 13.8198L11.6396 15.1655L12.474 16L13.8198 14.6484L15.1655 16L16 15.1655L14.6484 13.8198L16 12.474ZM14.9363 6.9618L13.0441 9.41234L12.1156 8.66601L12.8031 7.78453C11.9262 7.96267 11.1081 8.35852 10.4241 8.93565C9.74021 9.51277 9.21242 10.2526 8.88932 11.0872C9.40082 11.456 9.76366 11.9955 9.91241 12.6083C10.0611 13.2212 9.986 13.867 9.70051 14.4293C9.41502 14.9916 8.93799 15.4333 8.35547 15.6749C7.77295 15.9164 7.12328 15.9419 6.52366 15.7466C5.92404 15.5513 5.41394 15.1482 5.08538 14.6099C4.75682 14.0716 4.63142 13.4337 4.73181 12.8111C4.8322 12.1885 5.15177 11.6223 5.63287 11.2146C6.11397 10.8069 6.72492 10.5846 7.35553 10.5877C7.5095 10.5883 7.66303 10.604 7.81391 10.6347C8.22105 9.62427 8.87114 8.72989 9.70657 8.0308C10.542 7.3317 11.537 6.84947 12.6033 6.62684L11.763 5.99216L12.5093 5.06366L14.9363 6.9618ZM8.82468 13.2321C8.82468 12.9416 8.73852 12.6575 8.57709 12.4159C8.41565 12.1743 8.1862 11.986 7.91775 11.8748C7.6493 11.7636 7.3539 11.7345 7.06892 11.7912C6.78393 11.8479 6.52215 11.9878 6.31669 12.1933C6.11123 12.3987 5.9713 12.6605 5.91462 12.9455C5.85793 13.2305 5.88702 13.5259 5.99822 13.7943C6.10941 14.0628 6.29772 14.2922 6.53932 14.4537C6.78092 14.6151 7.06496 14.7013 7.35553 14.7013C7.74518 14.7013 8.11886 14.5465 8.39438 14.271C8.6699 13.9955 8.82468 13.6218 8.82468 13.2321Z" fill="#419958"/>
</svg>
