<svg width="20" height="20" viewBox="0 0 20 20" fill="none" xmlns="http://www.w3.org/2000/svg">
<path fill-rule="evenodd" clip-rule="evenodd" d="M16 10C16 11.5913 15.3679 13.1174 14.2426 14.2426C13.1174 15.3679 11.5913 16 10 16C8.4087 16 6.88258 15.3679 5.75736 14.2426C4.63214 13.1174 4 11.5913 4 10C4 8.4087 4.63214 6.88258 5.75736 5.75736C6.88258 4.63214 8.4087 4 10 4C11.5913 4 13.1174 4.63214 14.2426 5.75736C15.3679 6.88258 16 8.4087 16 10ZM14.5 10C14.5 10.7448 14.3193 11.4467 13.999 12.0655L12.856 10.9218C13.0271 10.392 13.0474 9.82509 12.9145 9.2845L14.086 8.113C14.3515 8.68675 14.5 9.325 14.5 10ZM10.6263 12.9347L11.8112 14.1198C11.2405 14.371 10.6236 14.5006 10 14.5C9.34838 14.5008 8.70443 14.3595 8.113 14.086L9.2845 12.9145C9.7245 13.0223 10.1832 13.0292 10.6263 12.9347ZM7.1185 10.8377C6.97091 10.3296 6.9603 9.79137 7.08775 9.27775L7.02775 9.33775L5.88025 8.188C5.62885 8.75898 5.49934 9.37613 5.5 10C5.5 10.7155 5.66725 11.392 5.96425 11.9927L7.11925 10.8377H7.1185ZM7.9345 6.00025C8.57292 5.67026 9.28134 5.49869 10 5.5C10.7155 5.5 11.392 5.66725 11.9927 5.96425L10.8377 7.11925C10.2619 6.95153 9.64911 6.96015 9.07825 7.144L7.9345 6.001V6.00025ZM11.5 10C11.5 10.3978 11.342 10.7794 11.0607 11.0607C10.7794 11.342 10.3978 11.5 10 11.5C9.60218 11.5 9.22064 11.342 8.93934 11.0607C8.65804 10.7794 8.5 10.3978 8.5 10C8.5 9.60218 8.65804 9.22064 8.93934 8.93934C9.22064 8.65804 9.60218 8.5 10 8.5C10.3978 8.5 10.7794 8.65804 11.0607 8.93934C11.342 9.22064 11.5 9.60218 11.5 10Z" fill="#419958"/>
</svg>
